ISO-10303-21;
HEADER;

/* File generated by HOOPS Exchange Version 25.7.0 */

FILE_DESCRIPTION(('HOOPS Exchange Step'),'2;1');

FILE_NAME('D:/KDH/simVary/Ansys_Thermal/step_export_icepakfea/rotor_lam.step',
'2026-07-16T17:51:33+09:00',
('moa'),
('Unknown organisation'),
'HOOPS Exchange 2025.7',
'HOOPS Exchange',
'Unknown authorisation');

FILE_SCHEMA( ('AP242_MANAGED_MODEL_BASED_3D_ENGINEERING_MIM_LF {1 0 10303 442 1 1 4}') );

ENDSEC;

DATA;
#3=(NAMED_UNIT(*)PLANE_ANGLE_UNIT()SI_UNIT($,.RADIAN.));
#4=PLANE_ANGLE_MEASURE_WITH_UNIT(PLANE_ANGLE_MEASURE(0.0174532925),#3);
#5=(CONVERSION_BASED_UNIT('DEGREE',#4)NAMED_UNIT(#6)PLANE_ANGLE_UNIT());
#6=DIMENSIONAL_EXPONENTS(0.,0.,0.,0.,0.,0.,0.);
#7=(NAMED_UNIT(*)SI_UNIT($,.STERADIAN.)SOLID_ANGLE_UNIT());
#8=(LENGTH_UNIT()NAMED_UNIT(*)SI_UNIT(.MILLI.,.METRE.));
#9=UNCERTAINTY_MEASURE_WITH_UNIT(LENGTH_MEASURE(1.000000E-05),#8,'DISTANCE_ACCURACY_VALUE','Maximum Tolerance applied to model');
#10=(GEOMETRIC_REPRESENTATION_CONTEXT(3)GLOBAL_UNCERTAINTY_ASSIGNED_CONTEXT((#9))GLOBAL_UNIT_ASSIGNED_CONTEXT((#8,#5,#7))REPRESENTATION_CONTEXT('','Rotor_Lamination_1'));
#12=CARTESIAN_POINT('',(0.,0.,0.));
#13=DIRECTION('',(0.,0.,1.));
#14=DIRECTION('',(1.,0.,0.));
#15=AXIS2_PLACEMENT_3D('',#12,#13,#14);
#27=CARTESIAN_POINT('',(0.,0.,75.));
#28=DIRECTION('',(0.,0.,-1.));
#29=DIRECTION('',(-1.,0.,0.));
#30=AXIS2_PLACEMENT_3D('',#27,#28,#29);
#31=CYLINDRICAL_SURFACE('',#30,65.);
#32=CARTESIAN_POINT('',(45.961940777,45.961940777,75.));
#33=VERTEX_POINT('',#32);
#34=CARTESIAN_POINT('',(45.961940777,45.961940777,0.));
#35=VERTEX_POINT('',#34);
#36=CARTESIAN_POINT('',(45.961940777,45.961940777,75.));
#37=DIRECTION('',(0.,0.,-1.));
#38=VECTOR('',#37,75.);
#39=LINE('',#36,#38);
#40=EDGE_CURVE('',#33,#35,#39,.T.);
#41=ORIENTED_EDGE('',*,*,#40,.F.);
#42=CARTESIAN_POINT('',(65.,0.,75.));
#43=VERTEX_POINT('',#42);
#44=CARTESIAN_POINT('',(0.,0.,75.));
#45=DIRECTION('',(0.,0.,1.));
#46=DIRECTION('',(1.,0.,-0.));
#47=AXIS2_PLACEMENT_3D('',#44,#45,#46);
#48=CIRCLE('',#47,65.);
#49=EDGE_CURVE('',#43,#33,#48,.T.);
#50=ORIENTED_EDGE('',*,*,#49,.F.);
#51=CARTESIAN_POINT('',(65.,0.,0.));
#52=VERTEX_POINT('',#51);
#53=CARTESIAN_POINT('',(65.,0.,0.));
#54=DIRECTION('',(-0.,-0.,1.));
#55=VECTOR('',#54,75.);
#56=LINE('',#53,#55);
#57=EDGE_CURVE('',#52,#43,#56,.T.);
#58=ORIENTED_EDGE('',*,*,#57,.F.);
#59=CARTESIAN_POINT('',(0.,0.,0.));
#60=DIRECTION('',(0.,0.,1.));
#61=DIRECTION('',(1.,0.,0.));
#62=AXIS2_PLACEMENT_3D('',#59,#60,#61);
#63=CIRCLE('',#62,65.);
#64=EDGE_CURVE('',#52,#35,#63,.T.);
#65=ORIENTED_EDGE('',*,*,#64,.T.);
#66=EDGE_LOOP('',(#41,#50,#58,#65));
#67=FACE_BOUND('',#66,.T.);
#68=ADVANCED_FACE('',(#67),#31,.T.);
#69=CARTESIAN_POINT('',(0.,0.,75.));
#70=DIRECTION('',(0.,0.,-1.));
#71=DIRECTION('',(-1.,0.,0.));
#72=AXIS2_PLACEMENT_3D('',#69,#70,#71);
#73=CYLINDRICAL_SURFACE('',#72,22.225);
#74=CARTESIAN_POINT('',(15.715448212,15.715448212,0.));
#75=VERTEX_POINT('',#74);
#76=CARTESIAN_POINT('',(15.715448212,15.715448212,75.));
#77=VERTEX_POINT('',#76);
#78=CARTESIAN_POINT('',(15.715448212,15.715448212,0.));
#79=DIRECTION('',(-0.,-0.,1.));
#80=VECTOR('',#79,75.);
#81=LINE('',#78,#80);
#82=EDGE_CURVE('',#75,#77,#81,.T.);
#83=ORIENTED_EDGE('',*,*,#82,.F.);
#84=CARTESIAN_POINT('',(22.225,0.,0.));
#85=VERTEX_POINT('',#84);
#86=CARTESIAN_POINT('',(0.,0.,0.));
#87=DIRECTION('',(-0.,-0.,-1.));
#88=DIRECTION('',(1.,0.,0.));
#89=AXIS2_PLACEMENT_3D('',#86,#87,#88);
#90=CIRCLE('',#89,22.225);
#91=EDGE_CURVE('',#75,#85,#90,.T.);
#92=ORIENTED_EDGE('',*,*,#91,.T.);
#93=CARTESIAN_POINT('',(22.225,0.,75.));
#94=VERTEX_POINT('',#93);
#95=CARTESIAN_POINT('',(22.225,0.,75.));
#96=DIRECTION('',(0.,0.,-1.));
#97=VECTOR('',#96,75.);
#98=LINE('',#95,#97);
#99=EDGE_CURVE('',#94,#85,#98,.T.);
#100=ORIENTED_EDGE('',*,*,#99,.F.);
#101=CARTESIAN_POINT('',(0.,0.,75.));
#102=DIRECTION('',(0.,0.,1.));
#103=DIRECTION('',(1.,0.,-0.));
#104=AXIS2_PLACEMENT_3D('',#101,#102,#103);
#105=CIRCLE('',#104,22.225);
#106=EDGE_CURVE('',#94,#77,#105,.T.);
#107=ORIENTED_EDGE('',*,*,#106,.T.);
#108=EDGE_LOOP('',(#83,#92,#100,#107));
#109=FACE_BOUND('',#108,.T.);
#110=ADVANCED_FACE('',(#109),#73,.F.);
#111=CARTESIAN_POINT('',(43.840620434,43.840620434,75.));
#112=DIRECTION('',(0.,0.,-1.));
#113=DIRECTION('',(-1.,0.,0.));
#114=AXIS2_PLACEMENT_3D('',#111,#112,#113);
#115=CYLINDRICAL_SURFACE('',#114,2.55);
#116=CARTESIAN_POINT('',(45.643742726,45.643742726,0.));
#117=VERTEX_POINT('',#116);
#118=CARTESIAN_POINT('',(45.643742726,45.643742726,75.));
#119=VERTEX_POINT('',#118);
#120=CARTESIAN_POINT('',(45.643742726,45.643742726,0.));
#121=DIRECTION('',(-0.,-0.,1.));
#122=VECTOR('',#121,75.);
#123=LINE('',#120,#122);
#124=EDGE_CURVE('',#117,#119,#123,.T.);
#125=ORIENTED_EDGE('',*,*,#124,.F.);
#126=CARTESIAN_POINT('',(42.037498142,42.037498142,0.));
#127=VERTEX_POINT('',#126);
#128=CARTESIAN_POINT('',(43.840620434,43.840620434,0.));
#129=DIRECTION('',(-0.,-0.,-1.));
#130=DIRECTION('',(1.,0.,-0.));
#131=AXIS2_PLACEMENT_3D('',#128,#129,#130);
#132=CIRCLE('',#131,2.55);
#133=EDGE_CURVE('',#117,#127,#132,.T.);
#134=ORIENTED_EDGE('',*,*,#133,.T.);
#135=CARTESIAN_POINT('',(42.037498142,42.037498142,75.));
#136=VERTEX_POINT('',#135);
#137=CARTESIAN_POINT('',(42.037498142,42.037498142,75.));
#138=DIRECTION('',(0.,0.,-1.));
#139=VECTOR('',#138,75.);
#140=LINE('',#137,#139);
#141=EDGE_CURVE('',#136,#127,#140,.T.);
#142=ORIENTED_EDGE('',*,*,#141,.F.);
#143=CARTESIAN_POINT('',(43.840620434,43.840620434,75.));
#144=DIRECTION('',(0.,0.,1.));
#145=DIRECTION('',(1.,0.,-0.));
#146=AXIS2_PLACEMENT_3D('',#143,#144,#145);
#147=CIRCLE('',#146,2.55);
#148=EDGE_CURVE('',#136,#119,#147,.T.);
#149=ORIENTED_EDGE('',*,*,#148,.T.);
#150=EDGE_LOOP('',(#125,#134,#142,#149));
#151=FACE_BOUND('',#150,.T.);
#152=ADVANCED_FACE('',(#151),#115,.F.);
#153=CARTESIAN_POINT('',(0.,0.,75.));
#154=DIRECTION('',(0.,0.,1.));
#155=DIRECTION('',(1.,0.,0.));
#156=AXIS2_PLACEMENT_3D('',#153,#154,#155);
#157=PLANE('',#156);
#158=CARTESIAN_POINT('',(59.512105656,9.605469704,75.));
#159=VERTEX_POINT('',#158);
#160=CARTESIAN_POINT('',(48.873506236,35.289320708,75.));
#161=VERTEX_POINT('',#160);
#162=CARTESIAN_POINT('',(59.512105656,9.605469704,75.));
#163=DIRECTION('',(-0.382683432,0.923879533,0.));
#164=VECTOR('',#163,27.8);
#165=LINE('',#162,#164);
#166=EDGE_CURVE('',#159,#161,#165,.T.);
#167=ORIENTED_EDGE('',*,*,#166,.T.);
#168=CARTESIAN_POINT('',(52.352953021,37.503710616,75.));
#169=VERTEX_POINT('',#168);
#170=CARTESIAN_POINT('',(48.873506236,35.289320708,75.));
#171=DIRECTION('',(0.843639907,0.536909403,0.));
#172=VECTOR('',#171,4.124326927);
#173=LINE('',#170,#172);
#174=EDGE_CURVE('',#161,#169,#173,.T.);
#175=ORIENTED_EDGE('',*,*,#174,.T.);
#176=CARTESIAN_POINT('',(63.538256193,10.5,75.));
#177=VERTEX_POINT('',#176);
#178=CARTESIAN_POINT('',(52.352953021,37.503710616,75.));
#179=DIRECTION('',(0.382683432,-0.923879533,0.));
#180=VECTOR('',#179,29.22860575);
#181=LINE('',#178,#180);
#182=EDGE_CURVE('',#169,#177,#181,.T.);
#183=ORIENTED_EDGE('',*,*,#182,.T.);
#184=CARTESIAN_POINT('',(63.538256193,10.5,75.));
#185=DIRECTION('',(-0.976195779,-0.216891219,0.));
#186=VECTOR('',#185,4.124326927);
#187=LINE('',#184,#186);
#188=EDGE_CURVE('',#177,#159,#187,.T.);
#189=ORIENTED_EDGE('',*,*,#188,.T.);
#190=EDGE_LOOP('',(#167,#175,#183,#189));
#191=FACE_BOUND('',#190,.T.);
#192=CARTESIAN_POINT('',(37.321015544,15.4588708,75.));
#193=VERTEX_POINT('',#192);
#194=CARTESIAN_POINT('',(39.508099299,38.172604042,75.));
#195=VERTEX_POINT('',#194);
#196=CARTESIAN_POINT('',(37.321015544,15.4588708,75.));
#197=DIRECTION('',(0.095845753,0.995396198,0.));
#198=VECTOR('',#197,22.818786409);
#199=LINE('',#196,#198);
#200=EDGE_CURVE('',#193,#195,#199,.T.);
#201=ORIENTED_EDGE('',*,*,#200,.T.);
#202=CARTESIAN_POINT('',(41.426823676,39.659056723,75.));
#203=VERTEX_POINT('',#202);
#204=CARTESIAN_POINT('',(39.508099299,38.172604042,75.));
#205=DIRECTION('',(0.790526495,0.612427841,0.));
#206=VECTOR('',#205,2.427147463);
#207=LINE('',#204,#206);
#208=EDGE_CURVE('',#195,#203,#207,.T.);
#209=ORIENTED_EDGE('',*,*,#208,.T.);
#210=CARTESIAN_POINT('',(42.367283265,38.652759393,75.));
#211=VERTEX_POINT('',#210);
#212=CARTESIAN_POINT('',(-0.,-0.,75.));
#213=DIRECTION('',(0.,0.,-1.));
#214=DIRECTION('',(0.722350892,0.691526708,0.));
#215=AXIS2_PLACEMENT_3D('',#212,#213,#214);
#216=CIRCLE('',#215,57.35);
#217=EDGE_CURVE('',#203,#211,#216,.T.);
#218=ORIENTED_EDGE('',*,*,#217,.T.);
#219=CARTESIAN_POINT('',(40.250818753,16.672435024,75.));
#220=VERTEX_POINT('',#219);
#221=CARTESIAN_POINT('',(42.367283265,38.652759393,75.));
#222=DIRECTION('',(-0.095845753,-0.995396198,0.));
#223=VECTOR('',#222,22.08198545);
#224=LINE('',#221,#223);
#225=EDGE_CURVE('',#211,#220,#224,.T.);
#226=ORIENTED_EDGE('',*,*,#225,.T.);
#227=CARTESIAN_POINT('',(57.289821576,2.626565019,75.));
#228=VERTEX_POINT('',#227);
#229=CARTESIAN_POINT('',(40.250818753,16.672435024,75.));
#230=DIRECTION('',(0.771624583,-0.63607822,0.));
#231=VECTOR('',#230,22.08198545);
#232=LINE('',#229,#231);
#233=EDGE_CURVE('',#220,#228,#232,.T.);
#234=ORIENTED_EDGE('',*,*,#233,.T.);
#235=CARTESIAN_POINT('',(57.336375888,1.25,75.));
#236=VERTEX_POINT('',#235);
#237=CARTESIAN_POINT('',(114.626197464,3.876565019,75.));
#238=DIRECTION('',(0.,0.,1.));
#239=DIRECTION('',(-0.999762439,-0.02179599,0.));
#240=AXIS2_PLACEMENT_3D('',#237,#238,#239);
#241=CIRCLE('',#240,57.35);
#242=EDGE_CURVE('',#228,#236,#241,.T.);
#243=ORIENTED_EDGE('',*,*,#242,.T.);
#244=CARTESIAN_POINT('',(54.9285521,0.944337752,75.));
#245=VERTEX_POINT('',#244);
#246=CARTESIAN_POINT('',(57.336375888,1.25,75.));
#247=DIRECTION('',(-0.992038525,-0.125934766,0.));
#248=VECTOR('',#247,2.427147463);
#249=LINE('',#246,#248);
#250=EDGE_CURVE('',#236,#245,#249,.T.);
#251=ORIENTED_EDGE('',*,*,#250,.T.);
#252=CARTESIAN_POINT('',(54.9285521,0.944337752,75.));
#253=DIRECTION('',(-0.771624583,0.63607822,0.));
#254=VECTOR('',#253,22.818786409);
#255=LINE('',#252,#254);
#256=EDGE_CURVE('',#245,#193,#255,.T.);
#257=ORIENTED_EDGE('',*,*,#256,.T.);
#258=EDGE_LOOP('',(#201,#209,#218,#226,#234,#243,#251,#257));
#259=FACE_BOUND('',#258,.T.);
#260=CARTESIAN_POINT('',(24.596428654,12.234389333,75.));
#261=VERTEX_POINT('',#260);
#262=CARTESIAN_POINT('',(34.476428654,12.234389333,75.));
#263=VERTEX_POINT('',#262);
#264=CARTESIAN_POINT('',(29.536428654,12.234389333,75.));
#265=DIRECTION('',(0.,0.,1.));
#266=DIRECTION('',(1.,0.,-0.));
#267=AXIS2_PLACEMENT_3D('',#264,#265,#266);
#268=CIRCLE('',#267,4.94);
#269=EDGE_CURVE('',#261,#263,#268,.T.);
#270=ORIENTED_EDGE('',*,*,#269,.F.);
#271=CARTESIAN_POINT('',(29.536428654,12.234389333,75.));
#272=DIRECTION('',(0.,0.,1.));
#273=DIRECTION('',(1.,0.,-0.));
#274=AXIS2_PLACEMENT_3D('',#271,#272,#273);
#275=CIRCLE('',#274,4.94);
#276=EDGE_CURVE('',#263,#261,#275,.T.);
#277=ORIENTED_EDGE('',*,*,#276,.F.);
#278=EDGE_LOOP('',(#270,#277));
#279=FACE_BOUND('',#278,.T.);
#280=ORIENTED_EDGE('',*,*,#49,.T.);
#281=CARTESIAN_POINT('',(45.961940777,45.961940777,75.));
#282=DIRECTION('',(-0.707106781,-0.707106781,0.));
#283=VECTOR('',#282,0.45);
#284=LINE('',#281,#283);
#285=EDGE_CURVE('',#33,#119,#284,.T.);
#286=ORIENTED_EDGE('',*,*,#285,.T.);
#287=ORIENTED_EDGE('',*,*,#148,.F.);
#288=CARTESIAN_POINT('',(42.037498142,42.037498142,75.));
#289=DIRECTION('',(-0.707106781,-0.707106781,0.));
#290=VECTOR('',#289,37.225);
#291=LINE('',#288,#290);
#292=EDGE_CURVE('',#136,#77,#291,.T.);
#293=ORIENTED_EDGE('',*,*,#292,.T.);
#294=ORIENTED_EDGE('',*,*,#106,.F.);
#295=CARTESIAN_POINT('',(59.45,0.,75.));
#296=VERTEX_POINT('',#295);
#297=CARTESIAN_POINT('',(22.225,0.,75.));
#298=DIRECTION('',(1.,0.,-0.));
#299=VECTOR('',#298,37.225);
#300=LINE('',#297,#299);
#301=EDGE_CURVE('',#94,#296,#300,.T.);
#302=ORIENTED_EDGE('',*,*,#301,.T.);
#303=CARTESIAN_POINT('',(64.55,0.,75.));
#304=VERTEX_POINT('',#303);
#305=CARTESIAN_POINT('',(62.,0.,75.));
#306=DIRECTION('',(-0.,-0.,-1.));
#307=DIRECTION('',(1.,0.,-0.));
#308=AXIS2_PLACEMENT_3D('',#305,#306,#307);
#309=CIRCLE('',#308,2.55);
#310=EDGE_CURVE('',#296,#304,#309,.T.);
#311=ORIENTED_EDGE('',*,*,#310,.T.);
#312=CARTESIAN_POINT('',(64.55,0.,75.));
#313=DIRECTION('',(1.,0.,-0.));
#314=VECTOR('',#313,0.45);
#315=LINE('',#312,#314);
#316=EDGE_CURVE('',#304,#43,#315,.T.);
#317=ORIENTED_EDGE('',*,*,#316,.T.);
#318=EDGE_LOOP('',(#280,#286,#287,#293,#294,#302,#311,#317));
#319=FACE_BOUND('',#318,.T.);
#320=ADVANCED_FACE('',(#191,#259,#279,#319),#157,.T.);
#321=CARTESIAN_POINT('',(62.,0.,75.));
#322=DIRECTION('',(0.,0.,-1.));
#323=DIRECTION('',(-1.,0.,0.));
#324=AXIS2_PLACEMENT_3D('',#321,#322,#323);
#325=CYLINDRICAL_SURFACE('',#324,2.55);
#326=CARTESIAN_POINT('',(59.45,0.,0.));
#327=VERTEX_POINT('',#326);
#328=CARTESIAN_POINT('',(59.45,0.,0.));
#329=DIRECTION('',(-0.,-0.,1.));
#330=VECTOR('',#329,75.);
#331=LINE('',#328,#330);
#332=EDGE_CURVE('',#327,#296,#331,.T.);
#333=ORIENTED_EDGE('',*,*,#332,.F.);
#334=CARTESIAN_POINT('',(64.55,0.,0.));
#335=VERTEX_POINT('',#334);
#336=CARTESIAN_POINT('',(62.,0.,0.));
#337=DIRECTION('',(-0.,-0.,-1.));
#338=DIRECTION('',(1.,0.,-0.));
#339=AXIS2_PLACEMENT_3D('',#336,#337,#338);
#340=CIRCLE('',#339,2.55);
#341=EDGE_CURVE('',#327,#335,#340,.T.);
#342=ORIENTED_EDGE('',*,*,#341,.T.);
#343=CARTESIAN_POINT('',(64.55,0.,75.));
#344=DIRECTION('',(0.,0.,-1.));
#345=VECTOR('',#344,75.);
#346=LINE('',#343,#345);
#347=EDGE_CURVE('',#304,#335,#346,.T.);
#348=ORIENTED_EDGE('',*,*,#347,.F.);
#349=ORIENTED_EDGE('',*,*,#310,.F.);
#350=EDGE_LOOP('',(#333,#342,#348,#349));
#351=FACE_BOUND('',#350,.T.);
#352=ADVANCED_FACE('',(#351),#325,.F.);
#353=CARTESIAN_POINT('',(-0.,-0.,75.));
#354=DIRECTION('',(0.,0.,-1.));
#355=DIRECTION('',(-1.,0.,0.));
#356=AXIS2_PLACEMENT_3D('',#353,#354,#355);
#357=CYLINDRICAL_SURFACE('',#356,57.35);
#358=CARTESIAN_POINT('',(41.426823676,39.659056723,0.));
#359=VERTEX_POINT('',#358);
#360=CARTESIAN_POINT('',(41.426823676,39.659056723,75.));
#361=DIRECTION('',(0.,0.,-1.));
#362=VECTOR('',#361,75.);
#363=LINE('',#360,#362);
#364=EDGE_CURVE('',#203,#359,#363,.T.);
#365=ORIENTED_EDGE('',*,*,#364,.T.);
#366=CARTESIAN_POINT('',(42.367283265,38.652759393,0.));
#367=VERTEX_POINT('',#366);
#368=CARTESIAN_POINT('',(-0.,-0.,0.));
#369=DIRECTION('',(-0.,-0.,-1.));
#370=DIRECTION('',(1.,0.,-0.));
#371=AXIS2_PLACEMENT_3D('',#368,#369,#370);
#372=CIRCLE('',#371,57.35);
#373=EDGE_CURVE('',#359,#367,#372,.T.);
#374=ORIENTED_EDGE('',*,*,#373,.T.);
#375=CARTESIAN_POINT('',(42.367283265,38.652759393,75.));
#376=DIRECTION('',(0.,0.,-1.));
#377=VECTOR('',#376,75.);
#378=LINE('',#375,#377);
#379=EDGE_CURVE('',#211,#367,#378,.T.);
#380=ORIENTED_EDGE('',*,*,#379,.F.);
#381=ORIENTED_EDGE('',*,*,#217,.F.);
#382=EDGE_LOOP('',(#365,#374,#380,#381));
#383=FACE_BOUND('',#382,.T.);
#384=ADVANCED_FACE('',(#383),#357,.F.);
#385=CARTESIAN_POINT('',(42.367283265,38.652759393,75.));
#386=DIRECTION('',(0.995396198,-0.095845753,0.));
#387=DIRECTION('',(0.095845753,0.995396198,0.));
#388=AXIS2_PLACEMENT_3D('',#385,#386,#387);
#389=PLANE('',#388);
#390=ORIENTED_EDGE('',*,*,#379,.T.);
#391=CARTESIAN_POINT('',(40.250818753,16.672435024,0.));
#392=VERTEX_POINT('',#391);
#393=CARTESIAN_POINT('',(42.367283265,38.652759393,0.));
#394=DIRECTION('',(-0.095845753,-0.995396198,0.));
#395=VECTOR('',#394,22.08198545);
#396=LINE('',#393,#395);
#397=EDGE_CURVE('',#367,#392,#396,.T.);
#398=ORIENTED_EDGE('',*,*,#397,.T.);
#399=CARTESIAN_POINT('',(40.250818753,16.672435024,75.));
#400=DIRECTION('',(0.,0.,-1.));
#401=VECTOR('',#400,75.);
#402=LINE('',#399,#401);
#403=EDGE_CURVE('',#220,#392,#402,.T.);
#404=ORIENTED_EDGE('',*,*,#403,.F.);
#405=ORIENTED_EDGE('',*,*,#225,.F.);
#406=EDGE_LOOP('',(#390,#398,#404,#405));
#407=FACE_BOUND('',#406,.T.);
#408=ADVANCED_FACE('',(#407),#389,.F.);
#409=CARTESIAN_POINT('',(40.250818753,16.672435024,75.));
#410=DIRECTION('',(0.63607822,0.771624583,0.));
#411=DIRECTION('',(-0.771624583,0.63607822,0.));
#412=AXIS2_PLACEMENT_3D('',#409,#410,#411);
#413=PLANE('',#412);
#414=ORIENTED_EDGE('',*,*,#403,.T.);
#415=CARTESIAN_POINT('',(57.289821576,2.626565019,0.));
#416=VERTEX_POINT('',#415);
#417=CARTESIAN_POINT('',(40.250818753,16.672435024,0.));
#418=DIRECTION('',(0.771624583,-0.63607822,0.));
#419=VECTOR('',#418,22.08198545);
#420=LINE('',#417,#419);
#421=EDGE_CURVE('',#392,#416,#420,.T.);
#422=ORIENTED_EDGE('',*,*,#421,.T.);
#423=CARTESIAN_POINT('',(57.289821576,2.626565019,75.));
#424=DIRECTION('',(0.,0.,-1.));
#425=VECTOR('',#424,75.);
#426=LINE('',#423,#425);
#427=EDGE_CURVE('',#228,#416,#426,.T.);
#428=ORIENTED_EDGE('',*,*,#427,.F.);
#429=ORIENTED_EDGE('',*,*,#233,.F.);
#430=EDGE_LOOP('',(#414,#422,#428,#429));
#431=FACE_BOUND('',#430,.T.);
#432=ADVANCED_FACE('',(#431),#413,.F.);
#433=CARTESIAN_POINT('',(114.626197464,3.876565019,75.));
#434=DIRECTION('',(0.,0.,-1.));
#435=DIRECTION('',(-1.,0.,0.));
#436=AXIS2_PLACEMENT_3D('',#433,#434,#435);
#437=CYLINDRICAL_SURFACE('',#436,57.35);
#438=ORIENTED_EDGE('',*,*,#427,.T.);
#439=CARTESIAN_POINT('',(57.336375888,1.25,0.));
#440=VERTEX_POINT('',#439);
#441=CARTESIAN_POINT('',(114.626197464,3.876565019,0.));
#442=DIRECTION('',(0.,0.,1.));
#443=DIRECTION('',(1.,0.,-0.));
#444=AXIS2_PLACEMENT_3D('',#441,#442,#443);
#445=CIRCLE('',#444,57.35);
#446=EDGE_CURVE('',#416,#440,#445,.T.);
#447=ORIENTED_EDGE('',*,*,#446,.T.);
#448=CARTESIAN_POINT('',(57.336375888,1.25,75.));
#449=DIRECTION('',(0.,0.,-1.));
#450=VECTOR('',#449,75.);
#451=LINE('',#448,#450);
#452=EDGE_CURVE('',#236,#440,#451,.T.);
#453=ORIENTED_EDGE('',*,*,#452,.F.);
#454=ORIENTED_EDGE('',*,*,#242,.F.);
#455=EDGE_LOOP('',(#438,#447,#453,#454));
#456=FACE_BOUND('',#455,.T.);
#457=ADVANCED_FACE('',(#456),#437,.T.);
#458=CARTESIAN_POINT('',(57.336375888,1.25,75.));
#459=DIRECTION('',(0.125934766,-0.992038525,0.));
#460=DIRECTION('',(0.992038525,0.125934766,0.));
#461=AXIS2_PLACEMENT_3D('',#458,#459,#460);
#462=PLANE('',#461);
#463=ORIENTED_EDGE('',*,*,#452,.T.);
#464=CARTESIAN_POINT('',(54.9285521,0.944337752,0.));
#465=VERTEX_POINT('',#464);
#466=CARTESIAN_POINT('',(57.336375888,1.25,0.));
#467=DIRECTION('',(-0.992038525,-0.125934766,0.));
#468=VECTOR('',#467,2.427147463);
#469=LINE('',#466,#468);
#470=EDGE_CURVE('',#440,#465,#469,.T.);
#471=ORIENTED_EDGE('',*,*,#470,.T.);
#472=CARTESIAN_POINT('',(54.9285521,0.944337752,75.));
#473=DIRECTION('',(0.,0.,-1.));
#474=VECTOR('',#473,75.);
#475=LINE('',#472,#474);
#476=EDGE_CURVE('',#245,#465,#475,.T.);
#477=ORIENTED_EDGE('',*,*,#476,.F.);
#478=ORIENTED_EDGE('',*,*,#250,.F.);
#479=EDGE_LOOP('',(#463,#471,#477,#478));
#480=FACE_BOUND('',#479,.T.);
#481=ADVANCED_FACE('',(#480),#462,.F.);
#482=CARTESIAN_POINT('',(54.9285521,0.944337752,75.));
#483=DIRECTION('',(-0.63607822,-0.771624583,0.));
#484=DIRECTION('',(0.771624583,-0.63607822,0.));
#485=AXIS2_PLACEMENT_3D('',#482,#483,#484);
#486=PLANE('',#485);
#487=ORIENTED_EDGE('',*,*,#476,.T.);
#488=CARTESIAN_POINT('',(37.321015544,15.4588708,0.));
#489=VERTEX_POINT('',#488);
#490=CARTESIAN_POINT('',(54.9285521,0.944337752,0.));
#491=DIRECTION('',(-0.771624583,0.63607822,0.));
#492=VECTOR('',#491,22.818786409);
#493=LINE('',#490,#492);
#494=EDGE_CURVE('',#465,#489,#493,.T.);
#495=ORIENTED_EDGE('',*,*,#494,.T.);
#496=CARTESIAN_POINT('',(37.321015544,15.4588708,75.));
#497=DIRECTION('',(0.,0.,-1.));
#498=VECTOR('',#497,75.);
#499=LINE('',#496,#498);
#500=EDGE_CURVE('',#193,#489,#499,.T.);
#501=ORIENTED_EDGE('',*,*,#500,.F.);
#502=ORIENTED_EDGE('',*,*,#256,.F.);
#503=EDGE_LOOP('',(#487,#495,#501,#502));
#504=FACE_BOUND('',#503,.T.);
#505=ADVANCED_FACE('',(#504),#486,.F.);
#506=CARTESIAN_POINT('',(37.321015544,15.4588708,75.));
#507=DIRECTION('',(-0.995396198,0.095845753,0.));
#508=DIRECTION('',(-0.095845753,-0.995396198,0.));
#509=AXIS2_PLACEMENT_3D('',#506,#507,#508);
#510=PLANE('',#509);
#511=ORIENTED_EDGE('',*,*,#500,.T.);
#512=CARTESIAN_POINT('',(39.508099299,38.172604042,0.));
#513=VERTEX_POINT('',#512);
#514=CARTESIAN_POINT('',(37.321015544,15.4588708,0.));
#515=DIRECTION('',(0.095845753,0.995396198,0.));
#516=VECTOR('',#515,22.818786409);
#517=LINE('',#514,#516);
#518=EDGE_CURVE('',#489,#513,#517,.T.);
#519=ORIENTED_EDGE('',*,*,#518,.T.);
#520=CARTESIAN_POINT('',(39.508099299,38.172604042,75.));
#521=DIRECTION('',(0.,0.,-1.));
#522=VECTOR('',#521,75.);
#523=LINE('',#520,#522);
#524=EDGE_CURVE('',#195,#513,#523,.T.);
#525=ORIENTED_EDGE('',*,*,#524,.F.);
#526=ORIENTED_EDGE('',*,*,#200,.F.);
#527=EDGE_LOOP('',(#511,#519,#525,#526));
#528=FACE_BOUND('',#527,.T.);
#529=ADVANCED_FACE('',(#528),#510,.F.);
#530=CARTESIAN_POINT('',(39.508099299,38.172604042,75.));
#531=DIRECTION('',(-0.612427841,0.790526495,0.));
#532=DIRECTION('',(-0.790526495,-0.612427841,0.));
#533=AXIS2_PLACEMENT_3D('',#530,#531,#532);
#534=PLANE('',#533);
#535=ORIENTED_EDGE('',*,*,#524,.T.);
#536=CARTESIAN_POINT('',(39.508099299,38.172604042,0.));
#537=DIRECTION('',(0.790526495,0.612427841,0.));
#538=VECTOR('',#537,2.427147463);
#539=LINE('',#536,#538);
#540=EDGE_CURVE('',#513,#359,#539,.T.);
#541=ORIENTED_EDGE('',*,*,#540,.T.);
#542=ORIENTED_EDGE('',*,*,#364,.F.);
#543=ORIENTED_EDGE('',*,*,#208,.F.);
#544=EDGE_LOOP('',(#535,#541,#542,#543));
#545=FACE_BOUND('',#544,.T.);
#546=ADVANCED_FACE('',(#545),#534,.F.);
#547=CARTESIAN_POINT('',(57.945604607,24.001855308,75.));
#548=DIRECTION('',(0.923879533,0.382683432,0.));
#549=DIRECTION('',(-0.382683432,0.923879533,0.));
#550=AXIS2_PLACEMENT_3D('',#547,#548,#549);
#551=PLANE('',#550);
#552=CARTESIAN_POINT('',(52.352953021,37.503710616,0.));
#553=VERTEX_POINT('',#552);
#554=CARTESIAN_POINT('',(52.352953021,37.503710616,75.));
#555=DIRECTION('',(0.,0.,-1.));
#556=VECTOR('',#555,75.);
#557=LINE('',#554,#556);
#558=EDGE_CURVE('',#169,#553,#557,.T.);
#559=ORIENTED_EDGE('',*,*,#558,.T.);
#560=CARTESIAN_POINT('',(63.538256193,10.5,0.));
#561=VERTEX_POINT('',#560);
#562=CARTESIAN_POINT('',(52.352953021,37.503710616,0.));
#563=DIRECTION('',(0.382683432,-0.923879533,0.));
#564=VECTOR('',#563,29.22860575);
#565=LINE('',#562,#564);
#566=EDGE_CURVE('',#553,#561,#565,.T.);
#567=ORIENTED_EDGE('',*,*,#566,.T.);
#568=CARTESIAN_POINT('',(63.538256193,10.5,75.));
#569=DIRECTION('',(0.,0.,-1.));
#570=VECTOR('',#569,75.);
#571=LINE('',#568,#570);
#572=EDGE_CURVE('',#177,#561,#571,.T.);
#573=ORIENTED_EDGE('',*,*,#572,.F.);
#574=ORIENTED_EDGE('',*,*,#182,.F.);
#575=EDGE_LOOP('',(#559,#567,#573,#574));
#576=FACE_BOUND('',#575,.T.);
#577=ADVANCED_FACE('',(#576),#551,.F.);
#578=CARTESIAN_POINT('',(63.538256193,10.5,75.));
#579=DIRECTION('',(0.216891219,-0.976195779,0.));
#580=DIRECTION('',(0.976195779,0.216891219,0.));
#581=AXIS2_PLACEMENT_3D('',#578,#579,#580);
#582=PLANE('',#581);
#583=ORIENTED_EDGE('',*,*,#572,.T.);
#584=CARTESIAN_POINT('',(59.512105656,9.605469704,0.));
#585=VERTEX_POINT('',#584);
#586=CARTESIAN_POINT('',(63.538256193,10.5,0.));
#587=DIRECTION('',(-0.976195779,-0.216891219,0.));
#588=VECTOR('',#587,4.124326926);
#589=LINE('',#586,#588);
#590=EDGE_CURVE('',#561,#585,#589,.T.);
#591=ORIENTED_EDGE('',*,*,#590,.T.);
#592=CARTESIAN_POINT('',(59.512105656,9.605469704,75.));
#593=DIRECTION('',(0.,0.,-1.));
#594=VECTOR('',#593,75.);
#595=LINE('',#592,#594);
#596=EDGE_CURVE('',#159,#585,#595,.T.);
#597=ORIENTED_EDGE('',*,*,#596,.F.);
#598=ORIENTED_EDGE('',*,*,#188,.F.);
#599=EDGE_LOOP('',(#583,#591,#597,#598));
#600=FACE_BOUND('',#599,.T.);
#601=ADVANCED_FACE('',(#600),#582,.F.);
#602=CARTESIAN_POINT('',(54.192805946,22.447395206,75.));
#603=DIRECTION('',(-0.923879533,-0.382683432,0.));
#604=DIRECTION('',(0.382683432,-0.923879533,0.));
#605=AXIS2_PLACEMENT_3D('',#602,#603,#604);
#606=PLANE('',#605);
#607=ORIENTED_EDGE('',*,*,#596,.T.);
#608=CARTESIAN_POINT('',(48.873506236,35.289320708,0.));
#609=VERTEX_POINT('',#608);
#610=CARTESIAN_POINT('',(59.512105656,9.605469704,0.));
#611=DIRECTION('',(-0.382683432,0.923879533,0.));
#612=VECTOR('',#611,27.8);
#613=LINE('',#610,#612);
#614=EDGE_CURVE('',#585,#609,#613,.T.);
#615=ORIENTED_EDGE('',*,*,#614,.T.);
#616=CARTESIAN_POINT('',(48.873506236,35.289320708,75.));
#617=DIRECTION('',(0.,0.,-1.));
#618=VECTOR('',#617,75.);
#619=LINE('',#616,#618);
#620=EDGE_CURVE('',#161,#609,#619,.T.);
#621=ORIENTED_EDGE('',*,*,#620,.F.);
#622=ORIENTED_EDGE('',*,*,#166,.F.);
#623=EDGE_LOOP('',(#607,#615,#621,#622));
#624=FACE_BOUND('',#623,.T.);
#625=ADVANCED_FACE('',(#624),#606,.F.);
#626=CARTESIAN_POINT('',(48.873506236,35.289320708,75.));
#627=DIRECTION('',(-0.536909403,0.843639907,0.));
#628=DIRECTION('',(-0.843639907,-0.536909403,0.));
#629=AXIS2_PLACEMENT_3D('',#626,#627,#628);
#630=PLANE('',#629);
#631=ORIENTED_EDGE('',*,*,#620,.T.);
#632=CARTESIAN_POINT('',(48.873506236,35.289320708,0.));
#633=DIRECTION('',(0.843639907,0.536909403,0.));
#634=VECTOR('',#633,4.124326927);
#635=LINE('',#632,#634);
#636=EDGE_CURVE('',#609,#553,#635,.T.);
#637=ORIENTED_EDGE('',*,*,#636,.T.);
#638=ORIENTED_EDGE('',*,*,#558,.F.);
#639=ORIENTED_EDGE('',*,*,#174,.F.);
#640=EDGE_LOOP('',(#631,#637,#638,#639));
#641=FACE_BOUND('',#640,.T.);
#642=ADVANCED_FACE('',(#641),#630,.F.);
#643=CARTESIAN_POINT('',(29.536428654,12.234389333,75.));
#644=DIRECTION('',(0.,0.,-1.));
#645=DIRECTION('',(-1.,0.,0.));
#646=AXIS2_PLACEMENT_3D('',#643,#644,#645);
#647=CYLINDRICAL_SURFACE('',#646,4.94);
#648=CARTESIAN_POINT('',(24.596428654,12.234389333,0.));
#649=VERTEX_POINT('',#648);
#650=CARTESIAN_POINT('',(24.596428654,12.234389333,0.));
#651=DIRECTION('',(-0.,-0.,1.));
#652=VECTOR('',#651,75.);
#653=LINE('',#650,#652);
#654=EDGE_CURVE('',#649,#261,#653,.T.);
#655=ORIENTED_EDGE('',*,*,#654,.F.);
#656=CARTESIAN_POINT('',(34.476428654,12.234389333,0.));
#657=VERTEX_POINT('',#656);
#658=CARTESIAN_POINT('',(29.536428654,12.234389333,0.));
#659=DIRECTION('',(-0.,-0.,-1.));
#660=DIRECTION('',(1.,0.,-0.));
#661=AXIS2_PLACEMENT_3D('',#658,#659,#660);
#662=CIRCLE('',#661,4.94);
#663=EDGE_CURVE('',#649,#657,#662,.T.);
#664=ORIENTED_EDGE('',*,*,#663,.T.);
#665=CARTESIAN_POINT('',(29.536428654,12.234389333,0.));
#666=DIRECTION('',(-0.,-0.,-1.));
#667=DIRECTION('',(1.,0.,-0.));
#668=AXIS2_PLACEMENT_3D('',#665,#666,#667);
#669=CIRCLE('',#668,4.94);
#670=EDGE_CURVE('',#657,#649,#669,.T.);
#671=ORIENTED_EDGE('',*,*,#670,.T.);
#672=ORIENTED_EDGE('',*,*,#654,.T.);
#673=ORIENTED_EDGE('',*,*,#269,.T.);
#674=ORIENTED_EDGE('',*,*,#276,.T.);
#675=EDGE_LOOP('',(#655,#664,#671,#672,#673,#674));
#676=FACE_BOUND('',#675,.T.);
#677=ADVANCED_FACE('',(#676),#647,.F.);
#678=CARTESIAN_POINT('',(70.003571337,70.003571337,0.));
#679=DIRECTION('',(-0.707106781,0.707106781,0.));
#680=DIRECTION('',(-0.707106781,-0.707106781,0.));
#681=AXIS2_PLACEMENT_3D('',#678,#679,#680);
#682=PLANE('',#681);
#683=ORIENTED_EDGE('',*,*,#40,.T.);
#684=CARTESIAN_POINT('',(45.961940777,45.961940777,0.));
#685=DIRECTION('',(-0.707106781,-0.707106781,0.));
#686=VECTOR('',#685,0.45);
#687=LINE('',#684,#686);
#688=EDGE_CURVE('',#35,#117,#687,.T.);
#689=ORIENTED_EDGE('',*,*,#688,.T.);
#690=ORIENTED_EDGE('',*,*,#124,.T.);
#691=ORIENTED_EDGE('',*,*,#285,.F.);
#692=EDGE_LOOP('',(#683,#689,#690,#691));
#693=FACE_BOUND('',#692,.T.);
#694=ADVANCED_FACE('',(#693),#682,.T.);
#695=CARTESIAN_POINT('',(70.003571337,70.003571337,0.));
#696=DIRECTION('',(-0.707106781,0.707106781,0.));
#697=DIRECTION('',(-0.707106781,-0.707106781,0.));
#698=AXIS2_PLACEMENT_3D('',#695,#696,#697);
#699=PLANE('',#698);
#700=ORIENTED_EDGE('',*,*,#82,.T.);
#701=ORIENTED_EDGE('',*,*,#292,.F.);
#702=ORIENTED_EDGE('',*,*,#141,.T.);
#703=CARTESIAN_POINT('',(42.037498142,42.037498142,0.));
#704=DIRECTION('',(-0.707106781,-0.707106781,0.));
#705=VECTOR('',#704,37.225);
#706=LINE('',#703,#705);
#707=EDGE_CURVE('',#127,#75,#706,.T.);
#708=ORIENTED_EDGE('',*,*,#707,.T.);
#709=EDGE_LOOP('',(#700,#701,#702,#708));
#710=FACE_BOUND('',#709,.T.);
#711=ADVANCED_FACE('',(#710),#699,.T.);
#712=CARTESIAN_POINT('',(0.,0.,0.));
#713=DIRECTION('',(0.,0.,1.));
#714=DIRECTION('',(0.923879533,0.382683432,0.));
#715=AXIS2_PLACEMENT_3D('',#712,#713,#714);
#716=PLANE('',#715);
#717=ORIENTED_EDGE('',*,*,#663,.F.);
#718=ORIENTED_EDGE('',*,*,#670,.F.);
#719=EDGE_LOOP('',(#717,#718));
#720=FACE_BOUND('',#719,.T.);
#721=ORIENTED_EDGE('',*,*,#636,.F.);
#722=ORIENTED_EDGE('',*,*,#614,.F.);
#723=ORIENTED_EDGE('',*,*,#590,.F.);
#724=ORIENTED_EDGE('',*,*,#566,.F.);
#725=EDGE_LOOP('',(#721,#722,#723,#724));
#726=FACE_BOUND('',#725,.T.);
#727=ORIENTED_EDGE('',*,*,#540,.F.);
#728=ORIENTED_EDGE('',*,*,#518,.F.);
#729=ORIENTED_EDGE('',*,*,#494,.F.);
#730=ORIENTED_EDGE('',*,*,#470,.F.);
#731=ORIENTED_EDGE('',*,*,#446,.F.);
#732=ORIENTED_EDGE('',*,*,#421,.F.);
#733=ORIENTED_EDGE('',*,*,#397,.F.);
#734=ORIENTED_EDGE('',*,*,#373,.F.);
#735=EDGE_LOOP('',(#727,#728,#729,#730,#731,#732,#733,#734));
#736=FACE_BOUND('',#735,.T.);
#737=CARTESIAN_POINT('',(64.55,0.,0.));
#738=DIRECTION('',(1.,0.,0.));
#739=VECTOR('',#738,0.45);
#740=LINE('',#737,#739);
#741=EDGE_CURVE('',#335,#52,#740,.T.);
#742=ORIENTED_EDGE('',*,*,#741,.F.);
#743=ORIENTED_EDGE('',*,*,#341,.F.);
#744=CARTESIAN_POINT('',(22.225,0.,0.));
#745=DIRECTION('',(1.,0.,0.));
#746=VECTOR('',#745,37.225);
#747=LINE('',#744,#746);
#748=EDGE_CURVE('',#85,#327,#747,.T.);
#749=ORIENTED_EDGE('',*,*,#748,.F.);
#750=ORIENTED_EDGE('',*,*,#91,.F.);
#751=ORIENTED_EDGE('',*,*,#707,.F.);
#752=ORIENTED_EDGE('',*,*,#133,.F.);
#753=ORIENTED_EDGE('',*,*,#688,.F.);
#754=ORIENTED_EDGE('',*,*,#64,.F.);
#755=EDGE_LOOP('',(#742,#743,#749,#750,#751,#752,#753,#754));
#756=FACE_BOUND('',#755,.T.);
#757=ADVANCED_FACE('',(#720,#726,#736,#756),#716,.F.);
#758=CARTESIAN_POINT('',(0.,0.,0.));
#759=DIRECTION('',(0.,-1.,0.));
#760=DIRECTION('',(1.,0.,0.));
#761=AXIS2_PLACEMENT_3D('',#758,#759,#760);
#762=PLANE('',#761);
#763=ORIENTED_EDGE('',*,*,#99,.T.);
#764=ORIENTED_EDGE('',*,*,#748,.T.);
#765=ORIENTED_EDGE('',*,*,#332,.T.);
#766=ORIENTED_EDGE('',*,*,#301,.F.);
#767=EDGE_LOOP('',(#763,#764,#765,#766));
#768=FACE_BOUND('',#767,.T.);
#769=ADVANCED_FACE('',(#768),#762,.T.);
#770=CARTESIAN_POINT('',(0.,0.,0.));
#771=DIRECTION('',(0.,-1.,0.));
#772=DIRECTION('',(1.,0.,0.));
#773=AXIS2_PLACEMENT_3D('',#770,#771,#772);
#774=PLANE('',#773);
#775=ORIENTED_EDGE('',*,*,#57,.T.);
#776=ORIENTED_EDGE('',*,*,#316,.F.);
#777=ORIENTED_EDGE('',*,*,#347,.T.);
#778=ORIENTED_EDGE('',*,*,#741,.T.);
#779=EDGE_LOOP('',(#775,#776,#777,#778));
#780=FACE_BOUND('',#779,.T.);
#781=ADVANCED_FACE('',(#780),#774,.T.);
#782=CLOSED_SHELL('',(#68,#110,#152,#320,#352,#384,#408,#432,#457,#481,#505,#529,#546,#577,#601,#625,#642,#677,#694,#711,#757,#769,#781));
#783=MANIFOLD_SOLID_BREP('Rotor_Lamination_1',#782);
#784=COLOUR_RGB('',0.498039216,0.968627453,0.968627453);
#785=FILL_AREA_STYLE_COLOUR('',#784);
#786=FILL_AREA_STYLE('',(#785));
#787=SURFACE_STYLE_FILL_AREA(#786);
#788=SURFACE_SIDE_STYLE('',(#787));
#789=SURFACE_STYLE_USAGE(.BOTH.,#788);
#790=PRESENTATION_STYLE_ASSIGNMENT((#789));
#26=STYLED_ITEM('',(#790),#783);
#791=REAL_REPRESENTATION_ITEM('AEDT_Translucency_V1',0.8);
#792=ID_ATTRIBUTE('SA #793',#793);
#793=SHAPE_ASPECT('properties','',#23,.F.);
#794=GEOMETRIC_ITEM_SPECIFIC_USAGE('','properties',#793,#17,#783);
#795=PROPERTY_DEFINITION('AEDT_Translucency_V1','',#793);
#796=REPRESENTATION('',(#791),#10);
#797=PROPERTY_DEFINITION_REPRESENTATION(#795,#796);
#798=GENERAL_PROPERTY('','AEDT_Translucency_V1','');
#799=GENERAL_PROPERTY_ASSOCIATION('','',#798,#795);
#800=DESCRIPTIVE_REPRESENTATION_ITEM('AEDT_MaterialName_V1','M350-50A_20C');
#801=PROPERTY_DEFINITION('AEDT_MaterialName_V1','',#793);
#802=REPRESENTATION('',(#800),#10);
#803=PROPERTY_DEFINITION_REPRESENTATION(#801,#802);
#804=GENERAL_PROPERTY('','AEDT_MaterialName_V1','');
#805=GENERAL_PROPERTY_ASSOCIATION('','',#804,#801);
#806=INTEGER_REPRESENTATION_ITEM('AEDT_BODYFlagGroupColor_V1',0);
#807=INTEGER_REPRESENTATION_ITEM('AEDT_BODYFlagGroupColor_V1',-1);
#808=INTEGER_REPRESENTATION_ITEM('AEDT_BODYFlagGroupColor_V1',-2139097097);
#809=INTEGER_REPRESENTATION_ITEM('AEDT_BODYFlagGroupColor_V1',5);
#810=PROPERTY_DEFINITION('AEDT_BODYFlagGroupColor_V1','',#793);
#811=REPRESENTATION('',(#806,#807,#808,#809),#10);
#812=PROPERTY_DEFINITION_REPRESENTATION(#810,#811);
#813=GENERAL_PROPERTY('','AEDT_BODYFlagGroupColor_V1','');
#814=GENERAL_PROPERTY_ASSOCIATION('','',#813,#810);
#815=DESCRIPTIVE_REPRESENTATION_ITEM('AEDT_EntityName_V1','Rotor_Lamination_1');
#816=PROPERTY_DEFINITION('AEDT_EntityName_V1','',#793);
#817=REPRESENTATION('',(#815),#10);
#818=PROPERTY_DEFINITION_REPRESENTATION(#816,#817);
#819=GENERAL_PROPERTY('','AEDT_EntityName_V1','');
#820=GENERAL_PROPERTY_ASSOCIATION('','',#819,#816);
#16=SHAPE_REPRESENTATION('Rotor_Lamination_1',(#15),#10);
#17=ADVANCED_BREP_SHAPE_REPRESENTATION('Rotor_Lamination_1',(#783),#10);
#828=SHAPE_REPRESENTATION_RELATIONSHIP('','',#16,#17);
#829=CARTESIAN_POINT('',(0.,0.,0.));
#830=DIRECTION('',(0.,0.,1.));
#831=DIRECTION('',(1.,0.,0.));
#832=AXIS2_PLACEMENT_3D('',#829,#830,#831);
#834=MAPPED_ITEM('',#833,#832);
#833=REPRESENTATION_MAP(#832,#16);
#835=APPLICATION_CONTEXT('Managed model based 3d engineering');
#836=APPLICATION_PROTOCOL_DEFINITION('international standard','ap242_managed_model_based_3d_engineering',2014,#835);
#837=PRODUCT_CONTEXT('',#835,'mechanical');
#838=PRODUCT_DEFINITION_CONTEXT('part definition',#835,'design');
#24=PRODUCT('Rotor_Lamination_1','Rotor_Lamination_1','',(#837));
#839=PRODUCT_RELATED_PRODUCT_CATEGORY('part','',(#24));
#840=PRODUCT_DEFINITION_FORMATION_WITH_SPECIFIED_SOURCE('','',#24,.NOT_KNOWN.);
#25=PRODUCT_DEFINITION('design','',#840,#838);
#23=PRODUCT_DEFINITION_SHAPE('','',#25);
#841=SHAPE_DEFINITION_REPRESENTATION(#23,#16);
#11=DRAUGHTING_MODEL('',(#834),#10);
#842=DESCRIPTIVE_REPRESENTATION_ITEM('KEY','C:/Users/moa/AppData/Local/Temp/rotor_lam_intermediate.x_b');
#843=PROPERTY_DEFINITION('KEY','',#25);
#844=REPRESENTATION('',(#842),#10);
#845=PROPERTY_DEFINITION_REPRESENTATION(#843,#844);
#846=GENERAL_PROPERTY('','KEY','');
#847=GENERAL_PROPERTY_ASSOCIATION('','',#846,#843);
#1=MECHANICAL_DESIGN_GEOMETRIC_PRESENTATION_REPRESENTATION('',(#26),#10);
ENDSEC;
END-ISO-10303-21;
