ISO-10303-21;
HEADER;

/* File generated by HOOPS Exchange Version 25.7.0 */

FILE_DESCRIPTION(('HOOPS Exchange Step'),'2;1');

FILE_NAME('D:/KDH/simVary/Ansys_Thermal/step_export_icepakfea/stator_lam.step',
'2026-07-16T17:51:30+09:00',
('moa'),
('Unknown organisation'),
'HOOPS Exchange 2025.7',
'HOOPS Exchange',
'Unknown authorisation');

FILE_SCHEMA( ('AP242_MANAGED_MODEL_BASED_3D_ENGINEERING_MIM_LF {1 0 10303 442 1 1 4}') );

ENDSEC;

DATA;
#3=(NAMED_UNIT(*)PLANE_ANGLE_UNIT()SI_UNIT($,.RADIAN.));
#4=PLANE_ANGLE_MEASURE_WITH_UNIT(PLANE_ANGLE_MEASURE(0.0174532925),#3);
#5=(CONVERSION_BASED_UNIT('DEGREE',#4)NAMED_UNIT(#6)PLANE_ANGLE_UNIT());
#6=DIMENSIONAL_EXPONENTS(0.,0.,0.,0.,0.,0.,0.);
#7=(NAMED_UNIT(*)SI_UNIT($,.STERADIAN.)SOLID_ANGLE_UNIT());
#8=(LENGTH_UNIT()NAMED_UNIT(*)SI_UNIT(.MILLI.,.METRE.));
#9=UNCERTAINTY_MEASURE_WITH_UNIT(LENGTH_MEASURE(1.000000E-05),#8,'DISTANCE_ACCURACY_VALUE','Maximum Tolerance applied to model');
#10=(GEOMETRIC_REPRESENTATION_CONTEXT(3)GLOBAL_UNCERTAINTY_ASSIGNED_CONTEXT((#9))GLOBAL_UNIT_ASSIGNED_CONTEXT((#8,#5,#7))REPRESENTATION_CONTEXT('','Stator_Lamination_1'));
#12=CARTESIAN_POINT('',(0.,0.,0.));
#13=DIRECTION('',(0.,0.,1.));
#14=DIRECTION('',(1.,0.,0.));
#15=AXIS2_PLACEMENT_3D('',#12,#13,#14);
#27=CARTESIAN_POINT('',(0.,0.,75.));
#28=DIRECTION('',(0.,0.,1.));
#29=DIRECTION('',(1.,0.,0.));
#30=AXIS2_PLACEMENT_3D('',#27,#28,#29);
#31=PLANE('',#30);
#32=CARTESIAN_POINT('',(99.,0.,75.));
#33=VERTEX_POINT('',#32);
#34=CARTESIAN_POINT('',(70.003571337,70.003571337,75.));
#35=VERTEX_POINT('',#34);
#36=CARTESIAN_POINT('',(0.,0.,75.));
#37=DIRECTION('',(0.,0.,1.));
#38=DIRECTION('',(1.,0.,-0.));
#39=AXIS2_PLACEMENT_3D('',#36,#37,#38);
#40=CIRCLE('',#39,99.);
#41=EDGE_CURVE('',#33,#35,#40,.T.);
#42=ORIENTED_EDGE('',*,*,#41,.T.);
#43=CARTESIAN_POINT('',(46.669047558,46.669047558,75.));
#44=VERTEX_POINT('',#43);
#45=CARTESIAN_POINT('',(70.003571337,70.003571337,75.));
#46=DIRECTION('',(-0.707106781,-0.707106781,0.));
#47=VECTOR('',#46,33.);
#48=LINE('',#45,#47);
#49=EDGE_CURVE('',#35,#44,#48,.T.);
#50=ORIENTED_EDGE('',*,*,#49,.T.);
#51=CARTESIAN_POINT('',(48.682450853,44.564772848,75.));
#52=VERTEX_POINT('',#51);
#53=CARTESIAN_POINT('',(-0.,-0.,75.));
#54=DIRECTION('',(-0.,0.,-1.));
#55=DIRECTION('',(0.707106781,0.707106781,0.));
#56=AXIS2_PLACEMENT_3D('',#53,#54,#55);
#57=CIRCLE('',#56,66.);
#58=EDGE_CURVE('',#44,#52,#57,.T.);
#59=ORIENTED_EDGE('',*,*,#58,.T.);
#60=CARTESIAN_POINT('',(49.584658622,45.355987826,75.));
#61=VERTEX_POINT('',#60);
#62=CARTESIAN_POINT('',(48.682450853,44.564772848,75.));
#63=DIRECTION('',(0.751839807,0.659345815,-0.));
#64=VECTOR('',#63,1.2);
#65=LINE('',#62,#64);
#66=EDGE_CURVE('',#52,#61,#65,.T.);
#67=ORIENTED_EDGE('',*,*,#66,.T.);
#68=CARTESIAN_POINT('',(49.322547192,46.38805405,75.));
#69=VERTEX_POINT('',#68);
#70=CARTESIAN_POINT('',(49.584658622,45.355987826,75.));
#71=DIRECTION('',(-0.246153293,0.96923091,-0.));
#72=VECTOR('',#71,1.064830076);
#73=LINE('',#70,#72);
#74=EDGE_CURVE('',#61,#69,#73,.T.);
#75=ORIENTED_EDGE('',*,*,#74,.T.);
#76=CARTESIAN_POINT('',(61.573004927,58.638511785,75.));
#77=VERTEX_POINT('',#76);
#78=CARTESIAN_POINT('',(49.322547192,46.38805405,75.));
#79=DIRECTION('',(0.707106781,0.707106781,-0.));
#80=VECTOR('',#79,17.324763474);
#81=LINE('',#78,#80);
#82=EDGE_CURVE('',#69,#77,#81,.T.);
#83=ORIENTED_EDGE('',*,*,#82,.T.);
#84=CARTESIAN_POINT('',(64.467529147,58.569170096,75.));
#85=VERTEX_POINT('',#84);
#86=CARTESIAN_POINT('',(62.987218489,57.224298222,75.));
#87=DIRECTION('',(-0.,0.,-1.));
#88=DIRECTION('',(0.740155329,0.672435937,0.));
#89=AXIS2_PLACEMENT_3D('',#86,#87,#88);
#90=CIRCLE('',#89,2.);
#91=EDGE_CURVE('',#77,#85,#90,.T.);
#92=ORIENTED_EDGE('',*,*,#91,.T.);
#93=CARTESIAN_POINT('',(66.482803828,56.271189744,75.));
#94=VERTEX_POINT('',#93);
#95=CARTESIAN_POINT('',(-0.,-0.,75.));
#96=DIRECTION('',(-0.,0.,-1.));
#97=DIRECTION('',(0.751839807,0.659345815,0.));
#98=AXIS2_PLACEMENT_3D('',#95,#96,#97);
#99=CIRCLE('',#98,87.1);
#100=EDGE_CURVE('',#85,#94,#99,.T.);
#101=ORIENTED_EDGE('',*,*,#100,.T.);
#102=CARTESIAN_POINT('',(66.173741064,53.392377673,75.));
#103=VERTEX_POINT('',#102);
#104=CARTESIAN_POINT('',(64.956218206,54.979084354,75.));
#105=DIRECTION('',(-0.,-0.,-1.));
#106=DIRECTION('',(0.608761429,-0.79335334,0.));
#107=AXIS2_PLACEMENT_3D('',#104,#105,#106);
#108=CIRCLE('',#107,2.);
#109=EDGE_CURVE('',#94,#103,#108,.T.);
#110=ORIENTED_EDGE('',*,*,#109,.T.);
#111=CARTESIAN_POINT('',(52.429082092,42.845729903,75.));
#112=VERTEX_POINT('',#111);
#113=CARTESIAN_POINT('',(66.173741064,53.392377673,75.));
#114=DIRECTION('',(-0.79335334,-0.608761429,-0.));
#115=VECTOR('',#114,17.324763474);
#116=LINE('',#113,#115);
#117=EDGE_CURVE('',#103,#112,#116,.T.);
#118=ORIENTED_EDGE('',*,*,#117,.T.);
#119=CARTESIAN_POINT('',(51.440057745,43.240310608,75.));
#120=VERTEX_POINT('',#119);
#121=CARTESIAN_POINT('',(52.429082092,42.845729903,75.));
#122=DIRECTION('',(-0.928809553,0.370557438,-0.));
#123=VECTOR('',#122,1.064830076);
#124=LINE('',#121,#123);
#125=EDGE_CURVE('',#112,#120,#124,.T.);
#126=ORIENTED_EDGE('',*,*,#125,.T.);
#127=CARTESIAN_POINT('',(50.537849976,42.44909563,75.));
#128=VERTEX_POINT('',#127);
#129=CARTESIAN_POINT('',(51.440057745,43.240310608,75.));
#130=DIRECTION('',(-0.751839807,-0.659345815,-0.));
#131=VECTOR('',#130,1.2);
#132=LINE('',#129,#131);
#133=EDGE_CURVE('',#120,#128,#132,.T.);
#134=ORIENTED_EDGE('',*,*,#133,.T.);
#135=CARTESIAN_POINT('',(54.082835844,37.829180101,75.));
#136=VERTEX_POINT('',#135);
#137=CARTESIAN_POINT('',(0.,0.,75.));
#138=DIRECTION('',(-0.,0.,-1.));
#139=DIRECTION('',(0.79335334,0.608761429,0.));
#140=AXIS2_PLACEMENT_3D('',#137,#138,#139);
#141=CIRCLE('',#140,66.);
#142=EDGE_CURVE('',#128,#136,#141,.T.);
#143=ORIENTED_EDGE('',*,*,#142,.T.);
#144=CARTESIAN_POINT('',(55.080599379,38.49586438,75.));
#145=VERTEX_POINT('',#144);
#146=CARTESIAN_POINT('',(54.082835844,37.829180101,75.));
#147=DIRECTION('',(0.831469612,0.555570233,-0.));
#148=VECTOR('',#147,1.2);
#149=LINE('',#146,#148);
#150=EDGE_CURVE('',#136,#145,#149,.T.);
#151=ORIENTED_EDGE('',*,*,#150,.T.);
#152=CARTESIAN_POINT('',(54.955442023,39.553313541,75.));
#153=VERTEX_POINT('',#152);
#154=CARTESIAN_POINT('',(55.080599379,38.49586438,75.));
#155=DIRECTION('',(-0.117537397,0.993068457,-0.));
#156=VECTOR('',#155,1.064830076);
#157=LINE('',#154,#156);
#158=EDGE_CURVE('',#145,#153,#157,.T.);
#159=ORIENTED_EDGE('',*,*,#158,.T.);
#160=CARTESIAN_POINT('',(68.700100995,50.099961311,75.));
#161=VERTEX_POINT('',#160);
#162=CARTESIAN_POINT('',(54.955442023,39.553313541,75.));
#163=DIRECTION('',(0.79335334,0.608761429,-0.));
#164=VECTOR('',#163,17.324763474);
#165=LINE('',#162,#164);
#166=EDGE_CURVE('',#153,#161,#165,.T.);
#167=ORIENTED_EDGE('',*,*,#166,.T.);
#168=CARTESIAN_POINT('',(71.560811252,49.653401625,75.));
#169=VERTEX_POINT('',#168);
#170=CARTESIAN_POINT('',(69.917623853,48.51325463,75.));
#171=DIRECTION('',(-0.,0.,-1.));
#172=DIRECTION('',(0.8215937,0.570073497,0.));
#173=AXIS2_PLACEMENT_3D('',#170,#171,#172);
#174=CIRCLE('',#173,2.);
#175=EDGE_CURVE('',#161,#169,#174,.T.);
#176=ORIENTED_EDGE('',*,*,#175,.T.);
#177=CARTESIAN_POINT('',(73.258898354,47.112034683,75.));
#178=VERTEX_POINT('',#177);
#179=CARTESIAN_POINT('',(-0.,-0.,75.));
#180=DIRECTION('',(-0.,0.,-1.));
#181=DIRECTION('',(0.831469612,0.555570233,0.));
#182=AXIS2_PLACEMENT_3D('',#179,#180,#181);
#183=CIRCLE('',#182,87.1);
#184=EDGE_CURVE('',#169,#178,#183,.T.);
#185=ORIENTED_EDGE('',*,*,#184,.T.);
#186=CARTESIAN_POINT('',(72.576719287,44.298192034,75.));
#187=VERTEX_POINT('',#186);
#188=CARTESIAN_POINT('',(71.576719287,46.030242842,75.));
#189=DIRECTION('',(-0.,-0.,-1.));
#190=DIRECTION('',(0.5,-0.866025404,0.));
#191=AXIS2_PLACEMENT_3D('',#188,#189,#190);
#192=CIRCLE('',#191,2.);
#193=EDGE_CURVE('',#178,#187,#192,.T.);
#194=ORIENTED_EDGE('',*,*,#193,.T.);
#195=CARTESIAN_POINT('',(57.573034004,35.635810298,75.));
#196=VERTEX_POINT('',#195);
#197=CARTESIAN_POINT('',(72.576719287,44.298192034,75.));
#198=DIRECTION('',(-0.866025404,-0.5,-0.));
#199=VECTOR('',#198,17.324763474);
#200=LINE('',#197,#199);
#201=EDGE_CURVE('',#187,#196,#200,.T.);
#202=ORIENTED_EDGE('',*,*,#201,.T.);
#203=CARTESIAN_POINT('',(56.643974014,36.156108891,75.));
#204=VERTEX_POINT('',#203);
#205=CARTESIAN_POINT('',(57.573034004,35.635810298,75.));
#206=DIRECTION('',(-0.872496007,0.488621241,-0.));
#207=VECTOR('',#206,1.064830076);
#208=LINE('',#205,#207);
#209=EDGE_CURVE('',#196,#204,#208,.T.);
#210=ORIENTED_EDGE('',*,*,#209,.T.);
#211=CARTESIAN_POINT('',(55.64621048,35.489424612,75.));
#212=VERTEX_POINT('',#211);
#213=CARTESIAN_POINT('',(56.643974014,36.156108891,75.));
#214=DIRECTION('',(-0.831469612,-0.555570233,-0.));
#215=VECTOR('',#214,1.2);
#216=LINE('',#213,#215);
#217=EDGE_CURVE('',#204,#212,#216,.T.);
#218=ORIENTED_EDGE('',*,*,#217,.T.);
#219=CARTESIAN_POINT('',(58.557848519,30.446319594,75.));
#220=VERTEX_POINT('',#219);
#221=CARTESIAN_POINT('',(-0.,-0.,75.));
#222=DIRECTION('',(-0.,0.,-1.));
#223=DIRECTION('',(0.866025404,0.5,0.));
#224=AXIS2_PLACEMENT_3D('',#221,#222,#223);
#225=CIRCLE('',#224,66.);
#226=EDGE_CURVE('',#212,#220,#225,.T.);
#227=ORIENTED_EDGE('',*,*,#226,.T.);
#228=CARTESIAN_POINT('',(59.634095809,30.977066022,75.));
#229=VERTEX_POINT('',#228);
#230=CARTESIAN_POINT('',(58.557848519,30.446319594,75.));
#231=DIRECTION('',(0.896872742,0.44228869,-0.));
#232=VECTOR('',#231,1.2);
#233=LINE('',#230,#232);
#234=EDGE_CURVE('',#220,#229,#233,.T.);
#235=ORIENTED_EDGE('',*,*,#234,.T.);
#236=CARTESIAN_POINT('',(59.648034004,32.041804872,75.));
#237=VERTEX_POINT('',#236);
#238=CARTESIAN_POINT('',(59.634095809,30.977066022,75.));
#239=DIRECTION('',(0.013089596,0.999914328,-0.));
#240=VECTOR('',#239,1.064830076);
#241=LINE('',#238,#240);
#242=EDGE_CURVE('',#229,#237,#241,.T.);
#243=ORIENTED_EDGE('',*,*,#242,.T.);
#244=CARTESIAN_POINT('',(74.651719287,40.704186609,75.));
#245=VERTEX_POINT('',#244);
#246=CARTESIAN_POINT('',(59.648034004,32.041804872,75.));
#247=DIRECTION('',(0.866025404,0.5,-0.));
#248=VECTOR('',#247,17.324763474);
#249=LINE('',#246,#248);
#250=EDGE_CURVE('',#237,#245,#249,.T.);
#251=ORIENTED_EDGE('',*,*,#250,.T.);
#252=CARTESIAN_POINT('',(77.429668037,39.888049686,75.));
#253=VERTEX_POINT('',#252);
#254=CARTESIAN_POINT('',(75.651719287,38.972135801,75.));
#255=DIRECTION('',(-0.,0.,-1.));
#256=DIRECTION('',(0.888974375,0.457956942,0.));
#257=AXIS2_PLACEMENT_3D('',#254,#255,#256);
#258=CIRCLE('',#257,2.);
#259=EDGE_CURVE('',#245,#253,#258,.T.);
#260=ORIENTED_EDGE('',*,*,#259,.T.);
#261=CARTESIAN_POINT('',(78.781512818,37.146779647,75.));
#262=VERTEX_POINT('',#261);
#263=CARTESIAN_POINT('',(0.000000001,0.,75.));
#264=DIRECTION('',(-0.,0.,-1.));
#265=DIRECTION('',(0.896872742,0.44228869,0.));
#266=AXIS2_PLACEMENT_3D('',#263,#264,#265);
#267=CIRCLE('',#266,87.099999999);
#268=EDGE_CURVE('',#253,#262,#267,.T.);
#269=ORIENTED_EDGE('',*,*,#268,.T.);
#270=CARTESIAN_POINT('',(77.737889721,34.446052048,75.));
#271=VERTEX_POINT('',#270);
#272=CARTESIAN_POINT('',(76.972522856,36.293811113,75.));
#273=DIRECTION('',(-0.,-0.,-1.));
#274=DIRECTION('',(0.382683432,-0.923879533,0.));
#275=AXIS2_PLACEMENT_3D('',#272,#273,#274);
#276=CIRCLE('',#275,2.);
#277=EDGE_CURVE('',#262,#271,#276,.T.);
#278=ORIENTED_EDGE('',*,*,#277,.T.);
#279=CARTESIAN_POINT('',(61.731895342,27.816152097,75.));
#280=VERTEX_POINT('',#279);
#281=CARTESIAN_POINT('',(77.737889721,34.446052048,75.));
#282=DIRECTION('',(-0.923879533,-0.382683432,-0.));
#283=VECTOR('',#282,17.324763474);
#284=LINE('',#281,#283);
#285=EDGE_CURVE('',#271,#280,#284,.T.);
#286=ORIENTED_EDGE('',*,*,#285,.T.);
#287=CARTESIAN_POINT('',(60.878696183,28.453266127,75.));
#288=VERTEX_POINT('',#287);
#289=CARTESIAN_POINT('',(61.731895342,27.816152097,75.));
#290=DIRECTION('',(-0.801253813,0.598324601,-0.));
#291=VECTOR('',#290,1.064830076);
#292=LINE('',#289,#291);
#293=EDGE_CURVE('',#280,#288,#292,.T.);
#294=ORIENTED_EDGE('',*,*,#293,.T.);
#295=CARTESIAN_POINT('',(59.802448893,27.922519699,75.));
#296=VERTEX_POINT('',#295);
#297=CARTESIAN_POINT('',(60.878696183,28.453266127,75.));
#298=DIRECTION('',(-0.896872742,-0.44228869,-0.));
#299=VECTOR('',#298,1.2);
#300=LINE('',#297,#299);
#301=EDGE_CURVE('',#288,#296,#300,.T.);
#302=ORIENTED_EDGE('',*,*,#301,.T.);
#303=CARTESIAN_POINT('',(62.030920171,22.542514117,75.));
#304=VERTEX_POINT('',#303);
#305=CARTESIAN_POINT('',(0.,0.,75.));
#306=DIRECTION('',(-0.,0.,-1.));
#307=DIRECTION('',(0.923879533,0.382683432,0.));
#308=AXIS2_PLACEMENT_3D('',#305,#306,#307);
#309=CIRCLE('',#308,66.);
#310=EDGE_CURVE('',#296,#304,#309,.T.);
#311=ORIENTED_EDGE('',*,*,#310,.T.);
#312=CARTESIAN_POINT('',(63.167236327,22.928241476,75.));
#313=VERTEX_POINT('',#312);
#314=CARTESIAN_POINT('',(62.030920171,22.542514117,75.));
#315=DIRECTION('',(0.946930129,0.321439465,-0.));
#316=VECTOR('',#315,1.2);
#317=LINE('',#314,#316);
#318=EDGE_CURVE('',#304,#313,#317,.T.);
#319=ORIENTED_EDGE('',*,*,#318,.T.);
#320=CARTESIAN_POINT('',(63.320031586,23.982052037,75.));
#321=VERTEX_POINT('',#320);
#322=CARTESIAN_POINT('',(63.167236327,22.928241476,75.));
#323=DIRECTION('',(0.143492622,0.989651387,-0.));
#324=VECTOR('',#323,1.064830076);
#325=LINE('',#322,#324);
#326=EDGE_CURVE('',#313,#321,#325,.T.);
#327=ORIENTED_EDGE('',*,*,#326,.T.);
#328=CARTESIAN_POINT('',(79.326025965,30.611951988,75.));
#329=VERTEX_POINT('',#328);
#330=CARTESIAN_POINT('',(63.320031586,23.982052037,75.));
#331=DIRECTION('',(0.923879533,0.382683432,-0.));
#332=VECTOR('',#331,17.324763474);
#333=LINE('',#330,#332);
#334=EDGE_CURVE('',#321,#329,#333,.T.);
#335=ORIENTED_EDGE('',*,*,#334,.T.);
#336=CARTESIAN_POINT('',(81.973681733,29.440202158,75.));
#337=VERTEX_POINT('',#336);
#338=CARTESIAN_POINT('',(80.09139283,28.764192923,75.));
#339=DIRECTION('',(-0.,0.,-1.));
#340=DIRECTION('',(0.941144452,0.338004617,0.));
#341=AXIS2_PLACEMENT_3D('',#338,#339,#340);
#342=CIRCLE('',#341,2.);
#343=EDGE_CURVE('',#329,#337,#342,.T.);
#344=ORIENTED_EDGE('',*,*,#343,.T.);
#345=CARTESIAN_POINT('',(82.956153755,26.545932912,75.));
#346=VERTEX_POINT('',#345);
#347=CARTESIAN_POINT('',(0.000000001,0.,75.));
#348=DIRECTION('',(-0.,0.,-1.));
#349=DIRECTION('',(0.946930129,0.321439465,0.));
#350=AXIS2_PLACEMENT_3D('',#347,#348,#349);
#351=CIRCLE('',#350,87.099999999);
#352=EDGE_CURVE('',#337,#346,#351,.T.);
#353=ORIENTED_EDGE('',*,*,#352,.T.);
#354=CARTESIAN_POINT('',(81.568943309,24.004530561,75.));
#355=VERTEX_POINT('',#354);
#356=CARTESIAN_POINT('',(81.051305219,25.936382214,75.));
#357=DIRECTION('',(-0.,-0.,-1.));
#358=DIRECTION('',(0.258819045,-0.965925826,0.));
#359=AXIS2_PLACEMENT_3D('',#356,#357,#358);
#360=CIRCLE('',#359,2.);
#361=EDGE_CURVE('',#346,#355,#360,.T.);
#362=ORIENTED_EDGE('',*,*,#361,.T.);
#363=CARTESIAN_POINT('',(64.834506835,19.520551823,75.));
#364=VERTEX_POINT('',#363);
#365=CARTESIAN_POINT('',(81.568943309,24.004530561,75.));
#366=DIRECTION('',(-0.965925826,-0.258819045,-0.));
#367=VECTOR('',#366,17.324763474);
#368=LINE('',#365,#367);
#369=EDGE_CURVE('',#355,#364,#368,.T.);
#370=ORIENTED_EDGE('',*,*,#369,.T.);
#371=CARTESIAN_POINT('',(64.071766982,20.263580091,75.));
#372=VERTEX_POINT('',#371);
#373=CARTESIAN_POINT('',(64.834506835,19.520551823,75.));
#374=DIRECTION('',(-0.716301943,0.69779046,-0.));
#375=VECTOR('',#374,1.064830076);
#376=LINE('',#373,#375);
#377=EDGE_CURVE('',#364,#372,#376,.T.);
#378=ORIENTED_EDGE('',*,*,#377,.T.);
#379=CARTESIAN_POINT('',(62.935450826,19.877852733,75.));
#380=VERTEX_POINT('',#379);
#381=CARTESIAN_POINT('',(64.071766982,20.263580091,75.));
#382=DIRECTION('',(-0.946930129,-0.321439465,-0.));
#383=VECTOR('',#382,1.2);
#384=LINE('',#381,#383);
#385=EDGE_CURVE('',#372,#380,#384,.T.);
#386=ORIENTED_EDGE('',*,*,#385,.T.);
#387=CARTESIAN_POINT('',(64.442625581,14.252999974,75.));
#388=VERTEX_POINT('',#387);
#389=CARTESIAN_POINT('',(-0.,-0.,75.));
#390=DIRECTION('',(-0.,0.,-1.));
#391=DIRECTION('',(0.965925826,0.258819045,0.));
#392=AXIS2_PLACEMENT_3D('',#389,#390,#391);
#393=CIRCLE('',#392,66.);
#394=EDGE_CURVE('',#380,#388,#393,.T.);
#395=ORIENTED_EDGE('',*,*,#394,.T.);
#396=CARTESIAN_POINT('',(65.619567917,14.48710836,75.));
#397=VERTEX_POINT('',#396);
#398=CARTESIAN_POINT('',(64.442625581,14.252999974,75.));
#399=DIRECTION('',(0.98078528,0.195090322,-0.));
#400=VECTOR('',#399,1.2);
#401=LINE('',#398,#400);
#402=EDGE_CURVE('',#388,#397,#401,.T.);
#403=ORIENTED_EDGE('',*,*,#402,.T.);
#404=CARTESIAN_POINT('',(65.908605872,15.511959643,75.));
#405=VERTEX_POINT('',#404);
#406=CARTESIAN_POINT('',(65.619567917,14.48710836,75.));
#407=DIRECTION('',(0.27144045,0.962455236,-0.));
#408=VECTOR('',#407,1.064830076);
#409=LINE('',#406,#408);
#410=EDGE_CURVE('',#397,#405,#409,.T.);
#411=ORIENTED_EDGE('',*,*,#410,.T.);
#412=CARTESIAN_POINT('',(82.643042346,19.995938382,75.));
#413=VERTEX_POINT('',#412);
#414=CARTESIAN_POINT('',(65.908605872,15.511959643,75.));
#415=DIRECTION('',(0.965925826,0.258819045,-0.));
#416=VECTOR('',#415,17.324763474);
#417=LINE('',#414,#416);
#418=EDGE_CURVE('',#405,#413,#417,.T.);
#419=ORIENTED_EDGE('',*,*,#418,.T.);
#420=CARTESIAN_POINT('',(85.115103008,18.488624608,75.));
#421=VERTEX_POINT('',#420);
#422=CARTESIAN_POINT('',(83.160680436,18.06408673,75.));
#423=DIRECTION('',(-0.,0.,-1.));
#424=DIRECTION('',(0.977211286,0.212268939,0.));
#425=AXIS2_PLACEMENT_3D('',#422,#423,#424);
#426=CIRCLE('',#425,2.);
#427=EDGE_CURVE('',#413,#421,#426,.T.);
#428=ORIENTED_EDGE('',*,*,#427,.T.);
#429=CARTESIAN_POINT('',(85.711391902,15.490877905,75.));
#430=VERTEX_POINT('',#429);
#431=CARTESIAN_POINT('',(0.,0.,75.));
#432=DIRECTION('',(-0.,0.,-1.));
#433=DIRECTION('',(0.98078528,0.195090322,0.));
#434=AXIS2_PLACEMENT_3D('',#431,#432,#433);
#435=CIRCLE('',#434,87.1);
#436=EDGE_CURVE('',#421,#430,#435,.T.);
#437=ORIENTED_EDGE('',*,*,#436,.T.);
#438=CARTESIAN_POINT('',(84.004329662,13.152284901,75.));
#439=VERTEX_POINT('',#438);
#440=CARTESIAN_POINT('',(83.743277277,15.135174624,75.));
#441=DIRECTION('',(-0.,-0.,-1.));
#442=DIRECTION('',(0.130526192,-0.991444861,0.));
#443=AXIS2_PLACEMENT_3D('',#440,#441,#442);
#444=CIRCLE('',#443,2.);
#445=EDGE_CURVE('',#430,#439,#444,.T.);
#446=ORIENTED_EDGE('',*,*,#445,.T.);
#447=CARTESIAN_POINT('',(66.827781941,10.890949494,75.));
#448=VERTEX_POINT('',#447);
#449=CARTESIAN_POINT('',(84.004329662,13.152284901,75.));
#450=DIRECTION('',(-0.991444861,-0.130526192,-0.));
#451=VECTOR('',#450,17.324763474);
#452=LINE('',#449,#451);
#453=EDGE_CURVE('',#439,#448,#452,.T.);
#454=ORIENTED_EDGE('',*,*,#453,.T.);
#455=CARTESIAN_POINT('',(66.168552083,11.727178581,75.));
#456=VERTEX_POINT('',#455);
#457=CARTESIAN_POINT('',(66.827781941,10.890949494,75.));
#458=DIRECTION('',(-0.619093949,0.785316931,-0.));
#459=VECTOR('',#458,1.064830076);
#460=LINE('',#457,#459);
#461=EDGE_CURVE('',#448,#456,#460,.T.);
#462=ORIENTED_EDGE('',*,*,#461,.T.);
#463=CARTESIAN_POINT('',(64.991609747,11.493070195,75.));
#464=VERTEX_POINT('',#463);
#465=CARTESIAN_POINT('',(66.168552083,11.727178581,75.));
#466=DIRECTION('',(-0.98078528,-0.195090322,-0.));
#467=VECTOR('',#466,1.2);
#468=LINE('',#465,#467);
#469=EDGE_CURVE('',#456,#464,#468,.T.);
#470=ORIENTED_EDGE('',*,*,#469,.T.);
#471=CARTESIAN_POINT('',(65.7516998,5.71961305,75.));
#472=VERTEX_POINT('',#471);
#473=CARTESIAN_POINT('',(-0.,-0.,75.));
#474=DIRECTION('',(-0.,0.,-1.));
#475=DIRECTION('',(0.991444861,0.130526192,0.));
#476=AXIS2_PLACEMENT_3D('',#473,#474,#475);
#477=CIRCLE('',#476,66.);
#478=EDGE_CURVE('',#464,#472,#477,.T.);
#479=ORIENTED_EDGE('',*,*,#478,.T.);
#480=CARTESIAN_POINT('',(66.949130508,5.798096805,75.));
#481=VERTEX_POINT('',#480);
#482=CARTESIAN_POINT('',(65.7516998,5.71961305,75.));
#483=DIRECTION('',(0.997858923,0.065403129,-0.));
#484=VECTOR('',#483,1.2);
#485=LINE('',#482,#484);
#486=EDGE_CURVE('',#472,#481,#485,.T.);
#487=ORIENTED_EDGE('',*,*,#486,.T.);
#488=CARTESIAN_POINT('',(67.369465638,6.776453319,75.));
#489=VERTEX_POINT('',#488);
#490=CARTESIAN_POINT('',(66.949130508,5.798096805,75.));
#491=DIRECTION('',(0.394743856,0.91879121,-0.));
#492=VECTOR('',#491,1.064830076);
#493=LINE('',#490,#492);
#494=EDGE_CURVE('',#481,#489,#493,.T.);
#495=ORIENTED_EDGE('',*,*,#494,.T.);
#496=CARTESIAN_POINT('',(84.546013359,9.037788727,75.));
#497=VERTEX_POINT('',#496);
#498=CARTESIAN_POINT('',(67.369465638,6.776453319,75.));
#499=DIRECTION('',(0.991444861,0.130526192,-0.));
#500=VECTOR('',#499,17.324763474);
#501=LINE('',#498,#500);
#502=EDGE_CURVE('',#489,#497,#501,.T.);
#503=ORIENTED_EDGE('',*,*,#502,.T.);
#504=CARTESIAN_POINT('',(86.800181272,7.220701566,75.));
#505=VERTEX_POINT('',#504);
#506=CARTESIAN_POINT('',(84.807065744,7.054899004,75.));
#507=DIRECTION('',(-0.,0.,-1.));
#508=DIRECTION('',(0.996557764,0.082901281,0.));
#509=AXIS2_PLACEMENT_3D('',#506,#507,#508);
#510=CIRCLE('',#509,2.);
#511=EDGE_CURVE('',#497,#505,#510,.T.);
#512=ORIENTED_EDGE('',*,*,#511,.T.);
#513=CARTESIAN_POINT('',(87.000084369,4.170769683,75.));
#514=VERTEX_POINT('',#513);
#515=CARTESIAN_POINT('',(0.,0.,75.));
#516=DIRECTION('',(-0.,0.,-1.));
#517=DIRECTION('',(0.997858923,0.065403129,0.));
#518=AXIS2_PLACEMENT_3D('',#515,#516,#517);
#519=CIRCLE('',#518,87.1);
#520=EDGE_CURVE('',#505,#514,#519,.T.);
#521=ORIENTED_EDGE('',*,*,#520,.T.);
#522=CARTESIAN_POINT('',(85.002378643,2.075,75.));
#523=VERTEX_POINT('',#522);
#524=CARTESIAN_POINT('',(85.002378643,4.075,75.));
#525=DIRECTION('',(-0.,-0.,-1.));
#526=DIRECTION('',(0.,-1.,0.));
#527=AXIS2_PLACEMENT_3D('',#524,#525,#526);
#528=CIRCLE('',#527,2.);
#529=EDGE_CURVE('',#514,#523,#528,.T.);
#530=ORIENTED_EDGE('',*,*,#529,.T.);
#531=CARTESIAN_POINT('',(67.677615169,2.075,75.));
#532=VERTEX_POINT('',#531);
#533=CARTESIAN_POINT('',(85.002378643,2.075,75.));
#534=DIRECTION('',(-1.,-0.,0.));
#535=VECTOR('',#534,17.324763474);
#536=LINE('',#533,#535);
#537=EDGE_CURVE('',#523,#532,#536,.T.);
#538=ORIENTED_EDGE('',*,*,#537,.T.);
#539=CARTESIAN_POINT('',(67.133174913,2.990121795,75.));
#540=VERTEX_POINT('',#539);
#541=CARTESIAN_POINT('',(67.677615169,2.075,75.));
#542=DIRECTION('',(-0.511293086,0.859406411,-0.));
#543=VECTOR('',#542,1.064830076);
#544=LINE('',#541,#543);
#545=EDGE_CURVE('',#532,#540,#544,.T.);
#546=ORIENTED_EDGE('',*,*,#545,.T.);
#547=CARTESIAN_POINT('',(65.935744205,2.91163804,75.));
#548=VERTEX_POINT('',#547);
#549=CARTESIAN_POINT('',(67.133174913,2.990121795,75.));
#550=DIRECTION('',(-0.997858923,-0.065403129,-0.));
#551=VECTOR('',#550,1.2);
#552=LINE('',#549,#551);
#553=EDGE_CURVE('',#540,#548,#552,.T.);
#554=ORIENTED_EDGE('',*,*,#553,.T.);
#555=CARTESIAN_POINT('',(66.,0.,75.));
#556=VERTEX_POINT('',#555);
#557=CARTESIAN_POINT('',(0.,0.,75.));
#558=DIRECTION('',(-0.,-0.,-1.));
#559=DIRECTION('',(1.,-0.,0.));
#560=AXIS2_PLACEMENT_3D('',#557,#558,#559);
#561=CIRCLE('',#560,66.);
#562=EDGE_CURVE('',#548,#556,#561,.T.);
#563=ORIENTED_EDGE('',*,*,#562,.T.);
#564=CARTESIAN_POINT('',(66.,0.,75.));
#565=DIRECTION('',(1.,0.,-0.));
#566=VECTOR('',#565,33.);
#567=LINE('',#564,#566);
#568=EDGE_CURVE('',#556,#33,#567,.T.);
#569=ORIENTED_EDGE('',*,*,#568,.T.);
#570=EDGE_LOOP('',(#42,#50,#59,#67,#75,#83,#92,#101,#110,#118,#126,#134,#143,#151,#159,#167,#176,#185,#194,#202,#210,#218,#227,#235,#243,#251,
#260,#269,#278,#286,#294,#302,#311,#319,#327,#335,#344,#353,#362,#370,#378,#386,#395,#403,#411,#419,#428,#437,#446,#454,#462,
#470,#479,#487,#495,#503,#512,#521,#530,#538,#546,#554,#563,#569));
#571=FACE_BOUND('',#570,.T.);
#572=ADVANCED_FACE('',(#571),#31,.T.);
#573=CARTESIAN_POINT('',(0.,0.,75.));
#574=DIRECTION('',(0.,0.,-1.));
#575=DIRECTION('',(-1.,0.,0.));
#576=AXIS2_PLACEMENT_3D('',#573,#574,#575);
#577=CYLINDRICAL_SURFACE('',#576,99.);
#578=CARTESIAN_POINT('',(99.,0.,0.));
#579=VERTEX_POINT('',#578);
#580=CARTESIAN_POINT('',(70.003571337,70.003571337,0.));
#581=VERTEX_POINT('',#580);
#582=CARTESIAN_POINT('',(0.,0.,0.));
#583=DIRECTION('',(0.,0.,1.));
#584=DIRECTION('',(1.,-0.,0.));
#585=AXIS2_PLACEMENT_3D('',#582,#583,#584);
#586=CIRCLE('',#585,99.);
#587=EDGE_CURVE('',#579,#581,#586,.T.);
#588=ORIENTED_EDGE('',*,*,#587,.T.);
#589=CARTESIAN_POINT('',(70.003571337,70.003571337,0.));
#590=DIRECTION('',(0.,0.,1.));
#591=VECTOR('',#590,75.);
#592=LINE('',#589,#591);
#593=EDGE_CURVE('',#581,#35,#592,.T.);
#594=ORIENTED_EDGE('',*,*,#593,.T.);
#595=ORIENTED_EDGE('',*,*,#41,.F.);
#596=CARTESIAN_POINT('',(99.,0.,0.));
#597=DIRECTION('',(0.,0.,1.));
#598=VECTOR('',#597,75.);
#599=LINE('',#596,#598);
#600=EDGE_CURVE('',#579,#33,#599,.T.);
#601=ORIENTED_EDGE('',*,*,#600,.F.);
#602=EDGE_LOOP('',(#588,#594,#595,#601));
#603=FACE_BOUND('',#602,.T.);
#604=ADVANCED_FACE('',(#603),#577,.T.);
#605=CARTESIAN_POINT('',(-0.,-0.,75.));
#606=DIRECTION('',(0.,0.,-1.));
#607=DIRECTION('',(-1.,0.,0.));
#608=AXIS2_PLACEMENT_3D('',#605,#606,#607);
#609=CYLINDRICAL_SURFACE('',#608,66.);
#610=CARTESIAN_POINT('',(46.669047558,46.669047558,0.));
#611=VERTEX_POINT('',#610);
#612=CARTESIAN_POINT('',(46.669047558,46.669047558,0.));
#613=DIRECTION('',(-0.,-0.,1.));
#614=VECTOR('',#613,75.);
#615=LINE('',#612,#614);
#616=EDGE_CURVE('',#611,#44,#615,.T.);
#617=ORIENTED_EDGE('',*,*,#616,.F.);
#618=CARTESIAN_POINT('',(48.682450853,44.564772848,0.));
#619=VERTEX_POINT('',#618);
#620=CARTESIAN_POINT('',(-0.,-0.,0.));
#621=DIRECTION('',(-0.,-0.,-1.));
#622=DIRECTION('',(1.,0.,-0.));
#623=AXIS2_PLACEMENT_3D('',#620,#621,#622);
#624=CIRCLE('',#623,66.);
#625=EDGE_CURVE('',#611,#619,#624,.T.);
#626=ORIENTED_EDGE('',*,*,#625,.T.);
#627=CARTESIAN_POINT('',(48.682450853,44.564772848,75.));
#628=DIRECTION('',(0.,0.,-1.));
#629=VECTOR('',#628,75.);
#630=LINE('',#627,#629);
#631=EDGE_CURVE('',#52,#619,#630,.T.);
#632=ORIENTED_EDGE('',*,*,#631,.F.);
#633=ORIENTED_EDGE('',*,*,#58,.F.);
#634=EDGE_LOOP('',(#617,#626,#632,#633));
#635=FACE_BOUND('',#634,.T.);
#636=ADVANCED_FACE('',(#635),#609,.F.);
#637=CARTESIAN_POINT('',(49.584658622,45.355987826,75.));
#638=DIRECTION('',(-0.659345815,0.751839807,0.));
#639=DIRECTION('',(-0.751839807,-0.659345815,0.));
#640=AXIS2_PLACEMENT_3D('',#637,#638,#639);
#641=PLANE('',#640);
#642=ORIENTED_EDGE('',*,*,#631,.T.);
#643=CARTESIAN_POINT('',(49.584658622,45.355987826,0.));
#644=VERTEX_POINT('',#643);
#645=CARTESIAN_POINT('',(48.682450853,44.564772848,0.));
#646=DIRECTION('',(0.751839807,0.659345815,0.));
#647=VECTOR('',#646,1.2);
#648=LINE('',#645,#647);
#649=EDGE_CURVE('',#619,#644,#648,.T.);
#650=ORIENTED_EDGE('',*,*,#649,.T.);
#651=CARTESIAN_POINT('',(49.584658622,45.355987826,75.));
#652=DIRECTION('',(0.,0.,-1.));
#653=VECTOR('',#652,75.);
#654=LINE('',#651,#653);
#655=EDGE_CURVE('',#61,#644,#654,.T.);
#656=ORIENTED_EDGE('',*,*,#655,.F.);
#657=ORIENTED_EDGE('',*,*,#66,.F.);
#658=EDGE_LOOP('',(#642,#650,#656,#657));
#659=FACE_BOUND('',#658,.T.);
#660=ADVANCED_FACE('',(#659),#641,.F.);
#661=CARTESIAN_POINT('',(49.322547192,46.38805405,75.));
#662=DIRECTION('',(-0.96923091,-0.246153293,0.));
#663=DIRECTION('',(0.246153293,-0.96923091,0.));
#664=AXIS2_PLACEMENT_3D('',#661,#662,#663);
#665=PLANE('',#664);
#666=ORIENTED_EDGE('',*,*,#655,.T.);
#667=CARTESIAN_POINT('',(49.322547192,46.38805405,0.));
#668=VERTEX_POINT('',#667);
#669=CARTESIAN_POINT('',(49.584658622,45.355987826,0.));
#670=DIRECTION('',(-0.246153293,0.96923091,0.));
#671=VECTOR('',#670,1.064830076);
#672=LINE('',#669,#671);
#673=EDGE_CURVE('',#644,#668,#672,.T.);
#674=ORIENTED_EDGE('',*,*,#673,.T.);
#675=CARTESIAN_POINT('',(49.322547192,46.38805405,75.));
#676=DIRECTION('',(0.,0.,-1.));
#677=VECTOR('',#676,75.);
#678=LINE('',#675,#677);
#679=EDGE_CURVE('',#69,#668,#678,.T.);
#680=ORIENTED_EDGE('',*,*,#679,.F.);
#681=ORIENTED_EDGE('',*,*,#74,.F.);
#682=EDGE_LOOP('',(#666,#674,#680,#681));
#683=FACE_BOUND('',#682,.T.);
#684=ADVANCED_FACE('',(#683),#665,.F.);
#685=CARTESIAN_POINT('',(61.573004927,58.638511785,75.));
#686=DIRECTION('',(-0.707106781,0.707106781,0.));
#687=DIRECTION('',(-0.707106781,-0.707106781,0.));
#688=AXIS2_PLACEMENT_3D('',#685,#686,#687);
#689=PLANE('',#688);
#690=ORIENTED_EDGE('',*,*,#679,.T.);
#691=CARTESIAN_POINT('',(61.573004927,58.638511785,0.));
#692=VERTEX_POINT('',#691);
#693=CARTESIAN_POINT('',(49.322547192,46.38805405,0.));
#694=DIRECTION('',(0.707106781,0.707106781,0.));
#695=VECTOR('',#694,17.324763474);
#696=LINE('',#693,#695);
#697=EDGE_CURVE('',#668,#692,#696,.T.);
#698=ORIENTED_EDGE('',*,*,#697,.T.);
#699=CARTESIAN_POINT('',(61.573004927,58.638511785,75.));
#700=DIRECTION('',(0.,0.,-1.));
#701=VECTOR('',#700,75.);
#702=LINE('',#699,#701);
#703=EDGE_CURVE('',#77,#692,#702,.T.);
#704=ORIENTED_EDGE('',*,*,#703,.F.);
#705=ORIENTED_EDGE('',*,*,#82,.F.);
#706=EDGE_LOOP('',(#690,#698,#704,#705));
#707=FACE_BOUND('',#706,.T.);
#708=ADVANCED_FACE('',(#707),#689,.F.);
#709=CARTESIAN_POINT('',(62.987218489,57.224298222,75.));
#710=DIRECTION('',(0.,0.,-1.));
#711=DIRECTION('',(-1.,0.,0.));
#712=AXIS2_PLACEMENT_3D('',#709,#710,#711);
#713=CYLINDRICAL_SURFACE('',#712,2.);
#714=ORIENTED_EDGE('',*,*,#703,.T.);
#715=CARTESIAN_POINT('',(64.467529147,58.569170096,0.));
#716=VERTEX_POINT('',#715);
#717=CARTESIAN_POINT('',(62.987218489,57.224298222,0.));
#718=DIRECTION('',(-0.,-0.,-1.));
#719=DIRECTION('',(1.,0.,-0.));
#720=AXIS2_PLACEMENT_3D('',#717,#718,#719);
#721=CIRCLE('',#720,2.);
#722=EDGE_CURVE('',#692,#716,#721,.T.);
#723=ORIENTED_EDGE('',*,*,#722,.T.);
#724=CARTESIAN_POINT('',(64.467529147,58.569170096,75.));
#725=DIRECTION('',(0.,0.,-1.));
#726=VECTOR('',#725,75.);
#727=LINE('',#724,#726);
#728=EDGE_CURVE('',#85,#716,#727,.T.);
#729=ORIENTED_EDGE('',*,*,#728,.F.);
#730=ORIENTED_EDGE('',*,*,#91,.F.);
#731=EDGE_LOOP('',(#714,#723,#729,#730));
#732=FACE_BOUND('',#731,.T.);
#733=ADVANCED_FACE('',(#732),#713,.F.);
#734=CARTESIAN_POINT('',(-0.,-0.,75.));
#735=DIRECTION('',(0.,0.,-1.));
#736=DIRECTION('',(-1.,0.,0.));
#737=AXIS2_PLACEMENT_3D('',#734,#735,#736);
#738=CYLINDRICAL_SURFACE('',#737,87.1);
#739=ORIENTED_EDGE('',*,*,#728,.T.);
#740=CARTESIAN_POINT('',(66.482803828,56.271189744,0.));
#741=VERTEX_POINT('',#740);
#742=CARTESIAN_POINT('',(-0.,-0.,0.));
#743=DIRECTION('',(-0.,-0.,-1.));
#744=DIRECTION('',(1.,0.,-0.));
#745=AXIS2_PLACEMENT_3D('',#742,#743,#744);
#746=CIRCLE('',#745,87.1);
#747=EDGE_CURVE('',#716,#741,#746,.T.);
#748=ORIENTED_EDGE('',*,*,#747,.T.);
#749=CARTESIAN_POINT('',(66.482803828,56.271189744,75.));
#750=DIRECTION('',(0.,0.,-1.));
#751=VECTOR('',#750,75.);
#752=LINE('',#749,#751);
#753=EDGE_CURVE('',#94,#741,#752,.T.);
#754=ORIENTED_EDGE('',*,*,#753,.F.);
#755=ORIENTED_EDGE('',*,*,#100,.F.);
#756=EDGE_LOOP('',(#739,#748,#754,#755));
#757=FACE_BOUND('',#756,.T.);
#758=ADVANCED_FACE('',(#757),#738,.F.);
#759=CARTESIAN_POINT('',(64.956218206,54.979084354,75.));
#760=DIRECTION('',(0.,0.,-1.));
#761=DIRECTION('',(-1.,0.,0.));
#762=AXIS2_PLACEMENT_3D('',#759,#760,#761);
#763=CYLINDRICAL_SURFACE('',#762,2.);
#764=ORIENTED_EDGE('',*,*,#753,.T.);
#765=CARTESIAN_POINT('',(66.173741064,53.392377673,0.));
#766=VERTEX_POINT('',#765);
#767=CARTESIAN_POINT('',(64.956218206,54.979084354,0.));
#768=DIRECTION('',(-0.,-0.,-1.));
#769=DIRECTION('',(1.,0.,-0.));
#770=AXIS2_PLACEMENT_3D('',#767,#768,#769);
#771=CIRCLE('',#770,2.);
#772=EDGE_CURVE('',#741,#766,#771,.T.);
#773=ORIENTED_EDGE('',*,*,#772,.T.);
#774=CARTESIAN_POINT('',(66.173741064,53.392377673,75.));
#775=DIRECTION('',(0.,0.,-1.));
#776=VECTOR('',#775,75.);
#777=LINE('',#774,#776);
#778=EDGE_CURVE('',#103,#766,#777,.T.);
#779=ORIENTED_EDGE('',*,*,#778,.F.);
#780=ORIENTED_EDGE('',*,*,#109,.F.);
#781=EDGE_LOOP('',(#764,#773,#779,#780));
#782=FACE_BOUND('',#781,.T.);
#783=ADVANCED_FACE('',(#782),#763,.F.);
#784=CARTESIAN_POINT('',(52.429082092,42.845729903,75.));
#785=DIRECTION('',(0.608761429,-0.79335334,0.));
#786=DIRECTION('',(0.79335334,0.608761429,0.));
#787=AXIS2_PLACEMENT_3D('',#784,#785,#786);
#788=PLANE('',#787);
#789=ORIENTED_EDGE('',*,*,#778,.T.);
#790=CARTESIAN_POINT('',(52.429082092,42.845729903,0.));
#791=VERTEX_POINT('',#790);
#792=CARTESIAN_POINT('',(66.173741064,53.392377673,0.));
#793=DIRECTION('',(-0.79335334,-0.608761429,0.));
#794=VECTOR('',#793,17.324763474);
#795=LINE('',#792,#794);
#796=EDGE_CURVE('',#766,#791,#795,.T.);
#797=ORIENTED_EDGE('',*,*,#796,.T.);
#798=CARTESIAN_POINT('',(52.429082092,42.845729903,75.));
#799=DIRECTION('',(0.,0.,-1.));
#800=VECTOR('',#799,75.);
#801=LINE('',#798,#800);
#802=EDGE_CURVE('',#112,#791,#801,.T.);
#803=ORIENTED_EDGE('',*,*,#802,.F.);
#804=ORIENTED_EDGE('',*,*,#117,.F.);
#805=EDGE_LOOP('',(#789,#797,#803,#804));
#806=FACE_BOUND('',#805,.T.);
#807=ADVANCED_FACE('',(#806),#788,.F.);
#808=CARTESIAN_POINT('',(51.440057745,43.240310608,75.));
#809=DIRECTION('',(-0.370557438,-0.928809553,0.));
#810=DIRECTION('',(0.928809553,-0.370557438,0.));
#811=AXIS2_PLACEMENT_3D('',#808,#809,#810);
#812=PLANE('',#811);
#813=ORIENTED_EDGE('',*,*,#802,.T.);
#814=CARTESIAN_POINT('',(51.440057745,43.240310608,0.));
#815=VERTEX_POINT('',#814);
#816=CARTESIAN_POINT('',(52.429082092,42.845729903,0.));
#817=DIRECTION('',(-0.928809553,0.370557438,0.));
#818=VECTOR('',#817,1.064830076);
#819=LINE('',#816,#818);
#820=EDGE_CURVE('',#791,#815,#819,.T.);
#821=ORIENTED_EDGE('',*,*,#820,.T.);
#822=CARTESIAN_POINT('',(51.440057745,43.240310608,75.));
#823=DIRECTION('',(0.,0.,-1.));
#824=VECTOR('',#823,75.);
#825=LINE('',#822,#824);
#826=EDGE_CURVE('',#120,#815,#825,.T.);
#827=ORIENTED_EDGE('',*,*,#826,.F.);
#828=ORIENTED_EDGE('',*,*,#125,.F.);
#829=EDGE_LOOP('',(#813,#821,#827,#828));
#830=FACE_BOUND('',#829,.T.);
#831=ADVANCED_FACE('',(#830),#812,.F.);
#832=CARTESIAN_POINT('',(50.537849976,42.44909563,75.));
#833=DIRECTION('',(0.659345815,-0.751839807,0.));
#834=DIRECTION('',(0.751839807,0.659345815,0.));
#835=AXIS2_PLACEMENT_3D('',#832,#833,#834);
#836=PLANE('',#835);
#837=ORIENTED_EDGE('',*,*,#826,.T.);
#838=CARTESIAN_POINT('',(50.537849976,42.44909563,0.));
#839=VERTEX_POINT('',#838);
#840=CARTESIAN_POINT('',(51.440057745,43.240310608,0.));
#841=DIRECTION('',(-0.751839807,-0.659345815,0.));
#842=VECTOR('',#841,1.2);
#843=LINE('',#840,#842);
#844=EDGE_CURVE('',#815,#839,#843,.T.);
#845=ORIENTED_EDGE('',*,*,#844,.T.);
#846=CARTESIAN_POINT('',(50.537849976,42.44909563,75.));
#847=DIRECTION('',(0.,0.,-1.));
#848=VECTOR('',#847,75.);
#849=LINE('',#846,#848);
#850=EDGE_CURVE('',#128,#839,#849,.T.);
#851=ORIENTED_EDGE('',*,*,#850,.F.);
#852=ORIENTED_EDGE('',*,*,#133,.F.);
#853=EDGE_LOOP('',(#837,#845,#851,#852));
#854=FACE_BOUND('',#853,.T.);
#855=ADVANCED_FACE('',(#854),#836,.F.);
#856=CARTESIAN_POINT('',(0.,0.,75.));
#857=DIRECTION('',(0.,0.,-1.));
#858=DIRECTION('',(-1.,0.,0.));
#859=AXIS2_PLACEMENT_3D('',#856,#857,#858);
#860=CYLINDRICAL_SURFACE('',#859,66.);
#861=ORIENTED_EDGE('',*,*,#850,.T.);
#862=CARTESIAN_POINT('',(54.082835844,37.829180101,0.));
#863=VERTEX_POINT('',#862);
#864=CARTESIAN_POINT('',(0.,0.,0.));
#865=DIRECTION('',(-0.,-0.,-1.));
#866=DIRECTION('',(1.,0.,-0.));
#867=AXIS2_PLACEMENT_3D('',#864,#865,#866);
#868=CIRCLE('',#867,66.);
#869=EDGE_CURVE('',#839,#863,#868,.T.);
#870=ORIENTED_EDGE('',*,*,#869,.T.);
#871=CARTESIAN_POINT('',(54.082835844,37.829180101,75.));
#872=DIRECTION('',(0.,0.,-1.));
#873=VECTOR('',#872,75.);
#874=LINE('',#871,#873);
#875=EDGE_CURVE('',#136,#863,#874,.T.);
#876=ORIENTED_EDGE('',*,*,#875,.F.);
#877=ORIENTED_EDGE('',*,*,#142,.F.);
#878=EDGE_LOOP('',(#861,#870,#876,#877));
#879=FACE_BOUND('',#878,.T.);
#880=ADVANCED_FACE('',(#879),#860,.F.);
#881=CARTESIAN_POINT('',(55.080599379,38.49586438,75.));
#882=DIRECTION('',(-0.555570233,0.831469612,0.));
#883=DIRECTION('',(-0.831469612,-0.555570233,0.));
#884=AXIS2_PLACEMENT_3D('',#881,#882,#883);
#885=PLANE('',#884);
#886=ORIENTED_EDGE('',*,*,#875,.T.);
#887=CARTESIAN_POINT('',(55.080599379,38.49586438,0.));
#888=VERTEX_POINT('',#887);
#889=CARTESIAN_POINT('',(54.082835844,37.829180101,0.));
#890=DIRECTION('',(0.831469612,0.555570233,0.));
#891=VECTOR('',#890,1.2);
#892=LINE('',#889,#891);
#893=EDGE_CURVE('',#863,#888,#892,.T.);
#894=ORIENTED_EDGE('',*,*,#893,.T.);
#895=CARTESIAN_POINT('',(55.080599379,38.49586438,75.));
#896=DIRECTION('',(0.,0.,-1.));
#897=VECTOR('',#896,75.);
#898=LINE('',#895,#897);
#899=EDGE_CURVE('',#145,#888,#898,.T.);
#900=ORIENTED_EDGE('',*,*,#899,.F.);
#901=ORIENTED_EDGE('',*,*,#150,.F.);
#902=EDGE_LOOP('',(#886,#894,#900,#901));
#903=FACE_BOUND('',#902,.T.);
#904=ADVANCED_FACE('',(#903),#885,.F.);
#905=CARTESIAN_POINT('',(54.955442023,39.553313541,75.));
#906=DIRECTION('',(-0.993068457,-0.117537397,0.));
#907=DIRECTION('',(0.117537397,-0.993068457,0.));
#908=AXIS2_PLACEMENT_3D('',#905,#906,#907);
#909=PLANE('',#908);
#910=ORIENTED_EDGE('',*,*,#899,.T.);
#911=CARTESIAN_POINT('',(54.955442023,39.553313541,0.));
#912=VERTEX_POINT('',#911);
#913=CARTESIAN_POINT('',(55.080599379,38.49586438,0.));
#914=DIRECTION('',(-0.117537397,0.993068457,0.));
#915=VECTOR('',#914,1.064830076);
#916=LINE('',#913,#915);
#917=EDGE_CURVE('',#888,#912,#916,.T.);
#918=ORIENTED_EDGE('',*,*,#917,.T.);
#919=CARTESIAN_POINT('',(54.955442023,39.553313541,75.));
#920=DIRECTION('',(0.,0.,-1.));
#921=VECTOR('',#920,75.);
#922=LINE('',#919,#921);
#923=EDGE_CURVE('',#153,#912,#922,.T.);
#924=ORIENTED_EDGE('',*,*,#923,.F.);
#925=ORIENTED_EDGE('',*,*,#158,.F.);
#926=EDGE_LOOP('',(#910,#918,#924,#925));
#927=FACE_BOUND('',#926,.T.);
#928=ADVANCED_FACE('',(#927),#909,.F.);
#929=CARTESIAN_POINT('',(68.700100995,50.099961311,75.));
#930=DIRECTION('',(-0.608761429,0.79335334,0.));
#931=DIRECTION('',(-0.79335334,-0.608761429,0.));
#932=AXIS2_PLACEMENT_3D('',#929,#930,#931);
#933=PLANE('',#932);
#934=ORIENTED_EDGE('',*,*,#923,.T.);
#935=CARTESIAN_POINT('',(68.700100995,50.099961311,0.));
#936=VERTEX_POINT('',#935);
#937=CARTESIAN_POINT('',(54.955442023,39.553313541,0.));
#938=DIRECTION('',(0.79335334,0.608761429,0.));
#939=VECTOR('',#938,17.324763474);
#940=LINE('',#937,#939);
#941=EDGE_CURVE('',#912,#936,#940,.T.);
#942=ORIENTED_EDGE('',*,*,#941,.T.);
#943=CARTESIAN_POINT('',(68.700100995,50.099961311,75.));
#944=DIRECTION('',(0.,0.,-1.));
#945=VECTOR('',#944,75.);
#946=LINE('',#943,#945);
#947=EDGE_CURVE('',#161,#936,#946,.T.);
#948=ORIENTED_EDGE('',*,*,#947,.F.);
#949=ORIENTED_EDGE('',*,*,#166,.F.);
#950=EDGE_LOOP('',(#934,#942,#948,#949));
#951=FACE_BOUND('',#950,.T.);
#952=ADVANCED_FACE('',(#951),#933,.F.);
#953=CARTESIAN_POINT('',(69.917623853,48.51325463,75.));
#954=DIRECTION('',(0.,0.,-1.));
#955=DIRECTION('',(-1.,0.,0.));
#956=AXIS2_PLACEMENT_3D('',#953,#954,#955);
#957=CYLINDRICAL_SURFACE('',#956,2.);
#958=ORIENTED_EDGE('',*,*,#947,.T.);
#959=CARTESIAN_POINT('',(71.560811252,49.653401625,0.));
#960=VERTEX_POINT('',#959);
#961=CARTESIAN_POINT('',(69.917623853,48.51325463,0.));
#962=DIRECTION('',(-0.,-0.,-1.));
#963=DIRECTION('',(1.,0.,-0.));
#964=AXIS2_PLACEMENT_3D('',#961,#962,#963);
#965=CIRCLE('',#964,2.);
#966=EDGE_CURVE('',#936,#960,#965,.T.);
#967=ORIENTED_EDGE('',*,*,#966,.T.);
#968=CARTESIAN_POINT('',(71.560811252,49.653401625,75.));
#969=DIRECTION('',(0.,0.,-1.));
#970=VECTOR('',#969,75.);
#971=LINE('',#968,#970);
#972=EDGE_CURVE('',#169,#960,#971,.T.);
#973=ORIENTED_EDGE('',*,*,#972,.F.);
#974=ORIENTED_EDGE('',*,*,#175,.F.);
#975=EDGE_LOOP('',(#958,#967,#973,#974));
#976=FACE_BOUND('',#975,.T.);
#977=ADVANCED_FACE('',(#976),#957,.F.);
#978=CARTESIAN_POINT('',(-0.,-0.,75.));
#979=DIRECTION('',(0.,0.,-1.));
#980=DIRECTION('',(-1.,0.,0.));
#981=AXIS2_PLACEMENT_3D('',#978,#979,#980);
#982=CYLINDRICAL_SURFACE('',#981,87.1);
#983=ORIENTED_EDGE('',*,*,#972,.T.);
#984=CARTESIAN_POINT('',(73.258898354,47.112034683,0.));
#985=VERTEX_POINT('',#984);
#986=CARTESIAN_POINT('',(-0.,-0.,0.));
#987=DIRECTION('',(-0.,-0.,-1.));
#988=DIRECTION('',(1.,0.,-0.));
#989=AXIS2_PLACEMENT_3D('',#986,#987,#988);
#990=CIRCLE('',#989,87.1);
#991=EDGE_CURVE('',#960,#985,#990,.T.);
#992=ORIENTED_EDGE('',*,*,#991,.T.);
#993=CARTESIAN_POINT('',(73.258898354,47.112034683,75.));
#994=DIRECTION('',(0.,0.,-1.));
#995=VECTOR('',#994,75.);
#996=LINE('',#993,#995);
#997=EDGE_CURVE('',#178,#985,#996,.T.);
#998=ORIENTED_EDGE('',*,*,#997,.F.);
#999=ORIENTED_EDGE('',*,*,#184,.F.);
#1000=EDGE_LOOP('',(#983,#992,#998,#999));
#1001=FACE_BOUND('',#1000,.T.);
#1002=ADVANCED_FACE('',(#1001),#982,.F.);
#1003=CARTESIAN_POINT('',(71.576719287,46.030242842,75.));
#1004=DIRECTION('',(0.,0.,-1.));
#1005=DIRECTION('',(-1.,0.,0.));
#1006=AXIS2_PLACEMENT_3D('',#1003,#1004,#1005);
#1007=CYLINDRICAL_SURFACE('',#1006,2.);
#1008=ORIENTED_EDGE('',*,*,#997,.T.);
#1009=CARTESIAN_POINT('',(72.576719287,44.298192034,0.));
#1010=VERTEX_POINT('',#1009);
#1011=CARTESIAN_POINT('',(71.576719287,46.030242842,0.));
#1012=DIRECTION('',(-0.,-0.,-1.));
#1013=DIRECTION('',(1.,0.,-0.));
#1014=AXIS2_PLACEMENT_3D('',#1011,#1012,#1013);
#1015=CIRCLE('',#1014,2.);
#1016=EDGE_CURVE('',#985,#1010,#1015,.T.);
#1017=ORIENTED_EDGE('',*,*,#1016,.T.);
#1018=CARTESIAN_POINT('',(72.576719287,44.298192034,75.));
#1019=DIRECTION('',(0.,0.,-1.));
#1020=VECTOR('',#1019,75.);
#1021=LINE('',#1018,#1020);
#1022=EDGE_CURVE('',#187,#1010,#1021,.T.);
#1023=ORIENTED_EDGE('',*,*,#1022,.F.);
#1024=ORIENTED_EDGE('',*,*,#193,.F.);
#1025=EDGE_LOOP('',(#1008,#1017,#1023,#1024));
#1026=FACE_BOUND('',#1025,.T.);
#1027=ADVANCED_FACE('',(#1026),#1007,.F.);
#1028=CARTESIAN_POINT('',(57.573034004,35.635810298,75.));
#1029=DIRECTION('',(0.5,-0.866025404,0.));
#1030=DIRECTION('',(0.866025404,0.5,0.));
#1031=AXIS2_PLACEMENT_3D('',#1028,#1029,#1030);
#1032=PLANE('',#1031);
#1033=ORIENTED_EDGE('',*,*,#1022,.T.);
#1034=CARTESIAN_POINT('',(57.573034004,35.635810298,0.));
#1035=VERTEX_POINT('',#1034);
#1036=CARTESIAN_POINT('',(72.576719287,44.298192034,0.));
#1037=DIRECTION('',(-0.866025404,-0.5,0.));
#1038=VECTOR('',#1037,17.324763474);
#1039=LINE('',#1036,#1038);
#1040=EDGE_CURVE('',#1010,#1035,#1039,.T.);
#1041=ORIENTED_EDGE('',*,*,#1040,.T.);
#1042=CARTESIAN_POINT('',(57.573034004,35.635810298,75.));
#1043=DIRECTION('',(0.,0.,-1.));
#1044=VECTOR('',#1043,75.);
#1045=LINE('',#1042,#1044);
#1046=EDGE_CURVE('',#196,#1035,#1045,.T.);
#1047=ORIENTED_EDGE('',*,*,#1046,.F.);
#1048=ORIENTED_EDGE('',*,*,#201,.F.);
#1049=EDGE_LOOP('',(#1033,#1041,#1047,#1048));
#1050=FACE_BOUND('',#1049,.T.);
#1051=ADVANCED_FACE('',(#1050),#1032,.F.);
#1052=CARTESIAN_POINT('',(56.643974014,36.156108891,75.));
#1053=DIRECTION('',(-0.488621241,-0.872496007,0.));
#1054=DIRECTION('',(0.872496007,-0.488621241,0.));
#1055=AXIS2_PLACEMENT_3D('',#1052,#1053,#1054);
#1056=PLANE('',#1055);
#1057=ORIENTED_EDGE('',*,*,#1046,.T.);
#1058=CARTESIAN_POINT('',(56.643974014,36.156108891,0.));
#1059=VERTEX_POINT('',#1058);
#1060=CARTESIAN_POINT('',(57.573034004,35.635810298,0.));
#1061=DIRECTION('',(-0.872496007,0.488621241,0.));
#1062=VECTOR('',#1061,1.064830076);
#1063=LINE('',#1060,#1062);
#1064=EDGE_CURVE('',#1035,#1059,#1063,.T.);
#1065=ORIENTED_EDGE('',*,*,#1064,.T.);
#1066=CARTESIAN_POINT('',(56.643974014,36.156108891,75.));
#1067=DIRECTION('',(0.,0.,-1.));
#1068=VECTOR('',#1067,75.);
#1069=LINE('',#1066,#1068);
#1070=EDGE_CURVE('',#204,#1059,#1069,.T.);
#1071=ORIENTED_EDGE('',*,*,#1070,.F.);
#1072=ORIENTED_EDGE('',*,*,#209,.F.);
#1073=EDGE_LOOP('',(#1057,#1065,#1071,#1072));
#1074=FACE_BOUND('',#1073,.T.);
#1075=ADVANCED_FACE('',(#1074),#1056,.F.);
#1076=CARTESIAN_POINT('',(55.64621048,35.489424612,75.));
#1077=DIRECTION('',(0.555570233,-0.831469612,0.));
#1078=DIRECTION('',(0.831469612,0.555570233,0.));
#1079=AXIS2_PLACEMENT_3D('',#1076,#1077,#1078);
#1080=PLANE('',#1079);
#1081=ORIENTED_EDGE('',*,*,#1070,.T.);
#1082=CARTESIAN_POINT('',(55.64621048,35.489424612,0.));
#1083=VERTEX_POINT('',#1082);
#1084=CARTESIAN_POINT('',(56.643974014,36.156108891,0.));
#1085=DIRECTION('',(-0.831469612,-0.555570233,0.));
#1086=VECTOR('',#1085,1.2);
#1087=LINE('',#1084,#1086);
#1088=EDGE_CURVE('',#1059,#1083,#1087,.T.);
#1089=ORIENTED_EDGE('',*,*,#1088,.T.);
#1090=CARTESIAN_POINT('',(55.64621048,35.489424612,75.));
#1091=DIRECTION('',(0.,0.,-1.));
#1092=VECTOR('',#1091,75.);
#1093=LINE('',#1090,#1092);
#1094=EDGE_CURVE('',#212,#1083,#1093,.T.);
#1095=ORIENTED_EDGE('',*,*,#1094,.F.);
#1096=ORIENTED_EDGE('',*,*,#217,.F.);
#1097=EDGE_LOOP('',(#1081,#1089,#1095,#1096));
#1098=FACE_BOUND('',#1097,.T.);
#1099=ADVANCED_FACE('',(#1098),#1080,.F.);
#1100=CARTESIAN_POINT('',(-0.,-0.,75.));
#1101=DIRECTION('',(0.,0.,-1.));
#1102=DIRECTION('',(-1.,0.,0.));
#1103=AXIS2_PLACEMENT_3D('',#1100,#1101,#1102);
#1104=CYLINDRICAL_SURFACE('',#1103,66.);
#1105=ORIENTED_EDGE('',*,*,#1094,.T.);
#1106=CARTESIAN_POINT('',(58.557848519,30.446319594,0.));
#1107=VERTEX_POINT('',#1106);
#1108=CARTESIAN_POINT('',(-0.,-0.,0.));
#1109=DIRECTION('',(-0.,-0.,-1.));
#1110=DIRECTION('',(1.,0.,-0.));
#1111=AXIS2_PLACEMENT_3D('',#1108,#1109,#1110);
#1112=CIRCLE('',#1111,66.);
#1113=EDGE_CURVE('',#1083,#1107,#1112,.T.);
#1114=ORIENTED_EDGE('',*,*,#1113,.T.);
#1115=CARTESIAN_POINT('',(58.557848519,30.446319594,75.));
#1116=DIRECTION('',(0.,0.,-1.));
#1117=VECTOR('',#1116,75.);
#1118=LINE('',#1115,#1117);
#1119=EDGE_CURVE('',#220,#1107,#1118,.T.);
#1120=ORIENTED_EDGE('',*,*,#1119,.F.);
#1121=ORIENTED_EDGE('',*,*,#226,.F.);
#1122=EDGE_LOOP('',(#1105,#1114,#1120,#1121));
#1123=FACE_BOUND('',#1122,.T.);
#1124=ADVANCED_FACE('',(#1123),#1104,.F.);
#1125=CARTESIAN_POINT('',(59.634095809,30.977066022,75.));
#1126=DIRECTION('',(-0.44228869,0.896872742,0.));
#1127=DIRECTION('',(-0.896872742,-0.44228869,0.));
#1128=AXIS2_PLACEMENT_3D('',#1125,#1126,#1127);
#1129=PLANE('',#1128);
#1130=ORIENTED_EDGE('',*,*,#1119,.T.);
#1131=CARTESIAN_POINT('',(59.634095809,30.977066022,0.));
#1132=VERTEX_POINT('',#1131);
#1133=CARTESIAN_POINT('',(58.557848519,30.446319594,0.));
#1134=DIRECTION('',(0.896872742,0.44228869,0.));
#1135=VECTOR('',#1134,1.2);
#1136=LINE('',#1133,#1135);
#1137=EDGE_CURVE('',#1107,#1132,#1136,.T.);
#1138=ORIENTED_EDGE('',*,*,#1137,.T.);
#1139=CARTESIAN_POINT('',(59.634095809,30.977066022,75.));
#1140=DIRECTION('',(0.,0.,-1.));
#1141=VECTOR('',#1140,75.);
#1142=LINE('',#1139,#1141);
#1143=EDGE_CURVE('',#229,#1132,#1142,.T.);
#1144=ORIENTED_EDGE('',*,*,#1143,.F.);
#1145=ORIENTED_EDGE('',*,*,#234,.F.);
#1146=EDGE_LOOP('',(#1130,#1138,#1144,#1145));
#1147=FACE_BOUND('',#1146,.T.);
#1148=ADVANCED_FACE('',(#1147),#1129,.F.);
#1149=CARTESIAN_POINT('',(59.648034004,32.041804872,75.));
#1150=DIRECTION('',(-0.999914328,0.013089596,0.));
#1151=DIRECTION('',(-0.013089596,-0.999914328,0.));
#1152=AXIS2_PLACEMENT_3D('',#1149,#1150,#1151);
#1153=PLANE('',#1152);
#1154=ORIENTED_EDGE('',*,*,#1143,.T.);
#1155=CARTESIAN_POINT('',(59.648034004,32.041804872,0.));
#1156=VERTEX_POINT('',#1155);
#1157=CARTESIAN_POINT('',(59.634095809,30.977066022,0.));
#1158=DIRECTION('',(0.013089596,0.999914328,0.));
#1159=VECTOR('',#1158,1.064830076);
#1160=LINE('',#1157,#1159);
#1161=EDGE_CURVE('',#1132,#1156,#1160,.T.);
#1162=ORIENTED_EDGE('',*,*,#1161,.T.);
#1163=CARTESIAN_POINT('',(59.648034004,32.041804872,75.));
#1164=DIRECTION('',(0.,0.,-1.));
#1165=VECTOR('',#1164,75.);
#1166=LINE('',#1163,#1165);
#1167=EDGE_CURVE('',#237,#1156,#1166,.T.);
#1168=ORIENTED_EDGE('',*,*,#1167,.F.);
#1169=ORIENTED_EDGE('',*,*,#242,.F.);
#1170=EDGE_LOOP('',(#1154,#1162,#1168,#1169));
#1171=FACE_BOUND('',#1170,.T.);
#1172=ADVANCED_FACE('',(#1171),#1153,.F.);
#1173=CARTESIAN_POINT('',(74.651719287,40.704186609,75.));
#1174=DIRECTION('',(-0.5,0.866025404,0.));
#1175=DIRECTION('',(-0.866025404,-0.5,0.));
#1176=AXIS2_PLACEMENT_3D('',#1173,#1174,#1175);
#1177=PLANE('',#1176);
#1178=ORIENTED_EDGE('',*,*,#1167,.T.);
#1179=CARTESIAN_POINT('',(74.651719287,40.704186609,0.));
#1180=VERTEX_POINT('',#1179);
#1181=CARTESIAN_POINT('',(59.648034004,32.041804872,0.));
#1182=DIRECTION('',(0.866025404,0.5,0.));
#1183=VECTOR('',#1182,17.324763474);
#1184=LINE('',#1181,#1183);
#1185=EDGE_CURVE('',#1156,#1180,#1184,.T.);
#1186=ORIENTED_EDGE('',*,*,#1185,.T.);
#1187=CARTESIAN_POINT('',(74.651719287,40.704186609,75.));
#1188=DIRECTION('',(0.,0.,-1.));
#1189=VECTOR('',#1188,75.);
#1190=LINE('',#1187,#1189);
#1191=EDGE_CURVE('',#245,#1180,#1190,.T.);
#1192=ORIENTED_EDGE('',*,*,#1191,.F.);
#1193=ORIENTED_EDGE('',*,*,#250,.F.);
#1194=EDGE_LOOP('',(#1178,#1186,#1192,#1193));
#1195=FACE_BOUND('',#1194,.T.);
#1196=ADVANCED_FACE('',(#1195),#1177,.F.);
#1197=CARTESIAN_POINT('',(75.651719287,38.972135801,75.));
#1198=DIRECTION('',(0.,0.,-1.));
#1199=DIRECTION('',(-1.,0.,0.));
#1200=AXIS2_PLACEMENT_3D('',#1197,#1198,#1199);
#1201=CYLINDRICAL_SURFACE('',#1200,2.);
#1202=ORIENTED_EDGE('',*,*,#1191,.T.);
#1203=CARTESIAN_POINT('',(77.429668037,39.888049686,0.));
#1204=VERTEX_POINT('',#1203);
#1205=CARTESIAN_POINT('',(75.651719287,38.972135801,0.));
#1206=DIRECTION('',(-0.,-0.,-1.));
#1207=DIRECTION('',(1.,0.,-0.));
#1208=AXIS2_PLACEMENT_3D('',#1205,#1206,#1207);
#1209=CIRCLE('',#1208,2.);
#1210=EDGE_CURVE('',#1180,#1204,#1209,.T.);
#1211=ORIENTED_EDGE('',*,*,#1210,.T.);
#1212=CARTESIAN_POINT('',(77.429668037,39.888049686,75.));
#1213=DIRECTION('',(0.,0.,-1.));
#1214=VECTOR('',#1213,75.);
#1215=LINE('',#1212,#1214);
#1216=EDGE_CURVE('',#253,#1204,#1215,.T.);
#1217=ORIENTED_EDGE('',*,*,#1216,.F.);
#1218=ORIENTED_EDGE('',*,*,#259,.F.);
#1219=EDGE_LOOP('',(#1202,#1211,#1217,#1218));
#1220=FACE_BOUND('',#1219,.T.);
#1221=ADVANCED_FACE('',(#1220),#1201,.F.);
#1222=CARTESIAN_POINT('',(0.000000001,0.,75.));
#1223=DIRECTION('',(0.,0.,-1.));
#1224=DIRECTION('',(-1.,0.,0.));
#1225=AXIS2_PLACEMENT_3D('',#1222,#1223,#1224);
#1226=CYLINDRICAL_SURFACE('',#1225,87.099999999);
#1227=ORIENTED_EDGE('',*,*,#1216,.T.);
#1228=CARTESIAN_POINT('',(78.781512818,37.146779647,0.));
#1229=VERTEX_POINT('',#1228);
#1230=CARTESIAN_POINT('',(0.000000001,0.,0.));
#1231=DIRECTION('',(-0.,-0.,-1.));
#1232=DIRECTION('',(1.,0.,-0.));
#1233=AXIS2_PLACEMENT_3D('',#1230,#1231,#1232);
#1234=CIRCLE('',#1233,87.099999999);
#1235=EDGE_CURVE('',#1204,#1229,#1234,.T.);
#1236=ORIENTED_EDGE('',*,*,#1235,.T.);
#1237=CARTESIAN_POINT('',(78.781512818,37.146779647,75.));
#1238=DIRECTION('',(0.,0.,-1.));
#1239=VECTOR('',#1238,75.);
#1240=LINE('',#1237,#1239);
#1241=EDGE_CURVE('',#262,#1229,#1240,.T.);
#1242=ORIENTED_EDGE('',*,*,#1241,.F.);
#1243=ORIENTED_EDGE('',*,*,#268,.F.);
#1244=EDGE_LOOP('',(#1227,#1236,#1242,#1243));
#1245=FACE_BOUND('',#1244,.T.);
#1246=ADVANCED_FACE('',(#1245),#1226,.F.);
#1247=CARTESIAN_POINT('',(76.972522856,36.293811113,75.));
#1248=DIRECTION('',(0.,0.,-1.));
#1249=DIRECTION('',(-1.,0.,0.));
#1250=AXIS2_PLACEMENT_3D('',#1247,#1248,#1249);
#1251=CYLINDRICAL_SURFACE('',#1250,2.);
#1252=ORIENTED_EDGE('',*,*,#1241,.T.);
#1253=CARTESIAN_POINT('',(77.737889721,34.446052048,0.));
#1254=VERTEX_POINT('',#1253);
#1255=CARTESIAN_POINT('',(76.972522856,36.293811113,0.));
#1256=DIRECTION('',(-0.,-0.,-1.));
#1257=DIRECTION('',(1.,0.,-0.));
#1258=AXIS2_PLACEMENT_3D('',#1255,#1256,#1257);
#1259=CIRCLE('',#1258,2.);
#1260=EDGE_CURVE('',#1229,#1254,#1259,.T.);
#1261=ORIENTED_EDGE('',*,*,#1260,.T.);
#1262=CARTESIAN_POINT('',(77.737889721,34.446052048,75.));
#1263=DIRECTION('',(0.,0.,-1.));
#1264=VECTOR('',#1263,75.);
#1265=LINE('',#1262,#1264);
#1266=EDGE_CURVE('',#271,#1254,#1265,.T.);
#1267=ORIENTED_EDGE('',*,*,#1266,.F.);
#1268=ORIENTED_EDGE('',*,*,#277,.F.);
#1269=EDGE_LOOP('',(#1252,#1261,#1267,#1268));
#1270=FACE_BOUND('',#1269,.T.);
#1271=ADVANCED_FACE('',(#1270),#1251,.F.);
#1272=CARTESIAN_POINT('',(61.731895342,27.816152097,75.));
#1273=DIRECTION('',(0.382683432,-0.923879533,0.));
#1274=DIRECTION('',(0.923879533,0.382683432,0.));
#1275=AXIS2_PLACEMENT_3D('',#1272,#1273,#1274);
#1276=PLANE('',#1275);
#1277=ORIENTED_EDGE('',*,*,#1266,.T.);
#1278=CARTESIAN_POINT('',(61.731895342,27.816152097,0.));
#1279=VERTEX_POINT('',#1278);
#1280=CARTESIAN_POINT('',(77.737889721,34.446052048,0.));
#1281=DIRECTION('',(-0.923879533,-0.382683432,0.));
#1282=VECTOR('',#1281,17.324763474);
#1283=LINE('',#1280,#1282);
#1284=EDGE_CURVE('',#1254,#1279,#1283,.T.);
#1285=ORIENTED_EDGE('',*,*,#1284,.T.);
#1286=CARTESIAN_POINT('',(61.731895342,27.816152097,75.));
#1287=DIRECTION('',(0.,0.,-1.));
#1288=VECTOR('',#1287,75.);
#1289=LINE('',#1286,#1288);
#1290=EDGE_CURVE('',#280,#1279,#1289,.T.);
#1291=ORIENTED_EDGE('',*,*,#1290,.F.);
#1292=ORIENTED_EDGE('',*,*,#285,.F.);
#1293=EDGE_LOOP('',(#1277,#1285,#1291,#1292));
#1294=FACE_BOUND('',#1293,.T.);
#1295=ADVANCED_FACE('',(#1294),#1276,.F.);
#1296=CARTESIAN_POINT('',(60.878696183,28.453266127,75.));
#1297=DIRECTION('',(-0.598324601,-0.801253813,0.));
#1298=DIRECTION('',(0.801253813,-0.598324601,0.));
#1299=AXIS2_PLACEMENT_3D('',#1296,#1297,#1298);
#1300=PLANE('',#1299);
#1301=ORIENTED_EDGE('',*,*,#1290,.T.);
#1302=CARTESIAN_POINT('',(60.878696183,28.453266127,0.));
#1303=VERTEX_POINT('',#1302);
#1304=CARTESIAN_POINT('',(61.731895342,27.816152097,0.));
#1305=DIRECTION('',(-0.801253813,0.598324601,0.));
#1306=VECTOR('',#1305,1.064830076);
#1307=LINE('',#1304,#1306);
#1308=EDGE_CURVE('',#1279,#1303,#1307,.T.);
#1309=ORIENTED_EDGE('',*,*,#1308,.T.);
#1310=CARTESIAN_POINT('',(60.878696183,28.453266127,75.));
#1311=DIRECTION('',(0.,0.,-1.));
#1312=VECTOR('',#1311,75.);
#1313=LINE('',#1310,#1312);
#1314=EDGE_CURVE('',#288,#1303,#1313,.T.);
#1315=ORIENTED_EDGE('',*,*,#1314,.F.);
#1316=ORIENTED_EDGE('',*,*,#293,.F.);
#1317=EDGE_LOOP('',(#1301,#1309,#1315,#1316));
#1318=FACE_BOUND('',#1317,.T.);
#1319=ADVANCED_FACE('',(#1318),#1300,.F.);
#1320=CARTESIAN_POINT('',(59.802448893,27.922519699,75.));
#1321=DIRECTION('',(0.44228869,-0.896872742,0.));
#1322=DIRECTION('',(0.896872742,0.44228869,0.));
#1323=AXIS2_PLACEMENT_3D('',#1320,#1321,#1322);
#1324=PLANE('',#1323);
#1325=ORIENTED_EDGE('',*,*,#1314,.T.);
#1326=CARTESIAN_POINT('',(59.802448893,27.922519699,0.));
#1327=VERTEX_POINT('',#1326);
#1328=CARTESIAN_POINT('',(60.878696183,28.453266127,0.));
#1329=DIRECTION('',(-0.896872742,-0.44228869,0.));
#1330=VECTOR('',#1329,1.2);
#1331=LINE('',#1328,#1330);
#1332=EDGE_CURVE('',#1303,#1327,#1331,.T.);
#1333=ORIENTED_EDGE('',*,*,#1332,.T.);
#1334=CARTESIAN_POINT('',(59.802448893,27.922519699,75.));
#1335=DIRECTION('',(0.,0.,-1.));
#1336=VECTOR('',#1335,75.);
#1337=LINE('',#1334,#1336);
#1338=EDGE_CURVE('',#296,#1327,#1337,.T.);
#1339=ORIENTED_EDGE('',*,*,#1338,.F.);
#1340=ORIENTED_EDGE('',*,*,#301,.F.);
#1341=EDGE_LOOP('',(#1325,#1333,#1339,#1340));
#1342=FACE_BOUND('',#1341,.T.);
#1343=ADVANCED_FACE('',(#1342),#1324,.F.);
#1344=CARTESIAN_POINT('',(0.,0.,75.));
#1345=DIRECTION('',(0.,0.,-1.));
#1346=DIRECTION('',(-1.,0.,0.));
#1347=AXIS2_PLACEMENT_3D('',#1344,#1345,#1346);
#1348=CYLINDRICAL_SURFACE('',#1347,66.);
#1349=ORIENTED_EDGE('',*,*,#1338,.T.);
#1350=CARTESIAN_POINT('',(62.030920171,22.542514117,0.));
#1351=VERTEX_POINT('',#1350);
#1352=CARTESIAN_POINT('',(0.,0.,0.));
#1353=DIRECTION('',(-0.,-0.,-1.));
#1354=DIRECTION('',(1.,0.,-0.));
#1355=AXIS2_PLACEMENT_3D('',#1352,#1353,#1354);
#1356=CIRCLE('',#1355,66.);
#1357=EDGE_CURVE('',#1327,#1351,#1356,.T.);
#1358=ORIENTED_EDGE('',*,*,#1357,.T.);
#1359=CARTESIAN_POINT('',(62.030920171,22.542514117,75.));
#1360=DIRECTION('',(0.,0.,-1.));
#1361=VECTOR('',#1360,75.);
#1362=LINE('',#1359,#1361);
#1363=EDGE_CURVE('',#304,#1351,#1362,.T.);
#1364=ORIENTED_EDGE('',*,*,#1363,.F.);
#1365=ORIENTED_EDGE('',*,*,#310,.F.);
#1366=EDGE_LOOP('',(#1349,#1358,#1364,#1365));
#1367=FACE_BOUND('',#1366,.T.);
#1368=ADVANCED_FACE('',(#1367),#1348,.F.);
#1369=CARTESIAN_POINT('',(63.167236327,22.928241476,75.));
#1370=DIRECTION('',(-0.321439465,0.946930129,0.));
#1371=DIRECTION('',(-0.946930129,-0.321439465,0.));
#1372=AXIS2_PLACEMENT_3D('',#1369,#1370,#1371);
#1373=PLANE('',#1372);
#1374=ORIENTED_EDGE('',*,*,#1363,.T.);
#1375=CARTESIAN_POINT('',(63.167236327,22.928241476,0.));
#1376=VERTEX_POINT('',#1375);
#1377=CARTESIAN_POINT('',(62.030920171,22.542514117,0.));
#1378=DIRECTION('',(0.946930129,0.321439465,0.));
#1379=VECTOR('',#1378,1.2);
#1380=LINE('',#1377,#1379);
#1381=EDGE_CURVE('',#1351,#1376,#1380,.T.);
#1382=ORIENTED_EDGE('',*,*,#1381,.T.);
#1383=CARTESIAN_POINT('',(63.167236327,22.928241476,75.));
#1384=DIRECTION('',(0.,0.,-1.));
#1385=VECTOR('',#1384,75.);
#1386=LINE('',#1383,#1385);
#1387=EDGE_CURVE('',#313,#1376,#1386,.T.);
#1388=ORIENTED_EDGE('',*,*,#1387,.F.);
#1389=ORIENTED_EDGE('',*,*,#318,.F.);
#1390=EDGE_LOOP('',(#1374,#1382,#1388,#1389));
#1391=FACE_BOUND('',#1390,.T.);
#1392=ADVANCED_FACE('',(#1391),#1373,.F.);
#1393=CARTESIAN_POINT('',(63.320031586,23.982052037,75.));
#1394=DIRECTION('',(-0.989651387,0.143492622,0.));
#1395=DIRECTION('',(-0.143492622,-0.989651387,0.));
#1396=AXIS2_PLACEMENT_3D('',#1393,#1394,#1395);
#1397=PLANE('',#1396);
#1398=ORIENTED_EDGE('',*,*,#1387,.T.);
#1399=CARTESIAN_POINT('',(63.320031586,23.982052037,0.));
#1400=VERTEX_POINT('',#1399);
#1401=CARTESIAN_POINT('',(63.167236327,22.928241476,0.));
#1402=DIRECTION('',(0.143492622,0.989651387,0.));
#1403=VECTOR('',#1402,1.064830076);
#1404=LINE('',#1401,#1403);
#1405=EDGE_CURVE('',#1376,#1400,#1404,.T.);
#1406=ORIENTED_EDGE('',*,*,#1405,.T.);
#1407=CARTESIAN_POINT('',(63.320031586,23.982052037,75.));
#1408=DIRECTION('',(0.,0.,-1.));
#1409=VECTOR('',#1408,75.);
#1410=LINE('',#1407,#1409);
#1411=EDGE_CURVE('',#321,#1400,#1410,.T.);
#1412=ORIENTED_EDGE('',*,*,#1411,.F.);
#1413=ORIENTED_EDGE('',*,*,#326,.F.);
#1414=EDGE_LOOP('',(#1398,#1406,#1412,#1413));
#1415=FACE_BOUND('',#1414,.T.);
#1416=ADVANCED_FACE('',(#1415),#1397,.F.);
#1417=CARTESIAN_POINT('',(79.326025965,30.611951988,75.));
#1418=DIRECTION('',(-0.382683432,0.923879533,0.));
#1419=DIRECTION('',(-0.923879533,-0.382683432,0.));
#1420=AXIS2_PLACEMENT_3D('',#1417,#1418,#1419);
#1421=PLANE('',#1420);
#1422=ORIENTED_EDGE('',*,*,#1411,.T.);
#1423=CARTESIAN_POINT('',(79.326025965,30.611951988,0.));
#1424=VERTEX_POINT('',#1423);
#1425=CARTESIAN_POINT('',(63.320031586,23.982052037,0.));
#1426=DIRECTION('',(0.923879533,0.382683432,0.));
#1427=VECTOR('',#1426,17.324763474);
#1428=LINE('',#1425,#1427);
#1429=EDGE_CURVE('',#1400,#1424,#1428,.T.);
#1430=ORIENTED_EDGE('',*,*,#1429,.T.);
#1431=CARTESIAN_POINT('',(79.326025965,30.611951988,75.));
#1432=DIRECTION('',(0.,0.,-1.));
#1433=VECTOR('',#1432,75.);
#1434=LINE('',#1431,#1433);
#1435=EDGE_CURVE('',#329,#1424,#1434,.T.);
#1436=ORIENTED_EDGE('',*,*,#1435,.F.);
#1437=ORIENTED_EDGE('',*,*,#334,.F.);
#1438=EDGE_LOOP('',(#1422,#1430,#1436,#1437));
#1439=FACE_BOUND('',#1438,.T.);
#1440=ADVANCED_FACE('',(#1439),#1421,.F.);
#1441=CARTESIAN_POINT('',(80.09139283,28.764192923,75.));
#1442=DIRECTION('',(0.,0.,-1.));
#1443=DIRECTION('',(-1.,0.,0.));
#1444=AXIS2_PLACEMENT_3D('',#1441,#1442,#1443);
#1445=CYLINDRICAL_SURFACE('',#1444,2.);
#1446=ORIENTED_EDGE('',*,*,#1435,.T.);
#1447=CARTESIAN_POINT('',(81.973681733,29.440202158,0.));
#1448=VERTEX_POINT('',#1447);
#1449=CARTESIAN_POINT('',(80.09139283,28.764192923,0.));
#1450=DIRECTION('',(-0.,-0.,-1.));
#1451=DIRECTION('',(1.,0.,-0.));
#1452=AXIS2_PLACEMENT_3D('',#1449,#1450,#1451);
#1453=CIRCLE('',#1452,2.);
#1454=EDGE_CURVE('',#1424,#1448,#1453,.T.);
#1455=ORIENTED_EDGE('',*,*,#1454,.T.);
#1456=CARTESIAN_POINT('',(81.973681733,29.440202158,75.));
#1457=DIRECTION('',(0.,0.,-1.));
#1458=VECTOR('',#1457,75.);
#1459=LINE('',#1456,#1458);
#1460=EDGE_CURVE('',#337,#1448,#1459,.T.);
#1461=ORIENTED_EDGE('',*,*,#1460,.F.);
#1462=ORIENTED_EDGE('',*,*,#343,.F.);
#1463=EDGE_LOOP('',(#1446,#1455,#1461,#1462));
#1464=FACE_BOUND('',#1463,.T.);
#1465=ADVANCED_FACE('',(#1464),#1445,.F.);
#1466=CARTESIAN_POINT('',(0.000000001,0.,75.));
#1467=DIRECTION('',(0.,0.,-1.));
#1468=DIRECTION('',(-1.,0.,0.));
#1469=AXIS2_PLACEMENT_3D('',#1466,#1467,#1468);
#1470=CYLINDRICAL_SURFACE('',#1469,87.099999999);
#1471=ORIENTED_EDGE('',*,*,#1460,.T.);
#1472=CARTESIAN_POINT('',(82.956153755,26.545932912,0.));
#1473=VERTEX_POINT('',#1472);
#1474=CARTESIAN_POINT('',(0.000000001,0.,0.));
#1475=DIRECTION('',(-0.,-0.,-1.));
#1476=DIRECTION('',(1.,0.,-0.));
#1477=AXIS2_PLACEMENT_3D('',#1474,#1475,#1476);
#1478=CIRCLE('',#1477,87.099999999);
#1479=EDGE_CURVE('',#1448,#1473,#1478,.T.);
#1480=ORIENTED_EDGE('',*,*,#1479,.T.);
#1481=CARTESIAN_POINT('',(82.956153755,26.545932912,75.));
#1482=DIRECTION('',(0.,0.,-1.));
#1483=VECTOR('',#1482,75.);
#1484=LINE('',#1481,#1483);
#1485=EDGE_CURVE('',#346,#1473,#1484,.T.);
#1486=ORIENTED_EDGE('',*,*,#1485,.F.);
#1487=ORIENTED_EDGE('',*,*,#352,.F.);
#1488=EDGE_LOOP('',(#1471,#1480,#1486,#1487));
#1489=FACE_BOUND('',#1488,.T.);
#1490=ADVANCED_FACE('',(#1489),#1470,.F.);
#1491=CARTESIAN_POINT('',(81.051305219,25.936382214,75.));
#1492=DIRECTION('',(0.,0.,-1.));
#1493=DIRECTION('',(-1.,0.,0.));
#1494=AXIS2_PLACEMENT_3D('',#1491,#1492,#1493);
#1495=CYLINDRICAL_SURFACE('',#1494,2.);
#1496=ORIENTED_EDGE('',*,*,#1485,.T.);
#1497=CARTESIAN_POINT('',(81.568943309,24.004530561,0.));
#1498=VERTEX_POINT('',#1497);
#1499=CARTESIAN_POINT('',(81.051305219,25.936382214,0.));
#1500=DIRECTION('',(-0.,-0.,-1.));
#1501=DIRECTION('',(1.,0.,-0.));
#1502=AXIS2_PLACEMENT_3D('',#1499,#1500,#1501);
#1503=CIRCLE('',#1502,2.);
#1504=EDGE_CURVE('',#1473,#1498,#1503,.T.);
#1505=ORIENTED_EDGE('',*,*,#1504,.T.);
#1506=CARTESIAN_POINT('',(81.568943309,24.004530561,75.));
#1507=DIRECTION('',(0.,0.,-1.));
#1508=VECTOR('',#1507,75.);
#1509=LINE('',#1506,#1508);
#1510=EDGE_CURVE('',#355,#1498,#1509,.T.);
#1511=ORIENTED_EDGE('',*,*,#1510,.F.);
#1512=ORIENTED_EDGE('',*,*,#361,.F.);
#1513=EDGE_LOOP('',(#1496,#1505,#1511,#1512));
#1514=FACE_BOUND('',#1513,.T.);
#1515=ADVANCED_FACE('',(#1514),#1495,.F.);
#1516=CARTESIAN_POINT('',(64.834506835,19.520551823,75.));
#1517=DIRECTION('',(0.258819045,-0.965925826,0.));
#1518=DIRECTION('',(0.965925826,0.258819045,0.));
#1519=AXIS2_PLACEMENT_3D('',#1516,#1517,#1518);
#1520=PLANE('',#1519);
#1521=ORIENTED_EDGE('',*,*,#1510,.T.);
#1522=CARTESIAN_POINT('',(64.834506835,19.520551823,0.));
#1523=VERTEX_POINT('',#1522);
#1524=CARTESIAN_POINT('',(81.568943309,24.004530561,0.));
#1525=DIRECTION('',(-0.965925826,-0.258819045,0.));
#1526=VECTOR('',#1525,17.324763474);
#1527=LINE('',#1524,#1526);
#1528=EDGE_CURVE('',#1498,#1523,#1527,.T.);
#1529=ORIENTED_EDGE('',*,*,#1528,.T.);
#1530=CARTESIAN_POINT('',(64.834506835,19.520551823,75.));
#1531=DIRECTION('',(0.,0.,-1.));
#1532=VECTOR('',#1531,75.);
#1533=LINE('',#1530,#1532);
#1534=EDGE_CURVE('',#364,#1523,#1533,.T.);
#1535=ORIENTED_EDGE('',*,*,#1534,.F.);
#1536=ORIENTED_EDGE('',*,*,#369,.F.);
#1537=EDGE_LOOP('',(#1521,#1529,#1535,#1536));
#1538=FACE_BOUND('',#1537,.T.);
#1539=ADVANCED_FACE('',(#1538),#1520,.F.);
#1540=CARTESIAN_POINT('',(64.071766982,20.263580091,75.));
#1541=DIRECTION('',(-0.69779046,-0.716301943,0.));
#1542=DIRECTION('',(0.716301943,-0.69779046,0.));
#1543=AXIS2_PLACEMENT_3D('',#1540,#1541,#1542);
#1544=PLANE('',#1543);
#1545=ORIENTED_EDGE('',*,*,#1534,.T.);
#1546=CARTESIAN_POINT('',(64.071766982,20.263580091,0.));
#1547=VERTEX_POINT('',#1546);
#1548=CARTESIAN_POINT('',(64.834506835,19.520551823,0.));
#1549=DIRECTION('',(-0.716301943,0.69779046,0.));
#1550=VECTOR('',#1549,1.064830076);
#1551=LINE('',#1548,#1550);
#1552=EDGE_CURVE('',#1523,#1547,#1551,.T.);
#1553=ORIENTED_EDGE('',*,*,#1552,.T.);
#1554=CARTESIAN_POINT('',(64.071766982,20.263580091,75.));
#1555=DIRECTION('',(0.,0.,-1.));
#1556=VECTOR('',#1555,75.);
#1557=LINE('',#1554,#1556);
#1558=EDGE_CURVE('',#372,#1547,#1557,.T.);
#1559=ORIENTED_EDGE('',*,*,#1558,.F.);
#1560=ORIENTED_EDGE('',*,*,#377,.F.);
#1561=EDGE_LOOP('',(#1545,#1553,#1559,#1560));
#1562=FACE_BOUND('',#1561,.T.);
#1563=ADVANCED_FACE('',(#1562),#1544,.F.);
#1564=CARTESIAN_POINT('',(62.935450826,19.877852733,75.));
#1565=DIRECTION('',(0.321439465,-0.946930129,0.));
#1566=DIRECTION('',(0.946930129,0.321439465,0.));
#1567=AXIS2_PLACEMENT_3D('',#1564,#1565,#1566);
#1568=PLANE('',#1567);
#1569=ORIENTED_EDGE('',*,*,#1558,.T.);
#1570=CARTESIAN_POINT('',(62.935450826,19.877852733,0.));
#1571=VERTEX_POINT('',#1570);
#1572=CARTESIAN_POINT('',(64.071766982,20.263580091,0.));
#1573=DIRECTION('',(-0.946930129,-0.321439465,0.));
#1574=VECTOR('',#1573,1.2);
#1575=LINE('',#1572,#1574);
#1576=EDGE_CURVE('',#1547,#1571,#1575,.T.);
#1577=ORIENTED_EDGE('',*,*,#1576,.T.);
#1578=CARTESIAN_POINT('',(62.935450826,19.877852733,75.));
#1579=DIRECTION('',(0.,0.,-1.));
#1580=VECTOR('',#1579,75.);
#1581=LINE('',#1578,#1580);
#1582=EDGE_CURVE('',#380,#1571,#1581,.T.);
#1583=ORIENTED_EDGE('',*,*,#1582,.F.);
#1584=ORIENTED_EDGE('',*,*,#385,.F.);
#1585=EDGE_LOOP('',(#1569,#1577,#1583,#1584));
#1586=FACE_BOUND('',#1585,.T.);
#1587=ADVANCED_FACE('',(#1586),#1568,.F.);
#1588=CARTESIAN_POINT('',(-0.,-0.,75.));
#1589=DIRECTION('',(0.,0.,-1.));
#1590=DIRECTION('',(-1.,0.,0.));
#1591=AXIS2_PLACEMENT_3D('',#1588,#1589,#1590);
#1592=CYLINDRICAL_SURFACE('',#1591,66.);
#1593=ORIENTED_EDGE('',*,*,#1582,.T.);
#1594=CARTESIAN_POINT('',(64.442625581,14.252999974,0.));
#1595=VERTEX_POINT('',#1594);
#1596=CARTESIAN_POINT('',(-0.,-0.,0.));
#1597=DIRECTION('',(-0.,-0.,-1.));
#1598=DIRECTION('',(1.,0.,-0.));
#1599=AXIS2_PLACEMENT_3D('',#1596,#1597,#1598);
#1600=CIRCLE('',#1599,66.);
#1601=EDGE_CURVE('',#1571,#1595,#1600,.T.);
#1602=ORIENTED_EDGE('',*,*,#1601,.T.);
#1603=CARTESIAN_POINT('',(64.442625581,14.252999974,75.));
#1604=DIRECTION('',(0.,0.,-1.));
#1605=VECTOR('',#1604,75.);
#1606=LINE('',#1603,#1605);
#1607=EDGE_CURVE('',#388,#1595,#1606,.T.);
#1608=ORIENTED_EDGE('',*,*,#1607,.F.);
#1609=ORIENTED_EDGE('',*,*,#394,.F.);
#1610=EDGE_LOOP('',(#1593,#1602,#1608,#1609));
#1611=FACE_BOUND('',#1610,.T.);
#1612=ADVANCED_FACE('',(#1611),#1592,.F.);
#1613=CARTESIAN_POINT('',(65.619567917,14.48710836,75.));
#1614=DIRECTION('',(-0.195090322,0.98078528,0.));
#1615=DIRECTION('',(-0.98078528,-0.195090322,0.));
#1616=AXIS2_PLACEMENT_3D('',#1613,#1614,#1615);
#1617=PLANE('',#1616);
#1618=ORIENTED_EDGE('',*,*,#1607,.T.);
#1619=CARTESIAN_POINT('',(65.619567917,14.48710836,0.));
#1620=VERTEX_POINT('',#1619);
#1621=CARTESIAN_POINT('',(64.442625581,14.252999974,0.));
#1622=DIRECTION('',(0.98078528,0.195090322,0.));
#1623=VECTOR('',#1622,1.2);
#1624=LINE('',#1621,#1623);
#1625=EDGE_CURVE('',#1595,#1620,#1624,.T.);
#1626=ORIENTED_EDGE('',*,*,#1625,.T.);
#1627=CARTESIAN_POINT('',(65.619567917,14.48710836,75.));
#1628=DIRECTION('',(0.,0.,-1.));
#1629=VECTOR('',#1628,75.);
#1630=LINE('',#1627,#1629);
#1631=EDGE_CURVE('',#397,#1620,#1630,.T.);
#1632=ORIENTED_EDGE('',*,*,#1631,.F.);
#1633=ORIENTED_EDGE('',*,*,#402,.F.);
#1634=EDGE_LOOP('',(#1618,#1626,#1632,#1633));
#1635=FACE_BOUND('',#1634,.T.);
#1636=ADVANCED_FACE('',(#1635),#1617,.F.);
#1637=CARTESIAN_POINT('',(65.908605872,15.511959643,75.));
#1638=DIRECTION('',(-0.962455236,0.27144045,0.));
#1639=DIRECTION('',(-0.27144045,-0.962455236,0.));
#1640=AXIS2_PLACEMENT_3D('',#1637,#1638,#1639);
#1641=PLANE('',#1640);
#1642=ORIENTED_EDGE('',*,*,#1631,.T.);
#1643=CARTESIAN_POINT('',(65.908605872,15.511959643,0.));
#1644=VERTEX_POINT('',#1643);
#1645=CARTESIAN_POINT('',(65.619567917,14.48710836,0.));
#1646=DIRECTION('',(0.27144045,0.962455236,0.));
#1647=VECTOR('',#1646,1.064830076);
#1648=LINE('',#1645,#1647);
#1649=EDGE_CURVE('',#1620,#1644,#1648,.T.);
#1650=ORIENTED_EDGE('',*,*,#1649,.T.);
#1651=CARTESIAN_POINT('',(65.908605872,15.511959643,75.));
#1652=DIRECTION('',(0.,0.,-1.));
#1653=VECTOR('',#1652,75.);
#1654=LINE('',#1651,#1653);
#1655=EDGE_CURVE('',#405,#1644,#1654,.T.);
#1656=ORIENTED_EDGE('',*,*,#1655,.F.);
#1657=ORIENTED_EDGE('',*,*,#410,.F.);
#1658=EDGE_LOOP('',(#1642,#1650,#1656,#1657));
#1659=FACE_BOUND('',#1658,.T.);
#1660=ADVANCED_FACE('',(#1659),#1641,.F.);
#1661=CARTESIAN_POINT('',(82.643042346,19.995938382,75.));
#1662=DIRECTION('',(-0.258819045,0.965925826,0.));
#1663=DIRECTION('',(-0.965925826,-0.258819045,0.));
#1664=AXIS2_PLACEMENT_3D('',#1661,#1662,#1663);
#1665=PLANE('',#1664);
#1666=ORIENTED_EDGE('',*,*,#1655,.T.);
#1667=CARTESIAN_POINT('',(82.643042346,19.995938382,0.));
#1668=VERTEX_POINT('',#1667);
#1669=CARTESIAN_POINT('',(65.908605872,15.511959643,0.));
#1670=DIRECTION('',(0.965925826,0.258819045,0.));
#1671=VECTOR('',#1670,17.324763474);
#1672=LINE('',#1669,#1671);
#1673=EDGE_CURVE('',#1644,#1668,#1672,.T.);
#1674=ORIENTED_EDGE('',*,*,#1673,.T.);
#1675=CARTESIAN_POINT('',(82.643042346,19.995938382,75.));
#1676=DIRECTION('',(0.,0.,-1.));
#1677=VECTOR('',#1676,75.);
#1678=LINE('',#1675,#1677);
#1679=EDGE_CURVE('',#413,#1668,#1678,.T.);
#1680=ORIENTED_EDGE('',*,*,#1679,.F.);
#1681=ORIENTED_EDGE('',*,*,#418,.F.);
#1682=EDGE_LOOP('',(#1666,#1674,#1680,#1681));
#1683=FACE_BOUND('',#1682,.T.);
#1684=ADVANCED_FACE('',(#1683),#1665,.F.);
#1685=CARTESIAN_POINT('',(83.160680436,18.06408673,75.));
#1686=DIRECTION('',(0.,0.,-1.));
#1687=DIRECTION('',(-1.,0.,0.));
#1688=AXIS2_PLACEMENT_3D('',#1685,#1686,#1687);
#1689=CYLINDRICAL_SURFACE('',#1688,2.);
#1690=ORIENTED_EDGE('',*,*,#1679,.T.);
#1691=CARTESIAN_POINT('',(85.115103008,18.488624608,0.));
#1692=VERTEX_POINT('',#1691);
#1693=CARTESIAN_POINT('',(83.160680436,18.06408673,0.));
#1694=DIRECTION('',(-0.,-0.,-1.));
#1695=DIRECTION('',(1.,0.,-0.));
#1696=AXIS2_PLACEMENT_3D('',#1693,#1694,#1695);
#1697=CIRCLE('',#1696,2.);
#1698=EDGE_CURVE('',#1668,#1692,#1697,.T.);
#1699=ORIENTED_EDGE('',*,*,#1698,.T.);
#1700=CARTESIAN_POINT('',(85.115103008,18.488624608,75.));
#1701=DIRECTION('',(0.,0.,-1.));
#1702=VECTOR('',#1701,75.);
#1703=LINE('',#1700,#1702);
#1704=EDGE_CURVE('',#421,#1692,#1703,.T.);
#1705=ORIENTED_EDGE('',*,*,#1704,.F.);
#1706=ORIENTED_EDGE('',*,*,#427,.F.);
#1707=EDGE_LOOP('',(#1690,#1699,#1705,#1706));
#1708=FACE_BOUND('',#1707,.T.);
#1709=ADVANCED_FACE('',(#1708),#1689,.F.);
#1710=CARTESIAN_POINT('',(0.,0.,75.));
#1711=DIRECTION('',(0.,0.,-1.));
#1712=DIRECTION('',(-1.,0.,0.));
#1713=AXIS2_PLACEMENT_3D('',#1710,#1711,#1712);
#1714=CYLINDRICAL_SURFACE('',#1713,87.1);
#1715=ORIENTED_EDGE('',*,*,#1704,.T.);
#1716=CARTESIAN_POINT('',(85.711391902,15.490877905,0.));
#1717=VERTEX_POINT('',#1716);
#1718=CARTESIAN_POINT('',(0.,0.,0.));
#1719=DIRECTION('',(-0.,-0.,-1.));
#1720=DIRECTION('',(1.,0.,-0.));
#1721=AXIS2_PLACEMENT_3D('',#1718,#1719,#1720);
#1722=CIRCLE('',#1721,87.1);
#1723=EDGE_CURVE('',#1692,#1717,#1722,.T.);
#1724=ORIENTED_EDGE('',*,*,#1723,.T.);
#1725=CARTESIAN_POINT('',(85.711391902,15.490877905,75.));
#1726=DIRECTION('',(0.,0.,-1.));
#1727=VECTOR('',#1726,75.);
#1728=LINE('',#1725,#1727);
#1729=EDGE_CURVE('',#430,#1717,#1728,.T.);
#1730=ORIENTED_EDGE('',*,*,#1729,.F.);
#1731=ORIENTED_EDGE('',*,*,#436,.F.);
#1732=EDGE_LOOP('',(#1715,#1724,#1730,#1731));
#1733=FACE_BOUND('',#1732,.T.);
#1734=ADVANCED_FACE('',(#1733),#1714,.F.);
#1735=CARTESIAN_POINT('',(83.743277277,15.135174624,75.));
#1736=DIRECTION('',(0.,0.,-1.));
#1737=DIRECTION('',(-1.,0.,0.));
#1738=AXIS2_PLACEMENT_3D('',#1735,#1736,#1737);
#1739=CYLINDRICAL_SURFACE('',#1738,2.);
#1740=ORIENTED_EDGE('',*,*,#1729,.T.);
#1741=CARTESIAN_POINT('',(84.004329662,13.152284901,0.));
#1742=VERTEX_POINT('',#1741);
#1743=CARTESIAN_POINT('',(83.743277277,15.135174624,0.));
#1744=DIRECTION('',(-0.,-0.,-1.));
#1745=DIRECTION('',(1.,0.,-0.));
#1746=AXIS2_PLACEMENT_3D('',#1743,#1744,#1745);
#1747=CIRCLE('',#1746,2.);
#1748=EDGE_CURVE('',#1717,#1742,#1747,.T.);
#1749=ORIENTED_EDGE('',*,*,#1748,.T.);
#1750=CARTESIAN_POINT('',(84.004329662,13.152284901,75.));
#1751=DIRECTION('',(0.,0.,-1.));
#1752=VECTOR('',#1751,75.);
#1753=LINE('',#1750,#1752);
#1754=EDGE_CURVE('',#439,#1742,#1753,.T.);
#1755=ORIENTED_EDGE('',*,*,#1754,.F.);
#1756=ORIENTED_EDGE('',*,*,#445,.F.);
#1757=EDGE_LOOP('',(#1740,#1749,#1755,#1756));
#1758=FACE_BOUND('',#1757,.T.);
#1759=ADVANCED_FACE('',(#1758),#1739,.F.);
#1760=CARTESIAN_POINT('',(66.827781941,10.890949494,75.));
#1761=DIRECTION('',(0.130526192,-0.991444861,0.));
#1762=DIRECTION('',(0.991444861,0.130526192,0.));
#1763=AXIS2_PLACEMENT_3D('',#1760,#1761,#1762);
#1764=PLANE('',#1763);
#1765=ORIENTED_EDGE('',*,*,#1754,.T.);
#1766=CARTESIAN_POINT('',(66.827781941,10.890949494,0.));
#1767=VERTEX_POINT('',#1766);
#1768=CARTESIAN_POINT('',(84.004329662,13.152284901,0.));
#1769=DIRECTION('',(-0.991444861,-0.130526192,0.));
#1770=VECTOR('',#1769,17.324763474);
#1771=LINE('',#1768,#1770);
#1772=EDGE_CURVE('',#1742,#1767,#1771,.T.);
#1773=ORIENTED_EDGE('',*,*,#1772,.T.);
#1774=CARTESIAN_POINT('',(66.827781941,10.890949494,75.));
#1775=DIRECTION('',(0.,0.,-1.));
#1776=VECTOR('',#1775,75.);
#1777=LINE('',#1774,#1776);
#1778=EDGE_CURVE('',#448,#1767,#1777,.T.);
#1779=ORIENTED_EDGE('',*,*,#1778,.F.);
#1780=ORIENTED_EDGE('',*,*,#453,.F.);
#1781=EDGE_LOOP('',(#1765,#1773,#1779,#1780));
#1782=FACE_BOUND('',#1781,.T.);
#1783=ADVANCED_FACE('',(#1782),#1764,.F.);
#1784=CARTESIAN_POINT('',(66.168552083,11.727178581,75.));
#1785=DIRECTION('',(-0.785316931,-0.619093949,0.));
#1786=DIRECTION('',(0.619093949,-0.785316931,0.));
#1787=AXIS2_PLACEMENT_3D('',#1784,#1785,#1786);
#1788=PLANE('',#1787);
#1789=ORIENTED_EDGE('',*,*,#1778,.T.);
#1790=CARTESIAN_POINT('',(66.168552083,11.727178581,0.));
#1791=VERTEX_POINT('',#1790);
#1792=CARTESIAN_POINT('',(66.827781941,10.890949494,0.));
#1793=DIRECTION('',(-0.619093949,0.785316931,0.));
#1794=VECTOR('',#1793,1.064830076);
#1795=LINE('',#1792,#1794);
#1796=EDGE_CURVE('',#1767,#1791,#1795,.T.);
#1797=ORIENTED_EDGE('',*,*,#1796,.T.);
#1798=CARTESIAN_POINT('',(66.168552083,11.727178581,75.));
#1799=DIRECTION('',(0.,0.,-1.));
#1800=VECTOR('',#1799,75.);
#1801=LINE('',#1798,#1800);
#1802=EDGE_CURVE('',#456,#1791,#1801,.T.);
#1803=ORIENTED_EDGE('',*,*,#1802,.F.);
#1804=ORIENTED_EDGE('',*,*,#461,.F.);
#1805=EDGE_LOOP('',(#1789,#1797,#1803,#1804));
#1806=FACE_BOUND('',#1805,.T.);
#1807=ADVANCED_FACE('',(#1806),#1788,.F.);
#1808=CARTESIAN_POINT('',(64.991609747,11.493070195,75.));
#1809=DIRECTION('',(0.195090322,-0.98078528,0.));
#1810=DIRECTION('',(0.98078528,0.195090322,0.));
#1811=AXIS2_PLACEMENT_3D('',#1808,#1809,#1810);
#1812=PLANE('',#1811);
#1813=ORIENTED_EDGE('',*,*,#1802,.T.);
#1814=CARTESIAN_POINT('',(64.991609747,11.493070195,0.));
#1815=VERTEX_POINT('',#1814);
#1816=CARTESIAN_POINT('',(66.168552083,11.727178581,0.));
#1817=DIRECTION('',(-0.98078528,-0.195090322,0.));
#1818=VECTOR('',#1817,1.2);
#1819=LINE('',#1816,#1818);
#1820=EDGE_CURVE('',#1791,#1815,#1819,.T.);
#1821=ORIENTED_EDGE('',*,*,#1820,.T.);
#1822=CARTESIAN_POINT('',(64.991609747,11.493070195,75.));
#1823=DIRECTION('',(0.,0.,-1.));
#1824=VECTOR('',#1823,75.);
#1825=LINE('',#1822,#1824);
#1826=EDGE_CURVE('',#464,#1815,#1825,.T.);
#1827=ORIENTED_EDGE('',*,*,#1826,.F.);
#1828=ORIENTED_EDGE('',*,*,#469,.F.);
#1829=EDGE_LOOP('',(#1813,#1821,#1827,#1828));
#1830=FACE_BOUND('',#1829,.T.);
#1831=ADVANCED_FACE('',(#1830),#1812,.F.);
#1832=CARTESIAN_POINT('',(-0.,-0.,75.));
#1833=DIRECTION('',(0.,0.,-1.));
#1834=DIRECTION('',(-1.,0.,0.));
#1835=AXIS2_PLACEMENT_3D('',#1832,#1833,#1834);
#1836=CYLINDRICAL_SURFACE('',#1835,66.);
#1837=ORIENTED_EDGE('',*,*,#1826,.T.);
#1838=CARTESIAN_POINT('',(65.7516998,5.71961305,0.));
#1839=VERTEX_POINT('',#1838);
#1840=CARTESIAN_POINT('',(-0.,-0.,0.));
#1841=DIRECTION('',(-0.,-0.,-1.));
#1842=DIRECTION('',(1.,0.,-0.));
#1843=AXIS2_PLACEMENT_3D('',#1840,#1841,#1842);
#1844=CIRCLE('',#1843,66.);
#1845=EDGE_CURVE('',#1815,#1839,#1844,.T.);
#1846=ORIENTED_EDGE('',*,*,#1845,.T.);
#1847=CARTESIAN_POINT('',(65.7516998,5.71961305,75.));
#1848=DIRECTION('',(0.,0.,-1.));
#1849=VECTOR('',#1848,75.);
#1850=LINE('',#1847,#1849);
#1851=EDGE_CURVE('',#472,#1839,#1850,.T.);
#1852=ORIENTED_EDGE('',*,*,#1851,.F.);
#1853=ORIENTED_EDGE('',*,*,#478,.F.);
#1854=EDGE_LOOP('',(#1837,#1846,#1852,#1853));
#1855=FACE_BOUND('',#1854,.T.);
#1856=ADVANCED_FACE('',(#1855),#1836,.F.);
#1857=CARTESIAN_POINT('',(66.949130508,5.798096805,75.));
#1858=DIRECTION('',(-0.065403129,0.997858923,0.));
#1859=DIRECTION('',(-0.997858923,-0.065403129,0.));
#1860=AXIS2_PLACEMENT_3D('',#1857,#1858,#1859);
#1861=PLANE('',#1860);
#1862=ORIENTED_EDGE('',*,*,#1851,.T.);
#1863=CARTESIAN_POINT('',(66.949130508,5.798096805,0.));
#1864=VERTEX_POINT('',#1863);
#1865=CARTESIAN_POINT('',(65.7516998,5.71961305,0.));
#1866=DIRECTION('',(0.997858923,0.065403129,0.));
#1867=VECTOR('',#1866,1.2);
#1868=LINE('',#1865,#1867);
#1869=EDGE_CURVE('',#1839,#1864,#1868,.T.);
#1870=ORIENTED_EDGE('',*,*,#1869,.T.);
#1871=CARTESIAN_POINT('',(66.949130508,5.798096805,75.));
#1872=DIRECTION('',(0.,0.,-1.));
#1873=VECTOR('',#1872,75.);
#1874=LINE('',#1871,#1873);
#1875=EDGE_CURVE('',#481,#1864,#1874,.T.);
#1876=ORIENTED_EDGE('',*,*,#1875,.F.);
#1877=ORIENTED_EDGE('',*,*,#486,.F.);
#1878=EDGE_LOOP('',(#1862,#1870,#1876,#1877));
#1879=FACE_BOUND('',#1878,.T.);
#1880=ADVANCED_FACE('',(#1879),#1861,.F.);
#1881=CARTESIAN_POINT('',(67.369465638,6.776453319,75.));
#1882=DIRECTION('',(-0.91879121,0.394743856,0.));
#1883=DIRECTION('',(-0.394743856,-0.91879121,0.));
#1884=AXIS2_PLACEMENT_3D('',#1881,#1882,#1883);
#1885=PLANE('',#1884);
#1886=ORIENTED_EDGE('',*,*,#1875,.T.);
#1887=CARTESIAN_POINT('',(67.369465638,6.776453319,0.));
#1888=VERTEX_POINT('',#1887);
#1889=CARTESIAN_POINT('',(66.949130508,5.798096805,0.));
#1890=DIRECTION('',(0.394743856,0.91879121,0.));
#1891=VECTOR('',#1890,1.064830076);
#1892=LINE('',#1889,#1891);
#1893=EDGE_CURVE('',#1864,#1888,#1892,.T.);
#1894=ORIENTED_EDGE('',*,*,#1893,.T.);
#1895=CARTESIAN_POINT('',(67.369465638,6.776453319,75.));
#1896=DIRECTION('',(0.,0.,-1.));
#1897=VECTOR('',#1896,75.);
#1898=LINE('',#1895,#1897);
#1899=EDGE_CURVE('',#489,#1888,#1898,.T.);
#1900=ORIENTED_EDGE('',*,*,#1899,.F.);
#1901=ORIENTED_EDGE('',*,*,#494,.F.);
#1902=EDGE_LOOP('',(#1886,#1894,#1900,#1901));
#1903=FACE_BOUND('',#1902,.T.);
#1904=ADVANCED_FACE('',(#1903),#1885,.F.);
#1905=CARTESIAN_POINT('',(84.546013359,9.037788727,75.));
#1906=DIRECTION('',(-0.130526192,0.991444861,0.));
#1907=DIRECTION('',(-0.991444861,-0.130526192,0.));
#1908=AXIS2_PLACEMENT_3D('',#1905,#1906,#1907);
#1909=PLANE('',#1908);
#1910=ORIENTED_EDGE('',*,*,#1899,.T.);
#1911=CARTESIAN_POINT('',(84.546013359,9.037788727,0.));
#1912=VERTEX_POINT('',#1911);
#1913=CARTESIAN_POINT('',(67.369465638,6.776453319,0.));
#1914=DIRECTION('',(0.991444861,0.130526192,0.));
#1915=VECTOR('',#1914,17.324763474);
#1916=LINE('',#1913,#1915);
#1917=EDGE_CURVE('',#1888,#1912,#1916,.T.);
#1918=ORIENTED_EDGE('',*,*,#1917,.T.);
#1919=CARTESIAN_POINT('',(84.546013359,9.037788727,75.));
#1920=DIRECTION('',(0.,0.,-1.));
#1921=VECTOR('',#1920,75.);
#1922=LINE('',#1919,#1921);
#1923=EDGE_CURVE('',#497,#1912,#1922,.T.);
#1924=ORIENTED_EDGE('',*,*,#1923,.F.);
#1925=ORIENTED_EDGE('',*,*,#502,.F.);
#1926=EDGE_LOOP('',(#1910,#1918,#1924,#1925));
#1927=FACE_BOUND('',#1926,.T.);
#1928=ADVANCED_FACE('',(#1927),#1909,.F.);
#1929=CARTESIAN_POINT('',(84.807065744,7.054899004,75.));
#1930=DIRECTION('',(0.,0.,-1.));
#1931=DIRECTION('',(-1.,0.,0.));
#1932=AXIS2_PLACEMENT_3D('',#1929,#1930,#1931);
#1933=CYLINDRICAL_SURFACE('',#1932,2.);
#1934=ORIENTED_EDGE('',*,*,#1923,.T.);
#1935=CARTESIAN_POINT('',(86.800181272,7.220701566,0.));
#1936=VERTEX_POINT('',#1935);
#1937=CARTESIAN_POINT('',(84.807065744,7.054899004,0.));
#1938=DIRECTION('',(-0.,-0.,-1.));
#1939=DIRECTION('',(1.,0.,-0.));
#1940=AXIS2_PLACEMENT_3D('',#1937,#1938,#1939);
#1941=CIRCLE('',#1940,2.);
#1942=EDGE_CURVE('',#1912,#1936,#1941,.T.);
#1943=ORIENTED_EDGE('',*,*,#1942,.T.);
#1944=CARTESIAN_POINT('',(86.800181272,7.220701566,75.));
#1945=DIRECTION('',(0.,0.,-1.));
#1946=VECTOR('',#1945,75.);
#1947=LINE('',#1944,#1946);
#1948=EDGE_CURVE('',#505,#1936,#1947,.T.);
#1949=ORIENTED_EDGE('',*,*,#1948,.F.);
#1950=ORIENTED_EDGE('',*,*,#511,.F.);
#1951=EDGE_LOOP('',(#1934,#1943,#1949,#1950));
#1952=FACE_BOUND('',#1951,.T.);
#1953=ADVANCED_FACE('',(#1952),#1933,.F.);
#1954=CARTESIAN_POINT('',(0.,0.,75.));
#1955=DIRECTION('',(0.,0.,-1.));
#1956=DIRECTION('',(-1.,0.,0.));
#1957=AXIS2_PLACEMENT_3D('',#1954,#1955,#1956);
#1958=CYLINDRICAL_SURFACE('',#1957,87.1);
#1959=ORIENTED_EDGE('',*,*,#1948,.T.);
#1960=CARTESIAN_POINT('',(87.000084369,4.170769683,0.));
#1961=VERTEX_POINT('',#1960);
#1962=CARTESIAN_POINT('',(0.,0.,0.));
#1963=DIRECTION('',(-0.,-0.,-1.));
#1964=DIRECTION('',(1.,0.,-0.));
#1965=AXIS2_PLACEMENT_3D('',#1962,#1963,#1964);
#1966=CIRCLE('',#1965,87.1);
#1967=EDGE_CURVE('',#1936,#1961,#1966,.T.);
#1968=ORIENTED_EDGE('',*,*,#1967,.T.);
#1969=CARTESIAN_POINT('',(87.000084369,4.170769683,75.));
#1970=DIRECTION('',(0.,0.,-1.));
#1971=VECTOR('',#1970,75.);
#1972=LINE('',#1969,#1971);
#1973=EDGE_CURVE('',#514,#1961,#1972,.T.);
#1974=ORIENTED_EDGE('',*,*,#1973,.F.);
#1975=ORIENTED_EDGE('',*,*,#520,.F.);
#1976=EDGE_LOOP('',(#1959,#1968,#1974,#1975));
#1977=FACE_BOUND('',#1976,.T.);
#1978=ADVANCED_FACE('',(#1977),#1958,.F.);
#1979=CARTESIAN_POINT('',(85.002378643,4.075,75.));
#1980=DIRECTION('',(0.,0.,-1.));
#1981=DIRECTION('',(-1.,0.,0.));
#1982=AXIS2_PLACEMENT_3D('',#1979,#1980,#1981);
#1983=CYLINDRICAL_SURFACE('',#1982,2.);
#1984=ORIENTED_EDGE('',*,*,#1973,.T.);
#1985=CARTESIAN_POINT('',(85.002378643,2.075,0.));
#1986=VERTEX_POINT('',#1985);
#1987=CARTESIAN_POINT('',(85.002378643,4.075,0.));
#1988=DIRECTION('',(-0.,-0.,-1.));
#1989=DIRECTION('',(1.,0.,-0.));
#1990=AXIS2_PLACEMENT_3D('',#1987,#1988,#1989);
#1991=CIRCLE('',#1990,2.);
#1992=EDGE_CURVE('',#1961,#1986,#1991,.T.);
#1993=ORIENTED_EDGE('',*,*,#1992,.T.);
#1994=CARTESIAN_POINT('',(85.002378643,2.075,75.));
#1995=DIRECTION('',(0.,0.,-1.));
#1996=VECTOR('',#1995,75.);
#1997=LINE('',#1994,#1996);
#1998=EDGE_CURVE('',#523,#1986,#1997,.T.);
#1999=ORIENTED_EDGE('',*,*,#1998,.F.);
#2000=ORIENTED_EDGE('',*,*,#529,.F.);
#2001=EDGE_LOOP('',(#1984,#1993,#1999,#2000));
#2002=FACE_BOUND('',#2001,.T.);
#2003=ADVANCED_FACE('',(#2002),#1983,.F.);
#2004=CARTESIAN_POINT('',(67.677615169,2.075,75.));
#2005=DIRECTION('',(0.,-1.,0.));
#2006=DIRECTION('',(0.,0.,-1.));
#2007=AXIS2_PLACEMENT_3D('',#2004,#2005,#2006);
#2008=PLANE('',#2007);
#2009=ORIENTED_EDGE('',*,*,#1998,.T.);
#2010=CARTESIAN_POINT('',(67.677615169,2.075,0.));
#2011=VERTEX_POINT('',#2010);
#2012=CARTESIAN_POINT('',(85.002378643,2.075,0.));
#2013=DIRECTION('',(-1.,0.,0.));
#2014=VECTOR('',#2013,17.324763474);
#2015=LINE('',#2012,#2014);
#2016=EDGE_CURVE('',#1986,#2011,#2015,.T.);
#2017=ORIENTED_EDGE('',*,*,#2016,.T.);
#2018=CARTESIAN_POINT('',(67.677615169,2.075,75.));
#2019=DIRECTION('',(0.,0.,-1.));
#2020=VECTOR('',#2019,75.);
#2021=LINE('',#2018,#2020);
#2022=EDGE_CURVE('',#532,#2011,#2021,.T.);
#2023=ORIENTED_EDGE('',*,*,#2022,.F.);
#2024=ORIENTED_EDGE('',*,*,#537,.F.);
#2025=EDGE_LOOP('',(#2009,#2017,#2023,#2024));
#2026=FACE_BOUND('',#2025,.T.);
#2027=ADVANCED_FACE('',(#2026),#2008,.F.);
#2028=CARTESIAN_POINT('',(67.133174913,2.990121795,75.));
#2029=DIRECTION('',(-0.859406411,-0.511293086,0.));
#2030=DIRECTION('',(0.511293086,-0.859406411,0.));
#2031=AXIS2_PLACEMENT_3D('',#2028,#2029,#2030);
#2032=PLANE('',#2031);
#2033=ORIENTED_EDGE('',*,*,#2022,.T.);
#2034=CARTESIAN_POINT('',(67.133174913,2.990121795,0.));
#2035=VERTEX_POINT('',#2034);
#2036=CARTESIAN_POINT('',(67.677615169,2.075,0.));
#2037=DIRECTION('',(-0.511293086,0.859406411,0.));
#2038=VECTOR('',#2037,1.064830076);
#2039=LINE('',#2036,#2038);
#2040=EDGE_CURVE('',#2011,#2035,#2039,.T.);
#2041=ORIENTED_EDGE('',*,*,#2040,.T.);
#2042=CARTESIAN_POINT('',(67.133174913,2.990121795,75.));
#2043=DIRECTION('',(0.,0.,-1.));
#2044=VECTOR('',#2043,75.);
#2045=LINE('',#2042,#2044);
#2046=EDGE_CURVE('',#540,#2035,#2045,.T.);
#2047=ORIENTED_EDGE('',*,*,#2046,.F.);
#2048=ORIENTED_EDGE('',*,*,#545,.F.);
#2049=EDGE_LOOP('',(#2033,#2041,#2047,#2048));
#2050=FACE_BOUND('',#2049,.T.);
#2051=ADVANCED_FACE('',(#2050),#2032,.F.);
#2052=CARTESIAN_POINT('',(65.935744205,2.91163804,75.));
#2053=DIRECTION('',(0.065403129,-0.997858923,0.));
#2054=DIRECTION('',(0.997858923,0.065403129,0.));
#2055=AXIS2_PLACEMENT_3D('',#2052,#2053,#2054);
#2056=PLANE('',#2055);
#2057=ORIENTED_EDGE('',*,*,#2046,.T.);
#2058=CARTESIAN_POINT('',(65.935744205,2.91163804,0.));
#2059=VERTEX_POINT('',#2058);
#2060=CARTESIAN_POINT('',(67.133174913,2.990121795,0.));
#2061=DIRECTION('',(-0.997858923,-0.065403129,0.));
#2062=VECTOR('',#2061,1.2);
#2063=LINE('',#2060,#2062);
#2064=EDGE_CURVE('',#2035,#2059,#2063,.T.);
#2065=ORIENTED_EDGE('',*,*,#2064,.T.);
#2066=CARTESIAN_POINT('',(65.935744205,2.91163804,75.));
#2067=DIRECTION('',(0.,0.,-1.));
#2068=VECTOR('',#2067,75.);
#2069=LINE('',#2066,#2068);
#2070=EDGE_CURVE('',#548,#2059,#2069,.T.);
#2071=ORIENTED_EDGE('',*,*,#2070,.F.);
#2072=ORIENTED_EDGE('',*,*,#553,.F.);
#2073=EDGE_LOOP('',(#2057,#2065,#2071,#2072));
#2074=FACE_BOUND('',#2073,.T.);
#2075=ADVANCED_FACE('',(#2074),#2056,.F.);
#2076=CARTESIAN_POINT('',(0.,0.,75.));
#2077=DIRECTION('',(0.,0.,-1.));
#2078=DIRECTION('',(-1.,0.,0.));
#2079=AXIS2_PLACEMENT_3D('',#2076,#2077,#2078);
#2080=CYLINDRICAL_SURFACE('',#2079,66.);
#2081=ORIENTED_EDGE('',*,*,#2070,.T.);
#2082=CARTESIAN_POINT('',(66.,0.,0.));
#2083=VERTEX_POINT('',#2082);
#2084=CARTESIAN_POINT('',(0.,0.,0.));
#2085=DIRECTION('',(-0.,-0.,-1.));
#2086=DIRECTION('',(1.,0.,-0.));
#2087=AXIS2_PLACEMENT_3D('',#2084,#2085,#2086);
#2088=CIRCLE('',#2087,66.);
#2089=EDGE_CURVE('',#2059,#2083,#2088,.T.);
#2090=ORIENTED_EDGE('',*,*,#2089,.T.);
#2091=CARTESIAN_POINT('',(66.,0.,75.));
#2092=DIRECTION('',(0.,0.,-1.));
#2093=VECTOR('',#2092,75.);
#2094=LINE('',#2091,#2093);
#2095=EDGE_CURVE('',#556,#2083,#2094,.T.);
#2096=ORIENTED_EDGE('',*,*,#2095,.F.);
#2097=ORIENTED_EDGE('',*,*,#562,.F.);
#2098=EDGE_LOOP('',(#2081,#2090,#2096,#2097));
#2099=FACE_BOUND('',#2098,.T.);
#2100=ADVANCED_FACE('',(#2099),#2080,.F.);
#2101=CARTESIAN_POINT('',(0.,0.,0.));
#2102=DIRECTION('',(0.,0.,1.));
#2103=DIRECTION('',(0.923879533,0.382683432,0.));
#2104=AXIS2_PLACEMENT_3D('',#2101,#2102,#2103);
#2105=PLANE('',#2104);
#2106=CARTESIAN_POINT('',(70.003571337,70.003571337,0.));
#2107=DIRECTION('',(-0.707106781,-0.707106781,0.));
#2108=VECTOR('',#2107,33.);
#2109=LINE('',#2106,#2108);
#2110=EDGE_CURVE('',#581,#611,#2109,.T.);
#2111=ORIENTED_EDGE('',*,*,#2110,.F.);
#2112=ORIENTED_EDGE('',*,*,#587,.F.);
#2113=CARTESIAN_POINT('',(66.,0.,0.));
#2114=DIRECTION('',(1.,0.,0.));
#2115=VECTOR('',#2114,33.);
#2116=LINE('',#2113,#2115);
#2117=EDGE_CURVE('',#2083,#579,#2116,.T.);
#2118=ORIENTED_EDGE('',*,*,#2117,.F.);
#2119=ORIENTED_EDGE('',*,*,#2089,.F.);
#2120=ORIENTED_EDGE('',*,*,#2064,.F.);
#2121=ORIENTED_EDGE('',*,*,#2040,.F.);
#2122=ORIENTED_EDGE('',*,*,#2016,.F.);
#2123=ORIENTED_EDGE('',*,*,#1992,.F.);
#2124=ORIENTED_EDGE('',*,*,#1967,.F.);
#2125=ORIENTED_EDGE('',*,*,#1942,.F.);
#2126=ORIENTED_EDGE('',*,*,#1917,.F.);
#2127=ORIENTED_EDGE('',*,*,#1893,.F.);
#2128=ORIENTED_EDGE('',*,*,#1869,.F.);
#2129=ORIENTED_EDGE('',*,*,#1845,.F.);
#2130=ORIENTED_EDGE('',*,*,#1820,.F.);
#2131=ORIENTED_EDGE('',*,*,#1796,.F.);
#2132=ORIENTED_EDGE('',*,*,#1772,.F.);
#2133=ORIENTED_EDGE('',*,*,#1748,.F.);
#2134=ORIENTED_EDGE('',*,*,#1723,.F.);
#2135=ORIENTED_EDGE('',*,*,#1698,.F.);
#2136=ORIENTED_EDGE('',*,*,#1673,.F.);
#2137=ORIENTED_EDGE('',*,*,#1649,.F.);
#2138=ORIENTED_EDGE('',*,*,#1625,.F.);
#2139=ORIENTED_EDGE('',*,*,#1601,.F.);
#2140=ORIENTED_EDGE('',*,*,#1576,.F.);
#2141=ORIENTED_EDGE('',*,*,#1552,.F.);
#2142=ORIENTED_EDGE('',*,*,#1528,.F.);
#2143=ORIENTED_EDGE('',*,*,#1504,.F.);
#2144=ORIENTED_EDGE('',*,*,#1479,.F.);
#2145=ORIENTED_EDGE('',*,*,#1454,.F.);
#2146=ORIENTED_EDGE('',*,*,#1429,.F.);
#2147=ORIENTED_EDGE('',*,*,#1405,.F.);
#2148=ORIENTED_EDGE('',*,*,#1381,.F.);
#2149=ORIENTED_EDGE('',*,*,#1357,.F.);
#2150=ORIENTED_EDGE('',*,*,#1332,.F.);
#2151=ORIENTED_EDGE('',*,*,#1308,.F.);
#2152=ORIENTED_EDGE('',*,*,#1284,.F.);
#2153=ORIENTED_EDGE('',*,*,#1260,.F.);
#2154=ORIENTED_EDGE('',*,*,#1235,.F.);
#2155=ORIENTED_EDGE('',*,*,#1210,.F.);
#2156=ORIENTED_EDGE('',*,*,#1185,.F.);
#2157=ORIENTED_EDGE('',*,*,#1161,.F.);
#2158=ORIENTED_EDGE('',*,*,#1137,.F.);
#2159=ORIENTED_EDGE('',*,*,#1113,.F.);
#2160=ORIENTED_EDGE('',*,*,#1088,.F.);
#2161=ORIENTED_EDGE('',*,*,#1064,.F.);
#2162=ORIENTED_EDGE('',*,*,#1040,.F.);
#2163=ORIENTED_EDGE('',*,*,#1016,.F.);
#2164=ORIENTED_EDGE('',*,*,#991,.F.);
#2165=ORIENTED_EDGE('',*,*,#966,.F.);
#2166=ORIENTED_EDGE('',*,*,#941,.F.);
#2167=ORIENTED_EDGE('',*,*,#917,.F.);
#2168=ORIENTED_EDGE('',*,*,#893,.F.);
#2169=ORIENTED_EDGE('',*,*,#869,.F.);
#2170=ORIENTED_EDGE('',*,*,#844,.F.);
#2171=ORIENTED_EDGE('',*,*,#820,.F.);
#2172=ORIENTED_EDGE('',*,*,#796,.F.);
#2173=ORIENTED_EDGE('',*,*,#772,.F.);
#2174=ORIENTED_EDGE('',*,*,#747,.F.);
#2175=ORIENTED_EDGE('',*,*,#722,.F.);
#2176=ORIENTED_EDGE('',*,*,#697,.F.);
#2177=ORIENTED_EDGE('',*,*,#673,.F.);
#2178=ORIENTED_EDGE('',*,*,#649,.F.);
#2179=ORIENTED_EDGE('',*,*,#625,.F.);
#2180=EDGE_LOOP('',(#2111,#2112,#2118,#2119,#2120,#2121,#2122,#2123,#2124,#2125,#2126,#2127,#2128,#2129,#2130,#2131,#2132,#2133,#2134,#2135,#2136,#2137,#2138,#2139,#2140,#2141,
#2142,#2143,#2144,#2145,#2146,#2147,#2148,#2149,#2150,#2151,#2152,#2153,#2154,#2155,#2156,#2157,#2158,#2159,#2160,#2161,#2162,#2163,#2164,#2165,#2166,
#2167,#2168,#2169,#2170,#2171,#2172,#2173,#2174,#2175,#2176,#2177,#2178,#2179));
#2181=FACE_BOUND('',#2180,.T.);
#2182=ADVANCED_FACE('',(#2181),#2105,.F.);
#2183=CARTESIAN_POINT('',(70.003571337,70.003571337,0.));
#2184=DIRECTION('',(-0.707106781,0.707106781,0.));
#2185=DIRECTION('',(-0.707106781,-0.707106781,0.));
#2186=AXIS2_PLACEMENT_3D('',#2183,#2184,#2185);
#2187=PLANE('',#2186);
#2188=ORIENTED_EDGE('',*,*,#593,.F.);
#2189=ORIENTED_EDGE('',*,*,#2110,.T.);
#2190=ORIENTED_EDGE('',*,*,#616,.T.);
#2191=ORIENTED_EDGE('',*,*,#49,.F.);
#2192=EDGE_LOOP('',(#2188,#2189,#2190,#2191));
#2193=FACE_BOUND('',#2192,.T.);
#2194=ADVANCED_FACE('',(#2193),#2187,.T.);
#2195=CARTESIAN_POINT('',(0.,0.,0.));
#2196=DIRECTION('',(0.,-1.,0.));
#2197=DIRECTION('',(1.,0.,0.));
#2198=AXIS2_PLACEMENT_3D('',#2195,#2196,#2197);
#2199=PLANE('',#2198);
#2200=ORIENTED_EDGE('',*,*,#2095,.T.);
#2201=ORIENTED_EDGE('',*,*,#2117,.T.);
#2202=ORIENTED_EDGE('',*,*,#600,.T.);
#2203=ORIENTED_EDGE('',*,*,#568,.F.);
#2204=EDGE_LOOP('',(#2200,#2201,#2202,#2203));
#2205=FACE_BOUND('',#2204,.T.);
#2206=ADVANCED_FACE('',(#2205),#2199,.T.);
#2207=CLOSED_SHELL('',(#572,#604,#636,#660,#684,#708,#733,#758,#783,#807,#831,#855,#880,#904,#928,#952,#977,#1002,#1027,#1051,#1075,#1099,#1124,#1148,#1172,#1196,
#1221,#1246,#1271,#1295,#1319,#1343,#1368,#1392,#1416,#1440,#1465,#1490,#1515,#1539,#1563,#1587,#1612,#1636,#1660,#1684,#1709,#1734,#1759,#1783,#1807,
#1831,#1856,#1880,#1904,#1928,#1953,#1978,#2003,#2027,#2051,#2075,#2100,#2182,#2194,#2206));
#2208=MANIFOLD_SOLID_BREP('Stator_Lamination_1',#2207);
#2209=COLOUR_RGB('',0.968627453,0.498039216,0.529411793);
#2210=FILL_AREA_STYLE_COLOUR('',#2209);
#2211=FILL_AREA_STYLE('',(#2210));
#2212=SURFACE_STYLE_FILL_AREA(#2211);
#2213=SURFACE_SIDE_STYLE('',(#2212));
#2214=SURFACE_STYLE_USAGE(.BOTH.,#2213);
#2215=PRESENTATION_STYLE_ASSIGNMENT((#2214));
#26=STYLED_ITEM('',(#2215),#2208);
#2216=REAL_REPRESENTATION_ITEM('AEDT_Translucency_V1',0.8);
#2217=ID_ATTRIBUTE('SA #2218',#2218);
#2218=SHAPE_ASPECT('properties','',#23,.F.);
#2219=GEOMETRIC_ITEM_SPECIFIC_USAGE('','properties',#2218,#17,#2208);
#2220=PROPERTY_DEFINITION('AEDT_Translucency_V1','',#2218);
#2221=REPRESENTATION('',(#2216),#10);
#2222=PROPERTY_DEFINITION_REPRESENTATION(#2220,#2221);
#2223=GENERAL_PROPERTY('','AEDT_Translucency_V1','');
#2224=GENERAL_PROPERTY_ASSOCIATION('','',#2223,#2220);
#2225=DESCRIPTIVE_REPRESENTATION_ITEM('AEDT_MaterialName_V1','M350-50A_20C');
#2226=PROPERTY_DEFINITION('AEDT_MaterialName_V1','',#2218);
#2227=REPRESENTATION('',(#2225),#10);
#2228=PROPERTY_DEFINITION_REPRESENTATION(#2226,#2227);
#2229=GENERAL_PROPERTY('','AEDT_MaterialName_V1','');
#2230=GENERAL_PROPERTY_ASSOCIATION('','',#2229,#2226);
#2231=INTEGER_REPRESENTATION_ITEM('AEDT_BODYFlagGroupColor_V1',0);
#2232=INTEGER_REPRESENTATION_ITEM('AEDT_BODYFlagGroupColor_V1',-1);
#2233=INTEGER_REPRESENTATION_ITEM('AEDT_BODYFlagGroupColor_V1',-2131263609);
#2234=INTEGER_REPRESENTATION_ITEM('AEDT_BODYFlagGroupColor_V1',5);
#2235=PROPERTY_DEFINITION('AEDT_BODYFlagGroupColor_V1','',#2218);
#2236=REPRESENTATION('',(#2231,#2232,#2233,#2234),#10);
#2237=PROPERTY_DEFINITION_REPRESENTATION(#2235,#2236);
#2238=GENERAL_PROPERTY('','AEDT_BODYFlagGroupColor_V1','');
#2239=GENERAL_PROPERTY_ASSOCIATION('','',#2238,#2235);
#2240=DESCRIPTIVE_REPRESENTATION_ITEM('AEDT_EntityName_V1','Stator_Lamination_1');
#2241=PROPERTY_DEFINITION('AEDT_EntityName_V1','',#2218);
#2242=REPRESENTATION('',(#2240),#10);
#2243=PROPERTY_DEFINITION_REPRESENTATION(#2241,#2242);
#2244=GENERAL_PROPERTY('','AEDT_EntityName_V1','');
#2245=GENERAL_PROPERTY_ASSOCIATION('','',#2244,#2241);
#16=SHAPE_REPRESENTATION('Stator_Lamination_1',(#15),#10);
#17=ADVANCED_BREP_SHAPE_REPRESENTATION('Stator_Lamination_1',(#2208),#10);
#2253=SHAPE_REPRESENTATION_RELATIONSHIP('','',#16,#17);
#2254=CARTESIAN_POINT('',(0.,0.,0.));
#2255=DIRECTION('',(0.,0.,1.));
#2256=DIRECTION('',(1.,0.,0.));
#2257=AXIS2_PLACEMENT_3D('',#2254,#2255,#2256);
#2259=MAPPED_ITEM('',#2258,#2257);
#2258=REPRESENTATION_MAP(#2257,#16);
#2260=APPLICATION_CONTEXT('Managed model based 3d engineering');
#2261=APPLICATION_PROTOCOL_DEFINITION('international standard','ap242_managed_model_based_3d_engineering',2014,#2260);
#2262=PRODUCT_CONTEXT('',#2260,'mechanical');
#2263=PRODUCT_DEFINITION_CONTEXT('part definition',#2260,'design');
#24=PRODUCT('Stator_Lamination_1','Stator_Lamination_1','',(#2262));
#2264=PRODUCT_RELATED_PRODUCT_CATEGORY('part','',(#24));
#2265=PRODUCT_DEFINITION_FORMATION_WITH_SPECIFIED_SOURCE('','',#24,.NOT_KNOWN.);
#25=PRODUCT_DEFINITION('design','',#2265,#2263);
#23=PRODUCT_DEFINITION_SHAPE('','',#25);
#2266=SHAPE_DEFINITION_REPRESENTATION(#23,#16);
#11=DRAUGHTING_MODEL('',(#2259),#10);
#2267=DESCRIPTIVE_REPRESENTATION_ITEM('KEY','C:/Users/moa/AppData/Local/Temp/stator_lam_intermediate.x_b');
#2268=PROPERTY_DEFINITION('KEY','',#25);
#2269=REPRESENTATION('',(#2267),#10);
#2270=PROPERTY_DEFINITION_REPRESENTATION(#2268,#2269);
#2271=GENERAL_PROPERTY('','KEY','');
#2272=GENERAL_PROPERTY_ASSOCIATION('','',#2271,#2268);
#1=MECHANICAL_DESIGN_GEOMETRIC_PRESENTATION_REPRESENTATION('',(#26),#10);
ENDSEC;
END-ISO-10303-21;
