  0
SECTION
  2
HEADER
  9
$ACADVER
  1
AC1024
  9
$ACADMAINTVER
 70
     6
  9
$DWGCODEPAGE
  3
ANSI_949
  9
$INSBASE
 10
0.0
 20
0.0
 30
0.0
  9
$EXTMIN
 10
1.000000000000000E+20
 20
1.000000000000000E+20
 30
1.000000000000000E+20
  9
$EXTMAX
 10
-1.000000000000000E+20
 20
-1.000000000000000E+20
 30
-1.000000000000000E+20
  9
$LIMMIN
 10
0.0
 20
0.0
  9
$LIMMAX
 10
12.0
 20
9.0
  9
$ORTHOMODE
 70
     0
  9
$REGENMODE
 70
     1
  9
$FILLMODE
 70
     1
  9
$QTEXTMODE
 70
     0
  9
$MIRRTEXT
 70
     1
  9
$LTSCALE
 40
1.0
  9
$ATTMODE
 70
     1
  9
$TEXTSIZE
 40
0.2
  9
$TRACEWID
 40
0.05
  9
$TEXTSTYLE
  7
Standard
  9
$CLAYER
  8
0
  9
$CELTYPE
  6
ByLayer
  9
$CECOLOR
 62
   256
  9
$CELTSCALE
 40
1.0
  9
$DISPSILH
 70
     0
  9
$DIMSCALE
 40
1.0
  9
$DIMASZ
 40
0.18
  9
$DIMEXO
 40
0.0625
  9
$DIMDLI
 40
0.38
  9
$DIMRND
 40
0.0
  9
$DIMDLE
 40
0.0
  9
$DIMEXE
 40
0.18
  9
$DIMTP
 40
0.0
  9
$DIMTM
 40
0.0
  9
$DIMTXT
 40
0.18
  9
$DIMCEN
 40
0.09
  9
$DIMTSZ
 40
0.0
  9
$DIMTOL
 70
     0
  9
$DIMLIM
 70
     0
  9
$DIMTIH
 70
     1
  9
$DIMTOH
 70
     1
  9
$DIMSE1
 70
     0
  9
$DIMSE2
 70
     0
  9
$DIMTAD
 70
     0
  9
$DIMZIN
 70
     0
  9
$DIMBLK
  1

  9
$DIMASO
 70
     1
  9
$DIMSHO
 70
     1
  9
$DIMPOST
  1

  9
$DIMAPOST
  1

  9
$DIMALT
 70
     0
  9
$DIMALTD
 70
     2
  9
$DIMALTF
 40
25.4
  9
$DIMLFAC
 40
1.0
  9
$DIMTOFL
 70
     0
  9
$DIMTVP
 40
0.0
  9
$DIMTIX
 70
     0
  9
$DIMSOXD
 70
     0
  9
$DIMSAH
 70
     0
  9
$DIMBLK1
  1

  9
$DIMBLK2
  1

  9
$DIMSTYLE
  2
Standard
  9
$DIMCLRD
 70
     0
  9
$DIMCLRE
 70
     0
  9
$DIMCLRT
 70
     0
  9
$DIMTFAC
 40
1.0
  9
$DIMGAP
 40
0.09
  9
$DIMJUST
 70
     0
  9
$DIMSD1
 70
     0
  9
$DIMSD2
 70
     0
  9
$DIMTOLJ
 70
     1
  9
$DIMTZIN
 70
     0
  9
$DIMALTZ
 70
     0
  9
$DIMALTTZ
 70
     0
  9
$DIMUPT
 70
     0
  9
$DIMDEC
 70
     4
  9
$DIMTDEC
 70
     4
  9
$DIMALTU
 70
     2
  9
$DIMALTTD
 70
     2
  9
$DIMTXSTY
  7
Standard
  9
$DIMAUNIT
 70
     0
  9
$DIMADEC
 70
     0
  9
$DIMALTRND
 40
0.0
  9
$DIMAZIN
 70
     0
  9
$DIMDSEP
 70
    46
  9
$DIMATFIT
 70
     3
  9
$DIMFRAC
 70
     0
  9
$DIMLDRBLK
  1

  9
$DIMLUNIT
 70
     2
  9
$DIMLWD
 70
    -2
  9
$DIMLWE
 70
    -2
  9
$DIMTMOVE
 70
     0
  9
$DIMFXL
 40
1.0
  9
$DIMFXLON
 70
     0
  9
$DIMJOGANG
 40
0.7853981633974483
  9
$DIMTFILL
 70
     0
  9
$DIMTFILLCLR
 70
     0
  9
$DIMARCSYM
 70
     0
  9
$DIMLTYPE
  6

  9
$DIMLTEX1
  6

  9
$DIMLTEX2
  6

  9
$DIMTXTDIRECTION
 70
     0
  9
$LUNITS
 70
     2
  9
$LUPREC
 70
     4
  9
$SKETCHINC
 40
0.1
  9
$FILLETRAD
 40
0.5
  9
$AUNITS
 70
     0
  9
$AUPREC
 70
     0
  9
$MENU
  1
.
  9
$ELEVATION
 40
0.0
  9
$PELEVATION
 40
0.0
  9
$THICKNESS
 40
0.0
  9
$LIMCHECK
 70
     0
  9
$CHAMFERA
 40
0.0
  9
$CHAMFERB
 40
0.0
  9
$CHAMFERC
 40
0.0
  9
$CHAMFERD
 40
0.0
  9
$SKPOLY
 70
     0
  9
$TDCREATE
 40
2461238.77911831
  9
$TDUCREATE
 40
2461238.40411831
  9
$TDUPDATE
 40
2461238.779118518
  9
$TDUUPDATE
 40
2461238.404118518
  9
$TDINDWG
 40
0.0000000116
  9
$TDUSRTIMER
 40
0.0000000116
  9
$USRTIMER
 70
     1
  9
$ANGBASE
 50
0.0
  9
$ANGDIR
 70
     0
  9
$PDMODE
 70
     0
  9
$PDSIZE
 40
0.0
  9
$PLINEWID
 40
0.0
  9
$SPLFRAME
 70
     0
  9
$SPLINETYPE
 70
     6
  9
$SPLINESEGS
 70
     8
  9
$HANDSEED
  5
2F8
  9
$SURFTAB1
 70
     6
  9
$SURFTAB2
 70
     6
  9
$SURFTYPE
 70
     6
  9
$SURFU
 70
     6
  9
$SURFV
 70
     6
  9
$UCSBASE
  2

  9
$UCSNAME
  2

  9
$UCSORG
 10
0.0
 20
0.0
 30
0.0
  9
$UCSXDIR
 10
1.0
 20
0.0
 30
0.0
  9
$UCSYDIR
 10
0.0
 20
1.0
 30
0.0
  9
$UCSORTHOREF
  2

  9
$UCSORTHOVIEW
 70
     0
  9
$UCSORGTOP
 10
0.0
 20
0.0
 30
0.0
  9
$UCSORGBOTTOM
 10
0.0
 20
0.0
 30
0.0
  9
$UCSORGLEFT
 10
0.0
 20
0.0
 30
0.0
  9
$UCSORGRIGHT
 10
0.0
 20
0.0
 30
0.0
  9
$UCSORGFRONT
 10
0.0
 20
0.0
 30
0.0
  9
$UCSORGBACK
 10
0.0
 20
0.0
 30
0.0
  9
$PUCSBASE
  2

  9
$PUCSNAME
  2

  9
$PUCSORG
 10
0.0
 20
0.0
 30
0.0
  9
$PUCSXDIR
 10
1.0
 20
0.0
 30
0.0
  9
$PUCSYDIR
 10
0.0
 20
1.0
 30
0.0
  9
$PUCSORTHOREF
  2

  9
$PUCSORTHOVIEW
 70
     0
  9
$PUCSORGTOP
 10
0.0
 20
0.0
 30
0.0
  9
$PUCSORGBOTTOM
 10
0.0
 20
0.0
 30
0.0
  9
$PUCSORGLEFT
 10
0.0
 20
0.0
 30
0.0
  9
$PUCSORGRIGHT
 10
0.0
 20
0.0
 30
0.0
  9
$PUCSORGFRONT
 10
0.0
 20
0.0
 30
0.0
  9
$PUCSORGBACK
 10
0.0
 20
0.0
 30
0.0
  9
$USERI1
 70
     0
  9
$USERI2
 70
     0
  9
$USERI3
 70
     0
  9
$USERI4
 70
     0
  9
$USERI5
 70
     0
  9
$USERR1
 40
0.0
  9
$USERR2
 40
0.0
  9
$USERR3
 40
0.0
  9
$USERR4
 40
0.0
  9
$USERR5
 40
0.0
  9
$WORLDVIEW
 70
     1
  9
$SHADEDGE
 70
     3
  9
$SHADEDIF
 70
    70
  9
$TILEMODE
 70
     1
  9
$MAXACTVP
 70
    64
  9
$PINSBASE
 10
0.0
 20
0.0
 30
0.0
  9
$PLIMCHECK
 70
     0
  9
$PEXTMIN
 10
1.000000000000000E+20
 20
1.000000000000000E+20
 30
1.000000000000000E+20
  9
$PEXTMAX
 10
-1.000000000000000E+20
 20
-1.000000000000000E+20
 30
-1.000000000000000E+20
  9
$PLIMMIN
 10
0.0
 20
0.0
  9
$PLIMMAX
 10
12.0
 20
9.0
  9
$UNITMODE
 70
     0
  9
$VISRETAIN
 70
     1
  9
$PLINEGEN
 70
     0
  9
$PSLTSCALE
 70
     1
  9
$TREEDEPTH
 70
  3020
  9
$CMLSTYLE
  2
Standard
  9
$CMLJUST
 70
     0
  9
$CMLSCALE
 40
1.0
  9
$PROXYGRAPHICS
 70
     1
  9
$MEASUREMENT
 70
     1
  9
$CELWEIGHT
370
    -1
  9
$ENDCAPS
280
     0
  9
$JOINSTYLE
280
     0
  9
$LWDISPLAY
290
     0
  9
$INSUNITS
 70
     5
  9
$HYPERLINKBASE
  1

  9
$STYLESHEET
  1

  9
$XEDIT
290
     1
  9
$CEPSNTYPE
380
     0
  9
$PSTYLEMODE
290
     1
  9
$FINGERPRINTGUID
  2
{410FDA3D-13C7-426A-9BCD-490D5B24AB9C}
  9
$VERSIONGUID
  2
{FAEB1C32-E019-11D5-929B-00C0DF256EC4}
  9
$EXTNAMES
290
     1
  9
$PSVPSCALE
 40
0.0
  9
$OLESTARTUP
290
     0
  9
$SORTENTS
280
   127
  9
$INDEXCTL
280
     0
  9
$HIDETEXT
280
     1
  9
$XCLIPFRAME
280
     2
  9
$HALOGAP
280
     0
  9
$OBSCOLOR
 70
   257
  9
$OBSLTYPE
280
     0
  9
$INTERSECTIONDISPLAY
280
     0
  9
$INTERSECTIONCOLOR
 70
   257
  9
$DIMASSOC
280
     2
  9
$PROJECTNAME
  1

  9
$CAMERADISPLAY
290
     0
  9
$LENSLENGTH
 40
50.0
  9
$CAMERAHEIGHT
 40
0.0
  9
$STEPSPERSEC
 40
2.0
  9
$STEPSIZE
 40
6.0
  9
$3DDWFPREC
 40
2.0
  9
$PSOLWIDTH
 40
0.25
  9
$PSOLHEIGHT
 40
4.0
  9
$LOFTANG1
 40
1.570796326794897
  9
$LOFTANG2
 40
1.570796326794897
  9
$LOFTMAG1
 40
0.0
  9
$LOFTMAG2
 40
0.0
  9
$LOFTPARAM
 70
     7
  9
$LOFTNORMALS
280
     1
  9
$LATITUDE
 40
37.795
  9
$LONGITUDE
 40
-122.394
  9
$NORTHDIRECTION
 40
0.0
  9
$TIMEZONE
 70
 -8000
  9
$LIGHTGLYPHDISPLAY
280
     1
  9
$TILEMODELIGHTSYNCH
280
     1
  9
$CMATERIAL
347
44
  9
$SOLIDHIST
280
     0
  9
$SHOWHIST
280
     1
  9
$DWFFRAME
280
     2
  9
$DGNFRAME
280
     2
  9
$REALWORLDSCALE
290
     1
  9
$INTERFERECOLOR
 62
   256
  9
$CSHADOW
280
     0
  9
$SHADOWPLANELOCATION
 40
0.0
  0
ENDSEC
  0
SECTION
  2
CLASSES
  0
CLASS
  1
ACDBDICTIONARYWDFLT
  2
AcDbDictionaryWithDefault
  3
ObjectDBX Classes
 90
        0
 91
        3
280
     0
281
     0
  0
CLASS
  1
VISUALSTYLE
  2
AcDbVisualStyle
  3
ObjectDBX Classes
 90
     4095
 91
        3
280
     0
281
     0
  0
CLASS
  1
MATERIAL
  2
AcDbMaterial
  3
ObjectDBX Classes
 90
     1153
 91
        3
280
     0
281
     0
  0
CLASS
  1
SCALE
  2
AcDbScale
  3
ObjectDBX Classes
 90
     1153
 91
        3
280
     0
281
     0
  0
CLASS
  1
TABLESTYLE
  2
AcDbTableStyle
  3
ObjectDBX Classes
 90
     4095
 91
        3
280
     0
281
     0
  0
CLASS
  1
MLEADERSTYLE
  2
AcDbMLeaderStyle
  3
ACDB_MLEADERSTYLE_CLASS
 90
     4095
 91
        3
280
     0
281
     0
  0
CLASS
  1
SUN
  2
AcDbSun
  3
SCENEOE
 90
     1153
 91
        3
280
     0
281
     0
  0
CLASS
  1
DICTIONARYVAR
  2
AcDbDictionaryVar
  3
ObjectDBX Classes
 90
        0
 91
        3
280
     0
281
     0
  0
CLASS
  1
CELLSTYLEMAP
  2
AcDbCellStyleMap
  3
ObjectDBX Classes
 90
     1152
 91
        3
280
     0
281
     0
  0
ENDSEC
  0
SECTION
  2
TABLES
  0
TABLE
  2
VPORT
  5
8
330
0
100
AcDbSymbolTable
 70
     1
  0
VPORT
  5
29
330
8
100
AcDbSymbolTableRecord
100
AcDbViewportTableRecord
  2
*Active
 70
     0
 10
0.0
 20
0.0
 11
1.0
 21
1.0
 12
10.42990654205607
 22
4.5
 13
0.0
 23
0.0
 14
0.5
 24
0.5
 15
0.5
 25
0.5
 16
0.0
 26
0.0
 36
1.0
 17
0.0
 27
0.0
 37
0.0
 40
9.0
 41
1.972972972850329
 42
50.0
 43
0.0
 44
0.0
 50
0.0
 51
0.0
 71
     0
 72
   100
 73
     1
 74
     3
 75
     0
 76
     0
 77
     0
 78
     0
281
     0
 65
     1
110
0.0
120
0.0
130
0.0
111
1.0
121
0.0
131
0.0
112
0.0
122
1.0
132
0.0
 79
     0
146
0.0
348
2F
 60
     3
 61
     5
292
     1
282
     1
141
0.0
142
0.0
 63
   250
361
6D
  0
ENDTAB
  0
TABLE
  2
LTYPE
  5
5
330
0
100
AcDbSymbolTable
 70
     1
  0
LTYPE
  5
14
330
5
100
AcDbSymbolTableRecord
100
AcDbLinetypeTableRecord
  2
ByBlock
 70
     0
  3

 72
    65
 73
     0
 40
0.0
  0
LTYPE
  5
15
330
5
100
AcDbSymbolTableRecord
100
AcDbLinetypeTableRecord
  2
ByLayer
 70
     0
  3

 72
    65
 73
     0
 40
0.0
  0
LTYPE
  5
16
330
5
100
AcDbSymbolTableRecord
100
AcDbLinetypeTableRecord
  2
Continuous
 70
     0
  3
Solid line
 72
    65
 73
     0
 40
0.0
  0
ENDTAB
  0
TABLE
  2
LAYER
  5
2
330
0
100
AcDbSymbolTable
 70
     2
  0
LAYER
  5
10
330
2
100
AcDbSymbolTableRecord
100
AcDbLayerTableRecord
  2
0
 70
     0
 62
     7
  6
Continuous
370
    -3
390
F
347
46
  0
LAYER
  5
6E
330
2
100
AcDbSymbolTableRecord
100
AcDbLayerTableRecord
  2
Layer_1
 70
     0
 62
    10
  6
Continuous
370
    -3
390
F
347
46
  0
ENDTAB
  0
TABLE
  2
STYLE
  5
3
330
0
100
AcDbSymbolTable
 70
     1
  0
STYLE
  5
11
330
3
100
AcDbSymbolTableRecord
100
AcDbTextStyleTableRecord
  2
Standard
 70
     0
 40
0.0
 41
1.0
 50
0.0
 71
     0
 42
0.2
  3
txt
  4

  0
ENDTAB
  0
TABLE
  2
VIEW
  5
6
330
0
100
AcDbSymbolTable
 70
     0
  0
ENDTAB
  0
TABLE
  2
UCS
  5
7
330
0
100
AcDbSymbolTable
 70
     0
  0
ENDTAB
  0
TABLE
  2
APPID
  5
9
330
0
100
AcDbSymbolTable
 70
     1
  0
APPID
  5
12
330
9
100
AcDbSymbolTableRecord
100
AcDbRegAppTableRecord
  2
ACAD
 70
     0
  0
ENDTAB
  0
TABLE
  2
DIMSTYLE
  5
A
330
0
100
AcDbSymbolTable
 70
     1
100
AcDbDimStyleTable
  0
DIMSTYLE
105
27
330
A
100
AcDbSymbolTableRecord
100
AcDbDimStyleTableRecord
  2
Standard
 70
     0
178
     0
340
11
  0
ENDTAB
  0
TABLE
  2
BLOCK_RECORD
  5
1
330
0
100
AcDbSymbolTable
 70
     1
  0
BLOCK_RECORD
  5
1F
330
1
100
AcDbSymbolTableRecord
100
AcDbBlockTableRecord
  2
*Model_Space
340
22
 70
     0
280
     1
281
     0
  0
BLOCK_RECORD
  5
1B
330
1
100
AcDbSymbolTableRecord
100
AcDbBlockTableRecord
  2
*Paper_Space
340
1E
 70
     0
280
     1
281
     0
  0
BLOCK_RECORD
  5
23
330
1
100
AcDbSymbolTableRecord
100
AcDbBlockTableRecord
  2
*Paper_Space0
340
26
 70
     0
280
     1
281
     0
  0
ENDTAB
  0
ENDSEC
  0
SECTION
  2
BLOCKS
  0
BLOCK
  5
20
330
1F
100
AcDbEntity
  8
0
100
AcDbBlockBegin
  2
*Model_Space
 70
     0
 10
0.0
 20
0.0
 30
0.0
  3
*Model_Space
  1

  0
ENDBLK
  5
21
330
1F
100
AcDbEntity
  8
0
100
AcDbBlockEnd
  0
BLOCK
  5
1C
330
1B
100
AcDbEntity
 67
     1
  8
0
100
AcDbBlockBegin
  2
*Paper_Space
 70
     0
 10
0.0
 20
0.0
 30
0.0
  3
*Paper_Space
  1

  0
ENDBLK
  5
1D
330
1B
100
AcDbEntity
 67
     1
  8
0
100
AcDbBlockEnd
  0
BLOCK
  5
24
330
23
100
AcDbEntity
  8
0
100
AcDbBlockBegin
  2
*Paper_Space0
 70
     0
 10
0.0
 20
0.0
 30
0.0
  3
*Paper_Space0
  1

  0
ENDBLK
  5
25
330
23
100
AcDbEntity
  8
0
100
AcDbBlockEnd
  0
ENDSEC
  0
SECTION
  2
ENTITIES
  0
POLYLINE
  5
6F
330
1F
100
AcDbEntity
  8
Layer_1
100
AcDb2dPolyline
 66
     1
 10
0.0
 20
0.0
 30
0.0
 70
     1
  0
VERTEX
  5
70
330
6F
100
AcDbEntity
  8
0
100
AcDbVertex
100
AcDb2dVertex
 10
99.0
 20
0.0
 30
0.0
 42
0.1989123673796581
  0
VERTEX
  5
71
330
6F
100
AcDbEntity
  8
0
100
AcDbVertex
100
AcDb2dVertex
 10
70.00357133746819
 20
70.0035713374682
 30
0.0
  0
VERTEX
  5
72
330
6F
100
AcDbEntity
  8
0
100
AcDbVertex
100
AcDb2dVertex
 10
50.39550029516524
 20
50.39550029516524
 30
0.0
 42
-0.013855238237042
  0
VERTEX
  5
73
330
6F
100
AcDbEntity
  8
0
100
AcDbVertex
100
AcDb2dVertex
 10
53.10949425200634
 20
47.52677687678922
 30
0.0
  0
VERTEX
  5
74
330
6F
100
AcDbEntity
  8
0
100
AcDbVertex
100
AcDb2dVertex
 10
53.86133405948531
 20
48.1861226918893
 30
0.0
  0
VERTEX
  5
75
330
6F
100
AcDbEntity
  8
0
100
AcDbVertex
100
AcDb2dVertex
 10
53.01849218449192
 20
49.57508311476663
 30
0.0
  0
VERTEX
  5
76
330
6F
100
AcDbEntity
  8
0
100
AcDbVertex
100
AcDb2dVertex
 10
62.45518205450434
 20
57.8508380193297
 30
0.0
  0
VERTEX
  5
77
330
6F
100
AcDbEntity
  8
0
100
AcDbVertex
100
AcDb2dVertex
 10
65.50795317841767
 20
54.36981971070204
 30
0.0
  0
VERTEX
  5
78
330
6F
100
AcDbEntity
  8
0
100
AcDbVertex
100
AcDb2dVertex
 10
56.07126330840524
 20
46.09406480613895
 30
0.0
  0
VERTEX
  5
79
330
6F
100
AcDbEntity
  8
0
100
AcDbVertex
100
AcDb2dVertex
 10
54.8041985750784
 20
47.11099176719436
 30
0.0
  0
VERTEX
  5
7A
330
6F
100
AcDbEntity
  8
0
100
AcDbVertex
100
AcDb2dVertex
 10
54.05235876759943
 20
46.4516459520943
 30
0.0
 42
-0.0277157970098587
  0
VERTEX
  5
7B
330
6F
100
AcDbEntity
  8
0
100
AcDbVertex
100
AcDb2dVertex
 10
58.85862438053289
 20
40.1879986567052
 30
0.0
  0
VERTEX
  5
7C
330
6F
100
AcDbEntity
  8
0
100
AcDbVertex
100
AcDb2dVertex
 10
59.69009399283544
 20
40.74356888972481
 30
0.0
  0
VERTEX
  5
7D
330
6F
100
AcDbEntity
  8
0
100
AcDbVertex
100
AcDb2dVertex
 10
59.03575846206509
 20
42.23065950422463
 30
0.0
  0
VERTEX
  5
7E
330
6F
100
AcDbEntity
  8
0
100
AcDbVertex
100
AcDb2dVertex
 10
69.47191891750624
 20
49.20387898244854
 30
0.0
  0
VERTEX
  5
7F
330
6F
100
AcDbEntity
  8
0
100
AcDbVertex
100
AcDb2dVertex
 10
72.04420909638701
 20
45.35417467748776
 30
0.0
  0
VERTEX
  5
80
330
6F
100
AcDbEntity
  8
0
100
AcDbVertex
100
AcDb2dVertex
 10
61.60804864094585
 20
38.38095519926385
 30
0.0
  0
VERTEX
  5
81
330
6F
100
AcDbEntity
  8
0
100
AcDbVertex
100
AcDb2dVertex
 10
60.48455942605347
 20
39.55456734413217
 30
0.0
  0
VERTEX
  5
82
330
6F
100
AcDbEntity
  8
0
100
AcDbVertex
100
AcDb2dVertex
 10
59.65308981375092
 20
38.99899711111256
 30
0.0
 42
-0.0277157970098588
  0
VERTEX
  5
83
330
6F
100
AcDbEntity
  8
0
100
AcDbVertex
100
AcDb2dVertex
 10
63.60066712721488
 20
32.16159263738673
 30
0.0
  0
VERTEX
  5
84
330
6F
100
AcDbEntity
  8
0
100
AcDbVertex
100
AcDb2dVertex
 10
64.49753986874757
 20
32.60388132760573
 30
0.0
  0
VERTEX
  5
85
330
6F
100
AcDbEntity
  8
0
100
AcDbVertex
100
AcDb2dVertex
 10
64.04290654454785
 20
34.16365760101454
 30
0.0
  0
VERTEX
  5
86
330
6F
100
AcDbEntity
  8
0
100
AcDbVertex
100
AcDb2dVertex
 10
75.2999719865748
 20
39.71502793428519
 30
0.0
  0
VERTEX
  5
87
330
6F
100
AcDbEntity
  8
0
100
AcDbVertex
100
AcDb2dVertex
 10
77.34776862228878
 20
35.56250714098885
 30
0.0
  0
VERTEX
  5
88
330
6F
100
AcDbEntity
  8
0
100
AcDbVertex
100
AcDb2dVertex
 10
66.09070318026183
 20
30.0111368077182
 30
0.0
  0
VERTEX
  5
89
330
6F
100
AcDbEntity
  8
0
100
AcDbVertex
100
AcDb2dVertex
 10
65.13001269576073
 20
31.32135330721399
 30
0.0
  0
VERTEX
  5
8A
330
6F
100
AcDbEntity
  8
0
100
AcDbVertex
100
AcDb2dVertex
 10
64.23313995422805
 20
30.87906461699498
 30
0.0
 42
-0.0277157970098588
  0
VERTEX
  5
8B
330
6F
100
AcDbEntity
  8
0
100
AcDbVertex
100
AcDb2dVertex
 10
67.25448482591395
 20
23.58489285116448
 30
0.0
  0
VERTEX
  5
8C
330
6F
100
AcDbEntity
  8
0
100
AcDbVertex
100
AcDb2dVertex
 10
68.20141495540906
 20
23.90633231646764
 30
0.0
  0
VERTEX
  5
8D
330
6F
100
AcDbEntity
  8
0
100
AcDbVertex
100
AcDb2dVertex
 10
67.95426274000519
 20
25.51210604429573
 30
0.0
  0
VERTEX
  5
8E
330
6F
100
AcDbEntity
  8
0
100
AcDbVertex
100
AcDb2dVertex
 10
79.8396216578567
 20
29.54664174708022
 30
0.0
  0
VERTEX
  5
8F
330
6F
100
AcDbEntity
  8
0
100
AcDbVertex
100
AcDb2dVertex
 10
81.32788638221034
 20
25.16235524751789
 30
0.0
  0
VERTEX
  5
90
330
6F
100
AcDbEntity
  8
0
100
AcDbVertex
100
AcDb2dVertex
 10
69.44252746435883
 20
21.12781954473339
 30
0.0
  0
VERTEX
  5
91
330
6F
100
AcDbEntity
  8
0
100
AcDbVertex
100
AcDb2dVertex
 10
68.66107339079257
 20
22.55222223128964
 30
0.0
  0
VERTEX
  5
92
330
6F
100
AcDbEntity
  8
0
100
AcDbVertex
100
AcDb2dVertex
 10
67.71414326129747
 20
22.23078276598648
 30
0.0
 42
-0.0277157970098623
  0
VERTEX
  5
93
330
6F
100
AcDbEntity
  8
0
100
AcDbVertex
100
AcDb2dVertex
 10
69.75755964277572
 20
14.60464900929115
 30
0.0
  0
VERTEX
  5
94
330
6F
100
AcDbEntity
  8
0
100
AcDbVertex
100
AcDb2dVertex
 10
70.73834492317894
 20
14.79973933130728
 30
0.0
  0
VERTEX
  5
95
330
6F
100
AcDbEntity
  8
0
100
AcDbVertex
100
AcDb2dVertex
 10
70.70290265950003
 20
16.42403527986692
 30
0.0
  0
VERTEX
  5
96
330
6F
100
AcDbEntity
  8
0
100
AcDbVertex
100
AcDb2dVertex
 10
83.0131932668476
 20
18.872704327706
 30
0.0
  0
VERTEX
  5
97
330
6F
100
AcDbEntity
  8
0
100
AcDbVertex
100
AcDb2dVertex
 10
83.91646145778228
 20
14.33166847943904
 30
0.0
  0
VERTEX
  5
98
330
6F
100
AcDbEntity
  8
0
100
AcDbVertex
100
AcDb2dVertex
 10
71.60617085043471
 20
11.88299943159997
 30
0.0
  0
VERTEX
  5
99
330
6F
100
AcDbEntity
  8
0
100
AcDbVertex
100
AcDb2dVertex
 10
71.017324083662
 20
13.39721638033066
 30
0.0
  0
VERTEX
  5
9A
330
6F
100
AcDbEntity
  8
0
100
AcDbVertex
100
AcDb2dVertex
 10
70.03653880325878
 20
13.20212605831453
 30
0.0
 42
-0.0277157970098552
  0
VERTEX
  5
9B
330
6F
100
AcDbEntity
  8
0
100
AcDbVertex
100
AcDb2dVertex
 10
71.0670632737002
 20
5.374515573695169
 30
0.0
  0
VERTEX
  5
9C
330
6F
100
AcDbEntity
  8
0
100
AcDbVertex
100
AcDb2dVertex
 10
72.06492219693881
 20
5.439918702925313
 30
0.0
  0
VERTEX
  5
9D
330
6F
100
AcDbEntity
  8
0
100
AcDbVertex
100
AcDb2dVertex
 10
72.24179631194284
 20
7.054944718196738
 30
0.0
  0
VERTEX
  5
9E
330
6F
100
AcDbEntity
  8
0
100
AcDbVertex
100
AcDb2dVertex
 10
84.7663861234374
 20
7.875849704782542
 30
0.0
  0
VERTEX
  5
9F
330
6F
100
AcDbEntity
  8
0
100
AcDbVertex
100
AcDb2dVertex
 10
85.06920261177297
 20
3.255762890187809
 30
0.0
  0
VERTEX
  5
A0
330
6F
100
AcDbEntity
  8
0
100
AcDbVertex
100
AcDb2dVertex
 10
72.5446128002784
 20
2.434857903602003
 30
0.0
  0
VERTEX
  5
A1
330
6F
100
AcDbEntity
  8
0
100
AcDbVertex
100
AcDb2dVertex
 10
72.1584486717379
 20
4.01298044269411
 30
0.0
  0
VERTEX
  5
A2
330
6F
100
AcDbEntity
  8
0
100
AcDbVertex
100
AcDb2dVertex
 10
71.1605897484993
 20
3.947577313463968
 30
0.0
 42
-0.013855238237042
  0
VERTEX
  5
A3
330
6F
100
AcDbEntity
  8
0
100
AcDbVertex
100
AcDb2dVertex
 10
71.27
 20
0.0
 30
0.0
  0
VERTEX
  5
A4
330
6F
100
AcDbEntity
  8
0
100
AcDbVertex
100
AcDb2dVertex
 10
99.0
 20
0.0
 30
0.0
  0
SEQEND
  5
A5
330
6F
100
AcDbEntity
  8
Layer_1
  0
POLYLINE
  5
A6
330
1F
100
AcDbEntity
  8
Layer_1
100
AcDb2dPolyline
 66
     1
 10
0.0
 20
0.0
 30
0.0
 70
     1
  0
VERTEX
  5
A7
330
A6
100
AcDbEntity
  8
0
100
AcDbVertex
100
AcDb2dVertex
 10
70.27
 20
0.0
 30
0.0
 42
0.1989123673796581
  0
VERTEX
  5
A8
330
A6
100
AcDbEntity
  8
0
100
AcDbVertex
100
AcDb2dVertex
 10
49.68839351397869
 20
49.6883935139787
 30
0.0
  0
VERTEX
  5
A9
330
A6
100
AcDbEntity
  8
0
100
AcDbVertex
100
AcDb2dVertex
 10
16.58518955273047
 20
16.58518955273047
 30
0.0
 42
-0.1989123673796584
  0
VERTEX
  5
AA
330
A6
100
AcDbEntity
  8
0
100
AcDbVertex
100
AcDb2dVertex
 10
23.455
 20
0.0
 30
0.0
  0
VERTEX
  5
AB
330
A6
100
AcDbEntity
  8
0
100
AcDbVertex
100
AcDb2dVertex
 10
70.27
 20
0.0
 30
0.0
  0
SEQEND
  5
AC
330
A6
100
AcDbEntity
  8
Layer_1
  0
POLYLINE
  5
AD
330
1F
100
AcDbEntity
  8
Layer_1
100
AcDb2dPolyline
 66
     1
 10
0.0
 20
0.0
 30
0.0
 70
     1
  0
VERTEX
  5
AE
330
AD
100
AcDbEntity
  8
0
100
AcDbVertex
100
AcDb2dVertex
 10
60.1954
 20
23.2434
 30
0.0
  0
VERTEX
  5
AF
330
AD
100
AcDbEntity
  8
0
100
AcDbVertex
100
AcDb2dVertex
 10
64.889
 20
14.2654
 30
0.0
  0
VERTEX
  5
B0
330
AD
100
AcDbEntity
  8
0
100
AcDbVertex
100
AcDb2dVertex
 10
65.0298
 20
13.996
 30
0.0
 42
0.065181328279348
  0
VERTEX
  5
B1
330
AD
100
AcDbEntity
  8
0
100
AcDbVertex
100
AcDb2dVertex
 10
65.2529
 20
13.6778
 30
0.0
  0
VERTEX
  5
B2
330
AD
100
AcDbEntity
  8
0
100
AcDbVertex
100
AcDb2dVertex
 10
66.5909
 20
12.2169
 30
0.0
 42
0.2102689929074814
  0
VERTEX
  5
B3
330
AD
100
AcDbEntity
  8
0
100
AcDbVertex
100
AcDb2dVertex
 10
67.6971
 20
11.7299
 30
0.0
  0
VERTEX
  5
B4
330
AD
100
AcDbEntity
  8
0
100
AcDbVertex
100
AcDb2dVertex
 10
68.2594
 20
11.73
 30
0.0
 42
0.4669921732103898
  0
VERTEX
  5
B5
330
AD
100
AcDbEntity
  8
0
100
AcDbVertex
100
AcDb2dVertex
 10
68.6877
 20
12.2413
 30
0.0
 42
0.0094222150332407
  0
VERTEX
  5
B6
330
AD
100
AcDbEntity
  8
0
100
AcDbVertex
100
AcDb2dVertex
 10
68.1782
 20
14.8182
 30
0.0
 42
0.0668218966283707
  0
VERTEX
  5
B7
330
AD
100
AcDbEntity
  8
0
100
AcDbVertex
100
AcDb2dVertex
 10
68.1041
 20
15.0224
 30
0.0
  0
VERTEX
  5
B8
330
AD
100
AcDbEntity
  8
0
100
AcDbVertex
100
AcDb2dVertex
 10
67.7248
 20
15.748
 30
0.0
  0
VERTEX
  5
B9
330
AD
100
AcDbEntity
  8
0
100
AcDbVertex
100
AcDb2dVertex
 10
63.03159999999999
 20
24.7252
 30
0.0
 42
0.3884289193984044
  0
VERTEX
  5
BA
330
AD
100
AcDbEntity
  8
0
100
AcDbVertex
100
AcDb2dVertex
 10
61.6417
 20
25.2297
 30
0.0
  0
VERTEX
  5
BB
330
AD
100
AcDbEntity
  8
0
100
AcDbVertex
100
AcDb2dVertex
 10
60.788
 20
24.8761
 30
0.0
 42
0.440509372981727
  0
VERTEX
  5
BC
330
AD
100
AcDbEntity
  8
0
100
AcDbVertex
100
AcDb2dVertex
 10
60.1954
 20
23.2434
 30
0.0
  0
SEQEND
  5
BD
330
AD
100
AcDbEntity
  8
Layer_1
  0
POLYLINE
  5
BE
330
1F
100
AcDbEntity
  8
Layer_1
100
AcDb2dPolyline
 66
     1
 10
0.0
 20
0.0
 30
0.0
 70
     1
  0
VERTEX
  5
BF
330
BE
100
AcDbEntity
  8
0
100
AcDbVertex
100
AcDb2dVertex
 10
65.0219
 20
14.3349
 30
0.0
 42
0.4143617908565118
  0
VERTEX
  5
C0
330
BE
100
AcDbEntity
  8
0
100
AcDbVertex
100
AcDb2dVertex
 10
65.6966
 20
14.1235
 30
0.0
  0
VERTEX
  5
C1
330
BE
100
AcDbEntity
  8
0
100
AcDbVertex
100
AcDb2dVertex
 10
67.5134
 20
15.0732
 30
0.0
 42
0.414078256122603
  0
VERTEX
  5
C2
330
BE
100
AcDbEntity
  8
0
100
AcDbVertex
100
AcDb2dVertex
 10
67.7248
 20
15.748
 30
0.0
  0
VERTEX
  5
C3
330
BE
100
AcDbEntity
  8
0
100
AcDbVertex
100
AcDb2dVertex
 10
63.03159999999999
 20
24.7252
 30
0.0
 42
0.4142092910344631
  0
VERTEX
  5
C4
330
BE
100
AcDbEntity
  8
0
100
AcDbVertex
100
AcDb2dVertex
 10
62.3569
 20
24.9367
 30
0.0
  0
VERTEX
  5
C5
330
BE
100
AcDbEntity
  8
0
100
AcDbVertex
100
AcDb2dVertex
 10
60.5402
 20
23.9869
 30
0.0
 42
0.414209291034474
  0
VERTEX
  5
C6
330
BE
100
AcDbEntity
  8
0
100
AcDbVertex
100
AcDb2dVertex
 10
60.3287
 20
23.3122
 30
0.0
  0
VERTEX
  5
C7
330
BE
100
AcDbEntity
  8
0
100
AcDbVertex
100
AcDb2dVertex
 10
65.0219
 20
14.3349
 30
0.0
  0
SEQEND
  5
C8
330
BE
100
AcDbEntity
  8
Layer_1
  0
POLYLINE
  5
C9
330
1F
100
AcDbEntity
  8
Layer_1
100
AcDb2dPolyline
 66
     1
 10
0.0
 20
0.0
 30
0.0
 70
     1
  0
VERTEX
  5
CA
330
C9
100
AcDbEntity
  8
0
100
AcDbVertex
100
AcDb2dVertex
 10
55.7255
 20
38.4482
 30
0.0
  0
VERTEX
  5
CB
330
C9
100
AcDbEntity
  8
0
100
AcDbVertex
100
AcDb2dVertex
 10
55.8125
 20
36.4691
 30
0.0
 42
0.064867381284456
  0
VERTEX
  5
CC
330
C9
100
AcDbEntity
  8
0
100
AcDbVertex
100
AcDb2dVertex
 10
55.8797
 20
36.0864
 30
0.0
  0
VERTEX
  5
CD
330
C9
100
AcDbEntity
  8
0
100
AcDbVertex
100
AcDb2dVertex
 10
55.9706
 20
35.7962
 30
0.0
  0
VERTEX
  5
CE
330
C9
100
AcDbEntity
  8
0
100
AcDbVertex
100
AcDb2dVertex
 10
59.0002
 20
26.1289
 30
0.0
 42
0.4405275543837562
  0
VERTEX
  5
CF
330
C9
100
AcDbEntity
  8
0
100
AcDbVertex
100
AcDb2dVertex
 10
60.57370000000001
 20
25.3935
 30
0.0
  0
VERTEX
  5
D0
330
C9
100
AcDbEntity
  8
0
100
AcDbVertex
100
AcDb2dVertex
 10
61.4274
 20
25.7471
 30
0.0
 42
0.3884061251586354
  0
VERTEX
  5
D1
330
C9
100
AcDbEntity
  8
0
100
AcDbVertex
100
AcDb2dVertex
 10
62.05350000000001
 20
27.0867
 30
0.0
  0
VERTEX
  5
D2
330
C9
100
AcDbEntity
  8
0
100
AcDbVertex
100
AcDb2dVertex
 10
59.02420000000001
 20
36.7531
 30
0.0
  0
VERTEX
  5
D3
330
C9
100
AcDbEntity
  8
0
100
AcDbVertex
100
AcDb2dVertex
 10
58.7793
 20
37.5344
 30
0.0
 42
0.0671302270570109
  0
VERTEX
  5
D4
330
C9
100
AcDbEntity
  8
0
100
AcDbVertex
100
AcDb2dVertex
 10
58.6873
 20
37.73120000000001
 30
0.0
 42
0.0094077128966808
  0
VERTEX
  5
D5
330
C9
100
AcDbEntity
  8
0
100
AcDbVertex
100
AcDb2dVertex
 10
57.22540000000001
 20
39.9136
 30
0.0
 42
0.4667372411128425
  0
VERTEX
  5
D6
330
C9
100
AcDbEntity
  8
0
100
AcDbVertex
100
AcDb2dVertex
 10
56.56100000000001
 20
39.9723
 30
0.0
  0
VERTEX
  5
D7
330
C9
100
AcDbEntity
  8
0
100
AcDbVertex
100
AcDb2dVertex
 10
56.16340000000001
 20
39.5747
 30
0.0
 42
0.2103006118891056
  0
VERTEX
  5
D8
330
C9
100
AcDbEntity
  8
0
100
AcDbVertex
100
AcDb2dVertex
 10
55.7255
 20
38.4482
 30
0.0
  0
SEQEND
  5
D9
330
C9
100
AcDbEntity
  8
Layer_1
  0
POLYLINE
  5
DA
330
1F
100
AcDbEntity
  8
Layer_1
100
AcDb2dPolyline
 66
     1
 10
0.0
 20
0.0
 30
0.0
 70
     1
  0
VERTEX
  5
DB
330
DA
100
AcDbEntity
  8
0
100
AcDbVertex
100
AcDb2dVertex
 10
59.02420000000001
 20
36.7531
 30
0.0
 42
0.4142314352511843
  0
VERTEX
  5
DC
330
DA
100
AcDbEntity
  8
0
100
AcDbVertex
100
AcDb2dVertex
 10
58.3975
 20
37.0807
 30
0.0
  0
VERTEX
  5
DD
330
DA
100
AcDbEntity
  8
0
100
AcDbVertex
100
AcDb2dVertex
 10
56.44140000000001
 20
36.4677
 30
0.0
 42
0.4142178337246731
  0
VERTEX
  5
DE
330
DA
100
AcDbEntity
  8
0
100
AcDbVertex
100
AcDb2dVertex
 10
56.1138
 20
35.8411
 30
0.0
  0
VERTEX
  5
DF
330
DA
100
AcDbEntity
  8
0
100
AcDbVertex
100
AcDb2dVertex
 10
59.143
 20
26.17460000000001
 30
0.0
 42
0.4142314352511542
  0
VERTEX
  5
E0
330
DA
100
AcDbEntity
  8
0
100
AcDbVertex
100
AcDb2dVertex
 10
59.7697
 20
25.847
 30
0.0
  0
VERTEX
  5
E1
330
DA
100
AcDbEntity
  8
0
100
AcDbVertex
100
AcDb2dVertex
 10
61.7259
 20
26.46
 30
0.0
 42
0.4142314352511339
  0
VERTEX
  5
E2
330
DA
100
AcDbEntity
  8
0
100
AcDbVertex
100
AcDb2dVertex
 10
62.05350000000001
 20
27.0867
 30
0.0
  0
VERTEX
  5
E3
330
DA
100
AcDbEntity
  8
0
100
AcDbVertex
100
AcDb2dVertex
 10
59.02420000000001
 20
36.7531
 30
0.0
  0
SEQEND
  5
E4
330
DA
100
AcDbEntity
  8
Layer_1
  0
POLYLINE
  5
E5
330
1F
100
AcDbEntity
  8
Layer_1
100
AcDb2dPolyline
 66
     1
 10
0.0
 20
0.0
 30
0.0
 70
     1
  0
VERTEX
  5
E6
330
E5
100
AcDbEntity
  8
0
100
AcDbVertex
100
AcDb2dVertex
 10
48.0779
 20
16.2898
 30
0.0
  0
VERTEX
  5
E7
330
E5
100
AcDbEntity
  8
0
100
AcDbVertex
100
AcDb2dVertex
 10
48.7926
 20
15.8167
 30
0.0
  0
VERTEX
  5
E8
330
E5
100
AcDbEntity
  8
0
100
AcDbVertex
100
AcDb2dVertex
 10
65.0201
 20
5.075999999999999
 30
0.0
  0
VERTEX
  5
E9
330
E5
100
AcDbEntity
  8
0
100
AcDbVertex
100
AcDb2dVertex
 10
65.2645
 20
4.9142
 30
0.0
 42
0.0685509414722817
  0
VERTEX
  5
EA
330
E5
100
AcDbEntity
  8
0
100
AcDbVertex
100
AcDb2dVertex
 10
65.6339
 20
4.736799999999999
 30
0.0
  0
VERTEX
  5
EB
330
E5
100
AcDbEntity
  8
0
100
AcDbVertex
100
AcDb2dVertex
 10
66.8645
 20
4.3417
 30
0.0
 42
0.0779016364597818
  0
VERTEX
  5
EC
330
E5
100
AcDbEntity
  8
0
100
AcDbVertex
100
AcDb2dVertex
 10
67.323
 20
4.269999999999999
 30
0.0
  0
VERTEX
  5
ED
330
E5
100
AcDbEntity
  8
0
100
AcDbVertex
100
AcDb2dVertex
 10
68.5542
 20
4.27
 30
0.0
 42
0.4347327436315597
  0
VERTEX
  5
EE
330
E5
100
AcDbEntity
  8
0
100
AcDbVertex
100
AcDb2dVertex
 10
69.053
 20
4.8047
 30
0.0
 42
0.0109170320188901
  0
VERTEX
  5
EF
330
E5
100
AcDbEntity
  8
0
100
AcDbVertex
100
AcDb2dVertex
 10
68.77710000000002
 20
7.817400000000002
 30
0.0
 42
0.2219156908502752
  0
VERTEX
  5
F0
330
E5
100
AcDbEntity
  8
0
100
AcDbVertex
100
AcDb2dVertex
 10
68.3318
 20
8.544200000000002
 30
0.0
  0
VERTEX
  5
F1
330
E5
100
AcDbEntity
  8
0
100
AcDbVertex
100
AcDb2dVertex
 10
67.6252
 20
9.0119
 30
0.0
  0
VERTEX
  5
F2
330
E5
100
AcDbEntity
  8
0
100
AcDbVertex
100
AcDb2dVertex
 10
51.8147
 20
19.4767
 30
0.0
  0
VERTEX
  5
F3
330
E5
100
AcDbEntity
  8
0
100
AcDbVertex
100
AcDb2dVertex
 10
51.6505
 20
19.5854
 30
0.0
 42
0.24935375021392
  0
VERTEX
  5
F4
330
E5
100
AcDbEntity
  8
0
100
AcDbVertex
100
AcDb2dVertex
 10
50.24849999999999
 20
19.72040000000001
 30
0.0
  0
VERTEX
  5
F5
330
E5
100
AcDbEntity
  8
0
100
AcDbVertex
100
AcDb2dVertex
 10
48.3318
 20
18.9264
 30
0.0
 42
0.60088876106539
  0
VERTEX
  5
F6
330
E5
100
AcDbEntity
  8
0
100
AcDbVertex
100
AcDb2dVertex
 10
48.0779
 20
16.2898
 30
0.0
  0
SEQEND
  5
F7
330
E5
100
AcDbEntity
  8
Layer_1
  0
POLYLINE
  5
F8
330
1F
100
AcDbEntity
  8
Layer_1
100
AcDb2dPolyline
 66
     1
 10
0.0
 20
0.0
 30
0.0
 70
     1
  0
VERTEX
  5
F9
330
F8
100
AcDbEntity
  8
0
100
AcDbVertex
100
AcDb2dVertex
 10
65.1305
 20
5.242799999999999
 30
0.0
 42
0.4141723225950755
  0
VERTEX
  5
FA
330
F8
100
AcDbEntity
  8
0
100
AcDbVertex
100
AcDb2dVertex
 10
65.8234
 20
5.3838
 30
0.0
  0
VERTEX
  5
FB
330
F8
100
AcDbEntity
  8
0
100
AcDbVertex
100
AcDb2dVertex
 10
67.7662
 20
8.319
 30
0.0
 42
0.4142287229219339
  0
VERTEX
  5
FC
330
F8
100
AcDbEntity
  8
0
100
AcDbVertex
100
AcDb2dVertex
 10
67.6252
 20
9.011900000000002
 30
0.0
  0
VERTEX
  5
FD
330
F8
100
AcDbEntity
  8
0
100
AcDbVertex
100
AcDb2dVertex
 10
51.8147
 20
19.4767
 30
0.0
 42
0.4141723225951386
  0
VERTEX
  5
FE
330
F8
100
AcDbEntity
  8
0
100
AcDbVertex
100
AcDb2dVertex
 10
51.12180000000001
 20
19.3357
 30
0.0
  0
VERTEX
  5
FF
330
F8
100
AcDbEntity
  8
0
100
AcDbVertex
100
AcDb2dVertex
 10
49.179
 20
16.4004
 30
0.0
 42
0.4141723225951155
  0
VERTEX
  5
100
330
F8
100
AcDbEntity
  8
0
100
AcDbVertex
100
AcDb2dVertex
 10
49.32
 20
15.7075
 30
0.0
  0
VERTEX
  5
101
330
F8
100
AcDbEntity
  8
0
100
AcDbVertex
100
AcDb2dVertex
 10
65.1305
 20
5.242799999999999
 30
0.0
  0
SEQEND
  5
102
330
F8
100
AcDbEntity
  8
Layer_1
  0
POLYLINE
  5
103
330
1F
100
AcDbEntity
  8
Layer_1
100
AcDb2dPolyline
 66
     1
 10
0.0
 20
0.0
 30
0.0
 70
     1
  0
VERTEX
  5
104
330
103
100
AcDbEntity
  8
0
100
AcDbVertex
100
AcDb2dVertex
 10
49.5654
 20
42.3868
 30
0.0
  0
VERTEX
  5
105
330
103
100
AcDbEntity
  8
0
100
AcDbVertex
100
AcDb2dVertex
 10
45.6857
 20
23.3175
 30
0.0
  0
VERTEX
  5
106
330
103
100
AcDbEntity
  8
0
100
AcDbVertex
100
AcDb2dVertex
 10
45.5148
 20
22.4775
 30
0.0
 42
0.6008893476623294
  0
VERTEX
  5
107
330
103
100
AcDbEntity
  8
0
100
AcDbVertex
100
AcDb2dVertex
 10
47.5588
 20
20.7927
 30
0.0
  0
VERTEX
  5
108
330
103
100
AcDbEntity
  8
0
100
AcDbVertex
100
AcDb2dVertex
 10
49.4755
 20
21.5866
 30
0.0
 42
0.2493020457160769
  0
VERTEX
  5
109
330
103
100
AcDbEntity
  8
0
100
AcDbVertex
100
AcDb2dVertex
 10
50.3714
 20
22.6734
 30
0.0
  0
VERTEX
  5
10A
330
103
100
AcDbEntity
  8
0
100
AcDbVertex
100
AcDb2dVertex
 10
50.4107
 20
22.8664
 30
0.0
  0
VERTEX
  5
10B
330
103
100
AcDbEntity
  8
0
100
AcDbVertex
100
AcDb2dVertex
 10
54.1907
 20
41.4458
 30
0.0
  0
VERTEX
  5
10C
330
103
100
AcDbEntity
  8
0
100
AcDbVertex
100
AcDb2dVertex
 10
54.3596
 20
42.2762
 30
0.0
 42
0.2218910802459275
  0
VERTEX
  5
10D
330
103
100
AcDbEntity
  8
0
100
AcDbVertex
100
AcDb2dVertex
 10
54.1605
 20
43.1049
 30
0.0
 42
0.0109145606343442
  0
VERTEX
  5
10E
330
103
100
AcDbEntity
  8
0
100
AcDbVertex
100
AcDb2dVertex
 10
52.2253
 20
45.4304
 30
0.0
 42
0.4345903931134849
  0
VERTEX
  5
10F
330
103
100
AcDbEntity
  8
0
100
AcDbVertex
100
AcDb2dVertex
 10
51.4945
 20
45.4558
 30
0.0
  0
VERTEX
  5
110
330
103
100
AcDbEntity
  8
0
100
AcDbVertex
100
AcDb2dVertex
 10
50.6239
 20
44.5852
 30
0.0
 42
0.0775700382752443
  0
VERTEX
  5
111
330
103
100
AcDbEntity
  8
0
100
AcDbVertex
100
AcDb2dVertex
 10
50.35040000000001
 20
44.2102
 30
0.0
  0
VERTEX
  5
112
330
103
100
AcDbEntity
  8
0
100
AcDbVertex
100
AcDb2dVertex
 10
49.7597
 20
43.0607
 30
0.0
 42
0.0688504917966574
  0
VERTEX
  5
113
330
103
100
AcDbEntity
  8
0
100
AcDbVertex
100
AcDb2dVertex
 10
49.6239
 20
42.6741
 30
0.0
  0
VERTEX
  5
114
330
103
100
AcDbEntity
  8
0
100
AcDbVertex
100
AcDb2dVertex
 10
49.5654
 20
42.3868
 30
0.0
  0
SEQEND
  5
115
330
103
100
AcDbEntity
  8
Layer_1
  0
POLYLINE
  5
116
330
1F
100
AcDbEntity
  8
Layer_1
100
AcDb2dPolyline
 66
     1
 10
0.0
 20
0.0
 30
0.0
 70
     1
  0
VERTEX
  5
117
330
116
100
AcDbEntity
  8
0
100
AcDbVertex
100
AcDb2dVertex
 10
54.1907
 20
41.4458
 30
0.0
 42
0.4142548033536766
  0
VERTEX
  5
118
330
116
100
AcDbEntity
  8
0
100
AcDbVertex
100
AcDb2dVertex
 10
53.8004
 20
42.0354
 30
0.0
  0
VERTEX
  5
119
330
116
100
AcDbEntity
  8
0
100
AcDbVertex
100
AcDb2dVertex
 10
50.3511
 20
42.7372
 30
0.0
 42
0.4142840054418332
  0
VERTEX
  5
11A
330
116
100
AcDbEntity
  8
0
100
AcDbVertex
100
AcDb2dVertex
 10
49.76140000000001
 20
42.3469
 30
0.0
  0
VERTEX
  5
11B
330
116
100
AcDbEntity
  8
0
100
AcDbVertex
100
AcDb2dVertex
 10
45.9814
 20
23.7676
 30
0.0
 42
0.4142840054418468
  0
VERTEX
  5
11C
330
116
100
AcDbEntity
  8
0
100
AcDbVertex
100
AcDb2dVertex
 10
46.3717
 20
23.1779
 30
0.0
  0
VERTEX
  5
11D
330
116
100
AcDbEntity
  8
0
100
AcDbVertex
100
AcDb2dVertex
 10
49.821
 20
22.4761
 30
0.0
 42
0.4140481728002932
  0
VERTEX
  5
11E
330
116
100
AcDbEntity
  8
0
100
AcDbVertex
100
AcDb2dVertex
 10
50.4107
 20
22.8664
 30
0.0
  0
VERTEX
  5
11F
330
116
100
AcDbEntity
  8
0
100
AcDbVertex
100
AcDb2dVertex
 10
54.1907
 20
41.4458
 30
0.0
  0
SEQEND
  5
120
330
116
100
AcDbEntity
  8
Layer_1
  0
POLYLINE
  5
121
330
1F
100
AcDbEntity
  8
Layer_1
100
AcDb2dPolyline
 66
     1
 10
0.0
 20
0.0
 30
0.0
 70
     1
  0
VERTEX
  5
122
330
121
100
AcDbEntity
  8
0
100
AcDbVertex
100
AcDb2dVertex
 10
23.455
 20
0.0
 30
0.0
 42
0.1989123673796581
  0
VERTEX
  5
123
330
121
100
AcDbEntity
  8
0
100
AcDbVertex
100
AcDb2dVertex
 10
16.58518955273047
 20
16.58518955273047
 30
0.0
  0
VERTEX
  5
124
330
121
100
AcDbEntity
  8
0
100
AcDbVertex
100
AcDb2dVertex
 10
0.0
 20
0.0
 30
0.0
  0
VERTEX
  5
125
330
121
100
AcDbEntity
  8
0
100
AcDbVertex
100
AcDb2dVertex
 10
23.455
 20
0.0
 30
0.0
  0
SEQEND
  5
126
330
121
100
AcDbEntity
  8
Layer_1
  0
POLYLINE
  5
127
330
1F
100
AcDbEntity
  8
Layer_1
100
AcDb2dPolyline
 66
     1
 10
0.0
 20
0.0
 30
0.0
 70
     1
  0
VERTEX
  5
128
330
127
100
AcDbEntity
  8
0
100
AcDbVertex
100
AcDb2dVertex
 10
61.02958625917279
 20
55.72804335074687
 30
0.0
  0
VERTEX
  5
129
330
127
100
AcDbEntity
  8
0
100
AcDbVertex
100
AcDb2dVertex
 10
60.75223054811958
 20
55.74622220448089
 30
0.0
  0
VERTEX
  5
12A
330
127
100
AcDbEntity
  8
0
100
AcDbVertex
100
AcDb2dVertex
 10
59.78016319749724
 20
54.89374201754138
 30
0.0
  0
VERTEX
  5
12B
330
127
100
AcDbEntity
  8
0
100
AcDbVertex
100
AcDb2dVertex
 10
59.76198434376323
 20
54.61638630648815
 30
0.0
  0
VERTEX
  5
12C
330
127
100
AcDbEntity
  8
0
100
AcDbVertex
100
AcDb2dVertex
 10
61.94963980628037
 20
52.12184334572091
 30
0.0
  0
VERTEX
  5
12D
330
127
100
AcDbEntity
  8
0
100
AcDbVertex
100
AcDb2dVertex
 10
62.22699551733361
 20
52.10366449198689
 30
0.0
  0
VERTEX
  5
12E
330
127
100
AcDbEntity
  8
0
100
AcDbVertex
100
AcDb2dVertex
 10
63.19906286795594
 20
52.95614467892641
 30
0.0
  0
VERTEX
  5
12F
330
127
100
AcDbEntity
  8
0
100
AcDbVertex
100
AcDb2dVertex
 10
63.21724172168995
 20
53.23350038997962
 30
0.0
  0
VERTEX
  5
130
330
127
100
AcDbEntity
  8
0
100
AcDbVertex
100
AcDb2dVertex
 10
61.02958625917279
 20
55.72804335074687
 30
0.0
  0
SEQEND
  5
131
330
127
100
AcDbEntity
  8
Layer_1
  0
POLYLINE
  5
132
330
1F
100
AcDbEntity
  8
Layer_1
100
AcDb2dPolyline
 66
     1
 10
0.0
 20
0.0
 30
0.0
 70
     1
  0
VERTEX
  5
133
330
132
100
AcDbEntity
  8
0
100
AcDbVertex
100
AcDb2dVertex
 10
64.39569472557757
 20
45.0230407184841
 30
0.0
  0
VERTEX
  5
134
330
132
100
AcDbEntity
  8
0
100
AcDbVertex
100
AcDb2dVertex
 10
64.12308464763801
 20
45.07726623445861
 30
0.0
  0
VERTEX
  5
135
330
132
100
AcDbEntity
  8
0
100
AcDbVertex
100
AcDb2dVertex
 10
63.04806247520999
 20
44.35895938355262
 30
0.0
  0
VERTEX
  5
136
330
132
100
AcDbEntity
  8
0
100
AcDbVertex
100
AcDb2dVertex
 10
62.99383695923548
 20
44.08634930561305
 30
0.0
  0
VERTEX
  5
137
330
132
100
AcDbEntity
  8
0
100
AcDbVertex
100
AcDb2dVertex
 10
64.83717353200618
 20
41.32760116827239
 30
0.0
  0
VERTEX
  5
138
330
132
100
AcDbEntity
  8
0
100
AcDbVertex
100
AcDb2dVertex
 10
65.10978360994574
 20
41.27337565229788
 30
0.0
  0
VERTEX
  5
139
330
132
100
AcDbEntity
  8
0
100
AcDbVertex
100
AcDb2dVertex
 10
66.18480578237376
 20
41.99168250320388
 30
0.0
  0
VERTEX
  5
13A
330
132
100
AcDbEntity
  8
0
100
AcDbVertex
100
AcDb2dVertex
 10
66.23903129834827
 20
42.26429258114344
 30
0.0
  0
VERTEX
  5
13B
330
132
100
AcDbEntity
  8
0
100
AcDbVertex
100
AcDb2dVertex
 10
64.39569472557757
 20
45.0230407184841
 30
0.0
  0
SEQEND
  5
13C
330
132
100
AcDbEntity
  8
Layer_1
  0
POLYLINE
  5
13D
330
1F
100
AcDbEntity
  8
Layer_1
100
AcDb2dPolyline
 66
     1
 10
0.0
 20
0.0
 30
0.0
 70
     1
  0
VERTEX
  5
13E
330
13D
100
AcDbEntity
  8
0
100
AcDbVertex
100
AcDb2dVertex
 10
54.906602867064
 20
50.35833103257191
 30
0.0
  0
VERTEX
  5
13F
330
13D
100
AcDbEntity
  8
0
100
AcDbVertex
100
AcDb2dVertex
 10
54.62924715601078
 20
50.37650988630592
 30
0.0
  0
VERTEX
  5
140
330
13D
100
AcDbEntity
  8
0
100
AcDbVertex
100
AcDb2dVertex
 10
53.65717980538845
 20
49.52402969936641
 30
0.0
  0
VERTEX
  5
141
330
13D
100
AcDbEntity
  8
0
100
AcDbVertex
100
AcDb2dVertex
 10
53.63900095165442
 20
49.24667398831319
 30
0.0
  0
VERTEX
  5
142
330
13D
100
AcDbEntity
  8
0
100
AcDbVertex
100
AcDb2dVertex
 10
55.82665641417158
 20
46.75213102754594
 30
0.0
  0
VERTEX
  5
143
330
13D
100
AcDbEntity
  8
0
100
AcDbVertex
100
AcDb2dVertex
 10
56.10401212522481
 20
46.73395217381194
 30
0.0
  0
VERTEX
  5
144
330
13D
100
AcDbEntity
  8
0
100
AcDbVertex
100
AcDb2dVertex
 10
57.07607947584713
 20
47.58643236075144
 30
0.0
  0
VERTEX
  5
145
330
13D
100
AcDbEntity
  8
0
100
AcDbVertex
100
AcDb2dVertex
 10
57.09425832958116
 20
47.86378807180466
 30
0.0
  0
VERTEX
  5
146
330
13D
100
AcDbEntity
  8
0
100
AcDbVertex
100
AcDb2dVertex
 10
54.906602867064
 20
50.35833103257191
 30
0.0
  0
SEQEND
  5
147
330
13D
100
AcDbEntity
  8
Layer_1
  0
POLYLINE
  5
148
330
1F
100
AcDbEntity
  8
Layer_1
100
AcDb2dPolyline
 66
     1
 10
0.0
 20
0.0
 30
0.0
 70
     1
  0
VERTEX
  5
149
330
148
100
AcDbEntity
  8
0
100
AcDbVertex
100
AcDb2dVertex
 10
67.78143898687352
 20
47.28532270733992
 30
0.0
  0
VERTEX
  5
14A
330
148
100
AcDbEntity
  8
0
100
AcDbVertex
100
AcDb2dVertex
 10
67.50882890893396
 20
47.33954822331443
 30
0.0
  0
VERTEX
  5
14B
330
148
100
AcDbEntity
  8
0
100
AcDbVertex
100
AcDb2dVertex
 10
66.43380673650594
 20
46.62124137240843
 30
0.0
  0
VERTEX
  5
14C
330
148
100
AcDbEntity
  8
0
100
AcDbVertex
100
AcDb2dVertex
 10
66.37958122053143
 20
46.34863129446887
 30
0.0
  0
VERTEX
  5
14D
330
148
100
AcDbEntity
  8
0
100
AcDbVertex
100
AcDb2dVertex
 10
68.22291779330213
 20
43.58988315712821
 30
0.0
  0
VERTEX
  5
14E
330
148
100
AcDbEntity
  8
0
100
AcDbVertex
100
AcDb2dVertex
 10
68.4955278712417
 20
43.5356576411537
 30
0.0
  0
VERTEX
  5
14F
330
148
100
AcDbEntity
  8
0
100
AcDbVertex
100
AcDb2dVertex
 10
69.57055004366971
 20
44.25396449205969
 30
0.0
  0
VERTEX
  5
150
330
148
100
AcDbEntity
  8
0
100
AcDbVertex
100
AcDb2dVertex
 10
69.62477555964423
 20
44.52657456999926
 30
0.0
  0
VERTEX
  5
151
330
148
100
AcDbEntity
  8
0
100
AcDbVertex
100
AcDb2dVertex
 10
67.78143898687352
 20
47.28532270733992
 30
0.0
  0
SEQEND
  5
152
330
148
100
AcDbEntity
  8
Layer_1
  0
POLYLINE
  5
153
330
1F
100
AcDbEntity
  8
Layer_1
100
AcDb2dPolyline
 66
     1
 10
0.0
 20
0.0
 30
0.0
 70
     1
  0
VERTEX
  5
154
330
153
100
AcDbEntity
  8
0
100
AcDbVertex
100
AcDb2dVertex
 10
57.9680945631184
 20
53.04318719165939
 30
0.0
  0
VERTEX
  5
155
330
153
100
AcDbEntity
  8
0
100
AcDbVertex
100
AcDb2dVertex
 10
57.69073885206518
 20
53.06136604539341
 30
0.0
  0
VERTEX
  5
156
330
153
100
AcDbEntity
  8
0
100
AcDbVertex
100
AcDb2dVertex
 10
56.71867150144286
 20
52.20888585845389
 30
0.0
  0
VERTEX
  5
157
330
153
100
AcDbEntity
  8
0
100
AcDbVertex
100
AcDb2dVertex
 10
56.70049264770883
 20
51.93153014740069
 30
0.0
  0
VERTEX
  5
158
330
153
100
AcDbEntity
  8
0
100
AcDbVertex
100
AcDb2dVertex
 10
58.88814811022599
 20
49.43698718663343
 30
0.0
  0
VERTEX
  5
159
330
153
100
AcDbEntity
  8
0
100
AcDbVertex
100
AcDb2dVertex
 10
59.16550382127921
 20
49.41880833289943
 30
0.0
  0
VERTEX
  5
15A
330
153
100
AcDbEntity
  8
0
100
AcDbVertex
100
AcDb2dVertex
 10
60.13757117190155
 20
50.27128851983893
 30
0.0
  0
VERTEX
  5
15B
330
153
100
AcDbEntity
  8
0
100
AcDbVertex
100
AcDb2dVertex
 10
60.15575002563556
 20
50.54864423089215
 30
0.0
  0
VERTEX
  5
15C
330
153
100
AcDbEntity
  8
0
100
AcDbVertex
100
AcDb2dVertex
 10
57.9680945631184
 20
53.04318719165939
 30
0.0
  0
SEQEND
  5
15D
330
153
100
AcDbEntity
  8
Layer_1
  0
POLYLINE
  5
15E
330
1F
100
AcDbEntity
  8
Layer_1
100
AcDb2dPolyline
 66
     1
 10
0.0
 20
0.0
 30
0.0
 70
     1
  0
VERTEX
  5
15F
330
15E
100
AcDbEntity
  8
0
100
AcDbVertex
100
AcDb2dVertex
 10
61.0099504642816
 20
42.76075872962828
 30
0.0
  0
VERTEX
  5
160
330
15E
100
AcDbEntity
  8
0
100
AcDbVertex
100
AcDb2dVertex
 10
60.73734038634202
 20
42.81498424560278
 30
0.0
  0
VERTEX
  5
161
330
15E
100
AcDbEntity
  8
0
100
AcDbVertex
100
AcDb2dVertex
 10
59.66231821391402
 20
42.0966773946968
 30
0.0
  0
VERTEX
  5
162
330
15E
100
AcDbEntity
  8
0
100
AcDbVertex
100
AcDb2dVertex
 10
59.6080926979395
 20
41.82406731675722
 30
0.0
  0
VERTEX
  5
163
330
15E
100
AcDbEntity
  8
0
100
AcDbVertex
100
AcDb2dVertex
 10
61.4514292707102
 20
39.06531917941656
 30
0.0
  0
VERTEX
  5
164
330
15E
100
AcDbEntity
  8
0
100
AcDbVertex
100
AcDb2dVertex
 10
61.72403934864978
 20
39.01109366344205
 30
0.0
  0
VERTEX
  5
165
330
15E
100
AcDbEntity
  8
0
100
AcDbVertex
100
AcDb2dVertex
 10
62.79906152107778
 20
39.72940051434804
 30
0.0
  0
VERTEX
  5
166
330
15E
100
AcDbEntity
  8
0
100
AcDbVertex
100
AcDb2dVertex
 10
62.85328703705231
 20
40.00201059228762
 30
0.0
  0
VERTEX
  5
167
330
15E
100
AcDbEntity
  8
0
100
AcDbVertex
100
AcDb2dVertex
 10
61.0099504642816
 20
42.76075872962828
 30
0.0
  0
SEQEND
  5
168
330
15E
100
AcDbEntity
  8
Layer_1
  0
POLYLINE
  5
169
330
1F
100
AcDbEntity
  8
Layer_1
100
AcDb2dPolyline
 66
     1
 10
0.0
 20
0.0
 30
0.0
 70
     1
  0
VERTEX
  5
16A
330
169
100
AcDbEntity
  8
0
100
AcDbVertex
100
AcDb2dVertex
 10
80.71719375827078
 20
17.74710811536087
 30
0.0
  0
VERTEX
  5
16B
330
169
100
AcDbEntity
  8
0
100
AcDbVertex
100
AcDb2dVertex
 10
80.486086093481
 20
17.90152932003281
 30
0.0
  0
VERTEX
  5
16C
330
169
100
AcDbEntity
  8
0
100
AcDbVertex
100
AcDb2dVertex
 10
79.21801098018287
 20
17.64929349723145
 30
0.0
  0
VERTEX
  5
16D
330
169
100
AcDbEntity
  8
0
100
AcDbVertex
100
AcDb2dVertex
 10
79.06358977551092
 20
17.41818583244167
 30
0.0
  0
VERTEX
  5
16E
330
169
100
AcDbEntity
  8
0
100
AcDbVertex
100
AcDb2dVertex
 10
79.71088350039496
 20
14.16402052632701
 30
0.0
  0
VERTEX
  5
16F
330
169
100
AcDbEntity
  8
0
100
AcDbVertex
100
AcDb2dVertex
 10
79.94199116518473
 20
14.00959932165506
 30
0.0
  0
VERTEX
  5
170
330
169
100
AcDbEntity
  8
0
100
AcDbVertex
100
AcDb2dVertex
 10
81.21006627848286
 20
14.26183514445642
 30
0.0
  0
VERTEX
  5
171
330
169
100
AcDbEntity
  8
0
100
AcDbVertex
100
AcDb2dVertex
 10
81.3644874831548
 20
14.4929428092462
 30
0.0
  0
VERTEX
  5
172
330
169
100
AcDbEntity
  8
0
100
AcDbVertex
100
AcDb2dVertex
 10
80.71719375827078
 20
17.74710811536087
 30
0.0
  0
SEQEND
  5
173
330
169
100
AcDbEntity
  8
Layer_1
  0
POLYLINE
  5
174
330
1F
100
AcDbEntity
  8
Layer_1
100
AcDb2dPolyline
 66
     1
 10
0.0
 20
0.0
 30
0.0
 70
     1
  0
VERTEX
  5
175
330
174
100
AcDbEntity
  8
0
100
AcDbVertex
100
AcDb2dVertex
 10
78.27982788593981
 20
6.793249655039638
 30
0.0
  0
VERTEX
  5
176
330
174
100
AcDbEntity
  8
0
100
AcDbVertex
100
AcDb2dVertex
 10
78.07085339110374
 20
6.976515368376668
 30
0.0
  0
VERTEX
  5
177
330
174
100
AcDbEntity
  8
0
100
AcDbVertex
100
AcDb2dVertex
 10
76.78070345469655
 20
6.891954473993681
 30
0.0
  0
VERTEX
  5
178
330
174
100
AcDbEntity
  8
0
100
AcDbVertex
100
AcDb2dVertex
 10
76.59743774135951
 20
6.682979979157616
 30
0.0
  0
VERTEX
  5
179
330
174
100
AcDbEntity
  8
0
100
AcDbVertex
100
AcDb2dVertex
 10
76.81443997243356
 20
3.372165723192253
 30
0.0
  0
VERTEX
  5
17A
330
174
100
AcDbEntity
  8
0
100
AcDbVertex
100
AcDb2dVertex
 10
77.02341446726962
 20
3.188900009855224
 30
0.0
  0
VERTEX
  5
17B
330
174
100
AcDbEntity
  8
0
100
AcDbVertex
100
AcDb2dVertex
 10
78.31356440367682
 20
3.273460904238211
 30
0.0
  0
VERTEX
  5
17C
330
174
100
AcDbEntity
  8
0
100
AcDbVertex
100
AcDb2dVertex
 10
78.49683011701384
 20
3.482435399074275
 30
0.0
  0
VERTEX
  5
17D
330
174
100
AcDbEntity
  8
0
100
AcDbVertex
100
AcDb2dVertex
 10
78.27982788593981
 20
6.793249655039638
 30
0.0
  0
SEQEND
  5
17E
330
174
100
AcDbEntity
  8
Layer_1
  0
POLYLINE
  5
17F
330
1F
100
AcDbEntity
  8
Layer_1
100
AcDb2dPolyline
 66
     1
 10
0.0
 20
0.0
 30
0.0
 70
     1
  0
VERTEX
  5
180
330
17F
100
AcDbEntity
  8
0
100
AcDbVertex
100
AcDb2dVertex
 10
72.72967843466687
 20
16.15829253286152
 30
0.0
  0
VERTEX
  5
181
330
17F
100
AcDbEntity
  8
0
100
AcDbVertex
100
AcDb2dVertex
 10
72.49857076987708
 20
16.31271373753346
 30
0.0
  0
VERTEX
  5
182
330
17F
100
AcDbEntity
  8
0
100
AcDbVertex
100
AcDb2dVertex
 10
71.23049565657897
 20
16.0604779147321
 30
0.0
  0
VERTEX
  5
183
330
17F
100
AcDbEntity
  8
0
100
AcDbVertex
100
AcDb2dVertex
 10
71.076074451907
 20
15.82937024994232
 30
0.0
  0
VERTEX
  5
184
330
17F
100
AcDbEntity
  8
0
100
AcDbVertex
100
AcDb2dVertex
 10
71.72336817679104
 20
12.57520494382766
 30
0.0
  0
VERTEX
  5
185
330
17F
100
AcDbEntity
  8
0
100
AcDbVertex
100
AcDb2dVertex
 10
71.95447584158082
 20
12.42078373915572
 30
0.0
  0
VERTEX
  5
186
330
17F
100
AcDbEntity
  8
0
100
AcDbVertex
100
AcDb2dVertex
 10
73.22255095487894
 20
12.67301956195707
 30
0.0
  0
VERTEX
  5
187
330
17F
100
AcDbEntity
  8
0
100
AcDbVertex
100
AcDb2dVertex
 10
73.3769721595509
 20
12.90412722674685
 30
0.0
  0
VERTEX
  5
188
330
17F
100
AcDbEntity
  8
0
100
AcDbVertex
100
AcDb2dVertex
 10
72.72967843466687
 20
16.15829253286152
 30
0.0
  0
SEQEND
  5
189
330
17F
100
AcDbEntity
  8
Layer_1
  0
POLYLINE
  5
18A
330
1F
100
AcDbEntity
  8
Layer_1
100
AcDb2dPolyline
 66
     1
 10
0.0
 20
0.0
 30
0.0
 70
     1
  0
VERTEX
  5
18B
330
18A
100
AcDbEntity
  8
0
100
AcDbVertex
100
AcDb2dVertex
 10
82.3431094213674
 20
7.059571197264781
 30
0.0
  0
VERTEX
  5
18C
330
18A
100
AcDbEntity
  8
0
100
AcDbVertex
100
AcDb2dVertex
 10
82.13413492653133
 20
7.24283691060181
 30
0.0
  0
VERTEX
  5
18D
330
18A
100
AcDbEntity
  8
0
100
AcDbVertex
100
AcDb2dVertex
 10
80.84398499012414
 20
7.158276016218823
 30
0.0
  0
VERTEX
  5
18E
330
18A
100
AcDbEntity
  8
0
100
AcDbVertex
100
AcDb2dVertex
 10
80.6607192767871
 20
6.949301521382758
 30
0.0
  0
VERTEX
  5
18F
330
18A
100
AcDbEntity
  8
0
100
AcDbVertex
100
AcDb2dVertex
 10
80.87772150786114
 20
3.638487265417396
 30
0.0
  0
VERTEX
  5
190
330
18A
100
AcDbEntity
  8
0
100
AcDbVertex
100
AcDb2dVertex
 10
81.08669600269721
 20
3.455221552080367
 30
0.0
  0
VERTEX
  5
191
330
18A
100
AcDbEntity
  8
0
100
AcDbVertex
100
AcDb2dVertex
 10
82.3768459391044
 20
3.539782446463353
 30
0.0
  0
VERTEX
  5
192
330
18A
100
AcDbEntity
  8
0
100
AcDbVertex
100
AcDb2dVertex
 10
82.56011165244144
 20
3.748756941299417
 30
0.0
  0
VERTEX
  5
193
330
18A
100
AcDbEntity
  8
0
100
AcDbVertex
100
AcDb2dVertex
 10
82.3431094213674
 20
7.059571197264781
 30
0.0
  0
SEQEND
  5
194
330
18A
100
AcDbEntity
  8
Layer_1
  0
POLYLINE
  5
195
330
1F
100
AcDbEntity
  8
Layer_1
100
AcDb2dPolyline
 66
     1
 10
0.0
 20
0.0
 30
0.0
 70
     1
  0
VERTEX
  5
196
330
195
100
AcDbEntity
  8
0
100
AcDbVertex
100
AcDb2dVertex
 10
76.72343609646882
 20
16.95270032411119
 30
0.0
  0
VERTEX
  5
197
330
195
100
AcDbEntity
  8
0
100
AcDbVertex
100
AcDb2dVertex
 10
76.49232843167906
 20
17.10712152878314
 30
0.0
  0
VERTEX
  5
198
330
195
100
AcDbEntity
  8
0
100
AcDbVertex
100
AcDb2dVertex
 10
75.22425331838092
 20
16.85488570598178
 30
0.0
  0
VERTEX
  5
199
330
195
100
AcDbEntity
  8
0
100
AcDbVertex
100
AcDb2dVertex
 10
75.06983211370898
 20
16.623778041192
 30
0.0
  0
VERTEX
  5
19A
330
195
100
AcDbEntity
  8
0
100
AcDbVertex
100
AcDb2dVertex
 10
75.717125838593
 20
13.36961273507734
 30
0.0
  0
VERTEX
  5
19B
330
195
100
AcDbEntity
  8
0
100
AcDbVertex
100
AcDb2dVertex
 10
75.94823350338278
 20
13.21519153040539
 30
0.0
  0
VERTEX
  5
19C
330
195
100
AcDbEntity
  8
0
100
AcDbVertex
100
AcDb2dVertex
 10
77.21630861668092
 20
13.46742735320675
 30
0.0
  0
VERTEX
  5
19D
330
195
100
AcDbEntity
  8
0
100
AcDbVertex
100
AcDb2dVertex
 10
77.37072982135285
 20
13.69853501799653
 30
0.0
  0
VERTEX
  5
19E
330
195
100
AcDbEntity
  8
0
100
AcDbVertex
100
AcDb2dVertex
 10
76.72343609646882
 20
16.95270032411119
 30
0.0
  0
SEQEND
  5
19F
330
195
100
AcDbEntity
  8
Layer_1
  0
POLYLINE
  5
1A0
330
1F
100
AcDbEntity
  8
Layer_1
100
AcDb2dPolyline
 66
     1
 10
0.0
 20
0.0
 30
0.0
 70
     1
  0
VERTEX
  5
1A1
330
1A0
100
AcDbEntity
  8
0
100
AcDbVertex
100
AcDb2dVertex
 10
74.21654635051222
 20
6.526928112814495
 30
0.0
  0
VERTEX
  5
1A2
330
1A0
100
AcDbEntity
  8
0
100
AcDbVertex
100
AcDb2dVertex
 10
74.00757185567613
 20
6.710193826151525
 30
0.0
  0
VERTEX
  5
1A3
330
1A0
100
AcDbEntity
  8
0
100
AcDbVertex
100
AcDb2dVertex
 10
72.71742191926896
 20
6.625632931768538
 30
0.0
  0
VERTEX
  5
1A4
330
1A0
100
AcDbEntity
  8
0
100
AcDbVertex
100
AcDb2dVertex
 10
72.53415620593191
 20
6.416658436932473
 30
0.0
  0
VERTEX
  5
1A5
330
1A0
100
AcDbEntity
  8
0
100
AcDbVertex
100
AcDb2dVertex
 10
72.75115843700594
 20
3.10584418096711
 30
0.0
  0
VERTEX
  5
1A6
330
1A0
100
AcDbEntity
  8
0
100
AcDbVertex
100
AcDb2dVertex
 10
72.96013293184203
 20
2.922578467630081
 30
0.0
  0
VERTEX
  5
1A7
330
1A0
100
AcDbEntity
  8
0
100
AcDbVertex
100
AcDb2dVertex
 10
74.2502828682492
 20
3.007139362013068
 30
0.0
  0
VERTEX
  5
1A8
330
1A0
100
AcDbEntity
  8
0
100
AcDbVertex
100
AcDb2dVertex
 10
74.43354858158625
 20
3.216113856849132
 30
0.0
  0
VERTEX
  5
1A9
330
1A0
100
AcDbEntity
  8
0
100
AcDbVertex
100
AcDb2dVertex
 10
74.21654635051222
 20
6.526928112814495
 30
0.0
  0
SEQEND
  5
1AA
330
1A0
100
AcDbEntity
  8
Layer_1
  0
POLYLINE
  5
1AB
330
1F
100
AcDbEntity
  8
Layer_1
100
AcDb2dPolyline
 66
     1
 10
0.0
 20
0.0
 30
0.0
 70
     1
  0
VERTEX
  5
1AC
330
1AB
100
AcDbEntity
  8
0
100
AcDbVertex
100
AcDb2dVertex
 10
73.37353250094363
 20
38.03353708244217
 30
0.0
  0
VERTEX
  5
1AD
330
1AB
100
AcDbEntity
  8
0
100
AcDbVertex
100
AcDb2dVertex
 10
73.11033249013306
 20
38.1228814470447
 30
0.0
  0
VERTEX
  5
1AE
330
1AB
100
AcDbEntity
  8
0
100
AcDbVertex
100
AcDb2dVertex
 10
71.95074942332205
 20
37.55103836154351
 30
0.0
  0
VERTEX
  5
1AF
330
1AB
100
AcDbEntity
  8
0
100
AcDbVertex
100
AcDb2dVertex
 10
71.86140505871951
 20
37.28783835073293
 30
0.0
  0
VERTEX
  5
1B0
330
1AB
100
AcDbEntity
  8
0
100
AcDbVertex
100
AcDb2dVertex
 10
73.32888274191419
 20
34.31208798231824
 30
0.0
  0
VERTEX
  5
1B1
330
1AB
100
AcDbEntity
  8
0
100
AcDbVertex
100
AcDb2dVertex
 10
73.59208275272478
 20
34.22274361771571
 30
0.0
  0
VERTEX
  5
1B2
330
1AB
100
AcDbEntity
  8
0
100
AcDbVertex
100
AcDb2dVertex
 10
74.75166581953577
 20
34.7945867032169
 30
0.0
  0
VERTEX
  5
1B3
330
1AB
100
AcDbEntity
  8
0
100
AcDbVertex
100
AcDb2dVertex
 10
74.84101018413831
 20
35.05778671402749
 30
0.0
  0
VERTEX
  5
1B4
330
1AB
100
AcDbEntity
  8
0
100
AcDbVertex
100
AcDb2dVertex
 10
73.37353250094363
 20
38.03353708244217
 30
0.0
  0
SEQEND
  5
1B5
330
1AB
100
AcDbEntity
  8
Layer_1
  0
POLYLINE
  5
1B6
330
1F
100
AcDbEntity
  8
Layer_1
100
AcDb2dPolyline
 66
     1
 10
0.0
 20
0.0
 30
0.0
 70
     1
  0
VERTEX
  5
1B7
330
1B6
100
AcDbEntity
  8
0
100
AcDbVertex
100
AcDb2dVertex
 10
73.85428504363207
 20
26.82208559046071
 30
0.0
  0
VERTEX
  5
1B8
330
1B6
100
AcDbEntity
  8
0
100
AcDbVertex
100
AcDb2dVertex
 10
73.60499852510827
 20
26.94502009684198
 30
0.0
  0
VERTEX
  5
1B9
330
1B6
100
AcDbEntity
  8
0
100
AcDbVertex
100
AcDb2dVertex
 10
72.38069535168461
 20
26.52942517048336
 30
0.0
  0
VERTEX
  5
1BA
330
1B6
100
AcDbEntity
  8
0
100
AcDbVertex
100
AcDb2dVertex
 10
72.25776084530332
 20
26.28013865195957
 30
0.0
  0
VERTEX
  5
1BB
330
1B6
100
AcDbEntity
  8
0
100
AcDbVertex
100
AcDb2dVertex
 10
73.32427068890085
 20
23.1383019663083
 30
0.0
  0
VERTEX
  5
1BC
330
1B6
100
AcDbEntity
  8
0
100
AcDbVertex
100
AcDb2dVertex
 10
73.57355720742464
 20
23.01536745992703
 30
0.0
  0
VERTEX
  5
1BD
330
1B6
100
AcDbEntity
  8
0
100
AcDbVertex
100
AcDb2dVertex
 10
74.79786038084832
 20
23.43096238628565
 30
0.0
  0
VERTEX
  5
1BE
330
1B6
100
AcDbEntity
  8
0
100
AcDbVertex
100
AcDb2dVertex
 10
74.92079488722962
 20
23.68024890480944
 30
0.0
  0
VERTEX
  5
1BF
330
1B6
100
AcDbEntity
  8
0
100
AcDbVertex
100
AcDb2dVertex
 10
73.85428504363207
 20
26.82208559046071
 30
0.0
  0
SEQEND
  5
1C0
330
1B6
100
AcDbEntity
  8
Layer_1
  0
POLYLINE
  5
1C1
330
1F
100
AcDbEntity
  8
Layer_1
100
AcDb2dPolyline
 66
     1
 10
0.0
 20
0.0
 30
0.0
 70
     1
  0
VERTEX
  5
1C2
330
1C1
100
AcDbEntity
  8
0
100
AcDbVertex
100
AcDb2dVertex
 10
66.06940089390142
 20
34.43153798929862
 30
0.0
  0
VERTEX
  5
1C3
330
1C1
100
AcDbEntity
  8
0
100
AcDbVertex
100
AcDb2dVertex
 10
65.80620088309084
 20
34.52088235390116
 30
0.0
  0
VERTEX
  5
1C4
330
1C1
100
AcDbEntity
  8
0
100
AcDbVertex
100
AcDb2dVertex
 10
64.64661781627984
 20
33.94903926839996
 30
0.0
  0
VERTEX
  5
1C5
330
1C1
100
AcDbEntity
  8
0
100
AcDbVertex
100
AcDb2dVertex
 10
64.55727345167729
 20
33.68583925758938
 30
0.0
  0
VERTEX
  5
1C6
330
1C1
100
AcDbEntity
  8
0
100
AcDbVertex
100
AcDb2dVertex
 10
66.02475113487198
 20
30.71008888917468
 30
0.0
  0
VERTEX
  5
1C7
330
1C1
100
AcDbEntity
  8
0
100
AcDbVertex
100
AcDb2dVertex
 10
66.28795114568257
 20
30.62074452457216
 30
0.0
  0
VERTEX
  5
1C8
330
1C1
100
AcDbEntity
  8
0
100
AcDbVertex
100
AcDb2dVertex
 10
67.44753421249355
 20
31.19258761007335
 30
0.0
  0
VERTEX
  5
1C9
330
1C1
100
AcDbEntity
  8
0
100
AcDbVertex
100
AcDb2dVertex
 10
67.5368785770961
 20
31.45578762088394
 30
0.0
  0
VERTEX
  5
1CA
330
1C1
100
AcDbEntity
  8
0
100
AcDbVertex
100
AcDb2dVertex
 10
66.06940089390142
 20
34.43153798929862
 30
0.0
  0
SEQEND
  5
1CB
330
1C1
100
AcDbEntity
  8
Layer_1
  0
POLYLINE
  5
1CC
330
1F
100
AcDbEntity
  8
Layer_1
100
AcDb2dPolyline
 66
     1
 10
0.0
 20
0.0
 30
0.0
 70
     1
  0
VERTEX
  5
1CD
330
1CC
100
AcDbEntity
  8
0
100
AcDbVertex
100
AcDb2dVertex
 10
77.71018453093613
 20
28.13098709317518
 30
0.0
  0
VERTEX
  5
1CE
330
1CC
100
AcDbEntity
  8
0
100
AcDbVertex
100
AcDb2dVertex
 10
77.46089801241234
 20
28.25392159955645
 30
0.0
  0
VERTEX
  5
1CF
330
1CC
100
AcDbEntity
  8
0
100
AcDbVertex
100
AcDb2dVertex
 10
76.23659483898867
 20
27.83832667319783
 30
0.0
  0
VERTEX
  5
1D0
330
1CC
100
AcDbEntity
  8
0
100
AcDbVertex
100
AcDb2dVertex
 10
76.11366033260738
 20
27.58904015467405
 30
0.0
  0
VERTEX
  5
1D1
330
1CC
100
AcDbEntity
  8
0
100
AcDbVertex
100
AcDb2dVertex
 10
77.18017017620494
 20
24.44720346902278
 30
0.0
  0
VERTEX
  5
1D2
330
1CC
100
AcDbEntity
  8
0
100
AcDbVertex
100
AcDb2dVertex
 10
77.42945669472871
 20
24.3242689626415
 30
0.0
  0
VERTEX
  5
1D3
330
1CC
100
AcDbEntity
  8
0
100
AcDbVertex
100
AcDb2dVertex
 10
78.65375986815238
 20
24.73986388900012
 30
0.0
  0
VERTEX
  5
1D4
330
1CC
100
AcDbEntity
  8
0
100
AcDbVertex
100
AcDb2dVertex
 10
78.77669437453368
 20
24.98915040752391
 30
0.0
  0
VERTEX
  5
1D5
330
1CC
100
AcDbEntity
  8
0
100
AcDbVertex
100
AcDb2dVertex
 10
77.71018453093613
 20
28.13098709317518
 30
0.0
  0
SEQEND
  5
1D6
330
1CC
100
AcDbEntity
  8
Layer_1
  0
POLYLINE
  5
1D7
330
1F
100
AcDbEntity
  8
Layer_1
100
AcDb2dPolyline
 66
     1
 10
0.0
 20
0.0
 30
0.0
 70
     1
  0
VERTEX
  5
1D8
330
1D7
100
AcDbEntity
  8
0
100
AcDbVertex
100
AcDb2dVertex
 10
69.72146669742253
 20
36.23253753587039
 30
0.0
  0
VERTEX
  5
1D9
330
1D7
100
AcDbEntity
  8
0
100
AcDbVertex
100
AcDb2dVertex
 10
69.45826668661195
 20
36.32188190047293
 30
0.0
  0
VERTEX
  5
1DA
330
1D7
100
AcDbEntity
  8
0
100
AcDbVertex
100
AcDb2dVertex
 10
68.29868361980094
 20
35.75003881497173
 30
0.0
  0
VERTEX
  5
1DB
330
1D7
100
AcDbEntity
  8
0
100
AcDbVertex
100
AcDb2dVertex
 10
68.2093392551984
 20
35.48683880416116
 30
0.0
  0
VERTEX
  5
1DC
330
1D7
100
AcDbEntity
  8
0
100
AcDbVertex
100
AcDb2dVertex
 10
69.67681693839309
 20
32.51108843574647
 30
0.0
  0
VERTEX
  5
1DD
330
1D7
100
AcDbEntity
  8
0
100
AcDbVertex
100
AcDb2dVertex
 10
69.94001694920368
 20
32.42174407114393
 30
0.0
  0
VERTEX
  5
1DE
330
1D7
100
AcDbEntity
  8
0
100
AcDbVertex
100
AcDb2dVertex
 10
71.09960001601468
 20
32.99358715664513
 30
0.0
  0
VERTEX
  5
1DF
330
1D7
100
AcDbEntity
  8
0
100
AcDbVertex
100
AcDb2dVertex
 10
71.18894438061722
 20
33.25678716745571
 30
0.0
  0
VERTEX
  5
1E0
330
1D7
100
AcDbEntity
  8
0
100
AcDbVertex
100
AcDb2dVertex
 10
69.72146669742253
 20
36.23253753587039
 30
0.0
  0
SEQEND
  5
1E1
330
1D7
100
AcDbEntity
  8
Layer_1
  0
POLYLINE
  5
1E2
330
1F
100
AcDbEntity
  8
Layer_1
100
AcDb2dPolyline
 66
     1
 10
0.0
 20
0.0
 30
0.0
 70
     1
  0
VERTEX
  5
1E3
330
1E2
100
AcDbEntity
  8
0
100
AcDbVertex
100
AcDb2dVertex
 10
69.998385556328
 20
25.51318408774623
 30
0.0
  0
VERTEX
  5
1E4
330
1E2
100
AcDbEntity
  8
0
100
AcDbVertex
100
AcDb2dVertex
 10
69.7490990378042
 20
25.6361185941275
 30
0.0
  0
VERTEX
  5
1E5
330
1E2
100
AcDbEntity
  8
0
100
AcDbVertex
100
AcDb2dVertex
 10
68.52479586438052
 20
25.22052366776889
 30
0.0
  0
VERTEX
  5
1E6
330
1E2
100
AcDbEntity
  8
0
100
AcDbVertex
100
AcDb2dVertex
 10
68.40186135799924
 20
24.97123714924509
 30
0.0
  0
VERTEX
  5
1E7
330
1E2
100
AcDbEntity
  8
0
100
AcDbVertex
100
AcDb2dVertex
 10
69.46837120159677
 20
21.82940046359382
 30
0.0
  0
VERTEX
  5
1E8
330
1E2
100
AcDbEntity
  8
0
100
AcDbVertex
100
AcDb2dVertex
 10
69.71765772012056
 20
21.70646595721255
 30
0.0
  0
VERTEX
  5
1E9
330
1E2
100
AcDbEntity
  8
0
100
AcDbVertex
100
AcDb2dVertex
 10
70.94196089354423
 20
22.12206088357117
 30
0.0
  0
VERTEX
  5
1EA
330
1E2
100
AcDbEntity
  8
0
100
AcDbVertex
100
AcDb2dVertex
 10
71.06489539992553
 20
22.37134740209496
 30
0.0
  0
VERTEX
  5
1EB
330
1E2
100
AcDbEntity
  8
0
100
AcDbVertex
100
AcDb2dVertex
 10
69.998385556328
 20
25.51318408774623
 30
0.0
  0
SEQEND
  5
1EC
330
1E2
100
AcDbEntity
  8
Layer_1
  0
POLYLINE
  5
1ED
330
1F
100
AcDbEntity
  8
Layer_1
100
AcDb2dPolyline
 66
     1
 10
0.0
 20
0.0
 30
0.0
 70
     1
  0
VERTEX
  5
1EE
330
1ED
100
AcDbEntity
  8
0
100
AcDbVertex
100
AcDb2dVertex
 10
62.5603321072
 20
57.07047143029062
 30
0.0
  0
VERTEX
  5
1EF
330
1ED
100
AcDbEntity
  8
0
100
AcDbVertex
100
AcDb2dVertex
 10
62.28297639614677
 20
57.08865028402462
 30
0.0
  0
VERTEX
  5
1F0
330
1ED
100
AcDbEntity
  8
0
100
AcDbVertex
100
AcDb2dVertex
 10
61.31090904552445
 20
56.23617009708512
 30
0.0
  0
VERTEX
  5
1F1
330
1ED
100
AcDbEntity
  8
0
100
AcDbVertex
100
AcDb2dVertex
 10
61.29273019179045
 20
55.95881438603191
 30
0.0
  0
VERTEX
  5
1F2
330
1ED
100
AcDbEntity
  8
0
100
AcDbVertex
100
AcDb2dVertex
 10
63.48038565430759
 20
53.46427142526464
 30
0.0
  0
VERTEX
  5
1F3
330
1ED
100
AcDbEntity
  8
0
100
AcDbVertex
100
AcDb2dVertex
 10
63.75774136536082
 20
53.44609257153063
 30
0.0
  0
VERTEX
  5
1F4
330
1ED
100
AcDbEntity
  8
0
100
AcDbVertex
100
AcDb2dVertex
 10
64.72980871598315
 20
54.29857275847013
 30
0.0
  0
VERTEX
  5
1F5
330
1ED
100
AcDbEntity
  8
0
100
AcDbVertex
100
AcDb2dVertex
 10
64.74798756971715
 20
54.57592846952336
 30
0.0
  0
VERTEX
  5
1F6
330
1ED
100
AcDbEntity
  8
0
100
AcDbVertex
100
AcDb2dVertex
 10
62.5603321072
 20
57.07047143029062
 30
0.0
  0
SEQEND
  5
1F7
330
1ED
100
AcDbEntity
  8
Layer_1
  0
POLYLINE
  5
1F8
330
1F
100
AcDbEntity
  8
Layer_1
100
AcDb2dPolyline
 66
     1
 10
0.0
 20
0.0
 30
0.0
 70
     1
  0
VERTEX
  5
1F9
330
1F8
100
AcDbEntity
  8
0
100
AcDbVertex
100
AcDb2dVertex
 10
66.08856685622555
 20
46.15418171291203
 30
0.0
  0
VERTEX
  5
1FA
330
1F8
100
AcDbEntity
  8
0
100
AcDbVertex
100
AcDb2dVertex
 10
65.81595677828598
 20
46.20840722888654
 30
0.0
  0
VERTEX
  5
1FB
330
1F8
100
AcDbEntity
  8
0
100
AcDbVertex
100
AcDb2dVertex
 10
64.74093460585796
 20
45.49010037798054
 30
0.0
  0
VERTEX
  5
1FC
330
1F8
100
AcDbEntity
  8
0
100
AcDbVertex
100
AcDb2dVertex
 10
64.68670908988344
 20
45.21749030004097
 30
0.0
  0
VERTEX
  5
1FD
330
1F8
100
AcDbEntity
  8
0
100
AcDbVertex
100
AcDb2dVertex
 10
66.53004566265415
 20
42.4587421627003
 30
0.0
  0
VERTEX
  5
1FE
330
1F8
100
AcDbEntity
  8
0
100
AcDbVertex
100
AcDb2dVertex
 10
66.8026557405937
 20
42.40451664672579
 30
0.0
  0
VERTEX
  5
1FF
330
1F8
100
AcDbEntity
  8
0
100
AcDbVertex
100
AcDb2dVertex
 10
67.87767791302173
 20
43.12282349763179
 30
0.0
  0
VERTEX
  5
200
330
1F8
100
AcDbEntity
  8
0
100
AcDbVertex
100
AcDb2dVertex
 10
67.93190342899622
 20
43.39543357557135
 30
0.0
  0
VERTEX
  5
201
330
1F8
100
AcDbEntity
  8
0
100
AcDbVertex
100
AcDb2dVertex
 10
66.08856685622555
 20
46.15418171291203
 30
0.0
  0
SEQEND
  5
202
330
1F8
100
AcDbEntity
  8
Layer_1
  0
POLYLINE
  5
203
330
1F
100
AcDbEntity
  8
Layer_1
100
AcDb2dPolyline
 66
     1
 10
0.0
 20
0.0
 30
0.0
 70
     1
  0
VERTEX
  5
204
330
203
100
AcDbEntity
  8
0
100
AcDbVertex
100
AcDb2dVertex
 10
56.4373487150912
 20
51.70075911211566
 30
0.0
  0
VERTEX
  5
205
330
203
100
AcDbEntity
  8
0
100
AcDbVertex
100
AcDb2dVertex
 10
56.15999300403799
 20
51.71893796584966
 30
0.0
  0
VERTEX
  5
206
330
203
100
AcDbEntity
  8
0
100
AcDbVertex
100
AcDb2dVertex
 10
55.18792565341566
 20
50.86645777891016
 30
0.0
  0
VERTEX
  5
207
330
203
100
AcDbEntity
  8
0
100
AcDbVertex
100
AcDb2dVertex
 10
55.16974679968165
 20
50.58910206785693
 30
0.0
  0
VERTEX
  5
208
330
203
100
AcDbEntity
  8
0
100
AcDbVertex
100
AcDb2dVertex
 10
57.3574022621988
 20
48.09455910708969
 30
0.0
  0
VERTEX
  5
209
330
203
100
AcDbEntity
  8
0
100
AcDbVertex
100
AcDb2dVertex
 10
57.63475797325203
 20
48.07638025335567
 30
0.0
  0
VERTEX
  5
20A
330
203
100
AcDbEntity
  8
0
100
AcDbVertex
100
AcDb2dVertex
 10
58.60682532387433
 20
48.92886044029517
 30
0.0
  0
VERTEX
  5
20B
330
203
100
AcDbEntity
  8
0
100
AcDbVertex
100
AcDb2dVertex
 10
58.62500417760835
 20
49.20621615134839
 30
0.0
  0
VERTEX
  5
20C
330
203
100
AcDbEntity
  8
0
100
AcDbVertex
100
AcDb2dVertex
 10
56.4373487150912
 20
51.70075911211566
 30
0.0
  0
SEQEND
  5
20D
330
203
100
AcDbEntity
  8
Layer_1
  0
POLYLINE
  5
20E
330
1F
100
AcDbEntity
  8
Layer_1
100
AcDb2dPolyline
 66
     1
 10
0.0
 20
0.0
 30
0.0
 70
     1
  0
VERTEX
  5
20F
330
20E
100
AcDbEntity
  8
0
100
AcDbVertex
100
AcDb2dVertex
 10
69.47431111752152
 20
48.41646370176785
 30
0.0
  0
VERTEX
  5
210
330
20E
100
AcDbEntity
  8
0
100
AcDbVertex
100
AcDb2dVertex
 10
69.20170103958193
 20
48.47068921774236
 30
0.0
  0
VERTEX
  5
211
330
20E
100
AcDbEntity
  8
0
100
AcDbVertex
100
AcDb2dVertex
 10
68.12667886715393
 20
47.75238236683636
 30
0.0
  0
VERTEX
  5
212
330
20E
100
AcDbEntity
  8
0
100
AcDbVertex
100
AcDb2dVertex
 10
68.07245335117942
 20
47.4797722888968
 30
0.0
  0
VERTEX
  5
213
330
20E
100
AcDbEntity
  8
0
100
AcDbVertex
100
AcDb2dVertex
 10
69.91578992395011
 20
44.72102415155612
 30
0.0
  0
VERTEX
  5
214
330
20E
100
AcDbEntity
  8
0
100
AcDbVertex
100
AcDb2dVertex
 10
70.18840000188968
 20
44.66679863558161
 30
0.0
  0
VERTEX
  5
215
330
20E
100
AcDbEntity
  8
0
100
AcDbVertex
100
AcDb2dVertex
 10
71.2634221743177
 20
45.3851054864876
 30
0.0
  0
VERTEX
  5
216
330
20E
100
AcDbEntity
  8
0
100
AcDbVertex
100
AcDb2dVertex
 10
71.3176476902922
 20
45.65771556442718
 30
0.0
  0
VERTEX
  5
217
330
20E
100
AcDbEntity
  8
0
100
AcDbVertex
100
AcDb2dVertex
 10
69.47431111752152
 20
48.41646370176785
 30
0.0
  0
SEQEND
  5
218
330
20E
100
AcDbEntity
  8
Layer_1
  0
POLYLINE
  5
219
330
1F
100
AcDbEntity
  8
Layer_1
100
AcDb2dPolyline
 66
     1
 10
0.0
 20
0.0
 30
0.0
 70
     1
  0
VERTEX
  5
21A
330
219
100
AcDbEntity
  8
0
100
AcDbVertex
100
AcDb2dVertex
 10
59.4988404111456
 20
54.38561527120314
 30
0.0
  0
VERTEX
  5
21B
330
219
100
AcDbEntity
  8
0
100
AcDbVertex
100
AcDb2dVertex
 10
59.22148470009238
 20
54.40379412493714
 30
0.0
  0
VERTEX
  5
21C
330
219
100
AcDbEntity
  8
0
100
AcDbVertex
100
AcDb2dVertex
 10
58.24941734947004
 20
53.55131393799763
 30
0.0
  0
VERTEX
  5
21D
330
219
100
AcDbEntity
  8
0
100
AcDbVertex
100
AcDb2dVertex
 10
58.23123849573603
 20
53.27395822694441
 30
0.0
  0
VERTEX
  5
21E
330
219
100
AcDbEntity
  8
0
100
AcDbVertex
100
AcDb2dVertex
 10
60.41889395825319
 20
50.77941526617715
 30
0.0
  0
VERTEX
  5
21F
330
219
100
AcDbEntity
  8
0
100
AcDbVertex
100
AcDb2dVertex
 10
60.69624966930641
 20
50.76123641244315
 30
0.0
  0
VERTEX
  5
220
330
219
100
AcDbEntity
  8
0
100
AcDbVertex
100
AcDb2dVertex
 10
61.66831701992874
 20
51.61371659938266
 30
0.0
  0
VERTEX
  5
221
330
219
100
AcDbEntity
  8
0
100
AcDbVertex
100
AcDb2dVertex
 10
61.68649587366275
 20
51.89107231043587
 30
0.0
  0
VERTEX
  5
222
330
219
100
AcDbEntity
  8
0
100
AcDbVertex
100
AcDb2dVertex
 10
59.4988404111456
 20
54.38561527120314
 30
0.0
  0
SEQEND
  5
223
330
219
100
AcDbEntity
  8
Layer_1
  0
POLYLINE
  5
224
330
1F
100
AcDbEntity
  8
Layer_1
100
AcDb2dPolyline
 66
     1
 10
0.0
 20
0.0
 30
0.0
 70
     1
  0
VERTEX
  5
225
330
224
100
AcDbEntity
  8
0
100
AcDbVertex
100
AcDb2dVertex
 10
62.70282259492959
 20
43.8918997240562
 30
0.0
  0
VERTEX
  5
226
330
224
100
AcDbEntity
  8
0
100
AcDbVertex
100
AcDb2dVertex
 10
62.43021251699001
 20
43.94612524003072
 30
0.0
  0
VERTEX
  5
227
330
224
100
AcDbEntity
  8
0
100
AcDbVertex
100
AcDb2dVertex
 10
61.355190344562
 20
43.22781838912472
 30
0.0
  0
VERTEX
  5
228
330
224
100
AcDbEntity
  8
0
100
AcDbVertex
100
AcDb2dVertex
 10
61.30096482858749
 20
42.95520831118515
 30
0.0
  0
VERTEX
  5
229
330
224
100
AcDbEntity
  8
0
100
AcDbVertex
100
AcDb2dVertex
 10
63.14430140135818
 20
40.19646017384449
 30
0.0
  0
VERTEX
  5
22A
330
224
100
AcDbEntity
  8
0
100
AcDbVertex
100
AcDb2dVertex
 10
63.41691147929775
 20
40.14223465786997
 30
0.0
  0
VERTEX
  5
22B
330
224
100
AcDbEntity
  8
0
100
AcDbVertex
100
AcDb2dVertex
 10
64.49193365172574
 20
40.86054150877596
 30
0.0
  0
VERTEX
  5
22C
330
224
100
AcDbEntity
  8
0
100
AcDbVertex
100
AcDb2dVertex
 10
64.54615916770027
 20
41.13315158671553
 30
0.0
  0
VERTEX
  5
22D
330
224
100
AcDbEntity
  8
0
100
AcDbVertex
100
AcDb2dVertex
 10
62.70282259492959
 20
43.8918997240562
 30
0.0
  0
SEQEND
  5
22E
330
224
100
AcDbEntity
  8
Layer_1
  0
POLYLINE
  5
22F
330
1F
100
AcDbEntity
  8
Layer_1
100
AcDb2dPolyline
 66
     1
 10
0.0
 20
0.0
 30
0.0
 70
     1
  0
VERTEX
  5
230
330
22F
100
AcDbEntity
  8
0
100
AcDbVertex
100
AcDb2dVertex
 10
82.71407258917179
 20
18.14431201098568
 30
0.0
  0
VERTEX
  5
231
330
22F
100
AcDbEntity
  8
0
100
AcDbVertex
100
AcDb2dVertex
 10
82.482964924382
 20
18.29873321565762
 30
0.0
  0
VERTEX
  5
232
330
22F
100
AcDbEntity
  8
0
100
AcDbVertex
100
AcDb2dVertex
 10
81.21488981108386
 20
18.04649739285627
 30
0.0
  0
VERTEX
  5
233
330
22F
100
AcDbEntity
  8
0
100
AcDbVertex
100
AcDb2dVertex
 10
81.06046860641194
 20
17.81538972806648
 30
0.0
  0
VERTEX
  5
234
330
22F
100
AcDbEntity
  8
0
100
AcDbVertex
100
AcDb2dVertex
 10
81.70776233129595
 20
14.56122442195181
 30
0.0
  0
VERTEX
  5
235
330
22F
100
AcDbEntity
  8
0
100
AcDbVertex
100
AcDb2dVertex
 10
81.93886999608573
 20
14.40680321727987
 30
0.0
  0
VERTEX
  5
236
330
22F
100
AcDbEntity
  8
0
100
AcDbVertex
100
AcDb2dVertex
 10
83.20694510938385
 20
14.65903904008122
 30
0.0
  0
VERTEX
  5
237
330
22F
100
AcDbEntity
  8
0
100
AcDbVertex
100
AcDb2dVertex
 10
83.3613663140558
 20
14.890146704871
 30
0.0
  0
VERTEX
  5
238
330
22F
100
AcDbEntity
  8
0
100
AcDbVertex
100
AcDb2dVertex
 10
82.71407258917179
 20
18.14431201098568
 30
0.0
  0
SEQEND
  5
239
330
22F
100
AcDbEntity
  8
Layer_1
  0
POLYLINE
  5
23A
330
1F
100
AcDbEntity
  8
Layer_1
100
AcDb2dPolyline
 66
     1
 10
0.0
 20
0.0
 30
0.0
 70
     1
  0
VERTEX
  5
23B
330
23A
100
AcDbEntity
  8
0
100
AcDbVertex
100
AcDb2dVertex
 10
80.31146865365362
 20
6.926410426152191
 30
0.0
  0
VERTEX
  5
23C
330
23A
100
AcDbEntity
  8
0
100
AcDbVertex
100
AcDb2dVertex
 10
80.10249415881754
 20
7.109676139489219
 30
0.0
  0
VERTEX
  5
23D
330
23A
100
AcDbEntity
  8
0
100
AcDbVertex
100
AcDb2dVertex
 10
78.81234422241035
 20
7.025115245106234
 30
0.0
  0
VERTEX
  5
23E
330
23A
100
AcDbEntity
  8
0
100
AcDbVertex
100
AcDb2dVertex
 10
78.62907850907331
 20
6.816140750270177
 30
0.0
  0
VERTEX
  5
23F
330
23A
100
AcDbEntity
  8
0
100
AcDbVertex
100
AcDb2dVertex
 10
78.84608074014734
 20
3.505326494304806
 30
0.0
  0
VERTEX
  5
240
330
23A
100
AcDbEntity
  8
0
100
AcDbVertex
100
AcDb2dVertex
 10
79.0550552349834
 20
3.322060780967773
 30
0.0
  0
VERTEX
  5
241
330
23A
100
AcDbEntity
  8
0
100
AcDbVertex
100
AcDb2dVertex
 10
80.3452051713906
 20
3.406621675350757
 30
0.0
  0
VERTEX
  5
242
330
23A
100
AcDbEntity
  8
0
100
AcDbVertex
100
AcDb2dVertex
 10
80.52847088472762
 20
3.615596170186825
 30
0.0
  0
VERTEX
  5
243
330
23A
100
AcDbEntity
  8
0
100
AcDbVertex
100
AcDb2dVertex
 10
80.31146865365362
 20
6.926410426152191
 30
0.0
  0
SEQEND
  5
244
330
23A
100
AcDbEntity
  8
Layer_1
  0
POLYLINE
  5
245
330
1F
100
AcDbEntity
  8
Layer_1
100
AcDb2dPolyline
 66
     1
 10
0.0
 20
0.0
 30
0.0
 70
     1
  0
VERTEX
  5
246
330
245
100
AcDbEntity
  8
0
100
AcDbVertex
100
AcDb2dVertex
 10
74.72655726556788
 20
16.55549642848633
 30
0.0
  0
VERTEX
  5
247
330
245
100
AcDbEntity
  8
0
100
AcDbVertex
100
AcDb2dVertex
 10
74.4954496007781
 20
16.70991763315828
 30
0.0
  0
VERTEX
  5
248
330
245
100
AcDbEntity
  8
0
100
AcDbVertex
100
AcDb2dVertex
 10
73.22737448747995
 20
16.45768181035692
 30
0.0
  0
VERTEX
  5
249
330
245
100
AcDbEntity
  8
0
100
AcDbVertex
100
AcDb2dVertex
 10
73.07295328280802
 20
16.22657414556712
 30
0.0
  0
VERTEX
  5
24A
330
245
100
AcDbEntity
  8
0
100
AcDbVertex
100
AcDb2dVertex
 10
73.72024700769204
 20
12.97240883945248
 30
0.0
  0
VERTEX
  5
24B
330
245
100
AcDbEntity
  8
0
100
AcDbVertex
100
AcDb2dVertex
 10
73.95135467248181
 20
12.81798763478052
 30
0.0
  0
VERTEX
  5
24C
330
245
100
AcDbEntity
  8
0
100
AcDbVertex
100
AcDb2dVertex
 10
75.21942978577994
 20
13.07022345758187
 30
0.0
  0
VERTEX
  5
24D
330
245
100
AcDbEntity
  8
0
100
AcDbVertex
100
AcDb2dVertex
 10
75.37385099045187
 20
13.30133112237166
 30
0.0
  0
VERTEX
  5
24E
330
245
100
AcDbEntity
  8
0
100
AcDbVertex
100
AcDb2dVertex
 10
74.72655726556788
 20
16.55549642848633
 30
0.0
  0
SEQEND
  5
24F
330
245
100
AcDbEntity
  8
Layer_1
  0
POLYLINE
  5
250
330
1F
100
AcDbEntity
  8
Layer_1
100
AcDb2dPolyline
 66
     1
 10
0.0
 20
0.0
 30
0.0
 70
     1
  0
VERTEX
  5
251
330
250
100
AcDbEntity
  8
0
100
AcDbVertex
100
AcDb2dVertex
 10
84.37475018908123
 20
7.192731968377336
 30
0.0
  0
VERTEX
  5
252
330
250
100
AcDbEntity
  8
0
100
AcDbVertex
100
AcDb2dVertex
 10
84.16577569424516
 20
7.375997681714369
 30
0.0
  0
VERTEX
  5
253
330
250
100
AcDbEntity
  8
0
100
AcDbVertex
100
AcDb2dVertex
 10
82.87562575783795
 20
7.291436787331379
 30
0.0
  0
VERTEX
  5
254
330
250
100
AcDbEntity
  8
0
100
AcDbVertex
100
AcDb2dVertex
 10
82.69236004450093
 20
7.082462292495312
 30
0.0
  0
VERTEX
  5
255
330
250
100
AcDbEntity
  8
0
100
AcDbVertex
100
AcDb2dVertex
 10
82.90936227557495
 20
3.771648036529945
 30
0.0
  0
VERTEX
  5
256
330
250
100
AcDbEntity
  8
0
100
AcDbVertex
100
AcDb2dVertex
 10
83.118336770411
 20
3.588382323192918
 30
0.0
  0
VERTEX
  5
257
330
250
100
AcDbEntity
  8
0
100
AcDbVertex
100
AcDb2dVertex
 10
84.40848670681821
 20
3.672943217575892
 30
0.0
  0
VERTEX
  5
258
330
250
100
AcDbEntity
  8
0
100
AcDbVertex
100
AcDb2dVertex
 10
84.59175242015525
 20
3.88191771241197
 30
0.0
  0
VERTEX
  5
259
330
250
100
AcDbEntity
  8
0
100
AcDbVertex
100
AcDb2dVertex
 10
84.37475018908123
 20
7.192731968377336
 30
0.0
  0
SEQEND
  5
25A
330
250
100
AcDbEntity
  8
Layer_1
  0
POLYLINE
  5
25B
330
1F
100
AcDbEntity
  8
Layer_1
100
AcDb2dPolyline
 66
     1
 10
0.0
 20
0.0
 30
0.0
 70
     1
  0
VERTEX
  5
25C
330
25B
100
AcDbEntity
  8
0
100
AcDbVertex
100
AcDb2dVertex
 10
78.72031492736981
 20
17.349904219736
 30
0.0
  0
VERTEX
  5
25D
330
25B
100
AcDbEntity
  8
0
100
AcDbVertex
100
AcDb2dVertex
 10
78.48920726258004
 20
17.50432542440794
 30
0.0
  0
VERTEX
  5
25E
330
25B
100
AcDbEntity
  8
0
100
AcDbVertex
100
AcDb2dVertex
 10
77.2211321492819
 20
17.25208960160659
 30
0.0
  0
VERTEX
  5
25F
330
25B
100
AcDbEntity
  8
0
100
AcDbVertex
100
AcDb2dVertex
 10
77.06671094460998
 20
17.02098193681681
 30
0.0
  0
VERTEX
  5
260
330
25B
100
AcDbEntity
  8
0
100
AcDbVertex
100
AcDb2dVertex
 10
77.71400466949399
 20
13.76681663070214
 30
0.0
  0
VERTEX
  5
261
330
25B
100
AcDbEntity
  8
0
100
AcDbVertex
100
AcDb2dVertex
 10
77.94511233428376
 20
13.61239542603019
 30
0.0
  0
VERTEX
  5
262
330
25B
100
AcDbEntity
  8
0
100
AcDbVertex
100
AcDb2dVertex
 10
79.2131874475819
 20
13.86463124883155
 30
0.0
  0
VERTEX
  5
263
330
25B
100
AcDbEntity
  8
0
100
AcDbVertex
100
AcDb2dVertex
 10
79.36760865225382
 20
14.09573891362133
 30
0.0
  0
VERTEX
  5
264
330
25B
100
AcDbEntity
  8
0
100
AcDbVertex
100
AcDb2dVertex
 10
78.72031492736981
 20
17.349904219736
 30
0.0
  0
SEQEND
  5
265
330
25B
100
AcDbEntity
  8
Layer_1
  0
POLYLINE
  5
266
330
1F
100
AcDbEntity
  8
Layer_1
100
AcDb2dPolyline
 66
     1
 10
0.0
 20
0.0
 30
0.0
 70
     1
  0
VERTEX
  5
267
330
266
100
AcDbEntity
  8
0
100
AcDbVertex
100
AcDb2dVertex
 10
76.248187118226
 20
6.660088883927057
 30
0.0
  0
VERTEX
  5
268
330
266
100
AcDbEntity
  8
0
100
AcDbVertex
100
AcDb2dVertex
 10
76.03921262338994
 20
6.843354597264084
 30
0.0
  0
VERTEX
  5
269
330
266
100
AcDbEntity
  8
0
100
AcDbVertex
100
AcDb2dVertex
 10
74.74906268698277
 20
6.758793702881094
 30
0.0
  0
VERTEX
  5
26A
330
266
100
AcDbEntity
  8
0
100
AcDbVertex
100
AcDb2dVertex
 10
74.56579697364573
 20
6.549819208045015
 30
0.0
  0
VERTEX
  5
26B
330
266
100
AcDbEntity
  8
0
100
AcDbVertex
100
AcDb2dVertex
 10
74.78279920471977
 20
3.239004952079666
 30
0.0
  0
VERTEX
  5
26C
330
266
100
AcDbEntity
  8
0
100
AcDbVertex
100
AcDb2dVertex
 10
74.99177369955584
 20
3.055739238742633
 30
0.0
  0
VERTEX
  5
26D
330
266
100
AcDbEntity
  8
0
100
AcDbVertex
100
AcDb2dVertex
 10
76.281923635963
 20
3.140300133125623
 30
0.0
  0
VERTEX
  5
26E
330
266
100
AcDbEntity
  8
0
100
AcDbVertex
100
AcDb2dVertex
 10
76.46518934930003
 20
3.349274627961679
 30
0.0
  0
VERTEX
  5
26F
330
266
100
AcDbEntity
  8
0
100
AcDbVertex
100
AcDb2dVertex
 10
76.248187118226
 20
6.660088883927057
 30
0.0
  0
SEQEND
  5
270
330
266
100
AcDbEntity
  8
Layer_1
  0
POLYLINE
  5
271
330
1F
100
AcDbEntity
  8
Layer_1
100
AcDb2dPolyline
 66
     1
 10
0.0
 20
0.0
 30
0.0
 70
     1
  0
VERTEX
  5
272
330
271
100
AcDbEntity
  8
0
100
AcDbVertex
100
AcDb2dVertex
 10
75.1995654027042
 20
38.93403685572808
 30
0.0
  0
VERTEX
  5
273
330
271
100
AcDbEntity
  8
0
100
AcDbVertex
100
AcDb2dVertex
 10
74.93636539189362
 20
39.02338122033061
 30
0.0
  0
VERTEX
  5
274
330
271
100
AcDbEntity
  8
0
100
AcDbVertex
100
AcDb2dVertex
 10
73.7767823250826
 20
38.45153813482942
 30
0.0
  0
VERTEX
  5
275
330
271
100
AcDbEntity
  8
0
100
AcDbVertex
100
AcDb2dVertex
 10
73.68743796048007
 20
38.18833812401885
 30
0.0
  0
VERTEX
  5
276
330
271
100
AcDbEntity
  8
0
100
AcDbVertex
100
AcDb2dVertex
 10
75.15491564367476
 20
35.21258775560414
 30
0.0
  0
VERTEX
  5
277
330
271
100
AcDbEntity
  8
0
100
AcDbVertex
100
AcDb2dVertex
 10
75.41811565448533
 20
35.12324339100162
 30
0.0
  0
VERTEX
  5
278
330
271
100
AcDbEntity
  8
0
100
AcDbVertex
100
AcDb2dVertex
 10
76.57769872129634
 20
35.69508647650279
 30
0.0
  0
VERTEX
  5
279
330
271
100
AcDbEntity
  8
0
100
AcDbVertex
100
AcDb2dVertex
 10
76.66704308589887
 20
35.95828648731339
 30
0.0
  0
VERTEX
  5
27A
330
271
100
AcDbEntity
  8
0
100
AcDbVertex
100
AcDb2dVertex
 10
75.1995654027042
 20
38.93403685572808
 30
0.0
  0
SEQEND
  5
27B
330
271
100
AcDbEntity
  8
Layer_1
  0
POLYLINE
  5
27C
330
1F
100
AcDbEntity
  8
Layer_1
100
AcDb2dPolyline
 66
     1
 10
0.0
 20
0.0
 30
0.0
 70
     1
  0
VERTEX
  5
27D
330
27C
100
AcDbEntity
  8
0
100
AcDbVertex
100
AcDb2dVertex
 10
75.78223478728412
 20
27.47653634181792
 30
0.0
  0
VERTEX
  5
27E
330
27C
100
AcDbEntity
  8
0
100
AcDbVertex
100
AcDb2dVertex
 10
75.53294826876034
 20
27.59947084819918
 30
0.0
  0
VERTEX
  5
27F
330
27C
100
AcDbEntity
  8
0
100
AcDbVertex
100
AcDb2dVertex
 10
74.30864509533663
 20
27.18387592184056
 30
0.0
  0
VERTEX
  5
280
330
27C
100
AcDbEntity
  8
0
100
AcDbVertex
100
AcDb2dVertex
 10
74.18571058895536
 20
26.93458940331678
 30
0.0
  0
VERTEX
  5
281
330
27C
100
AcDbEntity
  8
0
100
AcDbVertex
100
AcDb2dVertex
 10
75.25222043255289
 20
23.7927527176655
 30
0.0
  0
VERTEX
  5
282
330
27C
100
AcDbEntity
  8
0
100
AcDbVertex
100
AcDb2dVertex
 10
75.50150695107666
 20
23.66981821128422
 30
0.0
  0
VERTEX
  5
283
330
27C
100
AcDbEntity
  8
0
100
AcDbVertex
100
AcDb2dVertex
 10
76.72581012450037
 20
24.08541313764283
 30
0.0
  0
VERTEX
  5
284
330
27C
100
AcDbEntity
  8
0
100
AcDbVertex
100
AcDb2dVertex
 10
76.84874463088164
 20
24.33469965616663
 30
0.0
  0
VERTEX
  5
285
330
27C
100
AcDbEntity
  8
0
100
AcDbVertex
100
AcDb2dVertex
 10
75.78223478728412
 20
27.47653634181792
 30
0.0
  0
SEQEND
  5
286
330
27C
100
AcDbEntity
  8
Layer_1
  0
POLYLINE
  5
287
330
1F
100
AcDbEntity
  8
Layer_1
100
AcDb2dPolyline
 66
     1
 10
0.0
 20
0.0
 30
0.0
 70
     1
  0
VERTEX
  5
288
330
287
100
AcDbEntity
  8
0
100
AcDbVertex
100
AcDb2dVertex
 10
67.89543379566196
 20
35.33203776258453
 30
0.0
  0
VERTEX
  5
289
330
287
100
AcDbEntity
  8
0
100
AcDbVertex
100
AcDb2dVertex
 10
67.6322337848514
 20
35.42138212718707
 30
0.0
  0
VERTEX
  5
28A
330
287
100
AcDbEntity
  8
0
100
AcDbVertex
100
AcDb2dVertex
 10
66.4726507180404
 20
34.84953904168586
 30
0.0
  0
VERTEX
  5
28B
330
287
100
AcDbEntity
  8
0
100
AcDbVertex
100
AcDb2dVertex
 10
66.38330635343786
 20
34.58633903087528
 30
0.0
  0
VERTEX
  5
28C
330
287
100
AcDbEntity
  8
0
100
AcDbVertex
100
AcDb2dVertex
 10
67.85078403663253
 20
31.6105886624606
 30
0.0
  0
VERTEX
  5
28D
330
287
100
AcDbEntity
  8
0
100
AcDbVertex
100
AcDb2dVertex
 10
68.11398404744313
 20
31.52124429785806
 30
0.0
  0
VERTEX
  5
28E
330
287
100
AcDbEntity
  8
0
100
AcDbVertex
100
AcDb2dVertex
 10
69.2735671142541
 20
32.09308738335925
 30
0.0
  0
VERTEX
  5
28F
330
287
100
AcDbEntity
  8
0
100
AcDbVertex
100
AcDb2dVertex
 10
69.36291147885663
 20
32.35628739416983
 30
0.0
  0
VERTEX
  5
290
330
287
100
AcDbEntity
  8
0
100
AcDbVertex
100
AcDb2dVertex
 10
67.89543379566196
 20
35.33203776258453
 30
0.0
  0
SEQEND
  5
291
330
287
100
AcDbEntity
  8
Layer_1
  0
POLYLINE
  5
292
330
1F
100
AcDbEntity
  8
Layer_1
100
AcDb2dPolyline
 66
     1
 10
0.0
 20
0.0
 30
0.0
 70
     1
  0
VERTEX
  5
293
330
292
100
AcDbEntity
  8
0
100
AcDbVertex
100
AcDb2dVertex
 10
79.63813427458821
 20
28.78543784453239
 30
0.0
  0
VERTEX
  5
294
330
292
100
AcDbEntity
  8
0
100
AcDbVertex
100
AcDb2dVertex
 10
79.38884775606441
 20
28.90837235091366
 30
0.0
  0
VERTEX
  5
295
330
292
100
AcDbEntity
  8
0
100
AcDbVertex
100
AcDb2dVertex
 10
78.16454458264073
 20
28.49277742455505
 30
0.0
  0
VERTEX
  5
296
330
292
100
AcDbEntity
  8
0
100
AcDbVertex
100
AcDb2dVertex
 10
78.04161007625945
 20
28.24349090603125
 30
0.0
  0
VERTEX
  5
297
330
292
100
AcDbEntity
  8
0
100
AcDbVertex
100
AcDb2dVertex
 10
79.10811991985696
 20
25.10165422037997
 30
0.0
  0
VERTEX
  5
298
330
292
100
AcDbEntity
  8
0
100
AcDbVertex
100
AcDb2dVertex
 10
79.35740643838076
 20
24.97871971399871
 30
0.0
  0
VERTEX
  5
299
330
292
100
AcDbEntity
  8
0
100
AcDbVertex
100
AcDb2dVertex
 10
80.58170961180444
 20
25.39431464035731
 30
0.0
  0
VERTEX
  5
29A
330
292
100
AcDbEntity
  8
0
100
AcDbVertex
100
AcDb2dVertex
 10
80.70464411818571
 20
25.64360115888111
 30
0.0
  0
VERTEX
  5
29B
330
292
100
AcDbEntity
  8
0
100
AcDbVertex
100
AcDb2dVertex
 10
79.63813427458821
 20
28.78543784453239
 30
0.0
  0
SEQEND
  5
29C
330
292
100
AcDbEntity
  8
Layer_1
  0
POLYLINE
  5
29D
330
1F
100
AcDbEntity
  8
Layer_1
100
AcDb2dPolyline
 66
     1
 10
0.0
 20
0.0
 30
0.0
 70
     1
  0
VERTEX
  5
29E
330
29D
100
AcDbEntity
  8
0
100
AcDbVertex
100
AcDb2dVertex
 10
71.54749959918307
 20
37.13303730915631
 30
0.0
  0
VERTEX
  5
29F
330
29D
100
AcDbEntity
  8
0
100
AcDbVertex
100
AcDb2dVertex
 10
71.2842995883725
 20
37.22238167375884
 30
0.0
  0
VERTEX
  5
2A0
330
29D
100
AcDbEntity
  8
0
100
AcDbVertex
100
AcDb2dVertex
 10
70.1247165215615
 20
36.65053858825763
 30
0.0
  0
VERTEX
  5
2A1
330
29D
100
AcDbEntity
  8
0
100
AcDbVertex
100
AcDb2dVertex
 10
70.03537215695896
 20
36.38733857744706
 30
0.0
  0
VERTEX
  5
2A2
330
29D
100
AcDbEntity
  8
0
100
AcDbVertex
100
AcDb2dVertex
 10
71.50284984015363
 20
33.41158820903237
 30
0.0
  0
VERTEX
  5
2A3
330
29D
100
AcDbEntity
  8
0
100
AcDbVertex
100
AcDb2dVertex
 10
71.76604985096421
 20
33.32224384442983
 30
0.0
  0
VERTEX
  5
2A4
330
29D
100
AcDbEntity
  8
0
100
AcDbVertex
100
AcDb2dVertex
 10
72.9256329177752
 20
33.89408692993103
 30
0.0
  0
VERTEX
  5
2A5
330
29D
100
AcDbEntity
  8
0
100
AcDbVertex
100
AcDb2dVertex
 10
73.01497728237774
 20
34.15728694074161
 30
0.0
  0
VERTEX
  5
2A6
330
29D
100
AcDbEntity
  8
0
100
AcDbVertex
100
AcDb2dVertex
 10
71.54749959918307
 20
37.13303730915631
 30
0.0
  0
SEQEND
  5
2A7
330
29D
100
AcDbEntity
  8
Layer_1
  0
POLYLINE
  5
2A8
330
1F
100
AcDbEntity
  8
Layer_1
100
AcDb2dPolyline
 66
     1
 10
0.0
 20
0.0
 30
0.0
 70
     1
  0
VERTEX
  5
2A9
330
2A8
100
AcDbEntity
  8
0
100
AcDbVertex
100
AcDb2dVertex
 10
71.92633529998005
 20
26.16763483910344
 30
0.0
  0
VERTEX
  5
2AA
330
2A8
100
AcDbEntity
  8
0
100
AcDbVertex
100
AcDb2dVertex
 10
71.67704878145626
 20
26.29056934548472
 30
0.0
  0
VERTEX
  5
2AB
330
2A8
100
AcDbEntity
  8
0
100
AcDbVertex
100
AcDb2dVertex
 10
70.45274560803259
 20
25.8749744191261
 30
0.0
  0
VERTEX
  5
2AC
330
2A8
100
AcDbEntity
  8
0
100
AcDbVertex
100
AcDb2dVertex
 10
70.3298111016513
 20
25.6256879006023
 30
0.0
  0
VERTEX
  5
2AD
330
2A8
100
AcDbEntity
  8
0
100
AcDbVertex
100
AcDb2dVertex
 10
71.39632094524882
 20
22.48385121495104
 30
0.0
  0
VERTEX
  5
2AE
330
2A8
100
AcDbEntity
  8
0
100
AcDbVertex
100
AcDb2dVertex
 10
71.64560746377262
 20
22.36091670856975
 30
0.0
  0
VERTEX
  5
2AF
330
2A8
100
AcDbEntity
  8
0
100
AcDbVertex
100
AcDb2dVertex
 10
72.86991063719628
 20
22.77651163492837
 30
0.0
  0
VERTEX
  5
2B0
330
2A8
100
AcDbEntity
  8
0
100
AcDbVertex
100
AcDb2dVertex
 10
72.99284514357757
 20
23.02579815345215
 30
0.0
  0
VERTEX
  5
2B1
330
2A8
100
AcDbEntity
  8
0
100
AcDbVertex
100
AcDb2dVertex
 10
71.92633529998005
 20
26.16763483910344
 30
0.0
  0
SEQEND
  5
2B2
330
2A8
100
AcDbEntity
  8
Layer_1
  0
POLYLINE
  5
2B3
330
1F
100
AcDbEntity
  8
Layer_1
100
AcDb2dPolyline
 66
     1
 10
0.0
 20
0.0
 30
0.0
 70
     1
  0
VERTEX
  5
2B4
330
2B3
100
AcDbEntity
  8
0
100
AcDbVertex
100
AcDb2dVertex
 10
50.04194690457198
 20
50.04194690457197
 30
0.0
  0
VERTEX
  5
2B5
330
2B3
100
AcDbEntity
  8
0
100
AcDbVertex
100
AcDb2dVertex
 10
0.0
 20
0.0
 30
0.0
  0
VERTEX
  5
2B6
330
2B3
100
AcDbEntity
  8
0
100
AcDbVertex
100
AcDb2dVertex
 10
70.76999999999998
 20
0.0
 30
0.0
 42
0.1989123673796588
  0
VERTEX
  5
2B7
330
2B3
100
AcDbEntity
  8
0
100
AcDbVertex
100
AcDb2dVertex
 10
50.04194690457198
 20
50.04194690457197
 30
0.0
  0
SEQEND
  5
2B8
330
2B3
100
AcDbEntity
  8
Layer_1
  0
POLYLINE
  5
2B9
330
1F
100
AcDbEntity
  8
Layer_1
100
AcDb2dPolyline
 66
     1
 10
0.0
 20
0.0
 30
0.0
 70
     1
  0
VERTEX
  5
2BA
330
2B9
100
AcDbEntity
  8
0
100
AcDbVertex
100
AcDb2dVertex
 10
70.00357133746819
 20
70.00357133746817
 30
0.0
  0
VERTEX
  5
2BB
330
2B9
100
AcDbEntity
  8
0
100
AcDbVertex
100
AcDb2dVertex
 10
0.0
 20
0.0
 30
0.0
  0
VERTEX
  5
2BC
330
2B9
100
AcDbEntity
  8
0
100
AcDbVertex
100
AcDb2dVertex
 10
99.0
 20
0.0
 30
0.0
 42
0.1989123673796586
  0
VERTEX
  5
2BD
330
2B9
100
AcDbEntity
  8
0
100
AcDbVertex
100
AcDb2dVertex
 10
70.00357133746819
 20
70.00357133746817
 30
0.0
  0
SEQEND
  5
2BE
330
2B9
100
AcDbEntity
  8
Layer_1
  0
ENDSEC
  0
SECTION
  2
OBJECTS
  0
DICTIONARY
  5
C
330
0
100
AcDbDictionary
281
     1
  3
ACAD_DETAILVIEWSTYLE
350
2F6
  3
ACAD_GROUP
350
D
  3
ACAD_LAYOUT
350
1A
  3
ACAD_MATERIAL
350
43
  3
ACAD_MLEADERSTYLE
350
6B
  3
ACAD_MLINESTYLE
350
17
  3
ACAD_PLOTSETTINGS
350
19
  3
ACAD_PLOTSTYLENAME
350
E
  3
ACAD_SCALELIST
350
47
  3
ACAD_SECTIONVIEWSTYLE
350
2F7
  3
ACAD_TABLESTYLE
350
69
  3
ACAD_VISUALSTYLE
350
2A
  3
ACDB_RECOMPOSE_DATA
350
2F3
  3
AcDbVariableDictionary
350
2BF
  0
SUN
  5
6D
330
29
100
AcDbSun
 90
        1
290
     0
 63
     7
421
 16777215
 40
1.0
291
     1
 91
  2455826
 92
 54000000
292
     0
 70
     2
 71
   256
280
     1
  0
DICTIONARY
  5
2F6
102
{ACAD_REACTORS
330
C
102
}
330
C
100
AcDbDictionary
281
     1
  0
DICTIONARY
  5
D
102
{ACAD_REACTORS
330
C
102
}
330
C
100
AcDbDictionary
281
     1
  0
DICTIONARY
  5
1A
102
{ACAD_REACTORS
330
C
102
}
330
C
100
AcDbDictionary
281
     1
  3
Layout1
350
1E
  3
Layout2
350
26
  3
Model
350
22
  0
DICTIONARY
  5
43
102
{ACAD_REACTORS
330
C
102
}
330
C
100
AcDbDictionary
281
     1
  3
ByBlock
350
45
  3
ByLayer
350
44
  3
Global
350
46
  0
DICTIONARY
  5
6B
102
{ACAD_REACTORS
330
C
102
}
330
C
100
AcDbDictionary
281
     1
  3
Standard
350
6C
  0
DICTIONARY
  5
17
102
{ACAD_REACTORS
330
C
102
}
330
C
100
AcDbDictionary
281
     1
  3
Standard
350
18
  0
DICTIONARY
  5
19
102
{ACAD_REACTORS
330
C
102
}
330
C
100
AcDbDictionary
281
     1
  0
ACDBDICTIONARYWDFLT
  5
E
102
{ACAD_REACTORS
330
C
102
}
330
C
100
AcDbDictionary
281
     1
  3
Normal
350
F
100
AcDbDictionaryWithDefault
340
F
  0
DICTIONARY
  5
47
102
{ACAD_REACTORS
330
C
102
}
330
C
100
AcDbDictionary
281
     1
  3
A0
350
48
  3
A1
350
49
  3
A2
350
4A
  3
A3
350
4B
  3
A4
350
4C
  3
A5
350
4D
  3
A6
350
4E
  3
A7
350
4F
  3
A8
350
50
  3
A9
350
51
  3
B0
350
52
  3
B1
350
53
  3
B2
350
54
  3
B3
350
55
  3
B4
350
56
  3
B5
350
57
  3
B6
350
58
  3
B7
350
59
  3
B8
350
5A
  3
B9
350
5B
  3
C0
350
5C
  3
C1
350
5D
  3
C2
350
5E
  3
C3
350
5F
  3
C4
350
60
  3
C5
350
61
  3
C6
350
62
  3
C7
350
63
  3
C8
350
64
  3
C9
350
65
  3
D0
350
66
  3
D1
350
67
  3
D2
350
68
  0
DICTIONARY
  5
2F7
102
{ACAD_REACTORS
330
C
102
}
330
C
100
AcDbDictionary
281
     1
  0
DICTIONARY
  5
69
102
{ACAD_REACTORS
330
C
102
}
330
C
100
AcDbDictionary
281
     1
  3
Standard
350
6A
  0
DICTIONARY
  5
2A
102
{ACAD_REACTORS
330
C
102
}
330
C
100
AcDbDictionary
281
     1
  3
2dWireframe
350
2F
  3
Basic
350
32
  3
Brighten
350
36
  3
ColorChange
350
3A
  3
Conceptual
350
34
  3
Dim
350
35
  3
EdgeColorOff
350
3D
  3
Facepattern
350
39
  3
Flat
350
2B
  3
FlatWithEdges
350
2C
  3
Gouraud
350
2D
  3
GouraudWithEdges
350
2E
  3
Hidden
350
31
  3
JitterOff
350
3B
  3
Linepattern
350
38
  3
OverhangOff
350
3C
  3
Realistic
350
33
  3
Shaded
350
42
  3
Shaded with edges
350
41
  3
Shades of Gray
350
3E
  3
Sketchy
350
3F
  3
Thicken
350
37
  3
Wireframe
350
30
  3
X-Ray
350
40
  0
XRECORD
  5
2F3
102
{ACAD_REACTORS
330
C
102
}
330
C
100
AcDbXrecord
280
     1
 90
        1
330
6A
  0
DICTIONARY
  5
2BF
102
{ACAD_REACTORS
330
C
102
}
330
C
100
AcDbDictionary
281
     1
  3
CANNOSCALE
350
2C0
  3
CMLEADERSTYLE
350
2F5
  3
CTABLESTYLE
350
2F4
  0
LAYOUT
  5
1E
102
{ACAD_REACTORS
330
1A
102
}
330
1A
100
AcDbPlotSettings
  1

  2
none_device
  4

  6

 40
0.0
 41
0.0
 42
0.0
 43
0.0
 44
0.0
 45
0.0
 46
0.0
 47
0.0
 48
0.0
 49
0.0
140
0.0
141
0.0
142
1.0
143
1.0
 70
   688
 72
     0
 73
     0
 74
     5
  7

 75
    16
 76
     0
 77
     2
 78
   300
147
1.0
148
0.0
149
0.0
100
AcDbLayout
  1
Layout1
 70
     1
 71
     1
 10
0.0
 20
0.0
 11
12.0
 21
9.0
 12
0.0
 22
0.0
 32
0.0
 14
1.000000000000000E+20
 24
1.000000000000000E+20
 34
1.000000000000000E+20
 15
-1.000000000000000E+20
 25
-1.000000000000000E+20
 35
-1.000000000000000E+20
146
0.0
 13
0.0
 23
0.0
 33
0.0
 16
1.0
 26
0.0
 36
0.0
 17
0.0
 27
1.0
 37
0.0
 76
     0
330
1B
  0
LAYOUT
  5
26
102
{ACAD_REACTORS
330
1A
102
}
330
1A
100
AcDbPlotSettings
  1

  2
none_device
  4

  6

 40
0.0
 41
0.0
 42
0.0
 43
0.0
 44
0.0
 45
0.0
 46
0.0
 47
0.0
 48
0.0
 49
0.0
140
0.0
141
0.0
142
1.0
143
1.0
 70
   688
 72
     0
 73
     0
 74
     5
  7

 75
    16
 76
     0
 77
     2
 78
   300
147
1.0
148
0.0
149
0.0
100
AcDbLayout
  1
Layout2
 70
     1
 71
     2
 10
0.0
 20
0.0
 11
0.0
 21
0.0
 12
0.0
 22
0.0
 32
0.0
 14
0.0
 24
0.0
 34
0.0
 15
0.0
 25
0.0
 35
0.0
146
0.0
 13
0.0
 23
0.0
 33
0.0
 16
1.0
 26
0.0
 36
0.0
 17
0.0
 27
1.0
 37
0.0
 76
     0
330
23
  0
LAYOUT
  5
22
102
{ACAD_REACTORS
330
1A
102
}
330
1A
100
AcDbPlotSettings
  1

  2
none_device
  4
Letter_(8.50_x_11.00_Inches)
  6

 40
6.35
 41
6.35
 42
6.35000508
 43
6.35000508
 44
215.9
 45
279.4
 46
0.0
 47
0.0
 48
0.0
 49
0.0
140
0.0
141
0.0
142
1.0
143
1.0
 70
  1712
 72
     0
 73
     0
 74
     0
  7

 75
     0
 76
     0
 77
     2
 78
   300
147
1.0
148
0.0
149
0.0
100
AcDbLayout
  1
Model
 70
     1
 71
     0
 10
0.0
 20
0.0
 11
12.0
 21
9.0
 12
0.0
 22
0.0
 32
0.0
 14
1.000000000000000E+20
 24
1.000000000000000E+20
 34
1.000000000000000E+20
 15
-1.000000000000000E+20
 25
-1.000000000000000E+20
 35
-1.000000000000000E+20
146
0.0
 13
0.0
 23
0.0
 33
0.0
 16
1.0
 26
0.0
 36
0.0
 17
0.0
 27
1.0
 37
0.0
 76
     0
330
1F
331
29
  0
MATERIAL
  5
45
102
{ACAD_REACTORS
330
43
102
}
330
43
100
AcDbMaterial
  1
ByBlock
 72
     1
 94
      127
  0
MATERIAL
  5
44
102
{ACAD_REACTORS
330
43
102
}
330
43
100
AcDbMaterial
  1
ByLayer
 72
     1
 94
      127
  0
MATERIAL
  5
46
102
{ACAD_REACTORS
330
43
102
}
330
43
100
AcDbMaterial
  1
Global
 72
     1
 94
      127
  0
MLEADERSTYLE
  5
6C
102
{ACAD_REACTORS
330
6B
102
}
330
6B
100
AcDbMLeaderStyle
179
     2
170
     2
171
     1
172
     0
 90
        2
 40
0.0
 41
0.0
173
     1
 91
-1056964608
340
14
 92
       -2
290
     1
 42
0.09
291
     1
 43
0.36
  3
Standard
341
0
 44
0.18
300

342
11
174
     1
178
     6
175
     1
176
     0
 93
-1056964608
 45
0.18
292
     0
297
     0
 46
0.18
343
0
 94
-1056964608
 47
1.0
 49
1.0
140
1.0
293
     1
141
0.0
294
     1
177
     0
142
1.0
295
     0
296
     0
143
0.125
271
     0
272
     9
273
     9
  0
MLINESTYLE
  5
18
102
{ACAD_REACTORS
330
17
102
}
330
17
100
AcDbMlineStyle
  2
Standard
 70
     0
  3

 62
   256
 51
90.0
 52
90.0
 71
     2
 49
0.5
 62
   256
  6
BYLAYER
 49
-0.5
 62
   256
  6
BYLAYER
  0
ACDBPLACEHOLDER
  5
F
102
{ACAD_REACTORS
330
E
102
}
330
E
  0
SCALE
  5
48
102
{ACAD_REACTORS
330
47
102
}
330
47
100
AcDbScale
 70
     0
300
1:1
140
1.0
141
1.0
290
     1
  0
SCALE
  5
49
102
{ACAD_REACTORS
330
47
102
}
330
47
100
AcDbScale
 70
     0
300
1:2
140
1.0
141
2.0
290
     0
  0
SCALE
  5
4A
102
{ACAD_REACTORS
330
47
102
}
330
47
100
AcDbScale
 70
     0
300
1:4
140
1.0
141
4.0
290
     0
  0
SCALE
  5
4B
102
{ACAD_REACTORS
330
47
102
}
330
47
100
AcDbScale
 70
     0
300
1:5
140
1.0
141
5.0
290
     0
  0
SCALE
  5
4C
102
{ACAD_REACTORS
330
47
102
}
330
47
100
AcDbScale
 70
     0
300
1:8
140
1.0
141
8.0
290
     0
  0
SCALE
  5
4D
102
{ACAD_REACTORS
330
47
102
}
330
47
100
AcDbScale
 70
     0
300
1:10
140
1.0
141
10.0
290
     0
  0
SCALE
  5
4E
102
{ACAD_REACTORS
330
47
102
}
330
47
100
AcDbScale
 70
     0
300
1:16
140
1.0
141
16.0
290
     0
  0
SCALE
  5
4F
102
{ACAD_REACTORS
330
47
102
}
330
47
100
AcDbScale
 70
     0
300
1:20
140
1.0
141
20.0
290
     0
  0
SCALE
  5
50
102
{ACAD_REACTORS
330
47
102
}
330
47
100
AcDbScale
 70
     0
300
1:30
140
1.0
141
30.0
290
     0
  0
SCALE
  5
51
102
{ACAD_REACTORS
330
47
102
}
330
47
100
AcDbScale
 70
     0
300
1:40
140
1.0
141
40.0
290
     0
  0
SCALE
  5
52
102
{ACAD_REACTORS
330
47
102
}
330
47
100
AcDbScale
 70
     0
300
1:50
140
1.0
141
50.0
290
     0
  0
SCALE
  5
53
102
{ACAD_REACTORS
330
47
102
}
330
47
100
AcDbScale
 70
     0
300
1:100
140
1.0
141
100.0
290
     0
  0
SCALE
  5
54
102
{ACAD_REACTORS
330
47
102
}
330
47
100
AcDbScale
 70
     0
300
2:1
140
2.0
141
1.0
290
     0
  0
SCALE
  5
55
102
{ACAD_REACTORS
330
47
102
}
330
47
100
AcDbScale
 70
     0
300
4:1
140
4.0
141
1.0
290
     0
  0
SCALE
  5
56
102
{ACAD_REACTORS
330
47
102
}
330
47
100
AcDbScale
 70
     0
300
8:1
140
8.0
141
1.0
290
     0
  0
SCALE
  5
57
102
{ACAD_REACTORS
330
47
102
}
330
47
100
AcDbScale
 70
     0
300
10:1
140
10.0
141
1.0
290
     0
  0
SCALE
  5
58
102
{ACAD_REACTORS
330
47
102
}
330
47
100
AcDbScale
 70
     0
300
100:1
140
100.0
141
1.0
290
     0
  0
SCALE
  5
59
102
{ACAD_REACTORS
330
47
102
}
330
47
100
AcDbScale
 70
     0
300
1/128" = 1'-0"
140
0.0078125
141
12.0
290
     0
  0
SCALE
  5
5A
102
{ACAD_REACTORS
330
47
102
}
330
47
100
AcDbScale
 70
     0
300
1/64" = 1'-0"
140
0.015625
141
12.0
290
     0
  0
SCALE
  5
5B
102
{ACAD_REACTORS
330
47
102
}
330
47
100
AcDbScale
 70
     0
300
1/32" = 1'-0"
140
0.03125
141
12.0
290
     0
  0
SCALE
  5
5C
102
{ACAD_REACTORS
330
47
102
}
330
47
100
AcDbScale
 70
     0
300
1/16" = 1'-0"
140
0.0625
141
12.0
290
     0
  0
SCALE
  5
5D
102
{ACAD_REACTORS
330
47
102
}
330
47
100
AcDbScale
 70
     0
300
3/32" = 1'-0"
140
0.09375
141
12.0
290
     0
  0
SCALE
  5
5E
102
{ACAD_REACTORS
330
47
102
}
330
47
100
AcDbScale
 70
     0
300
1/8" = 1'-0"
140
0.125
141
12.0
290
     0
  0
SCALE
  5
5F
102
{ACAD_REACTORS
330
47
102
}
330
47
100
AcDbScale
 70
     0
300
3/16" = 1'-0"
140
0.1875
141
12.0
290
     0
  0
SCALE
  5
60
102
{ACAD_REACTORS
330
47
102
}
330
47
100
AcDbScale
 70
     0
300
1/4" = 1'-0"
140
0.25
141
12.0
290
     0
  0
SCALE
  5
61
102
{ACAD_REACTORS
330
47
102
}
330
47
100
AcDbScale
 70
     0
300
3/8" = 1'-0"
140
0.375
141
12.0
290
     0
  0
SCALE
  5
62
102
{ACAD_REACTORS
330
47
102
}
330
47
100
AcDbScale
 70
     0
300
1/2" = 1'-0"
140
0.5
141
12.0
290
     0
  0
SCALE
  5
63
102
{ACAD_REACTORS
330
47
102
}
330
47
100
AcDbScale
 70
     0
300
3/4" = 1'-0"
140
0.75
141
12.0
290
     0
  0
SCALE
  5
64
102
{ACAD_REACTORS
330
47
102
}
330
47
100
AcDbScale
 70
     0
300
1" = 1'-0"
140
1.0
141
12.0
290
     0
  0
SCALE
  5
65
102
{ACAD_REACTORS
330
47
102
}
330
47
100
AcDbScale
 70
     0
300
1-1/2" = 1'-0"
140
1.5
141
12.0
290
     0
  0
SCALE
  5
66
102
{ACAD_REACTORS
330
47
102
}
330
47
100
AcDbScale
 70
     0
300
3" = 1'-0"
140
3.0
141
12.0
290
     0
  0
SCALE
  5
67
102
{ACAD_REACTORS
330
47
102
}
330
47
100
AcDbScale
 70
     0
300
6" = 1'-0"
140
6.0
141
12.0
290
     0
  0
SCALE
  5
68
102
{ACAD_REACTORS
330
47
102
}
330
47
100
AcDbScale
 70
     0
300
1'-0" = 1'-0"
140
12.0
141
12.0
290
     0
  0
TABLESTYLE
  5
6A
102
{ACAD_REACTORS
330
69
102
}
102
{ACAD_XDICTIONARY
360
2F1
102
}
330
69
100
AcDbTableStyle
  3
Standard
 70
     0
 71
     0
 40
0.06
 41
0.06
280
     0
281
     0
  7
Standard
140
0.18
170
     2
 62
     0
 63
   257
283
     0
 90
        4
 91
        0
  1

274
    -2
284
     1
 64
     0
275
    -2
285
     1
 65
     0
276
    -2
286
     1
 66
     0
277
    -2
287
     1
 67
     0
278
    -2
288
     1
 68
     0
279
    -2
289
     1
 69
     0
  7
Standard
140
0.25
170
     5
 62
     0
 63
   257
283
     0
 90
        4
 91
        0
  1

274
    -2
284
     1
 64
     0
275
    -2
285
     1
 65
     0
276
    -2
286
     1
 66
     0
277
    -2
287
     1
 67
     0
278
    -2
288
     1
 68
     0
279
    -2
289
     1
 69
     0
  7
Standard
140
0.18
170
     5
 62
     0
 63
   257
283
     0
 90
        4
 91
        0
  1

274
    -2
284
     1
 64
     0
275
    -2
285
     1
 65
     0
276
    -2
286
     1
 66
     0
277
    -2
287
     1
 67
     0
278
    -2
288
     1
 68
     0
279
    -2
289
     1
 69
     0
  0
VISUALSTYLE
  5
2F
102
{ACAD_REACTORS
330
2A
102
}
102
{ACAD_XDICTIONARY
360
2C9
102
}
330
2A
100
AcDbVisualStyle
  2
2dWireframe
 70
     4
177
     2
291
     0
 71
     0
176
     1
 72
     2
176
     1
 73
     0
176
     1
 90
        0
176
     1
 40
0.6
176
     1
 41
30.0
176
     1
 62
     5
 63
     7
421
 16777215
176
     1
 74
     1
176
     1
 91
        4
176
     1
 64
     7
176
     1
 65
   257
176
     1
 75
     1
176
     1
175
     1
176
     1
 42
1.0
176
     1
 92
        0
176
     1
 66
   257
176
     1
 43
1.0
176
     1
 76
     1
176
     1
 77
     6
176
     1
 78
     2
176
     1
 67
     7
176
     1
 79
     5
176
     1
170
     0
176
     1
171
     0
176
     1
290
     0
176
     1
 93
        1
176
     1
 44
0.0
176
     1
173
     0
176
     1
  0
VISUALSTYLE
  5
32
102
{ACAD_REACTORS
330
2A
102
}
102
{ACAD_XDICTIONARY
360
2CF
102
}
330
2A
100
AcDbVisualStyle
  2
Basic
 70
     7
177
     2
291
     1
 71
     1
176
     1
 72
     0
176
     1
 73
     1
176
     1
 90
        0
176
     1
 40
0.6
176
     1
 41
30.0
176
     1
 62
     5
 63
     7
421
 16777215
176
     1
 74
     0
176
     1
 91
        4
176
     1
 64
     7
176
     1
 65
   257
176
     1
 75
     1
176
     1
175
     1
176
     1
 42
1.0
176
     1
 92
        8
176
     1
 66
     7
176
     1
 43
1.0
176
     1
 76
     1
176
     1
 77
     6
176
     1
 78
     2
176
     1
 67
     7
176
     1
 79
     5
176
     1
170
     0
176
     1
171
     0
176
     1
290
     0
176
     1
 93
        1
176
     1
 44
0.0
176
     1
173
     0
176
     1
  0
VISUALSTYLE
  5
36
102
{ACAD_REACTORS
330
2A
102
}
102
{ACAD_XDICTIONARY
360
2D7
102
}
330
2A
100
AcDbVisualStyle
  2
Brighten
 70
    12
177
     2
291
     1
 71
     2
176
     1
 72
     2
176
     1
 73
     0
176
     1
 90
        0
176
     1
 40
0.6
176
     1
 41
30.0
176
     1
 62
     5
 63
     7
421
 16777215
176
     1
 74
     1
176
     1
 91
        4
176
     1
 64
     7
176
     1
 65
   257
176
     1
 75
     1
176
     1
175
     1
176
     1
 42
1.0
176
     1
 92
        8
176
     1
 66
     7
176
     1
 43
1.0
176
     1
 76
     1
176
     1
 77
     6
176
     1
 78
     2
176
     1
 67
     7
176
     1
 79
     5
176
     1
170
     0
176
     1
171
     0
176
     1
290
     0
176
     1
 93
        1
176
     1
 44
50.0
176
     1
173
     0
176
     1
  0
VISUALSTYLE
  5
3A
102
{ACAD_REACTORS
330
2A
102
}
102
{ACAD_XDICTIONARY
360
2DF
102
}
330
2A
100
AcDbVisualStyle
  2
ColorChange
 70
    16
177
     2
291
     1
 71
     2
176
     1
 72
     2
176
     1
 73
     3
176
     1
 90
        0
176
     1
 40
0.6
176
     1
 41
30.0
176
     1
 62
     5
 63
     8
421
  8421504
176
     1
 74
     1
176
     1
 91
        4
176
     1
 64
     7
176
     1
 65
   257
176
     1
 75
     1
176
     1
175
     1
176
     1
 42
1.0
176
     1
 92
        8
176
     1
 66
     8
424
  8421504
176
     1
 43
1.0
176
     1
 76
     1
176
     1
 77
     6
176
     1
 78
     2
176
     1
 67
     7
176
     1
 79
     5
176
     1
170
     0
176
     1
171
     0
176
     1
290
     0
176
     1
 93
        1
176
     1
 44
0.0
176
     1
173
     0
176
     1
  0
VISUALSTYLE
  5
34
102
{ACAD_REACTORS
330
2A
102
}
102
{ACAD_XDICTIONARY
360
2D3
102
}
330
2A
100
AcDbVisualStyle
  2
Conceptual
 70
     9
177
     2
291
     0
 71
     3
176
     1
 72
     2
176
     1
 73
     0
176
     1
 90
        0
176
     1
 40
0.6
176
     1
 41
30.0
176
     1
 62
     5
 63
     7
421
 16777215
176
     1
 74
     2
176
     1
 91
        2
176
     1
 64
     7
176
     1
 65
   257
176
     1
 75
     1
176
     1
175
     1
176
     1
 42
179.0
176
     1
 92
        8
176
     1
 66
     7
176
     1
 43
1.0
176
     1
 76
     1
176
     1
 77
     6
176
     1
 78
     2
176
     1
 67
     7
176
     1
 79
     3
176
     1
170
     0
176
     1
171
     0
176
     1
290
     0
176
     1
 93
        1
176
     1
 44
0.0
176
     1
173
     0
176
     1
  0
VISUALSTYLE
  5
35
102
{ACAD_REACTORS
330
2A
102
}
102
{ACAD_XDICTIONARY
360
2D5
102
}
330
2A
100
AcDbVisualStyle
  2
Dim
 70
    11
177
     2
291
     1
 71
     2
176
     1
 72
     2
176
     1
 73
     0
176
     1
 90
        0
176
     1
 40
0.6
176
     1
 41
30.0
176
     1
 62
     5
 63
     7
421
 16777215
176
     1
 74
     1
176
     1
 91
        4
176
     1
 64
     7
176
     1
 65
   257
176
     1
 75
     1
176
     1
175
     1
176
     1
 42
1.0
176
     1
 92
        8
176
     1
 66
     7
176
     1
 43
1.0
176
     1
 76
     1
176
     1
 77
     6
176
     1
 78
     2
176
     1
 67
     7
176
     1
 79
     5
176
     1
170
     0
176
     1
171
     0
176
     1
290
     0
176
     1
 93
        1
176
     1
 44
-50.0
176
     1
173
     0
176
     1
  0
VISUALSTYLE
  5
3D
102
{ACAD_REACTORS
330
2A
102
}
102
{ACAD_XDICTIONARY
360
2E5
102
}
330
2A
100
AcDbVisualStyle
  2
EdgeColorOff
 70
    22
177
     2
291
     1
 71
     2
176
     0
 72
     2
176
     0
 73
     0
176
     0
 90
        0
176
     0
 40
0.6
176
     0
 41
30.0
176
     0
 62
     5
 63
     7
421
 16777215
176
     0
 74
     1
176
     0
 91
        4
176
     0
 64
     7
176
     0
 65
   257
176
     0
 75
     1
176
     0
175
     1
176
     0
 42
1.0
176
     0
 92
        8
176
     2
 66
     7
176
     0
 43
1.0
176
     0
 76
     1
176
     0
 77
     6
176
     0
 78
     2
176
     0
 67
     7
176
     0
 79
     5
176
     0
170
     0
176
     0
171
     0
176
     0
290
     0
176
     0
 93
        1
176
     0
 44
0.0
176
     0
173
     0
176
     0
  0
VISUALSTYLE
  5
39
102
{ACAD_REACTORS
330
2A
102
}
102
{ACAD_XDICTIONARY
360
2DD
102
}
330
2A
100
AcDbVisualStyle
  2
Facepattern
 70
    15
177
     2
291
     1
 71
     2
176
     1
 72
     2
176
     1
 73
     0
176
     1
 90
        0
176
     1
 40
0.6
176
     1
 41
30.0
176
     1
 62
     5
 63
     7
421
 16777215
176
     1
 74
     1
176
     1
 91
        4
176
     1
 64
     7
176
     1
 65
   257
176
     1
 75
     1
176
     1
175
     1
176
     1
 42
1.0
176
     1
 92
        8
176
     1
 66
     7
176
     1
 43
1.0
176
     1
 76
     1
176
     1
 77
     6
176
     1
 78
     2
176
     1
 67
     7
176
     1
 79
     5
176
     1
170
     0
176
     1
171
     0
176
     1
290
     0
176
     1
 93
        1
176
     1
 44
0.0
176
     1
173
     0
176
     1
  0
VISUALSTYLE
  5
2B
102
{ACAD_REACTORS
330
2A
102
}
102
{ACAD_XDICTIONARY
360
2C1
102
}
330
2A
100
AcDbVisualStyle
  2
Flat
 70
     0
177
     2
291
     1
 71
     2
176
     1
 72
     1
176
     1
 73
     1
176
     1
 90
        2
176
     1
 40
0.6
176
     1
 41
30.0
176
     1
 62
     5
 63
     7
421
 16777215
176
     1
 74
     0
176
     1
 91
        0
176
     1
 64
     7
176
     1
 65
   257
176
     1
 75
     1
176
     1
175
     1
176
     1
 42
1.0
176
     1
 92
        8
176
     1
 66
     7
176
     1
 43
1.0
176
     1
 76
     1
176
     1
 77
     6
176
     1
 78
     2
176
     1
 67
     7
176
     1
 79
     5
176
     1
170
     0
176
     1
171
     0
176
     1
290
     0
176
     1
 93
       13
176
     1
 44
0.0
176
     1
173
     0
176
     1
  0
VISUALSTYLE
  5
2C
102
{ACAD_REACTORS
330
2A
102
}
102
{ACAD_XDICTIONARY
360
2C3
102
}
330
2A
100
AcDbVisualStyle
  2
FlatWithEdges
 70
     1
177
     2
291
     1
 71
     2
176
     1
 72
     1
176
     1
 73
     1
176
     1
 90
        2
176
     1
 40
0.6
176
     1
 41
30.0
176
     1
 62
     5
 63
     7
421
 16777215
176
     1
 74
     1
176
     1
 91
        0
176
     1
 64
     7
176
     1
 65
   257
176
     1
 75
     1
176
     1
175
     1
176
     1
 42
1.0
176
     1
 92
        0
176
     1
 66
   257
176
     1
 43
1.0
176
     1
 76
     1
176
     1
 77
     6
176
     1
 78
     2
176
     1
 67
     7
176
     1
 79
     5
176
     1
170
     0
176
     1
171
     0
176
     1
290
     0
176
     1
 93
       13
176
     1
 44
0.0
176
     1
173
     0
176
     1
  0
VISUALSTYLE
  5
2D
102
{ACAD_REACTORS
330
2A
102
}
102
{ACAD_XDICTIONARY
360
2C5
102
}
330
2A
100
AcDbVisualStyle
  2
Gouraud
 70
     2
177
     2
291
     1
 71
     2
176
     1
 72
     2
176
     1
 73
     1
176
     1
 90
        2
176
     1
 40
0.6
176
     1
 41
30.0
176
     1
 62
     5
 63
     7
421
 16777215
176
     1
 74
     0
176
     1
 91
        0
176
     1
 64
     7
176
     1
 65
   257
176
     1
 75
     1
176
     1
175
     1
176
     1
 42
1.0
176
     1
 92
        0
176
     1
 66
     7
176
     1
 43
1.0
176
     1
 76
     1
176
     1
 77
     6
176
     1
 78
     2
176
     1
 67
     7
176
     1
 79
     5
176
     1
170
     0
176
     1
171
     0
176
     1
290
     0
176
     1
 93
       13
176
     1
 44
0.0
176
     1
173
     0
176
     1
  0
VISUALSTYLE
  5
2E
102
{ACAD_REACTORS
330
2A
102
}
102
{ACAD_XDICTIONARY
360
2C7
102
}
330
2A
100
AcDbVisualStyle
  2
GouraudWithEdges
 70
     3
177
     2
291
     1
 71
     2
176
     1
 72
     2
176
     1
 73
     1
176
     1
 90
        2
176
     1
 40
0.6
176
     1
 41
30.0
176
     1
 62
     5
 63
     7
421
 16777215
176
     1
 74
     1
176
     1
 91
        0
176
     1
 64
     7
176
     1
 65
   257
176
     1
 75
     1
176
     1
175
     1
176
     1
 42
1.0
176
     1
 92
        0
176
     1
 66
   257
176
     1
 43
1.0
176
     1
 76
     1
176
     1
 77
     6
176
     1
 78
     2
176
     1
 67
     7
176
     1
 79
     5
176
     1
170
     0
176
     1
171
     0
176
     1
290
     0
176
     1
 93
       13
176
     1
 44
0.0
176
     1
173
     0
176
     1
  0
VISUALSTYLE
  5
31
102
{ACAD_REACTORS
330
2A
102
}
102
{ACAD_XDICTIONARY
360
2CD
102
}
330
2A
100
AcDbVisualStyle
  2
Hidden
 70
     6
177
     2
291
     0
 71
     1
176
     1
 72
     2
176
     1
 73
     2
176
     1
 90
        0
176
     1
 40
0.6
176
     1
 41
30.0
176
     1
 62
     5
 63
     7
421
 16777215
176
     1
 74
     2
176
     1
 91
        2
176
     1
 64
     7
176
     1
 65
   257
176
     1
 75
     2
176
     1
175
     1
176
     1
 42
40.0
176
     1
 92
        0
176
     1
 66
   257
176
     1
 43
1.0
176
     1
 76
     1
176
     1
 77
     6
176
     1
 78
     2
176
     1
 67
     7
176
     1
 79
     3
176
     1
170
     0
176
     1
171
     0
176
     1
290
     0
176
     1
 93
        1
176
     1
 44
0.0
176
     1
173
     0
176
     1
  0
VISUALSTYLE
  5
3B
102
{ACAD_REACTORS
330
2A
102
}
102
{ACAD_XDICTIONARY
360
2E1
102
}
330
2A
100
AcDbVisualStyle
  2
JitterOff
 70
    20
177
     2
291
     1
 71
     2
176
     0
 72
     2
176
     0
 73
     0
176
     0
 90
        0
176
     0
 40
0.6
176
     0
 41
30.0
176
     0
 62
     5
 63
     7
421
 16777215
176
     0
 74
     1
176
     0
 91
        4
176
     0
 64
     7
176
     0
 65
   257
176
     0
 75
     1
176
     0
175
     1
176
     0
 42
1.0
176
     0
 92
       10
176
     2
 66
     7
176
     0
 43
1.0
176
     0
 76
     1
176
     0
 77
     6
176
     0
 78
     2
176
     0
 67
     7
176
     0
 79
     5
176
     0
170
     0
176
     0
171
     0
176
     0
290
     0
176
     0
 93
        1
176
     0
 44
0.0
176
     0
173
     0
176
     0
  0
VISUALSTYLE
  5
38
102
{ACAD_REACTORS
330
2A
102
}
102
{ACAD_XDICTIONARY
360
2DB
102
}
330
2A
100
AcDbVisualStyle
  2
Linepattern
 70
    14
177
     2
291
     1
 71
     2
176
     1
 72
     2
176
     1
 73
     0
176
     1
 90
        0
176
     1
 40
0.6
176
     1
 41
30.0
176
     1
 62
     5
 63
     7
421
 16777215
176
     1
 74
     1
176
     1
 91
        4
176
     1
 64
     7
176
     1
 65
   257
176
     1
 75
     7
176
     1
175
     7
176
     1
 42
1.0
176
     1
 92
        8
176
     1
 66
     7
176
     1
 43
1.0
176
     1
 76
     1
176
     1
 77
     6
176
     1
 78
     2
176
     1
 67
     7
176
     1
 79
     5
176
     1
170
     0
176
     1
171
     0
176
     1
290
     0
176
     1
 93
        1
176
     1
 44
0.0
176
     1
173
     0
176
     1
  0
VISUALSTYLE
  5
3C
102
{ACAD_REACTORS
330
2A
102
}
102
{ACAD_XDICTIONARY
360
2E3
102
}
330
2A
100
AcDbVisualStyle
  2
OverhangOff
 70
    21
177
     2
291
     1
 71
     2
176
     0
 72
     2
176
     0
 73
     0
176
     0
 90
        0
176
     0
 40
0.6
176
     0
 41
30.0
176
     0
 62
     5
 63
     7
421
 16777215
176
     0
 74
     1
176
     0
 91
        4
176
     0
 64
     7
176
     0
 65
   257
176
     0
 75
     1
176
     0
175
     1
176
     0
 42
1.0
176
     0
 92
        9
176
     2
 66
     7
176
     0
 43
1.0
176
     0
 76
     1
176
     0
 77
     6
176
     0
 78
     2
176
     0
 67
     7
176
     0
 79
     5
176
     0
170
     0
176
     0
171
     0
176
     0
290
     0
176
     0
 93
        1
176
     0
 44
0.0
176
     0
173
     0
176
     0
  0
VISUALSTYLE
  5
33
102
{ACAD_REACTORS
330
2A
102
}
102
{ACAD_XDICTIONARY
360
2D1
102
}
330
2A
100
AcDbVisualStyle
  2
Realistic
 70
     8
177
     2
291
     0
 71
     2
176
     1
 72
     3
176
     1
 73
     0
176
     1
 90
        2
176
     1
 40
0.6
176
     1
 41
30.0
176
     1
 62
     5
 63
     7
421
 16777215
176
     1
 74
     0
176
     1
 91
        0
176
     1
 64
     7
176
     1
 65
   257
176
     1
 75
     1
176
     1
175
     1
176
     1
 42
1.0
176
     1
 92
        8
176
     1
 66
   257
176
     1
 43
1.0
176
     1
 76
     1
176
     1
 77
     6
176
     1
 78
     2
176
     1
 67
     7
176
     1
 79
     3
176
     1
170
     0
176
     1
171
     0
176
     1
290
     0
176
     1
 93
       13
176
     1
 44
0.0
176
     1
173
     0
176
     1
  0
VISUALSTYLE
  5
42
102
{ACAD_REACTORS
330
2A
102
}
102
{ACAD_XDICTIONARY
360
2EF
102
}
330
2A
100
AcDbVisualStyle
  2
Shaded
 70
    27
177
     2
291
     0
 71
     2
176
     1
 72
     2
176
     1
 73
     1
176
     1
 90
        2
176
     1
 40
0.6
176
     1
 41
30.0
176
     1
 62
     5
 63
     7
421
 16777215
176
     1
 74
     0
176
     1
 91
        4
176
     1
 64
     7
176
     1
 65
   257
176
     1
 75
     1
176
     1
175
     1
176
     1
 42
1.0
176
     1
 92
        8
176
     1
 66
   257
176
     1
 43
1.0
176
     1
 76
     1
176
     1
 77
     6
176
     1
 78
     2
176
     1
 67
     8
425
  7895160
176
     1
 79
     3
176
     1
170
     0
176
     1
171
     0
176
     1
290
     0
176
     1
 93
        5
176
     1
 44
0.0
176
     1
173
     0
176
     1
  0
VISUALSTYLE
  5
41
102
{ACAD_REACTORS
330
2A
102
}
102
{ACAD_XDICTIONARY
360
2ED
102
}
330
2A
100
AcDbVisualStyle
  2
Shaded with edges
 70
    26
177
     2
291
     0
 71
     2
176
     1
 72
     2
176
     1
 73
     1
176
     1
 90
        2
176
     1
 40
0.6
176
     1
 41
30.0
176
     1
 62
     5
 63
     7
421
 16777215
176
     1
 74
     1
176
     1
 91
       10
176
     1
 64
     7
176
     1
 65
   257
176
     1
 75
     2
176
     1
175
     1
176
     1
 42
1.0
176
     1
 92
        8
176
     1
 66
   257
176
     1
 43
1.0
176
     1
 76
     1
176
     1
 77
     6
176
     1
 78
     2
176
     1
 67
     7
176
     1
 79
     3
176
     1
170
     0
176
     1
171
     0
176
     1
290
     0
176
     1
 93
        5
176
     1
 44
0.0
176
     1
173
     0
176
     1
  0
VISUALSTYLE
  5
3E
102
{ACAD_REACTORS
330
2A
102
}
102
{ACAD_XDICTIONARY
360
2E7
102
}
330
2A
100
AcDbVisualStyle
  2
Shades of Gray
 70
    23
177
     2
291
     0
 71
     2
176
     1
 72
     2
176
     1
 73
     3
176
     1
 90
        0
176
     1
 40
0.6
176
     1
 41
30.0
176
     1
 62
     5
 63
     7
421
 16777215
176
     1
 74
     2
176
     1
 91
        2
176
     1
 64
     7
176
     1
 65
     7
176
     1
 75
     1
176
     1
175
     1
176
     1
 42
40.0
176
     1
 92
        8
176
     1
 66
     7
176
     1
 43
1.0
176
     1
 76
     1
176
     1
 77
     6
176
     1
 78
     2
176
     1
 67
     7
176
     1
 79
     3
176
     1
170
     0
176
     1
171
     0
176
     1
290
     0
176
     1
 93
        1
176
     1
 44
0.0
176
     1
173
     0
176
     1
  0
VISUALSTYLE
  5
3F
102
{ACAD_REACTORS
330
2A
102
}
102
{ACAD_XDICTIONARY
360
2E9
102
}
330
2A
100
AcDbVisualStyle
  2
Sketchy
 70
    24
177
     2
291
     0
 71
     1
176
     1
 72
     2
176
     1
 73
     2
176
     1
 90
        0
176
     1
 40
0.6
176
     1
 41
30.0
176
     1
 62
     5
 63
     7
421
 16777215
176
     1
 74
     2
176
     1
 91
        2
176
     1
 64
     7
176
     1
 65
     7
176
     1
 75
     1
176
     1
175
     1
176
     1
 42
40.0
176
     1
 92
       11
176
     1
 66
     7
176
     1
 43
1.0
176
     1
 76
     1
176
     1
 77
     6
176
     1
 78
     2
176
     1
 67
     7
176
     1
 79
     6
176
     1
170
     0
176
     1
171
     0
176
     1
290
     0
176
     1
 93
        1
176
     1
 44
0.0
176
     1
173
     0
176
     1
  0
VISUALSTYLE
  5
37
102
{ACAD_REACTORS
330
2A
102
}
102
{ACAD_XDICTIONARY
360
2D9
102
}
330
2A
100
AcDbVisualStyle
  2
Thicken
 70
    13
177
     2
291
     1
 71
     2
176
     1
 72
     2
176
     1
 73
     0
176
     1
 90
        0
176
     1
 40
0.6
176
     1
 41
30.0
176
     1
 62
     5
 63
     7
421
 16777215
176
     1
 74
     1
176
     1
 91
        4
176
     1
 64
     7
176
     1
 65
   257
176
     1
 75
     1
176
     1
175
     1
176
     1
 42
1.0
176
     1
 92
       12
176
     1
 66
     7
176
     1
 43
1.0
176
     1
 76
     1
176
     1
 77
     6
176
     1
 78
     2
176
     1
 67
     7
176
     1
 79
     5
176
     1
170
     0
176
     1
171
     0
176
     1
290
     0
176
     1
 93
        1
176
     1
 44
0.0
176
     1
173
     0
176
     1
  0
VISUALSTYLE
  5
30
102
{ACAD_REACTORS
330
2A
102
}
102
{ACAD_XDICTIONARY
360
2CB
102
}
330
2A
100
AcDbVisualStyle
  2
Wireframe
 70
     5
177
     2
291
     0
 71
     0
176
     1
 72
     2
176
     1
 73
     0
176
     1
 90
        0
176
     1
 40
0.6
176
     1
 41
30.0
176
     1
 62
     5
 63
     7
421
 16777215
176
     1
 74
     1
176
     1
 91
        4
176
     1
 64
     7
176
     1
 65
   257
176
     1
 75
     1
176
     1
175
     1
176
     1
 42
1.0
176
     1
 92
        0
176
     1
 66
   257
176
     1
 43
1.0
176
     1
 76
     1
176
     1
 77
     6
176
     1
 78
     2
176
     1
 67
     7
176
     1
 79
     3
176
     1
170
     0
176
     1
171
     0
176
     1
290
     0
176
     1
 93
        1
176
     1
 44
0.0
176
     1
173
     0
176
     1
  0
VISUALSTYLE
  5
40
102
{ACAD_REACTORS
330
2A
102
}
102
{ACAD_XDICTIONARY
360
2EB
102
}
330
2A
100
AcDbVisualStyle
  2
X-Ray
 70
    25
177
     2
291
     0
 71
     2
176
     1
 72
     2
176
     1
 73
     1
176
     1
 90
        1
176
     1
 40
0.5
176
     1
 41
30.0
176
     1
 62
     5
 63
     7
421
 16777215
176
     1
 74
     1
176
     1
 91
        0
176
     1
 64
     7
176
     1
 65
   257
176
     1
 75
     1
176
     1
175
     1
176
     1
 42
1.0
176
     1
 92
        8
176
     1
 66
     7
176
     1
 43
1.0
176
     1
 76
     1
176
     1
 77
     6
176
     1
 78
     2
176
     1
 67
     7
176
     1
 79
     3
176
     1
170
     0
176
     1
171
     0
176
     1
290
     0
176
     1
 93
       13
176
     1
 44
0.0
176
     1
173
     0
176
     1
  0
DICTIONARYVAR
  5
2C0
102
{ACAD_REACTORS
330
2BF
102
}
330
2BF
100
DictionaryVariables
280
     0
  1
1:1
  0
DICTIONARYVAR
  5
2F5
102
{ACAD_REACTORS
330
2BF
102
}
330
2BF
100
DictionaryVariables
280
     0
  1
Standard
  0
DICTIONARYVAR
  5
2F4
102
{ACAD_REACTORS
330
2BF
102
}
330
2BF
100
DictionaryVariables
280
     0
  1
Standard
  0
DICTIONARY
  5
2F1
330
6A
100
AcDbDictionary
280
     1
281
     1
  3
ACAD_ROUNDTRIP_2008_TABLESTYLE_CELLSTYLEMAP
360
2F2
  0
DICTIONARY
  5
2C9
330
2F
100
AcDbDictionary
280
     1
281
     1
  3
ACAD_XREC_ROUNDTRIP
360
2CA
  0
DICTIONARY
  5
2CF
330
32
100
AcDbDictionary
280
     1
281
     1
  3
ACAD_XREC_ROUNDTRIP
360
2D0
  0
DICTIONARY
  5
2D7
330
36
100
AcDbDictionary
280
     1
281
     1
  3
ACAD_XREC_ROUNDTRIP
360
2D8
  0
DICTIONARY
  5
2DF
330
3A
100
AcDbDictionary
280
     1
281
     1
  3
ACAD_XREC_ROUNDTRIP
360
2E0
  0
DICTIONARY
  5
2D3
330
34
100
AcDbDictionary
280
     1
281
     1
  3
ACAD_XREC_ROUNDTRIP
360
2D4
  0
DICTIONARY
  5
2D5
330
35
100
AcDbDictionary
280
     1
281
     1
  3
ACAD_XREC_ROUNDTRIP
360
2D6
  0
DICTIONARY
  5
2E5
330
3D
100
AcDbDictionary
280
     1
281
     1
  3
ACAD_XREC_ROUNDTRIP
360
2E6
  0
DICTIONARY
  5
2DD
330
39
100
AcDbDictionary
280
     1
281
     1
  3
ACAD_XREC_ROUNDTRIP
360
2DE
  0
DICTIONARY
  5
2C1
330
2B
100
AcDbDictionary
280
     1
281
     1
  3
ACAD_XREC_ROUNDTRIP
360
2C2
  0
DICTIONARY
  5
2C3
330
2C
100
AcDbDictionary
280
     1
281
     1
  3
ACAD_XREC_ROUNDTRIP
360
2C4
  0
DICTIONARY
  5
2C5
330
2D
100
AcDbDictionary
280
     1
281
     1
  3
ACAD_XREC_ROUNDTRIP
360
2C6
  0
DICTIONARY
  5
2C7
330
2E
100
AcDbDictionary
280
     1
281
     1
  3
ACAD_XREC_ROUNDTRIP
360
2C8
  0
DICTIONARY
  5
2CD
330
31
100
AcDbDictionary
280
     1
281
     1
  3
ACAD_XREC_ROUNDTRIP
360
2CE
  0
DICTIONARY
  5
2E1
330
3B
100
AcDbDictionary
280
     1
281
     1
  3
ACAD_XREC_ROUNDTRIP
360
2E2
  0
DICTIONARY
  5
2DB
330
38
100
AcDbDictionary
280
     1
281
     1
  3
ACAD_XREC_ROUNDTRIP
360
2DC
  0
DICTIONARY
  5
2E3
330
3C
100
AcDbDictionary
280
     1
281
     1
  3
ACAD_XREC_ROUNDTRIP
360
2E4
  0
DICTIONARY
  5
2D1
330
33
100
AcDbDictionary
280
     1
281
     1
  3
ACAD_XREC_ROUNDTRIP
360
2D2
  0
DICTIONARY
  5
2EF
330
42
100
AcDbDictionary
280
     1
281
     1
  3
ACAD_XREC_ROUNDTRIP
360
2F0
  0
DICTIONARY
  5
2ED
330
41
100
AcDbDictionary
280
     1
281
     1
  3
ACAD_XREC_ROUNDTRIP
360
2EE
  0
DICTIONARY
  5
2E7
330
3E
100
AcDbDictionary
280
     1
281
     1
  3
ACAD_XREC_ROUNDTRIP
360
2E8
  0
DICTIONARY
  5
2E9
330
3F
100
AcDbDictionary
280
     1
281
     1
  3
ACAD_XREC_ROUNDTRIP
360
2EA
  0
DICTIONARY
  5
2D9
330
37
100
AcDbDictionary
280
     1
281
     1
  3
ACAD_XREC_ROUNDTRIP
360
2DA
  0
DICTIONARY
  5
2CB
330
30
100
AcDbDictionary
280
     1
281
     1
  3
ACAD_XREC_ROUNDTRIP
360
2CC
  0
DICTIONARY
  5
2EB
330
40
100
AcDbDictionary
280
     1
281
     1
  3
ACAD_XREC_ROUNDTRIP
360
2EC
  0
CELLSTYLEMAP
  5
2F2
102
{ACAD_REACTORS
330
2F1
102
}
330
2F1
100
AcDbCellStyleMap
 90
        3
300
CELLSTYLE
  1
TABLEFORMAT_BEGIN
 90
        5
170
     1
 91
        0
 92
    32768
 62
   257
 93
        1
300
CONTENTFORMAT
  1
CONTENTFORMAT_BEGIN
 90
        0
 91
        0
 92
        4
 93
        0
300

 40
0.0
140
1.0
 94
        5
 62
     0
340
11
144
0.25
309
CONTENTFORMAT_END
171
     1
301
MARGIN
  1
CELLMARGIN_BEGIN
 40
0.06
 40
0.06
 40
0.06
 40
0.06
 40
0.06
 40
0.06
309
CELLMARGIN_END
 94
        6
 95
        1
302
GRIDFORMAT
  1
GRIDFORMAT_BEGIN
 90
        0
 91
        1
 62
     0
 92
       -2
340
14
 93
        0
 40
0.045
309
GRIDFORMAT_END
 95
        2
302
GRIDFORMAT
  1
GRIDFORMAT_BEGIN
 90
        0
 91
        1
 62
     0
 92
       -2
340
14
 93
        0
 40
0.045
309
GRIDFORMAT_END
 95
        4
302
GRIDFORMAT
  1
GRIDFORMAT_BEGIN
 90
        0
 91
        1
 62
     0
 92
       -2
340
14
 93
        0
 40
0.045
309
GRIDFORMAT_END
 95
        8
302
GRIDFORMAT
  1
GRIDFORMAT_BEGIN
 90
        0
 91
        1
 62
     0
 92
       -2
340
14
 93
        0
 40
0.045
309
GRIDFORMAT_END
 95
       16
302
GRIDFORMAT
  1
GRIDFORMAT_BEGIN
 90
        0
 91
        1
 62
     0
 92
       -2
340
14
 93
        0
 40
0.045
309
GRIDFORMAT_END
 95
       32
302
GRIDFORMAT
  1
GRIDFORMAT_BEGIN
 90
        0
 91
        1
 62
     0
 92
       -2
340
14
 93
        0
 40
0.045
309
GRIDFORMAT_END
309
TABLEFORMAT_END
  1
CELLSTYLE_BEGIN
 90
        1
 91
        1
300
_TITLE
309
CELLSTYLE_END
300
CELLSTYLE
  1
TABLEFORMAT_BEGIN
 90
        5
170
     1
 91
        0
 92
        0
 62
   257
 93
        1
300
CONTENTFORMAT
  1
CONTENTFORMAT_BEGIN
 90
        0
 91
        0
 92
        4
 93
        0
300

 40
0.0
140
1.0
 94
        5
 62
     0
340
11
144
0.18
309
CONTENTFORMAT_END
171
     1
301
MARGIN
  1
CELLMARGIN_BEGIN
 40
0.06
 40
0.06
 40
0.06
 40
0.06
 40
0.06
 40
0.06
309
CELLMARGIN_END
 94
        6
 95
        1
302
GRIDFORMAT
  1
GRIDFORMAT_BEGIN
 90
        0
 91
        1
 62
     0
 92
       -2
340
14
 93
        0
 40
0.045
309
GRIDFORMAT_END
 95
        2
302
GRIDFORMAT
  1
GRIDFORMAT_BEGIN
 90
        0
 91
        1
 62
     0
 92
       -2
340
14
 93
        0
 40
0.045
309
GRIDFORMAT_END
 95
        4
302
GRIDFORMAT
  1
GRIDFORMAT_BEGIN
 90
        0
 91
        1
 62
     0
 92
       -2
340
14
 93
        0
 40
0.045
309
GRIDFORMAT_END
 95
        8
302
GRIDFORMAT
  1
GRIDFORMAT_BEGIN
 90
        0
 91
        1
 62
     0
 92
       -2
340
14
 93
        0
 40
0.045
309
GRIDFORMAT_END
 95
       16
302
GRIDFORMAT
  1
GRIDFORMAT_BEGIN
 90
        0
 91
        1
 62
     0
 92
       -2
340
14
 93
        0
 40
0.045
309
GRIDFORMAT_END
 95
       32
302
GRIDFORMAT
  1
GRIDFORMAT_BEGIN
 90
        0
 91
        1
 62
     0
 92
       -2
340
14
 93
        0
 40
0.045
309
GRIDFORMAT_END
309
TABLEFORMAT_END
  1
CELLSTYLE_BEGIN
 90
        2
 91
        1
300
_HEADER
309
CELLSTYLE_END
300
CELLSTYLE
  1
TABLEFORMAT_BEGIN
 90
        5
170
     1
 91
        0
 92
        0
 62
   257
 93
        1
300
CONTENTFORMAT
  1
CONTENTFORMAT_BEGIN
 90
        0
 91
        0
 92
        4
 93
        0
300

 40
0.0
140
1.0
 94
        2
 62
     0
340
11
144
0.18
309
CONTENTFORMAT_END
171
     1
301
MARGIN
  1
CELLMARGIN_BEGIN
 40
0.06
 40
0.06
 40
0.06
 40
0.06
 40
0.06
 40
0.06
309
CELLMARGIN_END
 94
        6
 95
        1
302
GRIDFORMAT
  1
GRIDFORMAT_BEGIN
 90
        0
 91
        1
 62
     0
 92
       -2
340
14
 93
        0
 40
0.045
309
GRIDFORMAT_END
 95
        2
302
GRIDFORMAT
  1
GRIDFORMAT_BEGIN
 90
        0
 91
        1
 62
     0
 92
       -2
340
14
 93
        0
 40
0.045
309
GRIDFORMAT_END
 95
        4
302
GRIDFORMAT
  1
GRIDFORMAT_BEGIN
 90
        0
 91
        1
 62
     0
 92
       -2
340
14
 93
        0
 40
0.045
309
GRIDFORMAT_END
 95
        8
302
GRIDFORMAT
  1
GRIDFORMAT_BEGIN
 90
        0
 91
        1
 62
     0
 92
       -2
340
14
 93
        0
 40
0.045
309
GRIDFORMAT_END
 95
       16
302
GRIDFORMAT
  1
GRIDFORMAT_BEGIN
 90
        0
 91
        1
 62
     0
 92
       -2
340
14
 93
        0
 40
0.045
309
GRIDFORMAT_END
 95
       32
302
GRIDFORMAT
  1
GRIDFORMAT_BEGIN
 90
        0
 91
        1
 62
     0
 92
       -2
340
14
 93
        0
 40
0.045
309
GRIDFORMAT_END
309
TABLEFORMAT_END
  1
CELLSTYLE_BEGIN
 90
        3
 91
        2
300
_DATA
309
CELLSTYLE_END
  0
XRECORD
  5
2CA
102
{ACAD_REACTORS
330
2C9
102
}
330
2C9
100
AcDbXrecord
280
     1
102
RTVSPost2010Prop28
280
     1
102
RTVSPost2010PropOp28
 70
     1
102
RTVSPost2010Prop29
280
     1
102
RTVSPost2010PropOp29
 70
     1
102
RTVSPost2010Prop30
280
     0
102
RTVSPost2010PropOp30
 70
     1
102
RTVSPost2010Prop31
280
     0
102
RTVSPost2010PropOp31
 70
     1
102
RTVSPost2010Prop32
280
     0
102
RTVSPost2010PropOp32
 70
     1
102
RTVSPost2010Prop33
280
     0
102
RTVSPost2010PropOp33
 70
     1
102
RTVSPost2010Prop34
280
     0
102
RTVSPost2010PropOp34
 70
     1
102
RTVSPost2010Prop35
280
     0
102
RTVSPost2010PropOp35
 70
     1
102
RTVSPost2010Prop36
280
     0
102
RTVSPost2010PropOp36
 70
     1
102
RTVSPost2010Prop37
 90
       50
102
RTVSPost2010PropOp37
 70
     1
102
RTVSPost2010Prop38
140
0.0
102
RTVSPost2010PropOp38
 70
     1
102
RTVSPost2010Prop39
140
1.0
102
RTVSPost2010PropOp39
 70
     1
102
RTVSPost2010Prop40
 90
        0
102
RTVSPost2010PropOp40
 70
     1
102
RTVSPost2010Prop41ColorIndex
 90
       18
102
RTVSPost2010Prop41ColorRGB
 90
        0
102
RTVSPost2010PropOp41
 70
     1
102
RTVSPost2010Prop42
 90
       50
102
RTVSPost2010PropOp42
 70
     1
102
RTVSPost2010Prop43
 90
        3
102
RTVSPost2010PropOp43
 70
     1
102
RTVSPost2010Prop44ColorIndex
 90
        5
102
RTVSPost2010Prop44ColorRGB
 90
      255
102
RTVSPost2010PropOp44
 70
     1
102
RTVSPost2010Prop45
280
     0
102
RTVSPost2010PropOp45
 70
     1
102
RTVSPost2010Prop46
 90
       50
102
RTVSPost2010PropOp46
 70
     1
102
RTVSPost2010Prop47
 90
       50
102
RTVSPost2010PropOp47
 70
     1
102
RTVSPost2010Prop48
 90
       50
102
RTVSPost2010PropOp48
 70
     1
102
RTVSPost2010Prop49
280
     0
102
RTVSPost2010PropOp49
 70
     1
102
RTVSPost2010Prop50
 90
       50
102
RTVSPost2010PropOp50
 70
     1
102
RTVSPost2010Prop51ColorIndex
 90
      256
102
RTVSPost2010Prop51ColorRGB
 90
-16777216
102
RTVSPost2010PropOp51
 70
     0
102
RTVSPost2010Prop52
140
1.0
102
RTVSPost2010PropOp52
 70
     0
102
RTVSPost2010Prop53
 90
        2
102
RTVSPost2010PropOp53
 70
     1
102
RTVSPost2010Prop54
  1
strokes_ogs.tif
102
RTVSPost2010PropOp54
 70
     1
102
RTVSPost2010Prop55
280
     0
102
RTVSPost2010PropOp55
 70
     1
102
RTVSPost2010Prop56
140
1.0
102
RTVSPost2010PropOp56
 70
     1
102
RTVSPost2010Prop57
140
1.0
102
RTVSPost2010PropOp57
 70
     1
  0
XRECORD
  5
2D0
102
{ACAD_REACTORS
330
2CF
102
}
330
2CF
100
AcDbXrecord
280
     1
102
RTVSPost2010Prop28
280
     0
102
RTVSPost2010PropOp28
 70
     1
102
RTVSPost2010Prop29
280
     1
102
RTVSPost2010PropOp29
 70
     1
102
RTVSPost2010Prop30
280
     1
102
RTVSPost2010PropOp30
 70
     1
102
RTVSPost2010Prop31
280
     0
102
RTVSPost2010PropOp31
 70
     1
102
RTVSPost2010Prop32
280
     0
102
RTVSPost2010PropOp32
 70
     1
102
RTVSPost2010Prop33
280
     0
102
RTVSPost2010PropOp33
 70
     1
102
RTVSPost2010Prop34
280
     0
102
RTVSPost2010PropOp34
 70
     1
102
RTVSPost2010Prop35
280
     0
102
RTVSPost2010PropOp35
 70
     1
102
RTVSPost2010Prop36
280
     0
102
RTVSPost2010PropOp36
 70
     1
102
RTVSPost2010Prop37
 90
       50
102
RTVSPost2010PropOp37
 70
     1
102
RTVSPost2010Prop38
140
0.0
102
RTVSPost2010PropOp38
 70
     1
102
RTVSPost2010Prop39
140
1.0
102
RTVSPost2010PropOp39
 70
     1
102
RTVSPost2010Prop40
 90
        0
102
RTVSPost2010PropOp40
 70
     1
102
RTVSPost2010Prop41ColorIndex
 90
       18
102
RTVSPost2010Prop41ColorRGB
 90
        0
102
RTVSPost2010PropOp41
 70
     1
102
RTVSPost2010Prop42
 90
       50
102
RTVSPost2010PropOp42
 70
     1
102
RTVSPost2010Prop43
 90
        3
102
RTVSPost2010PropOp43
 70
     1
102
RTVSPost2010Prop44ColorIndex
 90
        5
102
RTVSPost2010Prop44ColorRGB
 90
      255
102
RTVSPost2010PropOp44
 70
     1
102
RTVSPost2010Prop45
280
     0
102
RTVSPost2010PropOp45
 70
     1
102
RTVSPost2010Prop46
 90
       50
102
RTVSPost2010PropOp46
 70
     1
102
RTVSPost2010Prop47
 90
       50
102
RTVSPost2010PropOp47
 70
     1
102
RTVSPost2010Prop48
 90
       50
102
RTVSPost2010PropOp48
 70
     1
102
RTVSPost2010Prop49
280
     0
102
RTVSPost2010PropOp49
 70
     1
102
RTVSPost2010Prop50
 90
       50
102
RTVSPost2010PropOp50
 70
     1
102
RTVSPost2010Prop51ColorIndex
 90
      256
102
RTVSPost2010Prop51ColorRGB
 90
-16777216
102
RTVSPost2010PropOp51
 70
     0
102
RTVSPost2010Prop52
140
1.0
102
RTVSPost2010PropOp52
 70
     0
102
RTVSPost2010Prop53
 90
        2
102
RTVSPost2010PropOp53
 70
     1
102
RTVSPost2010Prop54
  1
strokes_ogs.tif
102
RTVSPost2010PropOp54
 70
     1
102
RTVSPost2010Prop55
280
     0
102
RTVSPost2010PropOp55
 70
     1
102
RTVSPost2010Prop56
140
1.0
102
RTVSPost2010PropOp56
 70
     1
102
RTVSPost2010Prop57
140
1.0
102
RTVSPost2010PropOp57
 70
     1
  0
XRECORD
  5
2D8
102
{ACAD_REACTORS
330
2D7
102
}
330
2D7
100
AcDbXrecord
280
     1
102
RTVSPost2010Prop28
280
     0
102
RTVSPost2010PropOp28
 70
     1
102
RTVSPost2010Prop29
280
     1
102
RTVSPost2010PropOp29
 70
     1
102
RTVSPost2010Prop30
280
     1
102
RTVSPost2010PropOp30
 70
     1
102
RTVSPost2010Prop31
280
     0
102
RTVSPost2010PropOp31
 70
     1
102
RTVSPost2010Prop32
280
     0
102
RTVSPost2010PropOp32
 70
     1
102
RTVSPost2010Prop33
280
     0
102
RTVSPost2010PropOp33
 70
     1
102
RTVSPost2010Prop34
280
     0
102
RTVSPost2010PropOp34
 70
     1
102
RTVSPost2010Prop35
280
     0
102
RTVSPost2010PropOp35
 70
     1
102
RTVSPost2010Prop36
280
     0
102
RTVSPost2010PropOp36
 70
     1
102
RTVSPost2010Prop37
 90
       50
102
RTVSPost2010PropOp37
 70
     1
102
RTVSPost2010Prop38
140
0.0
102
RTVSPost2010PropOp38
 70
     1
102
RTVSPost2010Prop39
140
1.0
102
RTVSPost2010PropOp39
 70
     1
102
RTVSPost2010Prop40
 90
        0
102
RTVSPost2010PropOp40
 70
     1
102
RTVSPost2010Prop41ColorIndex
 90
       18
102
RTVSPost2010Prop41ColorRGB
 90
        0
102
RTVSPost2010PropOp41
 70
     1
102
RTVSPost2010Prop42
 90
       50
102
RTVSPost2010PropOp42
 70
     1
102
RTVSPost2010Prop43
 90
        3
102
RTVSPost2010PropOp43
 70
     1
102
RTVSPost2010Prop44ColorIndex
 90
        5
102
RTVSPost2010Prop44ColorRGB
 90
      255
102
RTVSPost2010PropOp44
 70
     1
102
RTVSPost2010Prop45
280
     0
102
RTVSPost2010PropOp45
 70
     1
102
RTVSPost2010Prop46
 90
       50
102
RTVSPost2010PropOp46
 70
     1
102
RTVSPost2010Prop47
 90
       50
102
RTVSPost2010PropOp47
 70
     1
102
RTVSPost2010Prop48
 90
       50
102
RTVSPost2010PropOp48
 70
     1
102
RTVSPost2010Prop49
280
     0
102
RTVSPost2010PropOp49
 70
     1
102
RTVSPost2010Prop50
 90
       50
102
RTVSPost2010PropOp50
 70
     1
102
RTVSPost2010Prop51ColorIndex
 90
      256
102
RTVSPost2010Prop51ColorRGB
 90
-16777216
102
RTVSPost2010PropOp51
 70
     0
102
RTVSPost2010Prop52
140
1.0
102
RTVSPost2010PropOp52
 70
     0
102
RTVSPost2010Prop53
 90
        2
102
RTVSPost2010PropOp53
 70
     1
102
RTVSPost2010Prop54
  1
strokes_ogs.tif
102
RTVSPost2010PropOp54
 70
     1
102
RTVSPost2010Prop55
280
     0
102
RTVSPost2010PropOp55
 70
     1
102
RTVSPost2010Prop56
140
1.0
102
RTVSPost2010PropOp56
 70
     1
102
RTVSPost2010Prop57
140
1.0
102
RTVSPost2010PropOp57
 70
     1
  0
XRECORD
  5
2E0
102
{ACAD_REACTORS
330
2DF
102
}
330
2DF
100
AcDbXrecord
280
     1
102
RTVSPost2010Prop28
280
     0
102
RTVSPost2010PropOp28
 70
     1
102
RTVSPost2010Prop29
280
     1
102
RTVSPost2010PropOp29
 70
     1
102
RTVSPost2010Prop30
280
     1
102
RTVSPost2010PropOp30
 70
     1
102
RTVSPost2010Prop31
280
     0
102
RTVSPost2010PropOp31
 70
     1
102
RTVSPost2010Prop32
280
     0
102
RTVSPost2010PropOp32
 70
     1
102
RTVSPost2010Prop33
280
     0
102
RTVSPost2010PropOp33
 70
     1
102
RTVSPost2010Prop34
280
     0
102
RTVSPost2010PropOp34
 70
     1
102
RTVSPost2010Prop35
280
     0
102
RTVSPost2010PropOp35
 70
     1
102
RTVSPost2010Prop36
280
     0
102
RTVSPost2010PropOp36
 70
     1
102
RTVSPost2010Prop37
 90
       50
102
RTVSPost2010PropOp37
 70
     1
102
RTVSPost2010Prop38
140
0.0
102
RTVSPost2010PropOp38
 70
     1
102
RTVSPost2010Prop39
140
1.0
102
RTVSPost2010PropOp39
 70
     1
102
RTVSPost2010Prop40
 90
        0
102
RTVSPost2010PropOp40
 70
     1
102
RTVSPost2010Prop41ColorIndex
 90
       18
102
RTVSPost2010Prop41ColorRGB
 90
        0
102
RTVSPost2010PropOp41
 70
     1
102
RTVSPost2010Prop42
 90
       50
102
RTVSPost2010PropOp42
 70
     1
102
RTVSPost2010Prop43
 90
        3
102
RTVSPost2010PropOp43
 70
     1
102
RTVSPost2010Prop44ColorIndex
 90
        5
102
RTVSPost2010Prop44ColorRGB
 90
      255
102
RTVSPost2010PropOp44
 70
     1
102
RTVSPost2010Prop45
280
     0
102
RTVSPost2010PropOp45
 70
     1
102
RTVSPost2010Prop46
 90
       50
102
RTVSPost2010PropOp46
 70
     1
102
RTVSPost2010Prop47
 90
       50
102
RTVSPost2010PropOp47
 70
     1
102
RTVSPost2010Prop48
 90
       50
102
RTVSPost2010PropOp48
 70
     1
102
RTVSPost2010Prop49
280
     0
102
RTVSPost2010PropOp49
 70
     1
102
RTVSPost2010Prop50
 90
       50
102
RTVSPost2010PropOp50
 70
     1
102
RTVSPost2010Prop51ColorIndex
 90
      256
102
RTVSPost2010Prop51ColorRGB
 90
-16777216
102
RTVSPost2010PropOp51
 70
     0
102
RTVSPost2010Prop52
140
1.0
102
RTVSPost2010PropOp52
 70
     0
102
RTVSPost2010Prop53
 90
        2
102
RTVSPost2010PropOp53
 70
     1
102
RTVSPost2010Prop54
  1
strokes_ogs.tif
102
RTVSPost2010PropOp54
 70
     1
102
RTVSPost2010Prop55
280
     0
102
RTVSPost2010PropOp55
 70
     1
102
RTVSPost2010Prop56
140
1.0
102
RTVSPost2010PropOp56
 70
     1
102
RTVSPost2010Prop57
140
1.0
102
RTVSPost2010PropOp57
 70
     1
  0
XRECORD
  5
2D4
102
{ACAD_REACTORS
330
2D3
102
}
330
2D3
100
AcDbXrecord
280
     1
102
RTVSPost2010Prop28
280
     0
102
RTVSPost2010PropOp28
 70
     1
102
RTVSPost2010Prop29
280
     1
102
RTVSPost2010PropOp29
 70
     1
102
RTVSPost2010Prop30
280
     1
102
RTVSPost2010PropOp30
 70
     1
102
RTVSPost2010Prop31
280
     0
102
RTVSPost2010PropOp31
 70
     1
102
RTVSPost2010Prop32
280
     0
102
RTVSPost2010PropOp32
 70
     1
102
RTVSPost2010Prop33
280
     0
102
RTVSPost2010PropOp33
 70
     1
102
RTVSPost2010Prop34
280
     0
102
RTVSPost2010PropOp34
 70
     1
102
RTVSPost2010Prop35
280
     0
102
RTVSPost2010PropOp35
 70
     1
102
RTVSPost2010Prop36
280
     0
102
RTVSPost2010PropOp36
 70
     1
102
RTVSPost2010Prop37
 90
       50
102
RTVSPost2010PropOp37
 70
     1
102
RTVSPost2010Prop38
140
0.0
102
RTVSPost2010PropOp38
 70
     1
102
RTVSPost2010Prop39
140
1.0
102
RTVSPost2010PropOp39
 70
     1
102
RTVSPost2010Prop40
 90
        0
102
RTVSPost2010PropOp40
 70
     1
102
RTVSPost2010Prop41ColorIndex
 90
       18
102
RTVSPost2010Prop41ColorRGB
 90
        0
102
RTVSPost2010PropOp41
 70
     1
102
RTVSPost2010Prop42
 90
       50
102
RTVSPost2010PropOp42
 70
     1
102
RTVSPost2010Prop43
 90
        3
102
RTVSPost2010PropOp43
 70
     1
102
RTVSPost2010Prop44ColorIndex
 90
        5
102
RTVSPost2010Prop44ColorRGB
 90
      255
102
RTVSPost2010PropOp44
 70
     1
102
RTVSPost2010Prop45
280
     0
102
RTVSPost2010PropOp45
 70
     1
102
RTVSPost2010Prop46
 90
       50
102
RTVSPost2010PropOp46
 70
     1
102
RTVSPost2010Prop47
 90
       50
102
RTVSPost2010PropOp47
 70
     1
102
RTVSPost2010Prop48
 90
       50
102
RTVSPost2010PropOp48
 70
     1
102
RTVSPost2010Prop49
280
     0
102
RTVSPost2010PropOp49
 70
     1
102
RTVSPost2010Prop50
 90
       50
102
RTVSPost2010PropOp50
 70
     1
102
RTVSPost2010Prop51ColorIndex
 90
      256
102
RTVSPost2010Prop51ColorRGB
 90
-16777216
102
RTVSPost2010PropOp51
 70
     0
102
RTVSPost2010Prop52
140
1.0
102
RTVSPost2010PropOp52
 70
     0
102
RTVSPost2010Prop53
 90
        2
102
RTVSPost2010PropOp53
 70
     1
102
RTVSPost2010Prop54
  1
strokes_ogs.tif
102
RTVSPost2010PropOp54
 70
     1
102
RTVSPost2010Prop55
280
     0
102
RTVSPost2010PropOp55
 70
     1
102
RTVSPost2010Prop56
140
1.0
102
RTVSPost2010PropOp56
 70
     1
102
RTVSPost2010Prop57
140
1.0
102
RTVSPost2010PropOp57
 70
     1
  0
XRECORD
  5
2D6
102
{ACAD_REACTORS
330
2D5
102
}
330
2D5
100
AcDbXrecord
280
     1
102
RTVSPost2010Prop28
280
     0
102
RTVSPost2010PropOp28
 70
     1
102
RTVSPost2010Prop29
280
     1
102
RTVSPost2010PropOp29
 70
     1
102
RTVSPost2010Prop30
280
     1
102
RTVSPost2010PropOp30
 70
     1
102
RTVSPost2010Prop31
280
     0
102
RTVSPost2010PropOp31
 70
     1
102
RTVSPost2010Prop32
280
     0
102
RTVSPost2010PropOp32
 70
     1
102
RTVSPost2010Prop33
280
     0
102
RTVSPost2010PropOp33
 70
     1
102
RTVSPost2010Prop34
280
     0
102
RTVSPost2010PropOp34
 70
     1
102
RTVSPost2010Prop35
280
     0
102
RTVSPost2010PropOp35
 70
     1
102
RTVSPost2010Prop36
280
     0
102
RTVSPost2010PropOp36
 70
     1
102
RTVSPost2010Prop37
 90
       50
102
RTVSPost2010PropOp37
 70
     1
102
RTVSPost2010Prop38
140
0.0
102
RTVSPost2010PropOp38
 70
     1
102
RTVSPost2010Prop39
140
1.0
102
RTVSPost2010PropOp39
 70
     1
102
RTVSPost2010Prop40
 90
        0
102
RTVSPost2010PropOp40
 70
     1
102
RTVSPost2010Prop41ColorIndex
 90
       18
102
RTVSPost2010Prop41ColorRGB
 90
        0
102
RTVSPost2010PropOp41
 70
     1
102
RTVSPost2010Prop42
 90
       50
102
RTVSPost2010PropOp42
 70
     1
102
RTVSPost2010Prop43
 90
        3
102
RTVSPost2010PropOp43
 70
     1
102
RTVSPost2010Prop44ColorIndex
 90
        5
102
RTVSPost2010Prop44ColorRGB
 90
      255
102
RTVSPost2010PropOp44
 70
     1
102
RTVSPost2010Prop45
280
     0
102
RTVSPost2010PropOp45
 70
     1
102
RTVSPost2010Prop46
 90
       50
102
RTVSPost2010PropOp46
 70
     1
102
RTVSPost2010Prop47
 90
       50
102
RTVSPost2010PropOp47
 70
     1
102
RTVSPost2010Prop48
 90
       50
102
RTVSPost2010PropOp48
 70
     1
102
RTVSPost2010Prop49
280
     0
102
RTVSPost2010PropOp49
 70
     1
102
RTVSPost2010Prop50
 90
       50
102
RTVSPost2010PropOp50
 70
     1
102
RTVSPost2010Prop51ColorIndex
 90
      256
102
RTVSPost2010Prop51ColorRGB
 90
-16777216
102
RTVSPost2010PropOp51
 70
     0
102
RTVSPost2010Prop52
140
1.0
102
RTVSPost2010PropOp52
 70
     0
102
RTVSPost2010Prop53
 90
        2
102
RTVSPost2010PropOp53
 70
     1
102
RTVSPost2010Prop54
  1
strokes_ogs.tif
102
RTVSPost2010PropOp54
 70
     1
102
RTVSPost2010Prop55
280
     0
102
RTVSPost2010PropOp55
 70
     1
102
RTVSPost2010Prop56
140
1.0
102
RTVSPost2010PropOp56
 70
     1
102
RTVSPost2010Prop57
140
1.0
102
RTVSPost2010PropOp57
 70
     1
  0
XRECORD
  5
2E6
102
{ACAD_REACTORS
330
2E5
102
}
330
2E5
100
AcDbXrecord
280
     1
102
RTVSPost2010Prop28
280
     0
102
RTVSPost2010PropOp28
 70
     0
102
RTVSPost2010Prop29
280
     1
102
RTVSPost2010PropOp29
 70
     0
102
RTVSPost2010Prop30
280
     1
102
RTVSPost2010PropOp30
 70
     0
102
RTVSPost2010Prop31
280
     0
102
RTVSPost2010PropOp31
 70
     0
102
RTVSPost2010Prop32
280
     0
102
RTVSPost2010PropOp32
 70
     0
102
RTVSPost2010Prop33
280
     0
102
RTVSPost2010PropOp33
 70
     0
102
RTVSPost2010Prop34
280
     0
102
RTVSPost2010PropOp34
 70
     0
102
RTVSPost2010Prop35
280
     0
102
RTVSPost2010PropOp35
 70
     0
102
RTVSPost2010Prop36
280
     0
102
RTVSPost2010PropOp36
 70
     0
102
RTVSPost2010Prop37
 90
       50
102
RTVSPost2010PropOp37
 70
     0
102
RTVSPost2010Prop38
140
0.0
102
RTVSPost2010PropOp38
 70
     0
102
RTVSPost2010Prop39
140
1.0
102
RTVSPost2010PropOp39
 70
     0
102
RTVSPost2010Prop40
 90
        0
102
RTVSPost2010PropOp40
 70
     0
102
RTVSPost2010Prop41ColorIndex
 90
       18
102
RTVSPost2010Prop41ColorRGB
 90
        0
102
RTVSPost2010PropOp41
 70
     0
102
RTVSPost2010Prop42
 90
       50
102
RTVSPost2010PropOp42
 70
     0
102
RTVSPost2010Prop43
 90
        3
102
RTVSPost2010PropOp43
 70
     0
102
RTVSPost2010Prop44ColorIndex
 90
        5
102
RTVSPost2010Prop44ColorRGB
 90
      255
102
RTVSPost2010PropOp44
 70
     0
102
RTVSPost2010Prop45
280
     0
102
RTVSPost2010PropOp45
 70
     0
102
RTVSPost2010Prop46
 90
       50
102
RTVSPost2010PropOp46
 70
     0
102
RTVSPost2010Prop47
 90
       50
102
RTVSPost2010PropOp47
 70
     0
102
RTVSPost2010Prop48
 90
       50
102
RTVSPost2010PropOp48
 70
     0
102
RTVSPost2010Prop49
280
     0
102
RTVSPost2010PropOp49
 70
     0
102
RTVSPost2010Prop50
 90
       50
102
RTVSPost2010PropOp50
 70
     0
102
RTVSPost2010Prop51ColorIndex
 90
      256
102
RTVSPost2010Prop51ColorRGB
 90
-16777216
102
RTVSPost2010PropOp51
 70
     0
102
RTVSPost2010Prop52
140
1.0
102
RTVSPost2010PropOp52
 70
     0
102
RTVSPost2010Prop53
 90
        2
102
RTVSPost2010PropOp53
 70
     0
102
RTVSPost2010Prop54
  1
strokes_ogs.tif
102
RTVSPost2010PropOp54
 70
     0
102
RTVSPost2010Prop55
280
     0
102
RTVSPost2010PropOp55
 70
     0
102
RTVSPost2010Prop56
140
1.0
102
RTVSPost2010PropOp56
 70
     0
102
RTVSPost2010Prop57
140
1.0
102
RTVSPost2010PropOp57
 70
     0
  0
XRECORD
  5
2DE
102
{ACAD_REACTORS
330
2DD
102
}
330
2DD
100
AcDbXrecord
280
     1
102
RTVSPost2010Prop28
280
     0
102
RTVSPost2010PropOp28
 70
     1
102
RTVSPost2010Prop29
280
     1
102
RTVSPost2010PropOp29
 70
     1
102
RTVSPost2010Prop30
280
     1
102
RTVSPost2010PropOp30
 70
     1
102
RTVSPost2010Prop31
280
     0
102
RTVSPost2010PropOp31
 70
     1
102
RTVSPost2010Prop32
280
     0
102
RTVSPost2010PropOp32
 70
     1
102
RTVSPost2010Prop33
280
     0
102
RTVSPost2010PropOp33
 70
     1
102
RTVSPost2010Prop34
280
     0
102
RTVSPost2010PropOp34
 70
     1
102
RTVSPost2010Prop35
280
     0
102
RTVSPost2010PropOp35
 70
     1
102
RTVSPost2010Prop36
280
     0
102
RTVSPost2010PropOp36
 70
     1
102
RTVSPost2010Prop37
 90
       50
102
RTVSPost2010PropOp37
 70
     1
102
RTVSPost2010Prop38
140
0.0
102
RTVSPost2010PropOp38
 70
     1
102
RTVSPost2010Prop39
140
1.0
102
RTVSPost2010PropOp39
 70
     1
102
RTVSPost2010Prop40
 90
        0
102
RTVSPost2010PropOp40
 70
     1
102
RTVSPost2010Prop41ColorIndex
 90
       18
102
RTVSPost2010Prop41ColorRGB
 90
        0
102
RTVSPost2010PropOp41
 70
     1
102
RTVSPost2010Prop42
 90
       50
102
RTVSPost2010PropOp42
 70
     1
102
RTVSPost2010Prop43
 90
        3
102
RTVSPost2010PropOp43
 70
     1
102
RTVSPost2010Prop44ColorIndex
 90
        5
102
RTVSPost2010Prop44ColorRGB
 90
      255
102
RTVSPost2010PropOp44
 70
     1
102
RTVSPost2010Prop45
280
     0
102
RTVSPost2010PropOp45
 70
     1
102
RTVSPost2010Prop46
 90
       50
102
RTVSPost2010PropOp46
 70
     1
102
RTVSPost2010Prop47
 90
       50
102
RTVSPost2010PropOp47
 70
     1
102
RTVSPost2010Prop48
 90
       50
102
RTVSPost2010PropOp48
 70
     1
102
RTVSPost2010Prop49
280
     0
102
RTVSPost2010PropOp49
 70
     1
102
RTVSPost2010Prop50
 90
       50
102
RTVSPost2010PropOp50
 70
     1
102
RTVSPost2010Prop51ColorIndex
 90
      256
102
RTVSPost2010Prop51ColorRGB
 90
-16777216
102
RTVSPost2010PropOp51
 70
     0
102
RTVSPost2010Prop52
140
1.0
102
RTVSPost2010PropOp52
 70
     0
102
RTVSPost2010Prop53
 90
        2
102
RTVSPost2010PropOp53
 70
     1
102
RTVSPost2010Prop54
  1
strokes_ogs.tif
102
RTVSPost2010PropOp54
 70
     1
102
RTVSPost2010Prop55
280
     0
102
RTVSPost2010PropOp55
 70
     1
102
RTVSPost2010Prop56
140
1.0
102
RTVSPost2010PropOp56
 70
     1
102
RTVSPost2010Prop57
140
1.0
102
RTVSPost2010PropOp57
 70
     1
  0
XRECORD
  5
2C2
102
{ACAD_REACTORS
330
2C1
102
}
330
2C1
100
AcDbXrecord
280
     1
102
RTVSPost2010Prop28
280
     0
102
RTVSPost2010PropOp28
 70
     1
102
RTVSPost2010Prop29
280
     1
102
RTVSPost2010PropOp29
 70
     1
102
RTVSPost2010Prop30
280
     1
102
RTVSPost2010PropOp30
 70
     1
102
RTVSPost2010Prop31
280
     0
102
RTVSPost2010PropOp31
 70
     1
102
RTVSPost2010Prop32
280
     0
102
RTVSPost2010PropOp32
 70
     1
102
RTVSPost2010Prop33
280
     0
102
RTVSPost2010PropOp33
 70
     1
102
RTVSPost2010Prop34
280
     0
102
RTVSPost2010PropOp34
 70
     1
102
RTVSPost2010Prop35
280
     0
102
RTVSPost2010PropOp35
 70
     1
102
RTVSPost2010Prop36
280
     0
102
RTVSPost2010PropOp36
 70
     1
102
RTVSPost2010Prop37
 90
       50
102
RTVSPost2010PropOp37
 70
     1
102
RTVSPost2010Prop38
140
0.0
102
RTVSPost2010PropOp38
 70
     1
102
RTVSPost2010Prop39
140
1.0
102
RTVSPost2010PropOp39
 70
     1
102
RTVSPost2010Prop40
 90
        0
102
RTVSPost2010PropOp40
 70
     1
102
RTVSPost2010Prop41ColorIndex
 90
       18
102
RTVSPost2010Prop41ColorRGB
 90
        0
102
RTVSPost2010PropOp41
 70
     1
102
RTVSPost2010Prop42
 90
       50
102
RTVSPost2010PropOp42
 70
     1
102
RTVSPost2010Prop43
 90
        3
102
RTVSPost2010PropOp43
 70
     1
102
RTVSPost2010Prop44ColorIndex
 90
        5
102
RTVSPost2010Prop44ColorRGB
 90
      255
102
RTVSPost2010PropOp44
 70
     1
102
RTVSPost2010Prop45
280
     0
102
RTVSPost2010PropOp45
 70
     1
102
RTVSPost2010Prop46
 90
       50
102
RTVSPost2010PropOp46
 70
     1
102
RTVSPost2010Prop47
 90
       50
102
RTVSPost2010PropOp47
 70
     1
102
RTVSPost2010Prop48
 90
       50
102
RTVSPost2010PropOp48
 70
     1
102
RTVSPost2010Prop49
280
     0
102
RTVSPost2010PropOp49
 70
     1
102
RTVSPost2010Prop50
 90
       50
102
RTVSPost2010PropOp50
 70
     1
102
RTVSPost2010Prop51ColorIndex
 90
      256
102
RTVSPost2010Prop51ColorRGB
 90
-16777216
102
RTVSPost2010PropOp51
 70
     0
102
RTVSPost2010Prop52
140
1.0
102
RTVSPost2010PropOp52
 70
     0
102
RTVSPost2010Prop53
 90
        2
102
RTVSPost2010PropOp53
 70
     1
102
RTVSPost2010Prop54
  1
strokes_ogs.tif
102
RTVSPost2010PropOp54
 70
     1
102
RTVSPost2010Prop55
280
     0
102
RTVSPost2010PropOp55
 70
     1
102
RTVSPost2010Prop56
140
1.0
102
RTVSPost2010PropOp56
 70
     1
102
RTVSPost2010Prop57
140
1.0
102
RTVSPost2010PropOp57
 70
     1
  0
XRECORD
  5
2C4
102
{ACAD_REACTORS
330
2C3
102
}
330
2C3
100
AcDbXrecord
280
     1
102
RTVSPost2010Prop28
280
     0
102
RTVSPost2010PropOp28
 70
     1
102
RTVSPost2010Prop29
280
     1
102
RTVSPost2010PropOp29
 70
     1
102
RTVSPost2010Prop30
280
     1
102
RTVSPost2010PropOp30
 70
     1
102
RTVSPost2010Prop31
280
     0
102
RTVSPost2010PropOp31
 70
     1
102
RTVSPost2010Prop32
280
     0
102
RTVSPost2010PropOp32
 70
     1
102
RTVSPost2010Prop33
280
     0
102
RTVSPost2010PropOp33
 70
     1
102
RTVSPost2010Prop34
280
     0
102
RTVSPost2010PropOp34
 70
     1
102
RTVSPost2010Prop35
280
     0
102
RTVSPost2010PropOp35
 70
     1
102
RTVSPost2010Prop36
280
     0
102
RTVSPost2010PropOp36
 70
     1
102
RTVSPost2010Prop37
 90
       50
102
RTVSPost2010PropOp37
 70
     1
102
RTVSPost2010Prop38
140
0.0
102
RTVSPost2010PropOp38
 70
     1
102
RTVSPost2010Prop39
140
1.0
102
RTVSPost2010PropOp39
 70
     1
102
RTVSPost2010Prop40
 90
        0
102
RTVSPost2010PropOp40
 70
     1
102
RTVSPost2010Prop41ColorIndex
 90
       18
102
RTVSPost2010Prop41ColorRGB
 90
        0
102
RTVSPost2010PropOp41
 70
     1
102
RTVSPost2010Prop42
 90
       50
102
RTVSPost2010PropOp42
 70
     1
102
RTVSPost2010Prop43
 90
        3
102
RTVSPost2010PropOp43
 70
     1
102
RTVSPost2010Prop44ColorIndex
 90
        5
102
RTVSPost2010Prop44ColorRGB
 90
      255
102
RTVSPost2010PropOp44
 70
     1
102
RTVSPost2010Prop45
280
     0
102
RTVSPost2010PropOp45
 70
     1
102
RTVSPost2010Prop46
 90
       50
102
RTVSPost2010PropOp46
 70
     1
102
RTVSPost2010Prop47
 90
       50
102
RTVSPost2010PropOp47
 70
     1
102
RTVSPost2010Prop48
 90
       50
102
RTVSPost2010PropOp48
 70
     1
102
RTVSPost2010Prop49
280
     0
102
RTVSPost2010PropOp49
 70
     1
102
RTVSPost2010Prop50
 90
       50
102
RTVSPost2010PropOp50
 70
     1
102
RTVSPost2010Prop51ColorIndex
 90
      256
102
RTVSPost2010Prop51ColorRGB
 90
-16777216
102
RTVSPost2010PropOp51
 70
     0
102
RTVSPost2010Prop52
140
1.0
102
RTVSPost2010PropOp52
 70
     0
102
RTVSPost2010Prop53
 90
        2
102
RTVSPost2010PropOp53
 70
     1
102
RTVSPost2010Prop54
  1
strokes_ogs.tif
102
RTVSPost2010PropOp54
 70
     1
102
RTVSPost2010Prop55
280
     0
102
RTVSPost2010PropOp55
 70
     1
102
RTVSPost2010Prop56
140
1.0
102
RTVSPost2010PropOp56
 70
     1
102
RTVSPost2010Prop57
140
1.0
102
RTVSPost2010PropOp57
 70
     1
  0
XRECORD
  5
2C6
102
{ACAD_REACTORS
330
2C5
102
}
330
2C5
100
AcDbXrecord
280
     1
102
RTVSPost2010Prop28
280
     0
102
RTVSPost2010PropOp28
 70
     1
102
RTVSPost2010Prop29
280
     1
102
RTVSPost2010PropOp29
 70
     1
102
RTVSPost2010Prop30
280
     1
102
RTVSPost2010PropOp30
 70
     1
102
RTVSPost2010Prop31
280
     0
102
RTVSPost2010PropOp31
 70
     1
102
RTVSPost2010Prop32
280
     0
102
RTVSPost2010PropOp32
 70
     1
102
RTVSPost2010Prop33
280
     0
102
RTVSPost2010PropOp33
 70
     1
102
RTVSPost2010Prop34
280
     0
102
RTVSPost2010PropOp34
 70
     1
102
RTVSPost2010Prop35
280
     0
102
RTVSPost2010PropOp35
 70
     1
102
RTVSPost2010Prop36
280
     0
102
RTVSPost2010PropOp36
 70
     1
102
RTVSPost2010Prop37
 90
       50
102
RTVSPost2010PropOp37
 70
     1
102
RTVSPost2010Prop38
140
0.0
102
RTVSPost2010PropOp38
 70
     1
102
RTVSPost2010Prop39
140
1.0
102
RTVSPost2010PropOp39
 70
     1
102
RTVSPost2010Prop40
 90
        0
102
RTVSPost2010PropOp40
 70
     1
102
RTVSPost2010Prop41ColorIndex
 90
       18
102
RTVSPost2010Prop41ColorRGB
 90
        0
102
RTVSPost2010PropOp41
 70
     1
102
RTVSPost2010Prop42
 90
       50
102
RTVSPost2010PropOp42
 70
     1
102
RTVSPost2010Prop43
 90
        3
102
RTVSPost2010PropOp43
 70
     1
102
RTVSPost2010Prop44ColorIndex
 90
        5
102
RTVSPost2010Prop44ColorRGB
 90
      255
102
RTVSPost2010PropOp44
 70
     1
102
RTVSPost2010Prop45
280
     0
102
RTVSPost2010PropOp45
 70
     1
102
RTVSPost2010Prop46
 90
       50
102
RTVSPost2010PropOp46
 70
     1
102
RTVSPost2010Prop47
 90
       50
102
RTVSPost2010PropOp47
 70
     1
102
RTVSPost2010Prop48
 90
       50
102
RTVSPost2010PropOp48
 70
     1
102
RTVSPost2010Prop49
280
     0
102
RTVSPost2010PropOp49
 70
     1
102
RTVSPost2010Prop50
 90
       50
102
RTVSPost2010PropOp50
 70
     1
102
RTVSPost2010Prop51ColorIndex
 90
      256
102
RTVSPost2010Prop51ColorRGB
 90
-16777216
102
RTVSPost2010PropOp51
 70
     0
102
RTVSPost2010Prop52
140
1.0
102
RTVSPost2010PropOp52
 70
     0
102
RTVSPost2010Prop53
 90
        2
102
RTVSPost2010PropOp53
 70
     1
102
RTVSPost2010Prop54
  1
strokes_ogs.tif
102
RTVSPost2010PropOp54
 70
     1
102
RTVSPost2010Prop55
280
     0
102
RTVSPost2010PropOp55
 70
     1
102
RTVSPost2010Prop56
140
1.0
102
RTVSPost2010PropOp56
 70
     1
102
RTVSPost2010Prop57
140
1.0
102
RTVSPost2010PropOp57
 70
     1
  0
XRECORD
  5
2C8
102
{ACAD_REACTORS
330
2C7
102
}
330
2C7
100
AcDbXrecord
280
     1
102
RTVSPost2010Prop28
280
     0
102
RTVSPost2010PropOp28
 70
     1
102
RTVSPost2010Prop29
280
     1
102
RTVSPost2010PropOp29
 70
     1
102
RTVSPost2010Prop30
280
     1
102
RTVSPost2010PropOp30
 70
     1
102
RTVSPost2010Prop31
280
     0
102
RTVSPost2010PropOp31
 70
     1
102
RTVSPost2010Prop32
280
     0
102
RTVSPost2010PropOp32
 70
     1
102
RTVSPost2010Prop33
280
     0
102
RTVSPost2010PropOp33
 70
     1
102
RTVSPost2010Prop34
280
     0
102
RTVSPost2010PropOp34
 70
     1
102
RTVSPost2010Prop35
280
     0
102
RTVSPost2010PropOp35
 70
     1
102
RTVSPost2010Prop36
280
     0
102
RTVSPost2010PropOp36
 70
     1
102
RTVSPost2010Prop37
 90
       50
102
RTVSPost2010PropOp37
 70
     1
102
RTVSPost2010Prop38
140
0.0
102
RTVSPost2010PropOp38
 70
     1
102
RTVSPost2010Prop39
140
1.0
102
RTVSPost2010PropOp39
 70
     1
102
RTVSPost2010Prop40
 90
        0
102
RTVSPost2010PropOp40
 70
     1
102
RTVSPost2010Prop41ColorIndex
 90
       18
102
RTVSPost2010Prop41ColorRGB
 90
        0
102
RTVSPost2010PropOp41
 70
     1
102
RTVSPost2010Prop42
 90
       50
102
RTVSPost2010PropOp42
 70
     1
102
RTVSPost2010Prop43
 90
        3
102
RTVSPost2010PropOp43
 70
     1
102
RTVSPost2010Prop44ColorIndex
 90
        5
102
RTVSPost2010Prop44ColorRGB
 90
      255
102
RTVSPost2010PropOp44
 70
     1
102
RTVSPost2010Prop45
280
     0
102
RTVSPost2010PropOp45
 70
     1
102
RTVSPost2010Prop46
 90
       50
102
RTVSPost2010PropOp46
 70
     1
102
RTVSPost2010Prop47
 90
       50
102
RTVSPost2010PropOp47
 70
     1
102
RTVSPost2010Prop48
 90
       50
102
RTVSPost2010PropOp48
 70
     1
102
RTVSPost2010Prop49
280
     0
102
RTVSPost2010PropOp49
 70
     1
102
RTVSPost2010Prop50
 90
       50
102
RTVSPost2010PropOp50
 70
     1
102
RTVSPost2010Prop51ColorIndex
 90
      256
102
RTVSPost2010Prop51ColorRGB
 90
-16777216
102
RTVSPost2010PropOp51
 70
     0
102
RTVSPost2010Prop52
140
1.0
102
RTVSPost2010PropOp52
 70
     0
102
RTVSPost2010Prop53
 90
        2
102
RTVSPost2010PropOp53
 70
     1
102
RTVSPost2010Prop54
  1
strokes_ogs.tif
102
RTVSPost2010PropOp54
 70
     1
102
RTVSPost2010Prop55
280
     0
102
RTVSPost2010PropOp55
 70
     1
102
RTVSPost2010Prop56
140
1.0
102
RTVSPost2010PropOp56
 70
     1
102
RTVSPost2010Prop57
140
1.0
102
RTVSPost2010PropOp57
 70
     1
  0
XRECORD
  5
2CE
102
{ACAD_REACTORS
330
2CD
102
}
330
2CD
100
AcDbXrecord
280
     1
102
RTVSPost2010Prop28
280
     0
102
RTVSPost2010PropOp28
 70
     1
102
RTVSPost2010Prop29
280
     1
102
RTVSPost2010PropOp29
 70
     1
102
RTVSPost2010Prop30
280
     1
102
RTVSPost2010PropOp30
 70
     1
102
RTVSPost2010Prop31
280
     0
102
RTVSPost2010PropOp31
 70
     1
102
RTVSPost2010Prop32
280
     0
102
RTVSPost2010PropOp32
 70
     1
102
RTVSPost2010Prop33
280
     0
102
RTVSPost2010PropOp33
 70
     1
102
RTVSPost2010Prop34
280
     0
102
RTVSPost2010PropOp34
 70
     1
102
RTVSPost2010Prop35
280
     0
102
RTVSPost2010PropOp35
 70
     1
102
RTVSPost2010Prop36
280
     0
102
RTVSPost2010PropOp36
 70
     1
102
RTVSPost2010Prop37
 90
       50
102
RTVSPost2010PropOp37
 70
     1
102
RTVSPost2010Prop38
140
0.0
102
RTVSPost2010PropOp38
 70
     1
102
RTVSPost2010Prop39
140
1.0
102
RTVSPost2010PropOp39
 70
     1
102
RTVSPost2010Prop40
 90
        0
102
RTVSPost2010PropOp40
 70
     1
102
RTVSPost2010Prop41ColorIndex
 90
       18
102
RTVSPost2010Prop41ColorRGB
 90
        0
102
RTVSPost2010PropOp41
 70
     1
102
RTVSPost2010Prop42
 90
       50
102
RTVSPost2010PropOp42
 70
     1
102
RTVSPost2010Prop43
 90
        3
102
RTVSPost2010PropOp43
 70
     1
102
RTVSPost2010Prop44ColorIndex
 90
        5
102
RTVSPost2010Prop44ColorRGB
 90
      255
102
RTVSPost2010PropOp44
 70
     1
102
RTVSPost2010Prop45
280
     0
102
RTVSPost2010PropOp45
 70
     1
102
RTVSPost2010Prop46
 90
       50
102
RTVSPost2010PropOp46
 70
     1
102
RTVSPost2010Prop47
 90
       50
102
RTVSPost2010PropOp47
 70
     1
102
RTVSPost2010Prop48
 90
       50
102
RTVSPost2010PropOp48
 70
     1
102
RTVSPost2010Prop49
280
     0
102
RTVSPost2010PropOp49
 70
     1
102
RTVSPost2010Prop50
 90
       50
102
RTVSPost2010PropOp50
 70
     1
102
RTVSPost2010Prop51ColorIndex
 90
      256
102
RTVSPost2010Prop51ColorRGB
 90
-16777216
102
RTVSPost2010PropOp51
 70
     0
102
RTVSPost2010Prop52
140
1.0
102
RTVSPost2010PropOp52
 70
     0
102
RTVSPost2010Prop53
 90
        2
102
RTVSPost2010PropOp53
 70
     1
102
RTVSPost2010Prop54
  1
strokes_ogs.tif
102
RTVSPost2010PropOp54
 70
     1
102
RTVSPost2010Prop55
280
     0
102
RTVSPost2010PropOp55
 70
     1
102
RTVSPost2010Prop56
140
1.0
102
RTVSPost2010PropOp56
 70
     1
102
RTVSPost2010Prop57
140
1.0
102
RTVSPost2010PropOp57
 70
     1
  0
XRECORD
  5
2E2
102
{ACAD_REACTORS
330
2E1
102
}
330
2E1
100
AcDbXrecord
280
     1
102
RTVSPost2010Prop28
280
     0
102
RTVSPost2010PropOp28
 70
     0
102
RTVSPost2010Prop29
280
     1
102
RTVSPost2010PropOp29
 70
     0
102
RTVSPost2010Prop30
280
     1
102
RTVSPost2010PropOp30
 70
     0
102
RTVSPost2010Prop31
280
     0
102
RTVSPost2010PropOp31
 70
     0
102
RTVSPost2010Prop32
280
     0
102
RTVSPost2010PropOp32
 70
     0
102
RTVSPost2010Prop33
280
     0
102
RTVSPost2010PropOp33
 70
     0
102
RTVSPost2010Prop34
280
     0
102
RTVSPost2010PropOp34
 70
     0
102
RTVSPost2010Prop35
280
     0
102
RTVSPost2010PropOp35
 70
     0
102
RTVSPost2010Prop36
280
     0
102
RTVSPost2010PropOp36
 70
     0
102
RTVSPost2010Prop37
 90
       50
102
RTVSPost2010PropOp37
 70
     0
102
RTVSPost2010Prop38
140
0.0
102
RTVSPost2010PropOp38
 70
     0
102
RTVSPost2010Prop39
140
1.0
102
RTVSPost2010PropOp39
 70
     0
102
RTVSPost2010Prop40
 90
        0
102
RTVSPost2010PropOp40
 70
     0
102
RTVSPost2010Prop41ColorIndex
 90
       18
102
RTVSPost2010Prop41ColorRGB
 90
        0
102
RTVSPost2010PropOp41
 70
     0
102
RTVSPost2010Prop42
 90
       50
102
RTVSPost2010PropOp42
 70
     0
102
RTVSPost2010Prop43
 90
        3
102
RTVSPost2010PropOp43
 70
     0
102
RTVSPost2010Prop44ColorIndex
 90
        5
102
RTVSPost2010Prop44ColorRGB
 90
      255
102
RTVSPost2010PropOp44
 70
     0
102
RTVSPost2010Prop45
280
     0
102
RTVSPost2010PropOp45
 70
     0
102
RTVSPost2010Prop46
 90
       50
102
RTVSPost2010PropOp46
 70
     0
102
RTVSPost2010Prop47
 90
       50
102
RTVSPost2010PropOp47
 70
     0
102
RTVSPost2010Prop48
 90
       50
102
RTVSPost2010PropOp48
 70
     0
102
RTVSPost2010Prop49
280
     0
102
RTVSPost2010PropOp49
 70
     0
102
RTVSPost2010Prop50
 90
       50
102
RTVSPost2010PropOp50
 70
     0
102
RTVSPost2010Prop51ColorIndex
 90
      256
102
RTVSPost2010Prop51ColorRGB
 90
-16777216
102
RTVSPost2010PropOp51
 70
     0
102
RTVSPost2010Prop52
140
1.0
102
RTVSPost2010PropOp52
 70
     0
102
RTVSPost2010Prop53
 90
        2
102
RTVSPost2010PropOp53
 70
     0
102
RTVSPost2010Prop54
  1
strokes_ogs.tif
102
RTVSPost2010PropOp54
 70
     0
102
RTVSPost2010Prop55
280
     0
102
RTVSPost2010PropOp55
 70
     0
102
RTVSPost2010Prop56
140
1.0
102
RTVSPost2010PropOp56
 70
     0
102
RTVSPost2010Prop57
140
1.0
102
RTVSPost2010PropOp57
 70
     0
  0
XRECORD
  5
2DC
102
{ACAD_REACTORS
330
2DB
102
}
330
2DB
100
AcDbXrecord
280
     1
102
RTVSPost2010Prop28
280
     0
102
RTVSPost2010PropOp28
 70
     1
102
RTVSPost2010Prop29
280
     1
102
RTVSPost2010PropOp29
 70
     1
102
RTVSPost2010Prop30
280
     1
102
RTVSPost2010PropOp30
 70
     1
102
RTVSPost2010Prop31
280
     0
102
RTVSPost2010PropOp31
 70
     1
102
RTVSPost2010Prop32
280
     0
102
RTVSPost2010PropOp32
 70
     1
102
RTVSPost2010Prop33
280
     0
102
RTVSPost2010PropOp33
 70
     1
102
RTVSPost2010Prop34
280
     0
102
RTVSPost2010PropOp34
 70
     1
102
RTVSPost2010Prop35
280
     0
102
RTVSPost2010PropOp35
 70
     1
102
RTVSPost2010Prop36
280
     0
102
RTVSPost2010PropOp36
 70
     1
102
RTVSPost2010Prop37
 90
       50
102
RTVSPost2010PropOp37
 70
     1
102
RTVSPost2010Prop38
140
0.0
102
RTVSPost2010PropOp38
 70
     1
102
RTVSPost2010Prop39
140
1.0
102
RTVSPost2010PropOp39
 70
     1
102
RTVSPost2010Prop40
 90
        0
102
RTVSPost2010PropOp40
 70
     1
102
RTVSPost2010Prop41ColorIndex
 90
       18
102
RTVSPost2010Prop41ColorRGB
 90
        0
102
RTVSPost2010PropOp41
 70
     1
102
RTVSPost2010Prop42
 90
       50
102
RTVSPost2010PropOp42
 70
     1
102
RTVSPost2010Prop43
 90
        3
102
RTVSPost2010PropOp43
 70
     1
102
RTVSPost2010Prop44ColorIndex
 90
        5
102
RTVSPost2010Prop44ColorRGB
 90
      255
102
RTVSPost2010PropOp44
 70
     1
102
RTVSPost2010Prop45
280
     0
102
RTVSPost2010PropOp45
 70
     1
102
RTVSPost2010Prop46
 90
       50
102
RTVSPost2010PropOp46
 70
     1
102
RTVSPost2010Prop47
 90
       50
102
RTVSPost2010PropOp47
 70
     1
102
RTVSPost2010Prop48
 90
       50
102
RTVSPost2010PropOp48
 70
     1
102
RTVSPost2010Prop49
280
     0
102
RTVSPost2010PropOp49
 70
     1
102
RTVSPost2010Prop50
 90
       50
102
RTVSPost2010PropOp50
 70
     1
102
RTVSPost2010Prop51ColorIndex
 90
      256
102
RTVSPost2010Prop51ColorRGB
 90
-16777216
102
RTVSPost2010PropOp51
 70
     0
102
RTVSPost2010Prop52
140
1.0
102
RTVSPost2010PropOp52
 70
     0
102
RTVSPost2010Prop53
 90
        2
102
RTVSPost2010PropOp53
 70
     1
102
RTVSPost2010Prop54
  1
strokes_ogs.tif
102
RTVSPost2010PropOp54
 70
     1
102
RTVSPost2010Prop55
280
     0
102
RTVSPost2010PropOp55
 70
     1
102
RTVSPost2010Prop56
140
1.0
102
RTVSPost2010PropOp56
 70
     1
102
RTVSPost2010Prop57
140
1.0
102
RTVSPost2010PropOp57
 70
     1
  0
XRECORD
  5
2E4
102
{ACAD_REACTORS
330
2E3
102
}
330
2E3
100
AcDbXrecord
280
     1
102
RTVSPost2010Prop28
280
     0
102
RTVSPost2010PropOp28
 70
     0
102
RTVSPost2010Prop29
280
     1
102
RTVSPost2010PropOp29
 70
     0
102
RTVSPost2010Prop30
280
     1
102
RTVSPost2010PropOp30
 70
     0
102
RTVSPost2010Prop31
280
     0
102
RTVSPost2010PropOp31
 70
     0
102
RTVSPost2010Prop32
280
     0
102
RTVSPost2010PropOp32
 70
     0
102
RTVSPost2010Prop33
280
     0
102
RTVSPost2010PropOp33
 70
     0
102
RTVSPost2010Prop34
280
     0
102
RTVSPost2010PropOp34
 70
     0
102
RTVSPost2010Prop35
280
     0
102
RTVSPost2010PropOp35
 70
     0
102
RTVSPost2010Prop36
280
     0
102
RTVSPost2010PropOp36
 70
     0
102
RTVSPost2010Prop37
 90
       50
102
RTVSPost2010PropOp37
 70
     0
102
RTVSPost2010Prop38
140
0.0
102
RTVSPost2010PropOp38
 70
     0
102
RTVSPost2010Prop39
140
1.0
102
RTVSPost2010PropOp39
 70
     0
102
RTVSPost2010Prop40
 90
        0
102
RTVSPost2010PropOp40
 70
     0
102
RTVSPost2010Prop41ColorIndex
 90
       18
102
RTVSPost2010Prop41ColorRGB
 90
        0
102
RTVSPost2010PropOp41
 70
     0
102
RTVSPost2010Prop42
 90
       50
102
RTVSPost2010PropOp42
 70
     0
102
RTVSPost2010Prop43
 90
        3
102
RTVSPost2010PropOp43
 70
     0
102
RTVSPost2010Prop44ColorIndex
 90
        5
102
RTVSPost2010Prop44ColorRGB
 90
      255
102
RTVSPost2010PropOp44
 70
     0
102
RTVSPost2010Prop45
280
     0
102
RTVSPost2010PropOp45
 70
     0
102
RTVSPost2010Prop46
 90
       50
102
RTVSPost2010PropOp46
 70
     0
102
RTVSPost2010Prop47
 90
       50
102
RTVSPost2010PropOp47
 70
     0
102
RTVSPost2010Prop48
 90
       50
102
RTVSPost2010PropOp48
 70
     0
102
RTVSPost2010Prop49
280
     0
102
RTVSPost2010PropOp49
 70
     0
102
RTVSPost2010Prop50
 90
       50
102
RTVSPost2010PropOp50
 70
     0
102
RTVSPost2010Prop51ColorIndex
 90
      256
102
RTVSPost2010Prop51ColorRGB
 90
-16777216
102
RTVSPost2010PropOp51
 70
     0
102
RTVSPost2010Prop52
140
1.0
102
RTVSPost2010PropOp52
 70
     0
102
RTVSPost2010Prop53
 90
        2
102
RTVSPost2010PropOp53
 70
     0
102
RTVSPost2010Prop54
  1
strokes_ogs.tif
102
RTVSPost2010PropOp54
 70
     0
102
RTVSPost2010Prop55
280
     0
102
RTVSPost2010PropOp55
 70
     0
102
RTVSPost2010Prop56
140
1.0
102
RTVSPost2010PropOp56
 70
     0
102
RTVSPost2010Prop57
140
1.0
102
RTVSPost2010PropOp57
 70
     0
  0
XRECORD
  5
2D2
102
{ACAD_REACTORS
330
2D1
102
}
330
2D1
100
AcDbXrecord
280
     1
102
RTVSPost2010Prop28
280
     0
102
RTVSPost2010PropOp28
 70
     1
102
RTVSPost2010Prop29
280
     1
102
RTVSPost2010PropOp29
 70
     1
102
RTVSPost2010Prop30
280
     1
102
RTVSPost2010PropOp30
 70
     1
102
RTVSPost2010Prop31
280
     0
102
RTVSPost2010PropOp31
 70
     1
102
RTVSPost2010Prop32
280
     0
102
RTVSPost2010PropOp32
 70
     1
102
RTVSPost2010Prop33
280
     0
102
RTVSPost2010PropOp33
 70
     1
102
RTVSPost2010Prop34
280
     0
102
RTVSPost2010PropOp34
 70
     1
102
RTVSPost2010Prop35
280
     0
102
RTVSPost2010PropOp35
 70
     1
102
RTVSPost2010Prop36
280
     0
102
RTVSPost2010PropOp36
 70
     1
102
RTVSPost2010Prop37
 90
       50
102
RTVSPost2010PropOp37
 70
     1
102
RTVSPost2010Prop38
140
0.0
102
RTVSPost2010PropOp38
 70
     1
102
RTVSPost2010Prop39
140
1.0
102
RTVSPost2010PropOp39
 70
     1
102
RTVSPost2010Prop40
 90
        0
102
RTVSPost2010PropOp40
 70
     1
102
RTVSPost2010Prop41ColorIndex
 90
       18
102
RTVSPost2010Prop41ColorRGB
 90
        0
102
RTVSPost2010PropOp41
 70
     1
102
RTVSPost2010Prop42
 90
       50
102
RTVSPost2010PropOp42
 70
     1
102
RTVSPost2010Prop43
 90
        3
102
RTVSPost2010PropOp43
 70
     1
102
RTVSPost2010Prop44ColorIndex
 90
        5
102
RTVSPost2010Prop44ColorRGB
 90
      255
102
RTVSPost2010PropOp44
 70
     1
102
RTVSPost2010Prop45
280
     0
102
RTVSPost2010PropOp45
 70
     1
102
RTVSPost2010Prop46
 90
       50
102
RTVSPost2010PropOp46
 70
     1
102
RTVSPost2010Prop47
 90
       50
102
RTVSPost2010PropOp47
 70
     1
102
RTVSPost2010Prop48
 90
       50
102
RTVSPost2010PropOp48
 70
     1
102
RTVSPost2010Prop49
280
     0
102
RTVSPost2010PropOp49
 70
     1
102
RTVSPost2010Prop50
 90
       50
102
RTVSPost2010PropOp50
 70
     1
102
RTVSPost2010Prop51ColorIndex
 90
      256
102
RTVSPost2010Prop51ColorRGB
 90
-16777216
102
RTVSPost2010PropOp51
 70
     0
102
RTVSPost2010Prop52
140
1.0
102
RTVSPost2010PropOp52
 70
     0
102
RTVSPost2010Prop53
 90
        2
102
RTVSPost2010PropOp53
 70
     1
102
RTVSPost2010Prop54
  1
strokes_ogs.tif
102
RTVSPost2010PropOp54
 70
     1
102
RTVSPost2010Prop55
280
     0
102
RTVSPost2010PropOp55
 70
     1
102
RTVSPost2010Prop56
140
1.0
102
RTVSPost2010PropOp56
 70
     1
102
RTVSPost2010Prop57
140
1.0
102
RTVSPost2010PropOp57
 70
     1
  0
XRECORD
  5
2F0
102
{ACAD_REACTORS
330
2EF
102
}
330
2EF
100
AcDbXrecord
280
     1
102
RTVSPost2010Prop28
280
     0
102
RTVSPost2010PropOp28
 70
     1
102
RTVSPost2010Prop29
280
     1
102
RTVSPost2010PropOp29
 70
     1
102
RTVSPost2010Prop30
280
     1
102
RTVSPost2010PropOp30
 70
     1
102
RTVSPost2010Prop31
280
     0
102
RTVSPost2010PropOp31
 70
     1
102
RTVSPost2010Prop32
280
     0
102
RTVSPost2010PropOp32
 70
     1
102
RTVSPost2010Prop33
280
     0
102
RTVSPost2010PropOp33
 70
     1
102
RTVSPost2010Prop34
280
     0
102
RTVSPost2010PropOp34
 70
     1
102
RTVSPost2010Prop35
280
     0
102
RTVSPost2010PropOp35
 70
     1
102
RTVSPost2010Prop36
280
     0
102
RTVSPost2010PropOp36
 70
     1
102
RTVSPost2010Prop37
 90
       50
102
RTVSPost2010PropOp37
 70
     1
102
RTVSPost2010Prop38
140
0.0
102
RTVSPost2010PropOp38
 70
     1
102
RTVSPost2010Prop39
140
1.0
102
RTVSPost2010PropOp39
 70
     1
102
RTVSPost2010Prop40
 90
        0
102
RTVSPost2010PropOp40
 70
     1
102
RTVSPost2010Prop41ColorIndex
 90
       18
102
RTVSPost2010Prop41ColorRGB
 90
        0
102
RTVSPost2010PropOp41
 70
     1
102
RTVSPost2010Prop42
 90
       50
102
RTVSPost2010PropOp42
 70
     1
102
RTVSPost2010Prop43
 90
        3
102
RTVSPost2010PropOp43
 70
     1
102
RTVSPost2010Prop44ColorIndex
 90
        5
102
RTVSPost2010Prop44ColorRGB
 90
      255
102
RTVSPost2010PropOp44
 70
     1
102
RTVSPost2010Prop45
280
     0
102
RTVSPost2010PropOp45
 70
     1
102
RTVSPost2010Prop46
 90
       50
102
RTVSPost2010PropOp46
 70
     1
102
RTVSPost2010Prop47
 90
       50
102
RTVSPost2010PropOp47
 70
     1
102
RTVSPost2010Prop48
 90
       50
102
RTVSPost2010PropOp48
 70
     1
102
RTVSPost2010Prop49
280
     0
102
RTVSPost2010PropOp49
 70
     1
102
RTVSPost2010Prop50
 90
       50
102
RTVSPost2010PropOp50
 70
     1
102
RTVSPost2010Prop51ColorIndex
 90
      256
102
RTVSPost2010Prop51ColorRGB
 90
-16777216
102
RTVSPost2010PropOp51
 70
     0
102
RTVSPost2010Prop52
140
1.0
102
RTVSPost2010PropOp52
 70
     0
102
RTVSPost2010Prop53
 90
        2
102
RTVSPost2010PropOp53
 70
     1
102
RTVSPost2010Prop54
  1
strokes_ogs.tif
102
RTVSPost2010PropOp54
 70
     1
102
RTVSPost2010Prop55
280
     0
102
RTVSPost2010PropOp55
 70
     1
102
RTVSPost2010Prop56
140
1.0
102
RTVSPost2010PropOp56
 70
     1
102
RTVSPost2010Prop57
140
1.0
102
RTVSPost2010PropOp57
 70
     1
  0
XRECORD
  5
2EE
102
{ACAD_REACTORS
330
2ED
102
}
330
2ED
100
AcDbXrecord
280
     1
102
RTVSPost2010Prop28
280
     0
102
RTVSPost2010PropOp28
 70
     1
102
RTVSPost2010Prop29
280
     1
102
RTVSPost2010PropOp29
 70
     1
102
RTVSPost2010Prop30
280
     1
102
RTVSPost2010PropOp30
 70
     1
102
RTVSPost2010Prop31
280
     0
102
RTVSPost2010PropOp31
 70
     1
102
RTVSPost2010Prop32
280
     0
102
RTVSPost2010PropOp32
 70
     1
102
RTVSPost2010Prop33
280
     0
102
RTVSPost2010PropOp33
 70
     1
102
RTVSPost2010Prop34
280
     0
102
RTVSPost2010PropOp34
 70
     1
102
RTVSPost2010Prop35
280
     0
102
RTVSPost2010PropOp35
 70
     1
102
RTVSPost2010Prop36
280
     0
102
RTVSPost2010PropOp36
 70
     1
102
RTVSPost2010Prop37
 90
       50
102
RTVSPost2010PropOp37
 70
     1
102
RTVSPost2010Prop38
140
0.0
102
RTVSPost2010PropOp38
 70
     1
102
RTVSPost2010Prop39
140
1.0
102
RTVSPost2010PropOp39
 70
     1
102
RTVSPost2010Prop40
 90
        0
102
RTVSPost2010PropOp40
 70
     1
102
RTVSPost2010Prop41ColorIndex
 90
       18
102
RTVSPost2010Prop41ColorRGB
 90
        0
102
RTVSPost2010PropOp41
 70
     1
102
RTVSPost2010Prop42
 90
       50
102
RTVSPost2010PropOp42
 70
     1
102
RTVSPost2010Prop43
 90
        3
102
RTVSPost2010PropOp43
 70
     1
102
RTVSPost2010Prop44ColorIndex
 90
        5
102
RTVSPost2010Prop44ColorRGB
 90
      255
102
RTVSPost2010PropOp44
 70
     1
102
RTVSPost2010Prop45
280
     0
102
RTVSPost2010PropOp45
 70
     1
102
RTVSPost2010Prop46
 90
       50
102
RTVSPost2010PropOp46
 70
     1
102
RTVSPost2010Prop47
 90
       50
102
RTVSPost2010PropOp47
 70
     1
102
RTVSPost2010Prop48
 90
       50
102
RTVSPost2010PropOp48
 70
     1
102
RTVSPost2010Prop49
280
     0
102
RTVSPost2010PropOp49
 70
     1
102
RTVSPost2010Prop50
 90
       50
102
RTVSPost2010PropOp50
 70
     1
102
RTVSPost2010Prop51ColorIndex
 90
      256
102
RTVSPost2010Prop51ColorRGB
 90
-16777216
102
RTVSPost2010PropOp51
 70
     0
102
RTVSPost2010Prop52
140
1.0
102
RTVSPost2010PropOp52
 70
     0
102
RTVSPost2010Prop53
 90
        2
102
RTVSPost2010PropOp53
 70
     1
102
RTVSPost2010Prop54
  1
strokes_ogs.tif
102
RTVSPost2010PropOp54
 70
     1
102
RTVSPost2010Prop55
280
     0
102
RTVSPost2010PropOp55
 70
     1
102
RTVSPost2010Prop56
140
1.0
102
RTVSPost2010PropOp56
 70
     1
102
RTVSPost2010Prop57
140
1.0
102
RTVSPost2010PropOp57
 70
     1
  0
XRECORD
  5
2E8
102
{ACAD_REACTORS
330
2E7
102
}
330
2E7
100
AcDbXrecord
280
     1
102
RTVSPost2010Prop28
280
     0
102
RTVSPost2010PropOp28
 70
     1
102
RTVSPost2010Prop29
280
     1
102
RTVSPost2010PropOp29
 70
     1
102
RTVSPost2010Prop30
280
     1
102
RTVSPost2010PropOp30
 70
     1
102
RTVSPost2010Prop31
280
     0
102
RTVSPost2010PropOp31
 70
     1
102
RTVSPost2010Prop32
280
     0
102
RTVSPost2010PropOp32
 70
     1
102
RTVSPost2010Prop33
280
     0
102
RTVSPost2010PropOp33
 70
     1
102
RTVSPost2010Prop34
280
     0
102
RTVSPost2010PropOp34
 70
     1
102
RTVSPost2010Prop35
280
     0
102
RTVSPost2010PropOp35
 70
     1
102
RTVSPost2010Prop36
280
     0
102
RTVSPost2010PropOp36
 70
     1
102
RTVSPost2010Prop37
 90
       50
102
RTVSPost2010PropOp37
 70
     1
102
RTVSPost2010Prop38
140
0.0
102
RTVSPost2010PropOp38
 70
     1
102
RTVSPost2010Prop39
140
1.0
102
RTVSPost2010PropOp39
 70
     1
102
RTVSPost2010Prop40
 90
        0
102
RTVSPost2010PropOp40
 70
     1
102
RTVSPost2010Prop41ColorIndex
 90
       18
102
RTVSPost2010Prop41ColorRGB
 90
        0
102
RTVSPost2010PropOp41
 70
     1
102
RTVSPost2010Prop42
 90
       50
102
RTVSPost2010PropOp42
 70
     1
102
RTVSPost2010Prop43
 90
        3
102
RTVSPost2010PropOp43
 70
     1
102
RTVSPost2010Prop44ColorIndex
 90
        5
102
RTVSPost2010Prop44ColorRGB
 90
      255
102
RTVSPost2010PropOp44
 70
     1
102
RTVSPost2010Prop45
280
     0
102
RTVSPost2010PropOp45
 70
     1
102
RTVSPost2010Prop46
 90
       50
102
RTVSPost2010PropOp46
 70
     1
102
RTVSPost2010Prop47
 90
       50
102
RTVSPost2010PropOp47
 70
     1
102
RTVSPost2010Prop48
 90
       50
102
RTVSPost2010PropOp48
 70
     1
102
RTVSPost2010Prop49
280
     0
102
RTVSPost2010PropOp49
 70
     1
102
RTVSPost2010Prop50
 90
       50
102
RTVSPost2010PropOp50
 70
     1
102
RTVSPost2010Prop51ColorIndex
 90
      256
102
RTVSPost2010Prop51ColorRGB
 90
-16777216
102
RTVSPost2010PropOp51
 70
     0
102
RTVSPost2010Prop52
140
1.0
102
RTVSPost2010PropOp52
 70
     0
102
RTVSPost2010Prop53
 90
        2
102
RTVSPost2010PropOp53
 70
     1
102
RTVSPost2010Prop54
  1
strokes_ogs.tif
102
RTVSPost2010PropOp54
 70
     1
102
RTVSPost2010Prop55
280
     0
102
RTVSPost2010PropOp55
 70
     1
102
RTVSPost2010Prop56
140
1.0
102
RTVSPost2010PropOp56
 70
     1
102
RTVSPost2010Prop57
140
1.0
102
RTVSPost2010PropOp57
 70
     1
  0
XRECORD
  5
2EA
102
{ACAD_REACTORS
330
2E9
102
}
330
2E9
100
AcDbXrecord
280
     1
102
RTVSPost2010Prop28
280
     0
102
RTVSPost2010PropOp28
 70
     1
102
RTVSPost2010Prop29
280
     1
102
RTVSPost2010PropOp29
 70
     1
102
RTVSPost2010Prop30
280
     1
102
RTVSPost2010PropOp30
 70
     1
102
RTVSPost2010Prop31
280
     0
102
RTVSPost2010PropOp31
 70
     1
102
RTVSPost2010Prop32
280
     0
102
RTVSPost2010PropOp32
 70
     1
102
RTVSPost2010Prop33
280
     0
102
RTVSPost2010PropOp33
 70
     1
102
RTVSPost2010Prop34
280
     0
102
RTVSPost2010PropOp34
 70
     1
102
RTVSPost2010Prop35
280
     0
102
RTVSPost2010PropOp35
 70
     1
102
RTVSPost2010Prop36
280
     0
102
RTVSPost2010PropOp36
 70
     1
102
RTVSPost2010Prop37
 90
       50
102
RTVSPost2010PropOp37
 70
     1
102
RTVSPost2010Prop38
140
0.0
102
RTVSPost2010PropOp38
 70
     1
102
RTVSPost2010Prop39
140
1.0
102
RTVSPost2010PropOp39
 70
     1
102
RTVSPost2010Prop40
 90
        0
102
RTVSPost2010PropOp40
 70
     1
102
RTVSPost2010Prop41ColorIndex
 90
       18
102
RTVSPost2010Prop41ColorRGB
 90
        0
102
RTVSPost2010PropOp41
 70
     1
102
RTVSPost2010Prop42
 90
       50
102
RTVSPost2010PropOp42
 70
     1
102
RTVSPost2010Prop43
 90
        3
102
RTVSPost2010PropOp43
 70
     1
102
RTVSPost2010Prop44ColorIndex
 90
        5
102
RTVSPost2010Prop44ColorRGB
 90
      255
102
RTVSPost2010PropOp44
 70
     1
102
RTVSPost2010Prop45
280
     0
102
RTVSPost2010PropOp45
 70
     1
102
RTVSPost2010Prop46
 90
       50
102
RTVSPost2010PropOp46
 70
     1
102
RTVSPost2010Prop47
 90
       50
102
RTVSPost2010PropOp47
 70
     1
102
RTVSPost2010Prop48
 90
       50
102
RTVSPost2010PropOp48
 70
     1
102
RTVSPost2010Prop49
280
     0
102
RTVSPost2010PropOp49
 70
     1
102
RTVSPost2010Prop50
 90
       50
102
RTVSPost2010PropOp50
 70
     1
102
RTVSPost2010Prop51ColorIndex
 90
      256
102
RTVSPost2010Prop51ColorRGB
 90
-16777216
102
RTVSPost2010PropOp51
 70
     0
102
RTVSPost2010Prop52
140
1.0
102
RTVSPost2010PropOp52
 70
     0
102
RTVSPost2010Prop53
 90
        2
102
RTVSPost2010PropOp53
 70
     1
102
RTVSPost2010Prop54
  1
strokes_ogs.tif
102
RTVSPost2010PropOp54
 70
     1
102
RTVSPost2010Prop55
280
     0
102
RTVSPost2010PropOp55
 70
     1
102
RTVSPost2010Prop56
140
1.0
102
RTVSPost2010PropOp56
 70
     1
102
RTVSPost2010Prop57
140
1.0
102
RTVSPost2010PropOp57
 70
     1
  0
XRECORD
  5
2DA
102
{ACAD_REACTORS
330
2D9
102
}
330
2D9
100
AcDbXrecord
280
     1
102
RTVSPost2010Prop28
280
     0
102
RTVSPost2010PropOp28
 70
     1
102
RTVSPost2010Prop29
280
     1
102
RTVSPost2010PropOp29
 70
     1
102
RTVSPost2010Prop30
280
     1
102
RTVSPost2010PropOp30
 70
     1
102
RTVSPost2010Prop31
280
     0
102
RTVSPost2010PropOp31
 70
     1
102
RTVSPost2010Prop32
280
     0
102
RTVSPost2010PropOp32
 70
     1
102
RTVSPost2010Prop33
280
     0
102
RTVSPost2010PropOp33
 70
     1
102
RTVSPost2010Prop34
280
     0
102
RTVSPost2010PropOp34
 70
     1
102
RTVSPost2010Prop35
280
     0
102
RTVSPost2010PropOp35
 70
     1
102
RTVSPost2010Prop36
280
     0
102
RTVSPost2010PropOp36
 70
     1
102
RTVSPost2010Prop37
 90
       50
102
RTVSPost2010PropOp37
 70
     1
102
RTVSPost2010Prop38
140
0.0
102
RTVSPost2010PropOp38
 70
     1
102
RTVSPost2010Prop39
140
1.0
102
RTVSPost2010PropOp39
 70
     1
102
RTVSPost2010Prop40
 90
        0
102
RTVSPost2010PropOp40
 70
     1
102
RTVSPost2010Prop41ColorIndex
 90
       18
102
RTVSPost2010Prop41ColorRGB
 90
        0
102
RTVSPost2010PropOp41
 70
     1
102
RTVSPost2010Prop42
 90
       50
102
RTVSPost2010PropOp42
 70
     1
102
RTVSPost2010Prop43
 90
        3
102
RTVSPost2010PropOp43
 70
     1
102
RTVSPost2010Prop44ColorIndex
 90
        5
102
RTVSPost2010Prop44ColorRGB
 90
      255
102
RTVSPost2010PropOp44
 70
     1
102
RTVSPost2010Prop45
280
     0
102
RTVSPost2010PropOp45
 70
     1
102
RTVSPost2010Prop46
 90
       50
102
RTVSPost2010PropOp46
 70
     1
102
RTVSPost2010Prop47
 90
       50
102
RTVSPost2010PropOp47
 70
     1
102
RTVSPost2010Prop48
 90
       50
102
RTVSPost2010PropOp48
 70
     1
102
RTVSPost2010Prop49
280
     0
102
RTVSPost2010PropOp49
 70
     1
102
RTVSPost2010Prop50
 90
       50
102
RTVSPost2010PropOp50
 70
     1
102
RTVSPost2010Prop51ColorIndex
 90
      256
102
RTVSPost2010Prop51ColorRGB
 90
-16777216
102
RTVSPost2010PropOp51
 70
     0
102
RTVSPost2010Prop52
140
1.0
102
RTVSPost2010PropOp52
 70
     0
102
RTVSPost2010Prop53
 90
        2
102
RTVSPost2010PropOp53
 70
     1
102
RTVSPost2010Prop54
  1
strokes_ogs.tif
102
RTVSPost2010PropOp54
 70
     1
102
RTVSPost2010Prop55
280
     0
102
RTVSPost2010PropOp55
 70
     1
102
RTVSPost2010Prop56
140
1.0
102
RTVSPost2010PropOp56
 70
     1
102
RTVSPost2010Prop57
140
1.0
102
RTVSPost2010PropOp57
 70
     1
  0
XRECORD
  5
2CC
102
{ACAD_REACTORS
330
2CB
102
}
330
2CB
100
AcDbXrecord
280
     1
102
RTVSPost2010Prop28
280
     0
102
RTVSPost2010PropOp28
 70
     1
102
RTVSPost2010Prop29
280
     1
102
RTVSPost2010PropOp29
 70
     1
102
RTVSPost2010Prop30
280
     1
102
RTVSPost2010PropOp30
 70
     1
102
RTVSPost2010Prop31
280
     0
102
RTVSPost2010PropOp31
 70
     1
102
RTVSPost2010Prop32
280
     0
102
RTVSPost2010PropOp32
 70
     1
102
RTVSPost2010Prop33
280
     0
102
RTVSPost2010PropOp33
 70
     1
102
RTVSPost2010Prop34
280
     0
102
RTVSPost2010PropOp34
 70
     1
102
RTVSPost2010Prop35
280
     0
102
RTVSPost2010PropOp35
 70
     1
102
RTVSPost2010Prop36
280
     0
102
RTVSPost2010PropOp36
 70
     1
102
RTVSPost2010Prop37
 90
       50
102
RTVSPost2010PropOp37
 70
     1
102
RTVSPost2010Prop38
140
0.0
102
RTVSPost2010PropOp38
 70
     1
102
RTVSPost2010Prop39
140
1.0
102
RTVSPost2010PropOp39
 70
     1
102
RTVSPost2010Prop40
 90
        0
102
RTVSPost2010PropOp40
 70
     1
102
RTVSPost2010Prop41ColorIndex
 90
       18
102
RTVSPost2010Prop41ColorRGB
 90
        0
102
RTVSPost2010PropOp41
 70
     1
102
RTVSPost2010Prop42
 90
       50
102
RTVSPost2010PropOp42
 70
     1
102
RTVSPost2010Prop43
 90
        3
102
RTVSPost2010PropOp43
 70
     1
102
RTVSPost2010Prop44ColorIndex
 90
        5
102
RTVSPost2010Prop44ColorRGB
 90
      255
102
RTVSPost2010PropOp44
 70
     1
102
RTVSPost2010Prop45
280
     0
102
RTVSPost2010PropOp45
 70
     1
102
RTVSPost2010Prop46
 90
       50
102
RTVSPost2010PropOp46
 70
     1
102
RTVSPost2010Prop47
 90
       50
102
RTVSPost2010PropOp47
 70
     1
102
RTVSPost2010Prop48
 90
       50
102
RTVSPost2010PropOp48
 70
     1
102
RTVSPost2010Prop49
280
     0
102
RTVSPost2010PropOp49
 70
     1
102
RTVSPost2010Prop50
 90
       50
102
RTVSPost2010PropOp50
 70
     1
102
RTVSPost2010Prop51ColorIndex
 90
      256
102
RTVSPost2010Prop51ColorRGB
 90
-16777216
102
RTVSPost2010PropOp51
 70
     0
102
RTVSPost2010Prop52
140
1.0
102
RTVSPost2010PropOp52
 70
     0
102
RTVSPost2010Prop53
 90
        2
102
RTVSPost2010PropOp53
 70
     1
102
RTVSPost2010Prop54
  1
strokes_ogs.tif
102
RTVSPost2010PropOp54
 70
     1
102
RTVSPost2010Prop55
280
     0
102
RTVSPost2010PropOp55
 70
     1
102
RTVSPost2010Prop56
140
1.0
102
RTVSPost2010PropOp56
 70
     1
102
RTVSPost2010Prop57
140
1.0
102
RTVSPost2010PropOp57
 70
     1
  0
XRECORD
  5
2EC
102
{ACAD_REACTORS
330
2EB
102
}
330
2EB
100
AcDbXrecord
280
     1
102
RTVSPost2010Prop28
280
     0
102
RTVSPost2010PropOp28
 70
     1
102
RTVSPost2010Prop29
280
     1
102
RTVSPost2010PropOp29
 70
     1
102
RTVSPost2010Prop30
280
     1
102
RTVSPost2010PropOp30
 70
     1
102
RTVSPost2010Prop31
280
     0
102
RTVSPost2010PropOp31
 70
     1
102
RTVSPost2010Prop32
280
     0
102
RTVSPost2010PropOp32
 70
     1
102
RTVSPost2010Prop33
280
     0
102
RTVSPost2010PropOp33
 70
     1
102
RTVSPost2010Prop34
280
     0
102
RTVSPost2010PropOp34
 70
     1
102
RTVSPost2010Prop35
280
     0
102
RTVSPost2010PropOp35
 70
     1
102
RTVSPost2010Prop36
280
     0
102
RTVSPost2010PropOp36
 70
     1
102
RTVSPost2010Prop37
 90
       50
102
RTVSPost2010PropOp37
 70
     1
102
RTVSPost2010Prop38
140
0.0
102
RTVSPost2010PropOp38
 70
     1
102
RTVSPost2010Prop39
140
1.0
102
RTVSPost2010PropOp39
 70
     1
102
RTVSPost2010Prop40
 90
        0
102
RTVSPost2010PropOp40
 70
     1
102
RTVSPost2010Prop41ColorIndex
 90
       18
102
RTVSPost2010Prop41ColorRGB
 90
        0
102
RTVSPost2010PropOp41
 70
     1
102
RTVSPost2010Prop42
 90
       50
102
RTVSPost2010PropOp42
 70
     1
102
RTVSPost2010Prop43
 90
        3
102
RTVSPost2010PropOp43
 70
     1
102
RTVSPost2010Prop44ColorIndex
 90
        5
102
RTVSPost2010Prop44ColorRGB
 90
      255
102
RTVSPost2010PropOp44
 70
     1
102
RTVSPost2010Prop45
280
     0
102
RTVSPost2010PropOp45
 70
     1
102
RTVSPost2010Prop46
 90
       50
102
RTVSPost2010PropOp46
 70
     1
102
RTVSPost2010Prop47
 90
       50
102
RTVSPost2010PropOp47
 70
     1
102
RTVSPost2010Prop48
 90
       50
102
RTVSPost2010PropOp48
 70
     1
102
RTVSPost2010Prop49
280
     0
102
RTVSPost2010PropOp49
 70
     1
102
RTVSPost2010Prop50
 90
       50
102
RTVSPost2010PropOp50
 70
     1
102
RTVSPost2010Prop51ColorIndex
 90
      256
102
RTVSPost2010Prop51ColorRGB
 90
-16777216
102
RTVSPost2010PropOp51
 70
     0
102
RTVSPost2010Prop52
140
1.0
102
RTVSPost2010PropOp52
 70
     0
102
RTVSPost2010Prop53
 90
        2
102
RTVSPost2010PropOp53
 70
     1
102
RTVSPost2010Prop54
  1
strokes_ogs.tif
102
RTVSPost2010PropOp54
 70
     1
102
RTVSPost2010Prop55
280
     0
102
RTVSPost2010PropOp55
 70
     1
102
RTVSPost2010Prop56
140
1.0
102
RTVSPost2010PropOp56
 70
     1
102
RTVSPost2010Prop57
140
1.0
102
RTVSPost2010PropOp57
 70
     1
  0
ENDSEC
  0
EOF
